<svg width="27" height="27" viewBox="0 0 27 27" fill="none" xmlns="http://www.w3.org/2000/svg">
<path d="M10.2599 6.75001C10.7072 6.75001 11.0699 6.38735 11.0699 5.94C11.0699 5.49266 10.7072 5.13 10.2599 5.13V6.75001ZM5.12988 12.42C5.12988 12.8673 5.49254 13.23 5.93988 13.23C6.38723 13.23 6.74988 12.8673 6.74988 12.42H5.12988ZM10.2599 5.13C9.81254 5.13 9.44988 5.49266 9.44988 5.94C9.44988 6.38735 9.81254 6.75001 10.2599 6.75001V5.13ZM20.2499 12.42C20.2499 12.8673 20.6125 13.23 21.0599 13.23C21.5072 13.23 21.8699 12.8673 21.8699 12.42H20.2499ZM11.0699 5.94C11.0699 5.49266 10.7072 5.13 10.2599 5.13C9.81254 5.13 9.44988 5.49266 9.44988 5.94H11.0699ZM9.44988 12.42C9.44988 12.8673 9.81254 13.23 10.2599 13.23C10.7072 13.23 11.0699 12.8673 11.0699 12.42H9.44988ZM10.2599 13.23C10.7072 13.23 11.0699 12.8673 11.0699 12.42C11.0699 11.9727 10.7072 11.61 10.2599 11.61V13.23ZM5.93988 11.61C5.49254 11.61 5.12988 11.9727 5.12988 12.42C5.12988 12.8673 5.49254 13.23 5.93988 13.23V11.61ZM10.2599 11.61C9.81254 11.61 9.44988 11.9727 9.44988 12.42C9.44988 12.8673 9.81254 13.23 10.2599 13.23V11.61ZM21.0599 13.23C21.5072 13.23 21.8699 12.8673 21.8699 12.42C21.8699 11.9727 21.5072 11.61 21.0599 11.61V13.23ZM6.74988 12.42C6.74988 11.9727 6.38723 11.61 5.93988 11.61C5.49254 11.61 5.12988 11.9727 5.12988 12.42H6.74988ZM21.8699 12.42C21.8699 11.9727 21.5072 11.61 21.0599 11.61C20.6125 11.61 20.2499 11.9727 20.2499 12.42H21.8699ZM10.2599 5.13C7.42667 5.13 5.12988 7.42679 5.12988 10.26H6.74988C6.74988 8.32148 8.32136 6.75001 10.2599 6.75001V5.13ZM5.12988 10.26V12.42H6.74988V10.26H5.12988ZM10.2599 6.75001H16.7399V5.13H10.2599V6.75001ZM16.7399 6.75001C18.6784 6.75001 20.2499 8.32148 20.2499 10.26H21.8699C21.8699 7.42679 19.5732 5.13 16.7399 5.13V6.75001ZM20.2499 10.26V12.42H21.8699V10.26H20.2499ZM9.44988 5.94V12.42H11.0699V5.94H9.44988ZM10.2599 11.61H5.93988V13.23H10.2599V11.61ZM10.2599 13.23H21.0599V11.61H10.2599V13.23ZM5.12988 12.42V16.74H6.74988V12.42H5.12988ZM5.12988 16.74C5.12988 19.5733 7.42667 21.87 10.2599 21.87V20.25C8.32136 20.25 6.74988 18.6785 6.74988 16.74H5.12988ZM10.2599 21.87H16.7399V20.25H10.2599V21.87ZM16.7399 21.87C19.5732 21.87 21.8699 19.5733 21.8699 16.74H20.2499C20.2499 18.6785 18.6784 20.25 16.7399 20.25V21.87ZM21.8699 16.74V12.42H20.2499V16.74H21.8699Z" fill="#0F7275"/>
</svg>
