<svg width="26" height="25" viewBox="0 0 26 25" fill="none" xmlns="http://www.w3.org/2000/svg">
<path d="M12.9473 8.26368C12.9473 8.26368 11.5383 7.87579 11.4151 7.24738C11.2919 6.61896 11.6645 5.48348 11.6645 5.1541C11.6645 4.82473 11.3731 4.01862 11.7876 3.18218C12.2022 2.34574 13.3198 1.47896 13.3198 1.47896L14.0258 1.00006C14.0258 1.00006 15.6 1.47896 15.6841 1.86684C15.7682 2.25472 15.6 2.34574 15.6841 2.61444C15.7682 2.88314 16.4712 2.91348 16.4712 3.51155C16.4712 4.10963 16.5944 4.58853 16.8437 4.94608C17.0931 5.30579 17.2583 6.14223 16.8437 6.74031C16.4291 7.33839 15.4768 7.84545 14.8549 8.08598C14.233 8.32435 14.4824 8.35469 12.9473 8.26584V8.26368Z" stroke="#0F7275" stroke-width="1.07393" stroke-miterlimit="10" stroke-linecap="round"/>
<path d="M13.5965 8.31134C13.5965 8.31134 13.3531 17.4645 12.7132 20.5394C12.0733 23.6165 11.0068 24.0001 11.0068 24.0001" stroke="#0F7275" stroke-width="1.07393" stroke-miterlimit="10" stroke-linecap="round"/>
<path d="M13.5963 8.97878C13.5963 8.97878 12.1963 8.22901 11.5865 8.09683C10.9766 7.96465 10.547 7.85413 10.3938 7.76529C10.2406 7.67644 9.59767 7.65477 8.98781 7.65477C8.37796 7.65477 8.16166 7.41207 7.48872 7.41207C6.81577 7.41207 5.98962 7.43374 5.68319 7.41207C5.37676 7.3904 4.98021 7.45541 4.30726 7.61143C3.63432 7.76745 3.69441 7.78695 3.72746 8.07516C3.7605 8.36336 4.58365 9.02428 4.83 9.26698C5.07634 9.50968 5.31968 9.6202 5.74628 9.75238C6.17287 9.88456 6.20592 10.0384 6.54239 10.4588C6.87886 10.8792 6.87886 11.2757 7.79514 11.5618C8.71143 11.8478 10.9135 11.7828 11.956 11.7373C12.9984 11.6918 13.4851 11.4534 13.4851 11.4534C13.4851 11.4534 14.5246 10.877 15.4108 11.1414C16.297 11.4058 16.97 11.2736 18.1026 11.2302C19.2351 11.1869 19.845 10.5693 20.6712 10.435C21.4973 10.3006 22.3535 10.0731 22.3836 9.59202C22.4136 9.11096 22.72 8.75775 23.1797 8.51505C23.6393 8.27235 23.8226 7.51392 23.7595 7.40774C23.6994 7.30156 23.4531 7.12604 22.72 7.08053C21.987 7.03502 21.6505 6.81616 21.0978 6.81616C20.545 6.81616 19.9051 6.88334 18.5592 7.16938C17.2133 7.45541 17.1592 7.38174 16.1438 7.67644C15.1284 7.97115 14.5306 8.80109 14.0649 8.88993L13.5993 8.97878H13.5963Z" stroke="#0F7275" stroke-width="1.07393" stroke-miterlimit="10" stroke-linecap="round"/>
<path d="M13.4222 13.4123C13.4222 13.4123 14.2123 12.6842 14.702 12.4849C15.1917 12.2855 16.3243 11.8694 17.2105 11.5487C18.0967 11.228 19.2293 11.3602 19.719 11.3385C20.2087 11.3169 20.9718 11.1847 21.3082 11.163C21.6447 11.1413 22.3777 10.9637 22.7473 11.163C23.1138 11.3624 22.534 12.4654 22.1344 12.8402C21.7378 13.2151 22.1945 12.6409 21.0318 13.8782C19.8692 15.1134 20.9087 15.4449 18.7997 15.7526C16.6878 16.0625 16.9041 16.121 15.5282 16.1578C14.1522 16.1947 13.245 15.7071 13.245 15.7071C12.1544 16.0798 11.8901 15.8653 11.0038 15.8653C10.1176 15.8653 9.13521 15.8653 7.99061 15.7114C6.846 15.5576 5.49712 14.8512 5.49712 14.8512C4.76409 14.4091 4.09115 14.3224 3.47829 13.7265C2.86544 13.1306 2.56201 12.7557 2.56201 12.2703C2.56201 11.7849 3.20491 11.6311 4.24436 11.5639C5.28382 11.4967 6.23315 11.7849 6.72283 11.7806C7.21252 11.7763 8.31206 11.8283 8.86483 11.7806C9.4146 11.7329 10.2107 11.9843 11.1901 12.1165C12.1695 12.2487 13.4252 12.6886 13.4252 12.6886" stroke="#0F7275" stroke-width="1.07393" stroke-miterlimit="10" stroke-linecap="round"/>
<path d="M12.9054 19.3411C12.9054 19.3411 12.2866 19.6769 11.7368 19.6769C11.187 19.6769 10.0845 20.3379 9.1051 20.3379C8.12573 20.3379 7.05623 19.8308 6.47342 19.4104C5.8906 18.99 4.97432 19.1894 3.93487 18.7711C2.89541 18.3529 1.82291 17.8437 1.60961 17.6248C1.39631 17.406 1.54953 17.2716 1.60961 17.1394C1.6697 17.0073 2.12934 16.7862 2.86237 16.6757C3.59539 16.5652 4.69793 16.0798 5.461 16.0581C6.22707 16.0365 7.69312 16.0581 8.27594 16.0581C8.85875 16.0581 9.80508 16.4113 10.6913 16.6757C11.5776 16.9401 13.0767 17.7375 13.0767 17.7375C13.0767 17.7375 13.9599 17.6032 14.2363 17.536C14.5127 17.4688 15.0354 17.0506 15.6152 16.8967C16.195 16.7429 17.0843 16.1621 17.9104 16.1535C18.7366 16.147 18.9198 15.9043 19.9593 15.7266C20.9987 15.5489 22.642 15.1978 23.7626 15.5727C24.8832 15.9476 24.3935 16.0365 24.3935 16.4547C24.3935 16.8729 24.3004 17.315 22.6811 17.978C21.0588 18.639 20.2327 19.3454 18.7967 19.3454C17.3606 19.3454 16.6246 19.5664 15.6783 19.5664C14.732 19.5664 13.8998 19.3909 13.7346 19.3909C13.5693 19.3909 12.9024 19.3411 12.9024 19.3411H12.9054Z" stroke="#0F7275" stroke-width="1.07393" stroke-miterlimit="10" stroke-linecap="round"/>
</svg>
