<svg width="23" height="23" viewBox="0 0 23 23" fill="none" xmlns="http://www.w3.org/2000/svg">
<g clip-path="url(#clip0_140_1380)">
<path d="M23.0002 22.5947C23.0002 22.8185 22.8188 22.9999 22.595 22.9999H4.23862C4.01488 22.9999 3.8335 22.8185 3.8335 22.5947V21.4883C3.8335 21.2646 4.01488 21.0832 4.23862 21.0832H20.6784C20.9021 21.0832 21.0835 20.9018 21.0835 20.6781V8.07167C21.0835 7.84793 20.9021 7.66654 20.6784 7.66654H15.7386C15.5149 7.66654 15.3335 7.48516 15.3335 7.26142V2.32167C15.3335 2.09793 15.1521 1.91654 14.9284 1.91654H6.15529C5.93154 1.91654 5.75016 2.09793 5.75016 2.32167V8.21975C5.75016 8.44349 5.56878 8.62488 5.34503 8.62488H4.23862C4.01488 8.62488 3.8335 8.44349 3.8335 8.21975V0.405007C3.8335 0.18126 4.01488 -0.00012207 4.23862 -0.00012207H17.4657C17.5731 -0.00012207 17.6762 0.042561 17.7522 0.118537L22.8815 5.24788C22.9575 5.32386 23.0002 5.42691 23.0002 5.53435V22.5947ZM17.2502 5.34475C17.2502 5.56849 17.4315 5.74988 17.6553 5.74988H19.7221C20.083 5.74988 20.2638 5.3135 20.0086 5.05828L17.9418 2.99147C17.6865 2.73626 17.2502 2.91701 17.2502 3.27794V5.34475Z" fill="#0F7275"/>
<path d="M2.01269 18.879L0.575195 17.5374L6.13353 12.0749L9.96686 15.9082L14.0877 11.7874L15.4294 13.129L9.96686 18.5915L6.13353 14.7582L2.01269 18.879Z" fill="#0F7275"/>
<path d="M11.8838 10.5415L16.6755 15.3331L17.6338 9.58313L11.8838 10.5415Z" fill="#0F7275"/>
</g>
<defs>
<clipPath id="clip0_140_1380">
<rect width="23" height="23" fill="white"/>
</clipPath>
</defs>
</svg>
