<svg width="23" height="23" viewBox="0 0 23 23" fill="none" xmlns="http://www.w3.org/2000/svg">
<path d="M21.9559 11.0338L20.3658 10.0153L19.6392 6.29155C19.2884 4.4929 18.0329 3.23668 16.5861 3.23668H13.3942C12.9716 3.23668 12.6288 3.6758 12.6288 4.21752V4.85502H10.8493V0.980848C10.8493 0.439218 10.5066 0 10.0839 0H5.03238C4.60971 0 4.26696 0.439119 4.26696 0.980848V4.85502H2.50666C2.084 4.85502 1.74125 5.29413 1.74125 5.83586V11.3284H0.76542C0.342751 11.3284 0 11.7675 0 12.3092V18.7825C0 19.3241 0.342673 19.7633 0.76542 19.7633H1.35373C1.69974 21.6171 3.0029 23 4.55411 23C6.10532 23 7.4084 21.6172 7.75448 19.7633H13.9826C14.3286 21.6171 15.6318 23 17.183 23C18.7342 23 20.0373 21.6172 20.3834 19.7633H21.112C22.153 19.7633 23 18.678 23 17.344V13.1979C22.9998 12.2755 22.5998 11.4464 21.9559 11.0338ZM14.1596 5.19837H16.5861C17.3292 5.19837 17.974 5.8436 18.1543 6.76739L18.7284 9.71003H14.1596L14.1596 5.19837ZM12.6288 11.3284H8.32351V6.81671H12.6288V11.3284ZM5.7978 1.96179H9.31855V4.85512H5.7978V1.96179ZM3.27201 6.81671H6.79275V11.3284H3.27201V6.81671ZM4.55403 21.0383C3.58332 21.0383 2.79366 20.0264 2.79366 18.7825C2.79366 17.5386 3.58332 16.5266 4.55403 16.5266C5.52475 16.5266 6.3144 17.5386 6.3144 18.7825C6.3144 20.0264 5.52475 21.0383 4.55403 21.0383ZM4.55403 14.565C3.20061 14.565 2.03567 15.6177 1.53076 17.1175V13.2901H12.6288V17.8017H7.75433C7.40833 15.9478 6.10524 14.565 4.55403 14.565ZM17.1828 21.0383C16.2121 21.0383 15.4225 20.0264 15.4225 18.7825C15.4225 17.5386 16.2121 16.5266 17.1828 16.5266C18.1536 16.5266 18.9432 17.5386 18.9432 18.7825C18.9432 20.0264 18.1536 21.0383 17.1828 21.0383ZM21.469 17.344C21.469 17.5964 21.3088 17.8017 21.1118 17.8017H20.3831C20.0371 15.9479 18.734 14.565 17.1828 14.565C15.8293 14.565 14.6644 15.6177 14.1595 17.1175V11.6717H19.528L21.2713 12.7884C21.3931 12.8665 21.4688 13.0234 21.4688 13.1979V17.344H21.469Z" fill="#0F7275"/>
</svg>
