<svg width="24" height="23" viewBox="0 0 24 23" fill="none" xmlns="http://www.w3.org/2000/svg">
<g clip-path="url(#clip0_140_1738)">
<path d="M20.1545 20.2817C20.3855 20.2817 20.5727 20.0945 20.5727 19.8636C20.5727 19.6326 20.3855 19.4454 20.1545 19.4454C19.9236 19.4454 19.7363 19.6326 19.7363 19.8636C19.7363 20.0945 19.9236 20.2817 20.1545 20.2817Z" fill="#0F7275"/>
<path d="M19.3181 19.0273C19.549 19.0273 19.7363 18.8401 19.7363 18.6091C19.7363 18.3781 19.549 18.1909 19.3181 18.1909C19.0871 18.1909 18.8999 18.3781 18.8999 18.6091C18.8999 18.8401 19.0871 19.0273 19.3181 19.0273Z" fill="#0F7275"/>
<path d="M18.4817 17.7727C18.7126 17.7727 18.8998 17.5855 18.8998 17.3545C18.8998 17.1236 18.7126 16.9363 18.4817 16.9363C18.2507 16.9363 18.0635 17.1236 18.0635 17.3545C18.0635 17.5855 18.2507 17.7727 18.4817 17.7727Z" fill="#0F7275"/>
<path d="M20.1545 17.7727C20.3855 17.7727 20.5727 17.5855 20.5727 17.3545C20.5727 17.1236 20.3855 16.9363 20.1545 16.9363C19.9236 16.9363 19.7363 17.1236 19.7363 17.3545C19.7363 17.5855 19.9236 17.7727 20.1545 17.7727Z" fill="#0F7275"/>
<path d="M17.6452 16.5181C17.8762 16.5181 18.0634 16.3308 18.0634 16.0999C18.0634 15.8689 17.8762 15.6817 17.6452 15.6817C17.4143 15.6817 17.2271 15.8689 17.2271 16.0999C17.2271 16.3308 17.4143 16.5181 17.6452 16.5181Z" fill="#0F7275"/>
<path d="M19.3181 16.5181C19.549 16.5181 19.7363 16.3308 19.7363 16.0999C19.7363 15.8689 19.549 15.6817 19.3181 15.6817C19.0871 15.6817 18.8999 15.8689 18.8999 16.0999C18.8999 16.3308 19.0871 16.5181 19.3181 16.5181Z" fill="#0F7275"/>
<path d="M16.8093 15.2637C17.0403 15.2637 17.2275 15.0765 17.2275 14.8455C17.2275 14.6146 17.0403 14.4274 16.8093 14.4274C16.5783 14.4274 16.3911 14.6146 16.3911 14.8455C16.3911 15.0765 16.5783 15.2637 16.8093 15.2637Z" fill="#0F7275"/>
<path d="M18.4817 15.2637C18.7126 15.2637 18.8998 15.0765 18.8998 14.8455C18.8998 14.6146 18.7126 14.4274 18.4817 14.4274C18.2507 14.4274 18.0635 14.6146 18.0635 14.8455C18.0635 15.0765 18.2507 15.2637 18.4817 15.2637Z" fill="#0F7275"/>
<path d="M20.9909 21.5364C21.2219 21.5364 21.4091 21.3492 21.4091 21.1182C21.4091 20.8872 21.2219 20.7 20.9909 20.7C20.76 20.7 20.5728 20.8872 20.5728 21.1182C20.5728 21.3492 20.76 21.5364 20.9909 21.5364Z" fill="#0F7275"/>
<path d="M19.3181 21.5364C19.549 21.5364 19.7363 21.3492 19.7363 21.1182C19.7363 20.8872 19.549 20.7 19.3181 20.7C19.0871 20.7 18.8999 20.8872 18.8999 21.1182C18.8999 21.3492 19.0871 21.5364 19.3181 21.5364Z" fill="#0F7275"/>
<path d="M18.4817 20.2817C18.7126 20.2817 18.8998 20.0945 18.8998 19.8636C18.8998 19.6326 18.7126 19.4454 18.4817 19.4454C18.2507 19.4454 18.0635 19.6326 18.0635 19.8636C18.0635 20.0945 18.2507 20.2817 18.4817 20.2817Z" fill="#0F7275"/>
<path d="M17.6452 19.0273C17.8762 19.0273 18.0634 18.8401 18.0634 18.6091C18.0634 18.3781 17.8762 18.1909 17.6452 18.1909C17.4143 18.1909 17.2271 18.3781 17.2271 18.6091C17.2271 18.8401 17.4143 19.0273 17.6452 19.0273Z" fill="#0F7275"/>
<path d="M16.8093 17.7727C17.0403 17.7727 17.2275 17.5855 17.2275 17.3545C17.2275 17.1236 17.0403 16.9363 16.8093 16.9363C16.5783 16.9363 16.3911 17.1236 16.3911 17.3545C16.3911 17.5855 16.5783 17.7727 16.8093 17.7727Z" fill="#0F7275"/>
<path d="M15.9729 16.5181C16.2038 16.5181 16.3911 16.3308 16.3911 16.0999C16.3911 15.8689 16.2038 15.6817 15.9729 15.6817C15.7419 15.6817 15.5547 15.8689 15.5547 16.0999C15.5547 16.3308 15.7419 16.5181 15.9729 16.5181Z" fill="#0F7275"/>
<path d="M16.8093 20.2817C17.0403 20.2817 17.2275 20.0945 17.2275 19.8636C17.2275 19.6326 17.0403 19.4454 16.8093 19.4454C16.5783 19.4454 16.3911 19.6326 16.3911 19.8636C16.3911 20.0945 16.5783 20.2817 16.8093 20.2817Z" fill="#0F7275"/>
<path d="M15.9729 19.0273C16.2038 19.0273 16.3911 18.8401 16.3911 18.6091C16.3911 18.3781 16.2038 18.1909 15.9729 18.1909C15.7419 18.1909 15.5547 18.3781 15.5547 18.6091C15.5547 18.8401 15.7419 19.0273 15.9729 19.0273Z" fill="#0F7275"/>
<path d="M15.1364 17.7727C15.3674 17.7727 15.5546 17.5855 15.5546 17.3545C15.5546 17.1236 15.3674 16.9363 15.1364 16.9363C14.9055 16.9363 14.7183 17.1236 14.7183 17.3545C14.7183 17.5855 14.9055 17.7727 15.1364 17.7727Z" fill="#0F7275"/>
<path d="M17.6452 21.5364C17.8762 21.5364 18.0634 21.3492 18.0634 21.1182C18.0634 20.8872 17.8762 20.7 17.6452 20.7C17.4143 20.7 17.2271 20.8872 17.2271 21.1182C17.2271 21.3492 17.4143 21.5364 17.6452 21.5364Z" fill="#0F7275"/>
<path d="M15.9729 21.5364C16.2038 21.5364 16.3911 21.3492 16.3911 21.1182C16.3911 20.8872 16.2038 20.7 15.9729 20.7C15.7419 20.7 15.5547 20.8872 15.5547 21.1182C15.5547 21.3492 15.7419 21.5364 15.9729 21.5364Z" fill="#0F7275"/>
<path d="M15.1364 20.2817C15.3674 20.2817 15.5546 20.0945 15.5546 19.8636C15.5546 19.6326 15.3674 19.4454 15.1364 19.4454C14.9055 19.4454 14.7183 19.6326 14.7183 19.8636C14.7183 20.0945 14.9055 20.2817 15.1364 20.2817Z" fill="#0F7275"/>
<path d="M14.3 19.0273C14.531 19.0273 14.7182 18.8401 14.7182 18.6091C14.7182 18.3781 14.531 18.1909 14.3 18.1909C14.0691 18.1909 13.8818 18.3781 13.8818 18.6091C13.8818 18.8401 14.0691 19.0273 14.3 19.0273Z" fill="#0F7275"/>
<path d="M13.4636 20.2817C13.6945 20.2817 13.8818 20.0945 13.8818 19.8636C13.8818 19.6326 13.6945 19.4454 13.4636 19.4454C13.2326 19.4454 13.0454 19.6326 13.0454 19.8636C13.0454 20.0945 13.2326 20.2817 13.4636 20.2817Z" fill="#0F7275"/>
<path d="M14.3 21.5364C14.531 21.5364 14.7182 21.3492 14.7182 21.1182C14.7182 20.8872 14.531 20.7 14.3 20.7C14.0691 20.7 13.8818 20.8872 13.8818 21.1182C13.8818 21.3492 14.0691 21.5364 14.3 21.5364Z" fill="#0F7275"/>
<path d="M12.6272 21.5364C12.8581 21.5364 13.0453 21.3492 13.0453 21.1182C13.0453 20.8872 12.8581 20.7 12.6272 20.7C12.3962 20.7 12.209 20.8872 12.209 21.1182C12.209 21.3492 12.3962 21.5364 12.6272 21.5364Z" fill="#0F7275"/>
<path d="M22.82 19.1051C22.3956 18.5798 21.8013 17.6126 21.2272 16.6767C20.6254 15.6956 20.0563 14.7689 19.6184 14.2282C18.9368 13.3873 18.1 12.8737 17.2269 12.7738V0.627288C17.2269 0.396034 17.0395 0.209106 16.8087 0.209106H3.84796C3.84587 0.209106 3.84378 0.210361 3.84169 0.210361C3.8396 0.210361 3.83751 0.209106 3.83542 0.209106H0.918182C0.687345 0.209106 0.5 0.396034 0.5 0.627288V19.8637C0.5 20.0305 0.599527 20.1819 0.753 20.248L3.67024 21.5025C3.72335 21.5251 3.77938 21.5364 3.83542 21.5364C3.83793 21.5364 3.84044 21.5355 3.84295 21.5355C3.84504 21.5355 3.84629 21.5364 3.84838 21.5364H10.3147C10.339 21.6451 10.3716 21.7513 10.4222 21.8509C10.6409 22.2795 11.2004 22.7909 12.6223 22.7909H20.2164C21.7947 22.7909 22.9338 22.3021 23.3407 21.4498C23.6698 20.7602 23.4849 19.9276 22.82 19.1051ZM3.41724 20.483L1.33636 19.5885V1.04547H3.41724V20.483ZM4.26615 1.04547H16.3909V12.7964C16.2788 12.8156 16.168 12.842 16.058 12.8746C16.0283 12.8834 15.9991 12.8959 15.9698 12.9055C15.8849 12.9335 15.8 12.9632 15.7168 12.9992C15.675 13.0172 15.6344 13.0385 15.5934 13.0582C15.5232 13.092 15.4533 13.1267 15.3848 13.1661C15.3413 13.1907 15.2986 13.2179 15.256 13.2447C15.1907 13.2857 15.1267 13.3287 15.0632 13.3747C15.0209 13.4053 14.9787 13.4366 14.9373 13.4697C14.8742 13.5194 14.8127 13.5721 14.7516 13.6265C14.7127 13.6612 14.6734 13.6951 14.6354 13.7319C14.5701 13.7946 14.5074 13.8615 14.4447 13.9297C14.4133 13.9639 14.3811 13.9957 14.3506 14.0313C14.259 14.1375 14.1695 14.2487 14.0842 14.3671C13.7087 14.8873 13.2499 15.6756 12.759 16.5416C12.6582 16.7193 12.5566 16.8987 12.4533 17.0819C12.2643 17.4169 12.0736 17.7539 11.8871 18.0789C11.5015 18.7496 11.1331 19.3652 10.8379 19.7725C10.8324 19.78 10.8287 19.7871 10.8232 19.7947C10.7643 19.877 10.7107 19.9586 10.661 20.0393C10.6463 20.0635 10.6334 20.0878 10.6196 20.1121C10.5815 20.1781 10.546 20.2438 10.5142 20.309C10.5021 20.3337 10.4912 20.3584 10.4799 20.383C10.4506 20.4479 10.4247 20.5123 10.4017 20.5758C10.3933 20.5988 10.3846 20.6222 10.377 20.6452C10.3712 20.6632 10.3632 20.682 10.3578 20.7H4.26615V1.04547ZM12.6223 21.9546C11.8545 21.9546 11.3242 21.7781 11.1674 21.4711V21.4703C11.2878 21.3967 11.3727 21.27 11.3727 21.1182C11.3727 20.9865 11.3079 20.8736 11.2121 20.797C11.2188 20.7811 11.2226 20.7661 11.2297 20.7498C11.2347 20.7381 11.241 20.7259 11.2464 20.7138C11.2732 20.6557 11.3046 20.5959 11.3397 20.5353C11.3489 20.5194 11.3573 20.5035 11.3673 20.4876C11.4112 20.4144 11.4597 20.34 11.5145 20.2639C11.5283 20.2446 11.5433 20.2216 11.5576 20.202C11.6253 20.248 11.7027 20.2818 11.7909 20.2818C12.0217 20.2818 12.2091 20.0945 12.2091 19.8637C12.2091 19.7139 12.1259 19.5885 12.0075 19.5145C12.1221 19.3288 12.2405 19.1318 12.3621 18.9253C12.4345 18.9863 12.5248 19.0273 12.6273 19.0273C12.8581 19.0273 13.0455 18.8399 13.0455 18.6091C13.0455 18.4285 12.9296 18.2783 12.7695 18.2198C12.8029 18.1608 12.8368 18.1019 12.8702 18.0425C12.956 17.8915 13.0413 17.7405 13.1266 17.5896C13.2023 17.6975 13.3219 17.7727 13.4636 17.7727C13.6945 17.7727 13.8818 17.5854 13.8818 17.3546C13.8818 17.1338 13.7095 16.9581 13.4929 16.9422C13.6326 16.6959 13.771 16.4542 13.9065 16.2217C13.9592 16.3919 14.1122 16.5182 14.3 16.5182C14.5308 16.5182 14.7182 16.3309 14.7182 16.1C14.7182 15.8692 14.5308 15.6818 14.3 15.6818C14.2703 15.6818 14.244 15.6927 14.2159 15.699C14.402 15.3916 14.5756 15.1206 14.7299 14.9028C14.7587 15.1052 14.9256 15.2637 15.1364 15.2637C15.3672 15.2637 15.5545 15.0763 15.5545 14.8455C15.5545 14.6146 15.3672 14.4273 15.1364 14.4273C15.1309 14.4273 15.1263 14.4302 15.1209 14.4302C15.233 14.3144 15.3471 14.2052 15.4667 14.1124C15.5437 14.0526 15.6219 13.9991 15.7013 13.9493C15.7089 13.9447 15.716 13.9384 15.7235 13.9338C16.0723 13.7197 16.4436 13.6022 16.8208 13.5918C16.8216 13.5918 16.8225 13.5913 16.8225 13.5913C16.8409 13.5909 16.8593 13.5905 16.8777 13.5905C17.6183 13.5905 18.3589 14.002 18.9686 14.7547C19.3725 15.2528 19.953 16.1991 20.5146 17.1141C20.7567 17.5089 21.0018 17.907 21.2389 18.2808C21.1686 18.2281 21.0858 18.1909 20.9909 18.1909C20.7601 18.1909 20.5727 18.3783 20.5727 18.6091C20.5727 18.8399 20.7601 19.0273 20.9909 19.0273C21.2217 19.0273 21.4091 18.8399 21.4091 18.6091C21.4091 18.5773 21.3978 18.5497 21.3911 18.52C21.6537 18.9269 21.9009 19.2882 22.1192 19.5655C22.0435 19.4915 21.941 19.4455 21.8273 19.4455C21.5964 19.4455 21.4091 19.6328 21.4091 19.8637C21.4091 20.0945 21.5964 20.2818 21.8273 20.2818C22.0581 20.2818 22.2455 20.0945 22.2455 19.8637C22.2455 19.7566 22.2024 19.6617 22.1363 19.5877C22.1472 19.6015 22.1593 19.6182 22.1702 19.6311C22.483 20.018 22.6461 20.3847 22.6582 20.7013C22.4299 20.7046 22.2455 20.8895 22.2455 21.1182C22.2455 21.2219 22.2873 21.3135 22.3496 21.3867C21.9506 21.7455 21.195 21.9546 20.2164 21.9546H12.6223Z" fill="#0F7275"/>
<path d="M9.28192 10.7586C9.51275 10.7586 9.7001 10.5717 9.7001 10.3404V8.81073C9.7001 8.74842 9.69508 8.68694 9.6909 8.62589L9.8197 8.75469C9.90124 8.83624 10.0083 8.87722 10.1154 8.87722C10.2224 8.87722 10.3295 8.83624 10.411 8.75469L10.5465 8.6192C10.5415 8.68276 10.5365 8.74591 10.5365 8.81073V10.3404C10.5365 10.5717 10.7238 10.7586 10.9546 10.7586H12.4844C13.9467 10.7586 15.1365 9.56889 15.1365 8.10693V6.5768C15.1365 6.34554 14.9491 6.15862 14.7183 6.15862H13.1886C12.8423 6.15862 12.5124 6.2272 12.2088 6.34847C12.3878 5.49998 12.1502 4.57998 11.4924 3.92218L10.4106 2.84034C10.2471 2.67684 9.98279 2.67684 9.81928 2.84034L8.73744 3.9226C8.08048 4.57956 7.84253 5.49831 8.02068 6.34596C7.71917 6.22636 7.39173 6.15862 7.04799 6.15862H5.51828C5.28744 6.15862 5.1001 6.34554 5.1001 6.5768V8.10693C5.1001 9.56889 6.28982 10.7586 7.75221 10.7586H9.28192ZM14.3001 6.99498V8.10693C14.3001 9.10805 13.4855 9.92225 12.4844 9.92225H11.3728V8.81073C11.3728 7.80918 12.1874 6.99498 13.1886 6.99498H14.3001ZM9.32875 4.51391L10.1149 3.72773L10.9011 4.51391C11.6087 5.22147 11.6087 6.37356 10.9011 7.08154L10.1149 7.86773L9.32875 7.08154C8.62119 6.37356 8.62119 5.22147 9.32875 4.51391ZM5.93646 8.10734V6.9954H7.04799C8.04912 6.9954 8.86373 7.8096 8.86373 8.81114V9.92267H7.75221C6.75108 9.92225 5.93646 9.10805 5.93646 8.10734Z" fill="#0F7275"/>
<path d="M13.882 13.5909C13.882 13.3597 13.6947 13.1727 13.4639 13.1727H7.19113C6.96029 13.1727 6.77295 13.3597 6.77295 13.5909C6.77295 13.8222 6.96029 14.0091 7.19113 14.0091H13.4639C13.6947 14.0091 13.882 13.8222 13.882 13.5909Z" fill="#0F7275"/>
<path d="M8.44553 11.9182C8.21469 11.9182 8.02734 12.1051 8.02734 12.3363C8.02734 12.5676 8.21469 12.7545 8.44553 12.7545H12.6273C12.8582 12.7545 13.0455 12.5676 13.0455 12.3363C13.0455 12.1051 12.8582 11.9182 12.6273 11.9182H8.44553Z" fill="#0F7275"/>
<path d="M13.0455 14.8455C13.0455 14.6143 12.8582 14.4274 12.6273 14.4274H8.44553C8.21469 14.4274 8.02734 14.6143 8.02734 14.8455C8.02734 15.0768 8.21469 15.2637 8.44553 15.2637H12.6273C12.8582 15.2637 13.0455 15.0768 13.0455 14.8455Z" fill="#0F7275"/>
</g>
<defs>
<clipPath id="clip0_140_1738">
<rect width="23" height="23" fill="white" transform="translate(0.5)"/>
</clipPath>
</defs>
</svg>
