<svg width="23" height="23" viewBox="0 0 23 23" fill="none" xmlns="http://www.w3.org/2000/svg">
<g clip-path="url(#clip0_140_1320)">
<mask id="mask0_140_1320" style="mask-type:luminance" maskUnits="userSpaceOnUse" x="0" y="0" width="23" height="23">
<path d="M23 0H0V23H23V0Z" fill="white"/>
</mask>
<g mask="url(#mask0_140_1320)">
<path d="M19.0614 21.5624H3.93891C3.14846 21.5624 2.39038 21.2484 1.83144 20.6895C1.2725 20.1305 0.958496 19.3725 0.958496 18.582V14.0012C0.958496 13.2107 1.2725 12.4526 1.83144 11.8937C2.39038 11.3348 3.14846 11.0208 3.93891 11.0208H19.0614C19.8519 11.0208 20.6099 11.3348 21.1689 11.8937C21.7278 12.4526 22.0418 13.2107 22.0418 14.0012V18.582C22.0418 19.3725 21.7278 20.1305 21.1689 20.6895C20.6099 21.2484 19.8519 21.5624 19.0614 21.5624ZM3.93891 12.9374C3.65679 12.9374 3.38622 13.0495 3.18673 13.249C2.98724 13.4485 2.87516 13.719 2.87516 14.0012V18.582C2.87516 18.8641 2.98724 19.1347 3.18673 19.3342C3.38622 19.5337 3.65679 19.6458 3.93891 19.6458H19.0614C19.3435 19.6458 19.6141 19.5337 19.8136 19.3342C20.0131 19.1347 20.1252 18.8641 20.1252 18.582V14.0012C20.1252 13.719 20.0131 13.4485 19.8136 13.249C19.6141 13.0495 19.3435 12.9374 19.0614 12.9374H3.93891Z" fill="#0F7275"/>
<path d="M19.167 10.0623H11.5003C11.2462 10.0623 11.0024 9.96135 10.8227 9.78163C10.643 9.6019 10.542 9.35815 10.542 9.10398V2.39565C10.542 2.14148 10.643 1.89773 10.8227 1.71801C11.0024 1.53828 11.2462 1.43732 11.5003 1.43732H19.167C19.4212 1.43732 19.6649 1.53828 19.8446 1.71801C20.0244 1.89773 20.1253 2.14148 20.1253 2.39565V9.10398C20.1253 9.35815 20.0244 9.6019 19.8446 9.78163C19.6649 9.96135 19.4212 10.0623 19.167 10.0623ZM12.4587 8.14565H18.2087V3.35398H12.4587V8.14565Z" fill="#0F7275"/>
<path d="M15.3333 12.9373C15.0792 12.9373 14.8354 12.8363 14.6557 12.6566C14.476 12.4769 14.375 12.2331 14.375 11.979V6.22896C14.375 5.9748 14.476 5.73104 14.6557 5.55132C14.8354 5.3716 15.0792 5.27063 15.3333 5.27063C15.5875 5.27063 15.8313 5.3716 16.011 5.55132C16.1907 5.73104 16.2917 5.9748 16.2917 6.22896V11.979C16.2917 12.2331 16.1907 12.4769 16.011 12.6566C15.8313 12.8363 15.5875 12.9373 15.3333 12.9373Z" fill="#0F7275"/>
</g>
</g>
<defs>
<clipPath id="clip0_140_1320">
<rect width="23" height="23" fill="white"/>
</clipPath>
</defs>
</svg>
