<svg width="23" height="23" viewBox="0 0 23 23" fill="none" xmlns="http://www.w3.org/2000/svg">
<g clip-path="url(#clip0_140_1823)">
<path d="M3.13937e-09 5.03107C3.13937e-09 4.45919 0.227176 3.91074 0.631551 3.50637C1.03593 3.10199 1.58438 2.87482 2.15625 2.87482H15.0937C15.6656 2.87482 16.2141 3.10199 16.6184 3.50637C17.0228 3.91074 17.25 4.45919 17.25 5.03107V7.18732H18.7162C19.0393 7.1876 19.3582 7.26048 19.6493 7.40056C19.9404 7.54065 20.1963 7.74435 20.3981 7.99663L22.5271 10.656C22.8334 11.0386 23.0002 11.5142 23 12.0044V15.0936C23 15.6654 22.7728 16.2139 22.3684 16.6183C21.9641 17.0226 21.4156 17.2498 20.8437 17.2498H20.125C20.125 18.0123 19.8221 18.7436 19.2829 19.2827C18.7438 19.8219 18.0125 20.1248 17.25 20.1248C16.4875 20.1248 15.7562 19.8219 15.2171 19.2827C14.6779 18.7436 14.375 18.0123 14.375 17.2498H7.1875C7.18833 17.633 7.11253 18.0125 6.96458 18.366C6.81662 18.7195 6.59948 19.0399 6.32593 19.3083C6.05238 19.5766 5.72794 19.7876 5.37168 19.9288C5.01542 20.07 4.63452 20.1385 4.2514 20.1304C3.86827 20.1222 3.49063 20.0376 3.14069 19.8814C2.79075 19.7252 2.47557 19.5006 2.21368 19.2208C1.95178 18.9411 1.74845 18.6118 1.61566 18.2523C1.48286 17.8929 1.42326 17.5105 1.44037 17.1276C1.01926 16.9794 0.654527 16.7041 0.396526 16.3398C0.138526 15.9754 -2.40809e-05 15.54 3.13937e-09 15.0936L3.13937e-09 5.03107ZM1.86012 15.7491C2.12003 15.3236 2.48617 14.973 2.92258 14.7318C3.35899 14.4907 3.85063 14.3672 4.3492 14.3736C4.84776 14.38 5.33608 14.516 5.76618 14.7682C6.19627 15.0205 6.55332 15.3803 6.80225 15.8123H14.7602C15.0131 15.3757 15.3759 15.0129 15.8125 14.7601V5.03107C15.8125 4.84044 15.7368 4.65763 15.602 4.52283C15.4672 4.38804 15.2844 4.31232 15.0937 4.31232H2.15625C1.96563 4.31232 1.78281 4.38804 1.64802 4.52283C1.51323 4.65763 1.4375 4.84044 1.4375 5.03107V15.0936C1.43739 15.2319 1.4772 15.3674 1.55217 15.4836C1.62714 15.5999 1.73407 15.6921 1.86012 15.7491ZM17.25 14.3748C17.7547 14.3748 18.2504 14.5077 18.6875 14.76C19.1245 15.0123 19.4874 15.3753 19.7397 15.8123H20.8437C21.0344 15.8123 21.2172 15.7366 21.352 15.6018C21.4868 15.467 21.5625 15.2842 21.5625 15.0936V12.0029C21.5622 11.8398 21.5064 11.6817 21.4044 11.5544L19.2769 8.89507C19.2097 8.81089 19.1244 8.74289 19.0273 8.69612C18.9303 8.64934 18.824 8.62497 18.7162 8.62482H17.25V14.3748ZM4.3125 15.8123C3.93125 15.8123 3.56562 15.9638 3.29603 16.2334C3.02645 16.5029 2.875 16.8686 2.875 17.2498C2.875 17.6311 3.02645 17.9967 3.29603 18.2663C3.56562 18.5359 3.93125 18.6873 4.3125 18.6873C4.69375 18.6873 5.05938 18.5359 5.32897 18.2663C5.59855 17.9967 5.75 17.6311 5.75 17.2498C5.75 16.8686 5.59855 16.5029 5.32897 16.2334C5.05938 15.9638 4.69375 15.8123 4.3125 15.8123ZM17.25 15.8123C16.8687 15.8123 16.5031 15.9638 16.2335 16.2334C15.9639 16.5029 15.8125 16.8686 15.8125 17.2498C15.8125 17.6311 15.9639 17.9967 16.2335 18.2663C16.5031 18.5359 16.8687 18.6873 17.25 18.6873C17.6312 18.6873 17.9969 18.5359 18.2665 18.2663C18.536 17.9967 18.6875 17.6311 18.6875 17.2498C18.6875 16.8686 18.536 16.5029 18.2665 16.2334C17.9969 15.9638 17.6312 15.8123 17.25 15.8123Z" fill="#0F7275"/>
</g>
<defs>
<clipPath id="clip0_140_1823">
<rect width="23" height="23" fill="white"/>
</clipPath>
</defs>
</svg>
