<svg width="24" height="25" viewBox="0 0 24 25" fill="none" xmlns="http://www.w3.org/2000/svg">
<path d="M10.4636 17.9429C10.3479 18.2392 9.68967 18.2045 9.53548 17.9143C9.42281 17.7038 9.322 17.5219 9.21822 17.342C8.06774 15.3657 5.38726 14.0883 2.62672 14.1946C0.67269 14.2702 -0.0181886 15.1041 0.903969 16.3058C1.85578 17.5505 3.40951 18.3046 5.37836 18.509C6.6593 18.6419 7.98768 18.5458 9.49694 18.5356C9.60961 18.5356 9.6956 18.6112 9.66299 18.6868C8.79717 20.6407 6.86093 22.0733 5.53551 23.784C5.44359 23.9005 5.61261 24.0333 5.79348 23.9924C6.08703 23.927 6.3361 23.8269 6.4725 23.6757C7.55477 22.4882 8.60443 21.2844 9.59775 20.0602C10.4606 18.9975 10.5644 18.9423 12.2397 19.3429C15.1841 20.0439 18.3597 19.5125 20.035 18.0328C21.3189 16.9006 20.9157 16.0442 18.9172 15.6763C16.3256 15.2002 13.2063 16.2261 11.5814 18.088C11.4391 18.2515 11.193 18.2699 10.9736 18.323C10.8401 18.3557 10.9765 18.0941 11.0151 18.0001C11.4421 16.9578 12.0203 16.4305 12.5006 15.3923C12.8742 14.5829 13.2152 14.3091 14.5525 14.6933C17.4524 15.5251 20.9453 14.8425 22.5317 13.3056C23.6644 12.2081 23.1573 11.2986 21.23 11.0554C18.3894 10.6977 16.1922 11.4764 14.4546 12.9765C14.1314 13.2565 13.8646 13.5651 13.5236 13.9453C13.4406 14.0372 13.236 13.98 13.2686 13.8758C13.5414 12.9806 13.7193 12.2101 13.9357 11.4498C14.1878 10.5588 14.5644 10.3421 15.8749 10.5444C18.6592 10.9736 21.8112 9.93132 23.0713 8.30448C24.035 7.05778 23.3412 6.20144 21.3189 6.14422C18.6918 6.07268 16.2248 7.18041 14.9913 8.98914C14.8312 9.22417 14.683 9.46125 14.5199 9.72081C14.4606 9.81278 14.2441 9.78825 14.253 9.68811C14.3687 8.56812 14.5733 7.7077 15.5636 6.80027C17.15 5.3451 17.4287 3.61199 16.0113 1.96267C15.6259 1.51508 14.7482 0.993922 14.1048 1.00005C13.4554 1.00414 12.5747 1.53143 12.2189 1.98719C10.8016 3.79388 11.282 5.54335 12.9661 7.16406C13.9387 8.10215 14.0039 8.57221 13.8142 9.61862C13.7934 9.73716 13.5384 9.74738 13.4762 9.63702C13.3516 9.41629 13.233 9.20987 13.1085 9.00549C11.8809 7.00669 9.06996 5.76612 6.27976 5.98685C4.76754 6.10743 4.12114 6.79005 4.68452 7.75879C5.48807 9.14447 7.06552 9.99468 9.12333 10.2481C10.4072 10.4055 11.7564 10.3074 13.322 10.2849C13.5948 10.2808 13.6659 10.5445 13.6125 10.7284C13.3012 11.8075 13.1411 12.7395 12.8505 13.7573C12.8179 13.8656 12.6192 13.9085 12.5095 13.8267C12.1537 13.5651 11.9758 13.3015 11.7831 13.0419C10.4013 11.1821 7.69413 10.103 4.93656 10.3053C3.07149 10.4423 2.39247 11.2904 3.29091 12.3941C4.18934 13.4977 5.61261 14.2007 7.37686 14.3704C8.85647 14.5114 10.3835 14.4153 12.0203 14.4031C12.1774 14.4031 12.2071 14.6483 12.1596 14.7505C11.6348 15.8685 10.9499 16.6921 10.4636 17.9429Z" stroke="#0F7275" stroke-width="0.881205" stroke-miterlimit="10"/>
</svg>
