<svg width="38" height="39" viewBox="0 0 38 39" fill="none" xmlns="http://www.w3.org/2000/svg">
<path d="M23.7502 21.8751V14.7501M23.7502 14.7501H16.6252M23.7502 14.7501L14.2504 24.2499M11.4004 32.1668H26.6003C28.3738 32.1668 29.2607 32.1668 29.938 31.8216C30.5338 31.5181 31.0183 31.0336 31.322 30.4378C31.667 29.7604 31.667 28.8736 31.667 27.1001V11.9001C31.667 10.1266 31.667 9.23985 31.322 8.56247C31.0183 7.96661 30.5338 7.48217 29.938 7.17859C29.2607 6.83343 28.3738 6.83344 26.6003 6.83344H11.4004C9.62692 6.83344 8.74017 6.83343 8.06277 7.17859C7.46693 7.48217 6.9825 7.96661 6.67889 8.56247C6.33374 9.23985 6.33374 10.1266 6.33374 11.9001V27.1001C6.33374 28.8736 6.33374 29.7604 6.67889 30.4378C6.9825 31.0336 7.46693 31.5181 8.06277 31.8216C8.74017 32.1668 9.62692 32.1668 11.4004 32.1668Z" stroke="#0F7275" stroke-width="3.16667" stroke-linecap="round" stroke-linejoin="round"/>
</svg>
