<svg width="29" height="29" viewBox="0 0 29 29" fill="none" xmlns="http://www.w3.org/2000/svg">
<path d="M4.68638 8.31139L4.68639 8.31138C4.93191 8.06585 5.27057 7.91504 5.87322 7.83402C6.49025 7.75106 7.30497 7.75 8.45833 7.75H20.5417C21.695 7.75 22.5097 7.75106 23.1268 7.83402C23.7294 7.91504 24.0681 8.06585 24.3136 8.31139C24.5591 8.55691 24.71 8.89557 24.791 9.49822C24.8614 10.022 24.8728 10.6883 24.8746 11.5833H4.12535C4.12719 10.6883 4.13859 10.022 4.20902 9.49822C4.29004 8.89557 4.44085 8.55691 4.68638 8.31139Z" stroke="#0F7275"/>
<path d="M22.9583 7.25H6.04167C4.70698 7.25 3.625 8.33198 3.625 9.66667V22.9583C3.625 24.293 4.70698 25.375 6.04167 25.375H22.9583C24.293 25.375 25.375 24.293 25.375 22.9583V9.66667C25.375 8.33198 24.293 7.25 22.9583 7.25Z" stroke="#0F7275"/>
<path d="M8.45837 3.625V7.25" stroke="#0F7275" stroke-linecap="round"/>
<path d="M20.5416 3.625V7.25" stroke="#0F7275" stroke-linecap="round"/>
<path d="M12.6875 14H9.06254C8.45273 14 7.95837 14.4944 7.95837 15.1042V16.3125C7.95837 16.9223 8.45273 17.4167 9.06254 17.4167H12.6875C13.2974 17.4167 13.7917 16.9223 13.7917 16.3125V15.1042C13.7917 14.4944 13.2974 14 12.6875 14Z" stroke="#0F7275"/>
<path d="M12.6875 18.8333H9.06254C8.45273 18.8333 7.95837 19.3277 7.95837 19.9375V21.1458C7.95837 21.7556 8.45273 22.25 9.06254 22.25H12.6875C13.2974 22.25 13.7917 21.7556 13.7917 21.1458V19.9375C13.7917 19.3277 13.2974 18.8333 12.6875 18.8333Z" stroke="#0F7275"/>
<path d="M19.9375 14H16.3125C15.7027 14 15.2084 14.4944 15.2084 15.1042V16.3125C15.2084 16.9223 15.7027 17.4167 16.3125 17.4167H19.9375C20.5474 17.4167 21.0417 16.9223 21.0417 16.3125V15.1042C21.0417 14.4944 20.5474 14 19.9375 14Z" stroke="#0F7275"/>
<path d="M19.9375 18.8333H16.3125C15.7027 18.8333 15.2084 19.3277 15.2084 19.9375V21.1458C15.2084 21.7556 15.7027 22.25 16.3125 22.25H19.9375C20.5474 22.25 21.0417 21.7556 21.0417 21.1458V19.9375C21.0417 19.3277 20.5474 18.8333 19.9375 18.8333Z" stroke="#0F7275"/>
</svg>
