<svg width="28" height="27" viewBox="0 0 28 27" fill="none" xmlns="http://www.w3.org/2000/svg">
<path fill-rule="evenodd" clip-rule="evenodd" d="M4.30792 16.0233C4.76706 16.0233 5.13927 16.3956 5.13927 16.8547C5.13927 18.4458 5.14103 19.5555 5.25361 20.3928C5.36296 21.2062 5.56298 21.6368 5.86976 21.9437C6.17654 22.2505 6.60727 22.4505 7.42064 22.5599C8.25792 22.6724 9.36763 22.6742 10.9587 22.6742H17.6096C19.2007 22.6742 20.3104 22.6724 21.1477 22.5599C21.9611 22.4505 22.3917 22.2505 22.6986 21.9437C23.0054 21.6368 23.2054 21.2062 23.3148 20.3928C23.4273 19.5555 23.429 18.4458 23.429 16.8547C23.429 16.3956 23.8013 16.0233 24.2604 16.0233C24.7195 16.0233 25.0917 16.3956 25.0917 16.8547V16.9155C25.0917 18.4315 25.0917 19.6534 24.9626 20.6144C24.8285 21.6121 24.5415 22.4521 23.8743 23.1193C23.207 23.7866 22.367 24.0736 21.3693 24.2077C20.4082 24.3369 19.1864 24.3369 17.6704 24.3369H10.8979C9.38199 24.3369 8.1601 24.3369 7.19909 24.2077C6.20134 24.0736 5.36126 23.7866 4.69405 23.1194C4.02684 22.4521 3.73987 21.6121 3.60572 20.6144C3.47652 19.6534 3.47654 18.4315 3.47656 16.9155C3.47656 16.8953 3.47656 16.875 3.47656 16.8547C3.47656 16.3956 3.84878 16.0233 4.30792 16.0233Z" fill="white"/>
<path fill-rule="evenodd" clip-rule="evenodd" d="M14.2848 18.7945C14.5182 18.7945 14.7408 18.6964 14.8983 18.5242L19.3322 13.6746C19.642 13.3357 19.6185 12.8099 19.2797 12.5001C18.9408 12.1902 18.4149 12.2137 18.1051 12.5526L15.1161 15.8218V3.55303C15.1161 3.09389 14.7439 2.72168 14.2848 2.72168C13.8256 2.72168 13.4534 3.09389 13.4534 3.55303V15.8218L10.4645 12.5526C10.1546 12.2137 9.62878 12.1902 9.28992 12.5001C8.95106 12.8099 8.92751 13.3357 9.23732 13.6746L13.6712 18.5242C13.8287 18.6964 14.0513 18.7945 14.2848 18.7945Z" fill="white"/>
</svg>
