<svg width="20" height="20" viewBox="0 0 20 20" fill="none" xmlns="http://www.w3.org/2000/svg">
<path d="M3.33329 8.33337V15H16.6666V8.33337L9.99996 10.8334L3.33329 8.33337ZM3.33329 5.00004V6.66671L9.99996 9.16671L16.6666 6.66671V5.00004H3.33329ZM3.33329 3.33337H16.6666C17.1087 3.33337 17.5326 3.50897 17.8451 3.82153C18.1577 4.13409 18.3333 4.55801 18.3333 5.00004V15C18.3333 15.4421 18.1577 15.866 17.8451 16.1786C17.5326 16.4911 17.1087 16.6667 16.6666 16.6667H3.33329C2.89127 16.6667 2.46734 16.4911 2.15478 16.1786C1.84222 15.866 1.66663 15.4421 1.66663 15V5.00004C1.66663 4.55801 1.84222 4.13409 2.15478 3.82153C2.46734 3.50897 2.89127 3.33337 3.33329 3.33337Z" fill="#79B2B7"/>
</svg>
