<svg width="15" height="15" viewBox="0 0 15 15" fill="none" xmlns="http://www.w3.org/2000/svg">
<path d="M7.07051 0C3.16465 0 0 3.1668 0 7.07051C0 10.9742 3.1668 14.141 7.07051 14.141C10.9742 14.141 14.141 10.9764 14.141 7.07266C14.141 3.16895 10.9742 0 7.07051 0ZM7.07051 12.5727C4.03691 12.5727 1.57051 10.1063 1.57051 7.07266C1.57051 4.03906 4.03691 1.57266 7.07051 1.57266C10.1041 1.57266 12.5705 4.03906 12.5705 7.07266C12.5705 10.1063 10.102 12.5727 7.07051 12.5727Z" fill="#D45D5D"/>
<path d="M6 4H7.57051V7.92949H6V4ZM6 8.71367H7.57051V10.2842H6V8.71367Z" fill="#D45D5D"/>
</svg>
