<svg width="23" height="24" viewBox="0 0 23 24" fill="none" xmlns="http://www.w3.org/2000/svg">
<g id="Inner Plugin Iframe">
<path id="Vector" d="M21.2031 8.04688H1.79688C1.51094 8.04688 1.23671 7.93329 1.03453 7.7311C0.832338 7.52891 0.71875 7.25469 0.71875 6.96875C0.71875 6.68281 0.832338 6.40859 1.03453 6.2064C1.23671 6.00421 1.51094 5.89063 1.79688 5.89062H21.2031C21.4891 5.89062 21.7633 6.00421 21.9655 6.2064C22.1677 6.40859 22.2812 6.68281 22.2812 6.96875C22.2812 7.25469 22.1677 7.52891 21.9655 7.7311C21.7633 7.93329 21.4891 8.04688 21.2031 8.04688Z" fill="#F7FAFC"/>
<path id="Vector_2" d="M17.6094 13.0781H5.39062C5.10469 13.0781 4.83046 12.9645 4.62828 12.7623C4.42609 12.5602 4.3125 12.2859 4.3125 12C4.3125 11.7141 4.42609 11.4398 4.62828 11.2377C4.83046 11.0355 5.10469 10.9219 5.39062 10.9219H17.6094C17.8953 10.9219 18.1695 11.0355 18.3717 11.2377C18.5739 11.4398 18.6875 11.7141 18.6875 12C18.6875 12.2859 18.5739 12.5602 18.3717 12.7623C18.1695 12.9645 17.8953 13.0781 17.6094 13.0781Z" fill="#F7FAFC"/>
<path id="Vector_3" d="M13.2969 18.1094H9.70312C9.41719 18.1094 9.14296 17.9958 8.94078 17.7936C8.73859 17.5914 8.625 17.3172 8.625 17.0312C8.625 16.7453 8.73859 16.4711 8.94078 16.2689C9.14296 16.0667 9.41719 15.9531 9.70312 15.9531H13.2969C13.5828 15.9531 13.857 16.0667 14.0592 16.2689C14.2614 16.4711 14.375 16.7453 14.375 17.0312C14.375 17.3172 14.2614 17.5914 14.0592 17.7936C13.857 17.9958 13.5828 18.1094 13.2969 18.1094Z" fill="#F7FAFC"/>
</g>
</svg>
