<svg width="21" height="21" viewBox="0 0 21 21" fill="none" xmlns="http://www.w3.org/2000/svg">
<path d="M9.65508 7.06291C9.65508 6.59534 10.0365 6.2467 10.4959 6.2467C10.9635 6.2467 11.3449 6.59534 11.3449 7.06291C11.3449 7.53049 10.9635 7.88323 10.4959 7.88323C10.0365 7.88323 9.65508 7.53049 9.65508 7.06291ZM9.7125 8.52717H11.2793V14.4375H9.7125V8.52717Z" fill="#0F7275"/>
<path d="M10.5 3.11719C12.4729 3.11719 14.3268 3.88418 15.7213 5.27871C17.1158 6.67324 17.8828 8.52715 17.8828 10.5C17.8828 12.4729 17.1158 14.3268 15.7213 15.7213C14.3268 17.1158 12.4729 17.8828 10.5 17.8828C8.52715 17.8828 6.67324 17.1158 5.27871 15.7213C3.88418 14.3268 3.11719 12.4729 3.11719 10.5C3.11719 8.52715 3.88418 6.67324 5.27871 5.27871C6.67324 3.88418 8.52715 3.11719 10.5 3.11719ZM10.5 1.96875C5.7873 1.96875 1.96875 5.7873 1.96875 10.5C1.96875 15.2127 5.7873 19.0312 10.5 19.0312C15.2127 19.0312 19.0312 15.2127 19.0312 10.5C19.0312 5.7873 15.2127 1.96875 10.5 1.96875Z" fill="#0F7275"/>
</svg>
