<svg width="23" height="24" viewBox="0 0 23 24" fill="none" xmlns="http://www.w3.org/2000/svg">
<path d="M11.5 13.5C10.7892 13.5 10.0944 13.2801 9.50342 12.868C8.91243 12.456 8.45181 11.8703 8.17981 11.1851C7.90781 10.4998 7.83664 9.74584 7.9753 9.01841C8.11397 8.29098 8.45624 7.6228 8.95884 7.09835C9.46143 6.5739 10.1018 6.21675 10.7989 6.07206C11.496 5.92736 12.2186 6.00162 12.8753 6.28545C13.5319 6.56928 14.0932 7.04993 14.4881 7.66661C14.883 8.2833 15.0938 9.00832 15.0938 9.75C15.0926 10.7442 14.7136 11.6973 14.0399 12.4003C13.3662 13.1033 12.4528 13.4988 11.5 13.5ZM11.5 7.5C11.0735 7.5 10.6566 7.63196 10.3021 7.8792C9.94746 8.12643 9.67109 8.47783 9.50789 8.88896C9.34468 9.3001 9.30198 9.7525 9.38518 10.189C9.46838 10.6254 9.67375 11.0263 9.9753 11.341C10.2769 11.6557 10.6611 11.87 11.0793 11.9568C11.4976 12.0436 11.9312 11.999 12.3252 11.8287C12.7192 11.6584 13.0559 11.37 13.2929 11C13.5298 10.63 13.6563 10.195 13.6563 9.75C13.6557 9.15345 13.4283 8.5815 13.0241 8.15967C12.6198 7.73784 12.0717 7.5006 11.5 7.5Z" fill="#79B2B7"/>
<path d="M11.5 22.5L5.43663 15.0382C5.35238 14.9262 5.269 14.8135 5.18651 14.7C4.15078 13.2763 3.59125 11.5374 3.59376 9.75C3.59376 7.56196 4.42674 5.46354 5.90945 3.91637C7.39216 2.36919 9.40314 1.5 11.5 1.5C13.5969 1.5 15.6079 2.36919 17.0906 3.91637C18.5733 5.46354 19.4063 7.56196 19.4063 9.75C19.4088 11.5366 18.8495 13.2747 17.8142 14.6978L17.8135 14.7C17.8135 14.7 17.5979 14.9955 17.5655 15.0353L11.5 22.5ZM6.33363 13.7963C6.33507 13.7963 6.50182 14.0272 6.53992 14.0767L11.5 20.181L16.4666 14.0685C16.4982 14.0272 16.6664 13.7948 16.6671 13.794C17.5132 12.6308 17.9704 11.2103 17.9688 9.75C17.9688 7.95979 17.2872 6.2429 16.0741 4.97703C14.861 3.71116 13.2156 3 11.5 3C9.78439 3 8.13904 3.71116 6.92591 4.97703C5.71279 6.2429 5.03126 7.95979 5.03126 9.75C5.02975 11.2112 5.48679 12.6326 6.33363 13.7963Z" fill="#79B2B7"/>
</svg>
