<svg width="24" height="25" viewBox="0 0 24 25" fill="none" xmlns="http://www.w3.org/2000/svg">
<path id="Vector" d="M23.2408 15.7696L20.8462 13.436V10.3447C20.8434 8.20836 20.0279 6.14891 18.5573 4.56457C17.0868 2.98023 15.0656 1.98353 12.8846 1.76721V0H11.1154V1.76721C8.93443 1.98353 6.91325 2.98023 5.44267 4.56457C3.9721 6.14891 3.15659 8.20836 3.15385 10.3447V13.436L0.759192 15.7696C0.593283 15.9312 0.50005 16.1505 0.5 16.3791V18.9652C0.5 19.1939 0.5932 19.4131 0.759098 19.5748C0.924995 19.7365 1.15 19.8273 1.38462 19.8273H7.57692V20.4971C7.55768 21.5907 7.95324 22.6528 8.68781 23.4799C9.42237 24.3069 10.4443 24.8407 11.5577 24.9789C12.1727 25.0384 12.7936 24.9717 13.3805 24.7832C13.9675 24.5948 14.5074 24.2887 14.9657 23.8847C15.424 23.4806 15.7904 22.9876 16.0414 22.4373C16.2924 21.887 16.4224 21.2916 16.4231 20.6893V19.8273H22.6154C22.85 19.8273 23.075 19.7365 23.2409 19.5748C23.4068 19.4131 23.5 19.1939 23.5 18.9652V16.3791C23.4999 16.1505 23.4067 15.9312 23.2408 15.7696ZM14.6538 20.6893C14.6538 21.3752 14.3742 22.033 13.8766 22.518C13.3789 23.003 12.7038 23.2755 12 23.2755C11.2962 23.2755 10.6211 23.003 10.1234 22.518C9.62575 22.033 9.34615 21.3752 9.34615 20.6893V19.8273H14.6538V20.6893ZM21.7308 18.1032H2.26923V16.736L4.66388 14.4024C4.82979 14.2407 4.92303 14.0215 4.92308 13.7929V10.3447C4.92308 8.51562 5.66868 6.76148 6.99586 5.46815C8.32304 4.17481 10.1231 3.44822 12 3.44822C13.8769 3.44822 15.677 4.17481 17.0041 5.46815C18.3313 6.76148 19.0769 8.51562 19.0769 10.3447V13.7929C19.077 14.0215 19.1702 14.2407 19.3361 14.4024L21.7308 16.736V18.1032Z" fill="#F7FAFC"/>
</svg>
