<svg width="25" height="25" viewBox="0 0 25 25" fill="none" xmlns="http://www.w3.org/2000/svg">
<g clip-path="url(#clip0_835_6819)">
<path d="M4.22616 3.24104C3.71015 3.24104 3.09093 3.44745 2.78132 3.86026C2.47172 4.27307 2.16211 4.78908 2.16211 5.30509V19.7534C2.16211 20.2695 2.36851 20.8887 2.78132 21.1983C3.19413 21.5079 3.71015 21.8175 4.22616 21.8175H9.38628V19.7534H4.22616V10.4652H20.7386V19.7534H15.5784V21.8175H20.7386C21.2546 21.8175 21.8738 21.6111 22.1834 21.1983C22.493 20.7855 22.8026 20.2695 22.8026 19.7534V5.30509C22.8026 4.78908 22.5962 4.16987 22.1834 3.86026C21.7706 3.55065 21.2546 3.24104 20.7386 3.24104H4.22616ZM5.7742 5.30509C6.59982 5.30509 7.32223 6.02751 7.32223 6.85313C7.32223 7.67875 6.59982 8.40117 5.7742 8.40117C4.94858 8.40117 4.22616 7.67875 4.22616 6.85313C4.22616 6.02751 4.94858 5.30509 5.7742 5.30509ZM9.9023 5.30509C10.7279 5.30509 11.4503 6.02751 11.4503 6.85313C11.4503 7.67875 10.7279 8.40117 9.9023 8.40117C9.07667 8.40117 8.35426 7.67875 8.35426 6.85313C8.35426 6.02751 9.07667 5.30509 9.9023 5.30509ZM12.4824 5.30509H20.7386V8.40117H12.4824V5.30509ZM12.4824 13.5613L9.38628 17.6894H11.4503V22.8495H13.5144V17.6894H15.5784L12.4824 13.5613Z" fill="white"/>
</g>
<defs>
<clipPath id="clip0_835_6819">
<rect width="24.7686" height="24.7686" fill="white" transform="translate(0.0986328 0.144974)"/>
</clipPath>
</defs>
</svg>
