<svg width="23" height="23" viewBox="0 0 23 23" fill="none" xmlns="http://www.w3.org/2000/svg">
<path fill-rule="evenodd" clip-rule="evenodd" d="M5.03122 17.2598C4.8406 17.2598 4.65779 17.3355 4.523 17.4703C4.38821 17.6051 4.31247 17.788 4.31247 17.9786C4.31247 18.1692 4.38821 18.352 4.523 18.4868C4.65779 18.6216 4.8406 18.6973 5.03122 18.6973H9.34372C9.53434 18.6973 9.71715 18.6216 9.85194 18.4868C9.98673 18.352 10.0625 18.1692 10.0625 17.9786C10.0625 17.788 9.98673 17.6051 9.85194 17.4703C9.71715 17.3355 9.53434 17.2598 9.34372 17.2598H5.03122Z" fill="#0F7275"/>
<path fill-rule="evenodd" clip-rule="evenodd" d="M4.3125 1.44733C4.17886 1.44745 4.0479 1.48482 3.93432 1.55524C3.82075 1.62567 3.72907 1.72636 3.66955 1.84601L1.5133 6.18378C1.46756 6.2784 1.44312 6.38191 1.44171 6.487C1.4402 6.49259 1.43878 6.4982 1.43741 6.50382V20.8535C1.43743 21.0442 1.51315 21.227 1.64794 21.3618C1.78272 21.4965 1.96554 21.5723 2.15616 21.5723H20.8437C21.0343 21.5723 21.2171 21.4965 21.3519 21.3618C21.4866 21.227 21.5624 21.0442 21.5624 20.8535V6.50382V6.50238C21.562 6.39174 21.5361 6.28268 21.4866 6.18371L19.3304 1.84594C19.2708 1.72632 19.1792 1.62566 19.0656 1.55524C18.952 1.48483 18.8211 1.44746 18.6875 1.44733H4.3125ZM4.7561 2.88483H9.21881L8.74853 5.7851H3.31579L4.7561 2.88483ZM10.6732 2.88483H13.7657L14.2501 5.7851H10.2043L10.6732 2.88483ZM15.2229 2.88483H18.2425L19.6842 5.7851H15.7072L15.2229 2.88483ZM2.875 7.2226H8.625V14.3848C8.62505 14.527 8.66724 14.6659 8.74623 14.784C8.82521 14.9022 8.93745 14.9943 9.06875 15.0487C9.20006 15.103 9.34453 15.1173 9.48393 15.0896C9.62333 15.0619 9.75139 14.9935 9.85192 14.893L12.2187 12.5262L14.5856 14.893C14.6861 14.9935 14.8142 15.0619 14.9536 15.0896C15.093 15.1173 15.2374 15.103 15.3687 15.0487C15.5 14.9943 15.6123 14.9022 15.6913 14.784C15.7702 14.6659 15.8124 14.527 15.8125 14.3848V7.2226H20.125V20.1348H2.875V7.2226ZM10.0625 7.2226H14.375V12.6497L12.7269 11.0016C12.5921 10.8669 12.4093 10.7912 12.2187 10.7912C12.0282 10.7912 11.8454 10.8669 11.7106 11.0016L10.0625 12.6497V7.2226Z" fill="#0F7275"/>
</svg>
