<svg width="18" height="20" viewBox="0 0 18 20" fill="none" xmlns="http://www.w3.org/2000/svg">
<path d="M9 12.3611V14.25M14 8.13831C13.5286 8.11111 12.9474 8.11111 12.2 8.11111H5.8C5.0526 8.11111 4.4714 8.11111 4 8.13831M14 8.13831C14.5883 8.17222 15.0057 8.24853 15.362 8.41994C15.9265 8.69157 16.3854 9.12497 16.673 9.65811C17 10.2643 17 11.0576 17 12.6444V13.9667C17 15.5535 17 16.3469 16.673 16.953C16.3854 17.4861 15.9265 17.9195 15.362 18.1912C14.7202 18.5 13.8802 18.5 12.2 18.5H5.8C4.1198 18.5 3.2798 18.5 2.638 18.1912C2.0735 17.9195 1.6146 17.4861 1.327 16.953C1 16.3469 1 15.5535 1 13.9667V12.6444C1 11.0576 1 10.2643 1.327 9.65811C1.6146 9.12497 2.0735 8.69157 2.638 8.41994C2.9943 8.24853 3.4117 8.17222 4 8.13831M14 8.13831V6.22222C14 3.61421 11.7614 1.5 9 1.5C6.2386 1.5 4 3.61421 4 6.22222V8.13831" stroke="#79B2B7" stroke-width="1.66667" stroke-linecap="round" stroke-linejoin="round"/>
</svg>
