<svg width="103" height="103" viewBox="0 0 103 103" fill="none" xmlns="http://www.w3.org/2000/svg">
<g clip-path="url(#clip0_835_6791)">
<path d="M95.5456 23.7995V102.303H10.376V0.333862H72.0802L83.0097 11.2636L95.5456 23.7995Z" fill="#79B2B7"/>
<path d="M48.9868 7.16367H8.13965V25.4402H48.9868V7.16367Z" fill="#F2F2F2"/>
<path d="M22.7917 13.1554C22.6115 12.7201 22.3713 12.3297 22.0411 11.9995C21.7108 11.6693 21.3054 11.399 20.8399 11.2188C20.3595 11.0236 19.819 10.9336 19.2186 10.9336H14.7295V22.5237H16.9965V18.1547H19.2186C19.819 18.1547 20.3595 18.0647 20.8399 17.8695C21.3054 17.6893 21.7107 17.4192 22.0411 17.0888C22.3715 16.7586 22.6117 16.3832 22.7917 15.9329C22.9568 15.4975 23.047 15.0321 23.047 14.5517C23.0468 14.0562 22.9568 13.5908 22.7917 13.1554ZM20.3444 15.6925C20.0441 15.9777 19.6239 16.1279 19.1134 16.1279H16.9965V12.9451H19.1134C19.6239 12.9451 20.0443 13.0953 20.3444 13.3954C20.6296 13.6806 20.7798 14.071 20.7798 14.5513C20.78 15.017 20.6298 15.4073 20.3444 15.6925Z" fill="#79B2B7"/>
<path d="M33.6307 15.4222C33.6158 15.0169 33.6006 14.6566 33.5556 14.3262C33.5106 13.9958 33.4355 13.6957 33.3304 13.4105C33.2252 13.1402 33.0902 12.87 32.9099 12.6298C32.5046 12.0442 32.0091 11.6089 31.4537 11.3386C30.8831 11.0684 30.2075 10.9333 29.4119 10.9333H25.2383V22.5235H29.4119C30.2075 22.5235 30.8831 22.3884 31.4537 22.1182C32.0091 21.8479 32.5046 21.4125 32.9099 20.827C33.0902 20.5868 33.2252 20.3166 33.3304 20.0463C33.4355 19.7611 33.5106 19.4608 33.5556 19.1306C33.6006 18.8004 33.6156 18.4399 33.6307 18.0346C33.6456 17.6442 33.6456 17.2089 33.6456 16.7285C33.6456 16.2481 33.6456 15.8126 33.6307 15.4222ZM31.3637 17.8996C31.3637 18.2449 31.3336 18.5152 31.3035 18.7553C31.2734 18.9806 31.2284 19.1907 31.1685 19.3409C31.1085 19.506 31.0183 19.6561 30.9133 19.7912C30.5379 20.2716 29.9675 20.4968 29.2169 20.4968H27.4904V12.945H29.2169C29.9675 12.945 30.5381 13.1852 30.9133 13.6656C31.0185 13.8006 31.1085 13.9359 31.1685 14.101C31.2284 14.2661 31.2736 14.4613 31.3035 14.7014C31.3336 14.9267 31.3637 15.2119 31.3637 15.5421C31.3786 15.8725 31.3786 16.2778 31.3786 16.7281C31.3788 17.1788 31.3788 17.5691 31.3637 17.8996Z" fill="#79B2B7"/>
<path d="M43.3156 12.945V10.9333H35.6738V22.5235H37.9409V17.8245H42.52V15.7976H37.9409V12.945H43.3156Z" fill="#79B2B7"/>
<path d="M22.7917 13.1554C22.6115 12.7201 22.3713 12.3297 22.0411 11.9995C21.7108 11.6693 21.3054 11.399 20.8399 11.2188C20.3595 11.0236 19.819 10.9336 19.2186 10.9336H14.7295V22.5237H16.9965V18.1547H19.2186C19.819 18.1547 20.3595 18.0647 20.8399 17.8695C21.3054 17.6893 21.7107 17.4192 22.0411 17.0888C22.3715 16.7586 22.6117 16.3832 22.7917 15.9329C22.9568 15.4975 23.047 15.0321 23.047 14.5517C23.0468 14.0562 22.9568 13.5908 22.7917 13.1554ZM20.3444 15.6925C20.0441 15.9777 19.6239 16.1279 19.1134 16.1279H16.9965V12.9451H19.1134C19.6239 12.9451 20.0443 13.0953 20.3444 13.3954C20.6296 13.6806 20.7798 14.071 20.7798 14.5513C20.78 15.017 20.6298 15.4073 20.3444 15.6925Z" fill="#79B2B7"/>
<path opacity="0.08" d="M95.5456 23.7996V102.303H10.376V83.8973L50.1909 44.0824L52.5479 41.7254L53.854 40.4191L56.031 38.2422L58.6133 35.6599L83.0097 11.2636L95.5456 23.7996Z" fill="#040000"/>
<path d="M95.5454 23.8018H72.0771V0.333527L95.5454 23.8018Z" fill="#417579"/>
<path d="M83.3851 74.1538C82.8896 73.283 82.214 72.4573 81.3734 71.7067C80.6829 71.0761 79.8721 70.4906 78.9562 69.9501C75.263 67.7733 69.9934 66.7223 62.832 66.7223H62.1114C61.7211 66.362 61.3158 66.0017 60.8953 65.6263C58.178 63.1792 56.0161 60.5219 54.3346 57.5643C57.6375 50.2828 59.2138 43.7972 59.0187 38.2723C58.9886 37.3414 58.8536 36.4707 58.6134 35.6599C58.2531 34.3538 57.6526 33.1977 56.8118 32.2519C56.7968 32.2369 56.7968 32.2369 56.7817 32.2218C55.4455 30.7205 53.584 29.8647 51.6922 29.8647C49.7854 29.8647 48.029 30.6905 46.7528 32.2069C45.4917 33.7081 44.8162 35.7651 44.7861 38.1821C44.7411 41.8753 45.0412 45.3733 45.6719 48.6011C45.7319 48.8564 45.7771 49.1116 45.837 49.3667C46.4676 52.2943 47.3985 55.0716 48.5994 57.6539C47.1882 60.5215 45.762 62.9986 44.7709 64.6801C44.0203 65.9563 43.1946 67.2925 42.3388 68.6287C38.4805 69.3193 35.2075 70.16 32.3551 71.211C28.4968 72.6073 25.404 74.4087 23.182 76.5556C21.7407 77.9368 20.7648 79.4082 20.2844 80.9395C19.774 82.5159 19.804 84.0923 20.3744 85.5035C20.8998 86.8096 21.8456 87.9056 23.1069 88.6562C23.4072 88.8365 23.7225 88.9864 24.0527 89.1216C25.0137 89.512 26.0644 89.7221 27.1604 89.7221C29.6977 89.7221 32.3099 88.6261 34.5168 86.6594C38.6304 82.9811 42.8791 77.0661 45.3863 73.3276C47.4431 73.0124 49.68 72.7421 52.2024 72.4719C55.1751 72.1715 57.8024 71.9915 60.1895 71.9013C60.9252 72.5619 61.6308 73.1924 62.3064 73.7929C66.0598 77.1408 68.9121 79.558 71.4944 81.2544C71.4944 81.2694 71.5094 81.2694 71.5245 81.2694C72.5454 81.9449 73.5213 82.5004 74.4972 82.9509C75.5932 83.4613 76.7041 83.7316 77.8451 83.7316C79.2864 83.7316 80.6375 83.2962 81.7635 82.5006C82.9045 81.6748 83.7302 80.4888 84.1057 79.1527C84.541 77.5467 84.2859 75.7602 83.3851 74.1538ZM50.1909 44.0824C49.9808 42.2206 49.8906 40.284 49.9206 38.2422C49.9507 36.3056 50.6563 34.9993 51.6922 34.9993C52.4729 34.9993 53.2986 35.7049 53.6738 37.056C53.779 37.4613 53.854 37.9267 53.869 38.4521C53.8991 39.0827 53.8839 39.7433 53.854 40.4188C53.764 42.3256 53.4336 44.3522 52.8632 46.5293C52.5179 47.9256 52.0676 49.3818 51.5121 50.898C50.8816 48.7664 50.4311 46.4994 50.1909 44.0824ZM25.1489 83.5969C24.8936 82.9664 25.179 81.7503 26.7404 80.2491C29.1275 77.9671 32.8657 76.1655 38.0754 74.7992C37.0846 76.1503 36.1087 77.3816 35.1629 78.5074C33.7215 80.2489 32.3404 81.7203 31.0942 82.8312C30.0283 83.7919 28.8573 84.3926 27.7463 84.5427C27.5512 84.5728 27.356 84.5878 27.1608 84.5878C26.1847 84.588 25.3891 84.1976 25.1489 83.5969ZM49.1399 67.638L49.2451 67.4729L49.08 67.503C49.11 67.4279 49.1551 67.3528 49.2001 67.2929C49.8306 66.227 50.6263 64.8608 51.482 63.2844L51.5571 63.4495L51.7523 63.0442C52.3828 63.945 53.0735 64.8309 53.7941 65.6865C54.1394 66.0918 54.4997 66.4821 54.86 66.8725L54.6198 66.8874L54.8299 67.0826C54.2143 67.1276 53.5688 67.1877 52.9232 67.2477C52.5179 67.2927 52.0975 67.3228 51.677 67.3678C50.8065 67.4578 49.9507 67.548 49.1399 67.638ZM74.4072 77.0061C72.6205 75.8652 70.6239 74.2587 68.1617 72.1118C71.6597 72.4721 74.4072 73.2378 76.3589 74.3788C77.2147 74.8743 77.8602 75.3848 78.2956 75.8801C79.0161 76.6457 79.2715 77.3363 79.1362 77.8018C79.0161 78.2672 78.4907 78.5825 77.8451 78.5825C77.4696 78.5825 77.0795 78.4925 76.674 78.2973C75.9833 77.9671 75.2628 77.5616 74.4972 77.0663C74.4671 77.0663 74.4372 77.0362 74.4072 77.0061Z" fill="#F2F2F2"/>
</g>
<defs>
<clipPath id="clip0_835_6791">
<rect width="101.97" height="101.97" fill="white" transform="translate(0.857422 0.333527)"/>
</clipPath>
</defs>
</svg>
