<svg width="19" height="20" viewBox="0 0 19 20" fill="none" xmlns="http://www.w3.org/2000/svg">
<g clip-path="url(#clip0_39_25)">
<path fill-rule="evenodd" clip-rule="evenodd" d="M15.7344 17.6H3.26627C2.59519 17.6 2.09964 16.9378 2.35275 16.3289C3.52713 13.5131 6.28609 11.9 9.49986 11.9C12.7146 11.9 15.4736 13.5131 16.6479 16.3289C16.901 16.9378 16.4055 17.6 15.7344 17.6ZM5.62083 6.19999C5.62083 4.10429 7.36154 2.39999 9.49986 2.39999C11.6391 2.39999 13.3789 4.10429 13.3789 6.19999C13.3789 8.29569 11.6391 9.99999 9.49986 9.99999C7.36154 9.99999 5.62083 8.29569 5.62083 6.19999ZM18.9579 17.2542C18.2529 14.0631 16.0477 11.7081 13.1452 10.6393C14.6832 9.42616 15.5802 7.46438 15.2505 5.31643C14.8684 2.82458 12.7524 0.830578 10.1981 0.539878C6.67205 0.138028 3.68132 2.82654 3.68132 6.19999C3.68132 7.99549 4.53083 9.59526 5.85551 10.6393C2.95206 11.7081 0.747805 14.0631 0.0418228 17.2542C-0.214193 18.4141 0.740048 19.5 1.95127 19.5H17.0484C18.2606 19.5 19.2149 18.4141 18.9579 17.2542Z" fill="#79B2B7"/>
</g>
<defs>
<clipPath id="clip0_39_25">
<rect width="19" height="19" fill="white" transform="translate(0 0.5)"/>
</clipPath>
</defs>
</svg>
