<svg width="34" height="34" viewBox="0 0 34 34" fill="none" xmlns="http://www.w3.org/2000/svg">
<path d="M4.45727 14.3539C3.8776 14.3539 3.41925 13.8956 3.41925 13.3159V10.2019C3.41925 6.54858 6.3985 3.56934 10.0518 3.56934H13.1658C13.7455 3.56934 14.2039 4.02768 14.2039 4.60735C14.2039 5.18703 13.7455 5.64537 13.1658 5.64537H10.0518C7.53088 5.64537 5.49529 7.69445 5.49529 10.2019V13.3159C5.49529 13.8956 5.02346 14.3539 4.45727 14.3539Z" fill="#94C3B3"/>
<path d="M29.3428 14.3539C28.7766 14.3539 28.3048 13.8956 28.3048 13.3159V10.2019C28.3048 7.68097 26.2557 5.64537 23.7483 5.64537H20.6342C20.0545 5.64537 19.5962 5.17355 19.5962 4.60735C19.5962 4.04116 20.0545 3.56934 20.6342 3.56934H23.7483C27.4016 3.56934 30.3808 6.54858 30.3808 10.2019V13.3159C30.3808 13.8956 29.9225 14.3539 29.3428 14.3539Z" fill="#94C3B3"/>
<path d="M23.7482 30.5309H21.8744C21.3082 30.5309 20.8364 30.0726 20.8364 29.4929C20.8364 28.9267 21.2947 28.4549 21.8744 28.4549H23.7482C26.2691 28.4549 28.3047 26.4058 28.3047 23.8984V22.038C28.3047 21.4718 28.7631 21 29.3427 21C29.9089 21 30.3807 21.4583 30.3807 22.038V23.8984C30.3807 27.5517 27.4015 30.5309 23.7482 30.5309Z" fill="#94C3B3"/>
<path d="M13.1658 30.5307H10.0518C6.3985 30.5307 3.41925 27.5515 3.41925 23.8982V20.7841C3.41925 20.2044 3.8776 19.7461 4.45727 19.7461C5.03694 19.7461 5.49529 20.2044 5.49529 20.7841V23.8982C5.49529 26.4191 7.54436 28.4547 10.0518 28.4547H13.1658C13.732 28.4547 14.2039 28.913 14.2039 29.4927C14.2039 30.0724 13.7455 30.5307 13.1658 30.5307Z" fill="#94C3B3"/>
<path d="M25.6086 16.012H23.7752H10.0248H8.19146C7.61179 16.012 7.15344 16.4838 7.15344 17.05C7.15344 17.6162 7.61179 18.088 8.19146 18.088H10.0248H23.7752H25.6086C26.1883 18.088 26.6466 17.6162 26.6466 17.05C26.6466 16.4838 26.1883 16.012 25.6086 16.012Z" fill="#94C3B3"/>
<path d="M10.0248 19.6652V20.11C10.0248 22.3478 11.8313 24.1543 14.0691 24.1543H19.731C21.9688 24.1543 23.7752 22.3478 23.7752 20.11V19.6652C23.7752 19.5034 23.6539 19.3821 23.4921 19.3821H10.3079C10.1462 19.3821 10.0248 19.5034 10.0248 19.6652Z" fill="#94C3B3"/>
<path d="M10.0248 14.4347V13.9898C10.0248 11.752 11.8313 9.94556 14.0691 9.94556H19.731C21.9688 9.94556 23.7752 11.752 23.7752 13.9898V14.4347C23.7752 14.5964 23.6539 14.7177 23.4921 14.7177H10.3079C10.1462 14.7177 10.0248 14.5964 10.0248 14.4347Z" fill="#94C3B3"/>
</svg>
