<svg width="16" height="16" viewBox="0 0 16 16" fill="none" xmlns="http://www.w3.org/2000/svg">
<g clip-path="url(#clip0_511_649)">
<path d="M13.8273 2.37554H11.773V1.63319C11.773 0.732659 11.0404 0 10.1398 0H5.86032C4.95975 0 4.22713 0.732659 4.22713 1.63319V2.37551H2.17284C1.41296 2.37551 0.7948 2.99367 0.7948 3.75355V4.75305C0.7948 5.51293 1.41296 6.13109 2.17284 6.13109H2.26821L3.56825 15.5477C3.60406 15.8069 3.82566 16 4.08738 16H11.9127C12.1744 16 12.396 15.8069 12.4318 15.5477L13.7318 6.13109H13.8272C14.5871 6.13109 15.2053 5.51293 15.2053 4.75305V3.75355C15.2054 2.9937 14.5872 2.37554 13.8273 2.37554ZM5.27522 1.63319C5.27522 1.31057 5.53769 1.04807 5.86035 1.04807H10.1398C10.4625 1.04807 10.725 1.31054 10.725 1.63319V2.37551H5.27526V1.63319H5.27522ZM11.4561 14.952H4.54407L3.32625 6.13112H12.6739L11.4561 14.952ZM14.1573 4.75308C14.1573 4.93502 14.0093 5.08302 13.8273 5.08302C13.4223 5.08302 2.60203 5.08302 2.17284 5.08302C1.9909 5.08302 1.8429 4.93502 1.8429 4.75308V3.75355C1.8429 3.57161 1.9909 3.42361 2.17284 3.42361C2.34384 3.42361 13.4228 3.42361 13.8273 3.42361C14.0093 3.42361 14.1573 3.57161 14.1573 3.75355V4.75308Z" fill="#9E2B2B"/>
<path d="M7.97313 7.20398C7.68372 7.20398 7.4491 7.43861 7.4491 7.72801V13.1106C7.4491 13.4 7.68372 13.6347 7.97313 13.6347C8.26254 13.6347 8.49716 13.4 8.49716 13.1106V7.72801C8.49716 7.43861 8.26254 7.20398 7.97313 7.20398Z" fill="#9E2B2B"/>
<path d="M6.53966 13.0359L5.76457 7.65326C5.72332 7.36679 5.45791 7.16782 5.17122 7.20926C4.88475 7.25051 4.68597 7.51616 4.72722 7.8026L5.50232 13.1852C5.5436 13.472 5.80954 13.6705 6.09566 13.6292C6.38213 13.588 6.58091 13.3223 6.53966 13.0359Z" fill="#9E2B2B"/>
<path d="M10.829 7.20927C10.543 7.16802 10.2768 7.36684 10.2356 7.65328L9.46049 13.0358C9.41927 13.3223 9.61802 13.588 9.90449 13.6292C10.1906 13.6704 10.4566 13.4718 10.4978 13.1852L11.273 7.80262C11.3142 7.51618 11.1155 7.25049 10.829 7.20927Z" fill="#9E2B2B"/>
</g>
<defs>
<clipPath id="clip0_511_649">
<rect width="16" height="16" fill="white"/>
</clipPath>
</defs>
</svg>
