<svg width="42" height="43" viewBox="0 0 42 43" fill="none" xmlns="http://www.w3.org/2000/svg">
<g id="package-delivery-svgrepo-com 1">
<g clip-path="url(#clip0_252_2062)">
<g id="Group">
<g id="Group_2">
<g id="Group_3">
<path id="Vector" d="M38.0999 6.02434L38.5892 5.46854C38.844 5.17874 38.816 4.73634 38.5255 4.48084C38.2364 4.22604 37.7947 4.25404 37.5378 4.54454L36.9869 5.17174C35.7703 4.36114 34.301 3.78644 32.901 3.50294V1.89994H33.601C33.9881 1.89994 34.301 1.58704 34.301 1.19994C34.301 0.812839 33.9881 0.499939 33.601 0.499939H32.2059C32.2031 0.499939 32.201 0.499939 32.1989 0.499939H28.6989C28.6968 0.499939 28.6947 0.499939 28.6919 0.499939H27.301C26.9139 0.499939 26.601 0.812839 26.601 1.19994C26.601 1.58704 26.9139 1.89994 27.301 1.89994H28.001V3.66744C26.601 3.97754 25.6805 4.47314 24.6725 5.13534L24.1524 4.54454C23.8962 4.25264 23.4538 4.22604 23.1647 4.48084C22.8742 4.73634 22.8462 5.17874 23.101 5.46854L23.549 5.97814C21.1361 8.03404 19.5989 11.0881 19.5989 14.4992C19.5989 20.6746 24.6235 25.6992 30.7989 25.6992C36.9743 25.6992 41.9989 20.6746 41.9989 14.4992C41.9989 11.1126 40.4827 8.07954 38.0999 6.02434ZM29.401 1.89994H31.501V3.29994H29.401V1.89994ZM30.7989 24.2985C25.3949 24.2985 20.9989 19.9025 20.9989 14.4985C20.9989 11.352 22.4955 8.55554 24.8069 6.76074C24.8944 6.73204 24.9777 6.69004 25.0505 6.62564C25.0862 6.59414 25.1058 6.55284 25.1338 6.51644C26.7354 5.37614 28.6877 4.69854 30.7989 4.69854C36.2029 4.69854 40.5989 9.09454 40.5989 14.4985C40.5989 19.9025 36.2029 24.2985 30.7989 24.2985Z" fill="#0F7275"/>
<path id="Vector_2" d="M30.799 6.09857C26.1671 6.09857 22.399 9.86667 22.399 14.4986C22.399 19.1305 26.1671 22.8986 30.799 22.8986C35.4309 22.8986 39.199 19.1305 39.199 14.4986C39.199 9.86667 35.4309 6.09857 30.799 6.09857ZM30.799 21.4986C26.9392 21.4986 23.799 18.3584 23.799 14.4986C23.799 10.6388 26.9392 7.49857 30.799 7.49857C34.6588 7.49857 37.799 10.6388 37.799 14.4986C37.799 18.3584 34.6588 21.4986 30.799 21.4986Z" fill="#0F7275"/>
<path id="Vector_3" d="M30.8011 9.59985C30.414 9.59985 30.1011 9.91275 30.1011 10.2999V14.4999H28.0011C27.614 14.4999 27.3011 14.8128 27.3011 15.1999C27.3011 15.587 27.614 15.8999 28.0011 15.8999H30.8011C31.1882 15.8999 31.5011 15.587 31.5011 15.1999V10.2999C31.5011 9.91275 31.1882 9.59985 30.8011 9.59985Z" fill="#0F7275"/>
<path id="Vector_4" d="M10.5009 27.0999C10.5009 26.7128 10.1873 26.3999 9.80093 26.3999H3.50093C3.11453 26.3999 2.80093 26.7128 2.80093 27.0999C2.80093 27.487 3.11453 27.7999 3.50093 27.7999H9.80093C10.1873 27.7999 10.5009 27.487 10.5009 27.0999Z" fill="#0F7275"/>
<path id="Vector_5" d="M3.50093 30.5999H7.00093C7.38733 30.5999 7.70093 30.287 7.70093 29.8999C7.70093 29.5128 7.38733 29.1999 7.00093 29.1999H3.50093C3.11453 29.1999 2.80093 29.5128 2.80093 29.8999C2.80093 30.287 3.11453 30.5999 3.50093 30.5999Z" fill="#0F7275"/>
<path id="Vector_6" d="M18.9009 36.1999C18.9009 36.587 19.2145 36.8999 19.6009 36.8999H23.8009C24.188 36.8999 24.5009 36.587 24.5009 36.1999C24.5009 35.8128 24.188 35.4999 23.8009 35.4999H19.6009C19.2145 35.4999 18.9009 35.8128 18.9009 36.1999Z" fill="#0F7275"/>
<path id="Vector_7" d="M26.6009 38.3H19.6009C19.2145 38.3 18.9009 38.6129 18.9009 39C18.9009 39.3871 19.2145 39.7 19.6009 39.7H26.6009C26.988 39.7 27.3009 39.3871 27.3009 39C27.3009 38.6129 26.988 38.3 26.6009 38.3Z" fill="#0F7275"/>
<path id="Vector_8" d="M2.80093 37.6C2.80093 38.7578 3.74313 39.7 4.90093 39.7H9.10093C9.48733 39.7 9.80093 39.3871 9.80093 39V36.2C9.80093 35.0422 8.85873 34.1 7.70093 34.1H3.50093C3.11453 34.1 2.80093 34.4129 2.80093 34.8V37.6ZM4.20093 35.5H7.70093C8.08663 35.5 8.40093 35.8136 8.40093 36.2V38.3H4.90093C4.51523 38.3 4.20093 37.9864 4.20093 37.6V35.5Z" fill="#0F7275"/>
<path id="Vector_9" d="M27.301 28.4999C27.301 27.3421 26.3588 26.3999 25.201 26.3999H21.001C20.6146 26.3999 20.301 26.7128 20.301 27.0999V29.8999C20.301 31.0577 21.2432 31.9999 22.401 31.9999H26.601C26.9881 31.9999 27.301 31.687 27.301 31.2999V28.4999ZM25.901 30.5999H22.401C22.0146 30.5999 21.701 30.2863 21.701 29.8999V27.7999H25.201C25.5874 27.7999 25.901 28.1135 25.901 28.4999V30.5999Z" fill="#0F7275"/>
<path id="Vector_10" d="M37.801 24.9999C37.4139 24.9999 37.101 25.3128 37.101 25.6999V41.0999H35.701V37.5999C35.701 37.2128 35.3881 36.8999 35.001 36.8999H32.201C31.8139 36.8999 31.501 37.2128 31.501 37.5999V41.0999H30.101V27.7999C30.101 27.4128 29.7881 27.0999 29.401 27.0999C29.0139 27.0999 28.701 27.4128 28.701 27.7999V41.0999H17.501V37.5999C17.501 37.2128 17.1874 36.8999 16.801 36.8999H12.601C12.2146 36.8999 11.901 37.2128 11.901 37.5999V41.0999H1.40103V21.4999H11.901V26.3999C11.901 26.787 12.2146 27.0999 12.601 27.0999H16.801C17.1874 27.0999 17.501 26.787 17.501 26.3999V21.4999H18.901C19.2874 21.4999 19.601 21.187 19.601 20.7999C19.601 20.4128 19.2874 20.0999 18.901 20.0999H16.801H12.601H0.70103C0.31463 20.0999 0.00102997 20.4128 0.00102997 20.7999V41.7999C0.00102997 42.187 0.31463 42.4999 0.70103 42.4999H12.601H16.801H29.401H32.201H35.001H37.801C38.1881 42.4999 38.501 42.187 38.501 41.7999V25.6999C38.501 25.3128 38.1881 24.9999 37.801 24.9999ZM13.301 21.4999H16.101V25.6999H13.301V21.4999ZM16.101 41.0999H13.301V38.2999H16.101V41.0999ZM34.301 41.0999H32.901V38.2999H34.301V41.0999Z" fill="#0F7275"/>
<path id="Vector_11" d="M6.30104 18.6999C6.68744 18.6999 7.00104 18.387 7.00104 17.9999C7.00104 17.7794 7.00804 17.5603 7.02134 17.3433C7.04514 16.9576 6.75184 16.6258 6.36614 16.6013C5.98534 16.5859 5.64794 16.8708 5.62414 17.2572C5.60874 17.5029 5.60104 17.7507 5.60104 17.9999C5.60104 18.387 5.91464 18.6999 6.30104 18.6999Z" fill="#0F7275"/>
<path id="Vector_12" d="M6.88487 14.3536C6.97237 14.39 7.06337 14.4068 7.15297 14.4068C7.42737 14.4068 7.68777 14.2451 7.79977 13.9756C7.91107 13.7075 8.03287 13.445 8.16517 13.1888C8.34227 12.8451 8.20787 12.423 7.86417 12.2452C7.52117 12.0688 7.09837 12.2025 6.92127 12.5462C6.77147 12.8367 6.63287 13.1349 6.50687 13.438C6.35917 13.7957 6.52787 14.2052 6.88487 14.3536Z" fill="#0F7275"/>
<path id="Vector_13" d="M13.6482 8.18107C13.7287 8.18107 13.8099 8.16707 13.8897 8.13767C14.1592 8.03827 14.4343 7.95007 14.7136 7.87447C15.0867 7.77297 15.3065 7.38867 15.205 7.01487C15.1035 6.64177 14.7192 6.42057 14.3454 6.52347C14.0269 6.61027 13.714 6.71107 13.4067 6.82377C13.0434 6.95677 12.8579 7.35927 12.9909 7.72187C13.0952 8.00537 13.3626 8.18107 13.6482 8.18107Z" fill="#0F7275"/>
<path id="Vector_14" d="M9.7507 10.6149C9.925 10.6149 10.0993 10.5498 10.2351 10.4203C10.4437 10.2201 10.6607 10.0283 10.8861 9.84633C11.1864 9.60203 11.2319 9.16102 10.9876 8.86142C10.744 8.56112 10.303 8.51632 10.0027 8.75922C9.7486 8.96642 9.5029 9.18343 9.2663 9.41023C8.987 9.67763 8.9779 10.1207 9.2453 10.4C9.3825 10.5428 9.5666 10.6149 9.7507 10.6149Z" fill="#0F7275"/>
<path id="Vector_15" d="M18.2011 7.49998H18.9011C19.2875 7.49998 19.6011 7.18708 19.6011 6.79998C19.6011 6.41288 19.2875 6.09998 18.9011 6.09998H18.2011C17.8147 6.09998 17.5011 6.41288 17.5011 6.79998C17.5011 7.18708 17.8147 7.49998 18.2011 7.49998Z" fill="#0F7275"/>
</g>
</g>
</g>
</g>
</g>
<defs>
<clipPath id="clip0_252_2062">
<rect y="0.5" width="42" height="42" fill="white"/>
</clipPath>
</defs>
</svg>
