<svg width="29" height="29" viewBox="0 0 29 29" fill="none" xmlns="http://www.w3.org/2000/svg">
<path fill-rule="evenodd" clip-rule="evenodd" d="M3.625 17.2188C4.1255 17.2188 4.53125 17.6245 4.53125 18.125C4.53125 19.8594 4.53317 21.0691 4.65589 21.9819C4.77509 22.8686 4.99314 23.338 5.32755 23.6725C5.66197 24.0069 6.13151 24.2249 7.01815 24.3442C7.93086 24.4668 9.14055 24.4687 10.875 24.4687H18.125C19.8594 24.4687 21.0691 24.4668 21.9819 24.3442C22.8686 24.2249 23.338 24.0069 23.6725 23.6725C24.0069 23.338 24.2249 22.8686 24.3442 21.9819C24.4668 21.0691 24.4688 19.8594 24.4688 18.125C24.4688 17.6245 24.8745 17.2188 25.375 17.2188C25.8755 17.2188 26.2812 17.6245 26.2812 18.125V18.1913C26.2812 19.8439 26.2812 21.1758 26.1405 22.2234C25.9943 23.311 25.6814 24.2267 24.9541 24.954C24.2267 25.6814 23.311 25.9943 22.2234 26.1405C21.1758 26.2812 19.8439 26.2812 18.1913 26.2812H10.8087C9.1562 26.2812 7.82422 26.2812 6.77664 26.1405C5.689 25.9943 4.77324 25.6814 4.04592 24.9541C3.3186 24.2267 3.00578 23.311 2.85955 22.2234C2.7187 21.1758 2.71873 19.8439 2.71875 18.1913C2.71875 18.1692 2.71875 18.1471 2.71875 18.125C2.71875 17.6245 3.1245 17.2188 3.625 17.2188Z" fill="white"/>
<path fill-rule="evenodd" clip-rule="evenodd" d="M14.5007 2.71879C14.2462 2.71879 14.0035 2.82573 13.8318 3.0135L8.99851 8.29996C8.66078 8.66935 8.68639 9.24258 9.05578 9.58031C9.42517 9.91804 9.9984 9.89242 10.3361 9.52304L13.5944 5.9593L13.5944 19.3334C13.5944 19.8339 14.0002 20.2396 14.5007 20.2396C15.0011 20.2396 15.4069 19.8339 15.4069 19.3334L15.4069 5.9593L18.6651 9.52304C19.0029 9.89242 19.5761 9.91804 19.9455 9.58031C20.3149 9.24258 20.3406 8.66935 20.0028 8.29996L15.1695 3.0135C14.9978 2.82573 14.7551 2.71879 14.5007 2.71879Z" fill="white"/>
</svg>
