<svg width="23" height="23" viewBox="0 0 23 23" fill="none" xmlns="http://www.w3.org/2000/svg">
<path d="M2 4.63889C2 13.6749 9.32512 21 18.3611 21C18.7688 21 19.1729 20.9851 19.5732 20.9558C20.0325 20.9221 20.2621 20.9053 20.4712 20.785C20.6443 20.6853 20.8084 20.5086 20.8952 20.3287C21 20.1114 21 19.858 21 19.3512V16.3774C21 15.9512 21 15.7381 20.9298 15.5554C20.868 15.3941 20.7672 15.2504 20.6368 15.137C20.4891 15.0087 20.2888 14.9358 19.8883 14.7902L16.5033 13.5593C16.0373 13.3899 15.8042 13.3051 15.5832 13.3195C15.3882 13.3321 15.2007 13.3987 15.0413 13.5117C14.8606 13.6397 14.7331 13.8523 14.4779 14.2776L13.6111 15.7222C10.814 14.4555 8.54645 12.185 7.27778 9.38889L8.72244 8.52209C9.14764 8.26697 9.36024 8.13941 9.48832 7.95867C9.60127 7.79931 9.66787 7.61172 9.68054 7.41679C9.6949 7.19573 9.61013 6.96273 9.44072 6.49672L8.20982 3.11172C8.06417 2.71119 7.99134 2.51092 7.863 2.36322C7.74962 2.23274 7.60594 2.1321 7.44458 2.07014C7.2619 2 7.04881 2 6.62262 2H3.64879C3.14198 2 2.88858 2 2.67131 2.10476C2.49136 2.19154 2.3147 2.35573 2.21502 2.52886C2.09466 2.73791 2.07785 2.96754 2.04422 3.42683C2.01491 3.82702 2 4.23121 2 4.63889Z" stroke="#0F7275" stroke-width="2.11111" stroke-linecap="round" stroke-linejoin="round"/>
</svg>
