<svg width="22" height="23" viewBox="0 0 22 23" fill="none" xmlns="http://www.w3.org/2000/svg">
<path d="M11 0.5C8.08262 0.5 5.28473 1.65893 3.22183 3.72183C1.15893 5.78473 0 8.58262 0 11.5C0 14.4174 1.15893 17.2153 3.22183 19.2782C5.28473 21.3411 8.08262 22.5 11 22.5C11.2652 22.5 11.5196 22.3946 11.7071 22.2071C11.8946 22.0196 12 21.7652 12 21.5C12 21.2348 11.8946 20.9804 11.7071 20.7929C11.5196 20.6054 11.2652 20.5 11 20.5C9.21997 20.5 7.47991 19.9722 5.99987 18.9832C4.51983 17.9943 3.36627 16.5887 2.68508 14.9442C2.0039 13.2996 1.82567 11.49 2.17293 9.74419C2.5202 7.99836 3.37737 6.39471 4.63604 5.13604C5.89471 3.87737 7.49836 3.0202 9.24419 2.67293C10.99 2.32567 12.7996 2.5039 14.4441 3.18508C16.0887 3.86627 17.4943 5.01983 18.4832 6.49987C19.4722 7.97991 20 9.71997 20 11.5V14.357C20 14.8495 19.8043 15.3218 19.4561 15.6701C19.1078 16.0184 18.6355 16.214 18.143 16.214C17.6505 16.214 17.1782 16.0184 16.8299 15.6701C16.4816 15.3218 16.286 14.8495 16.286 14.357V7.214C16.286 6.94878 16.1806 6.69443 15.9931 6.50689C15.8056 6.31936 15.5512 6.214 15.286 6.214C15.0208 6.214 14.7664 6.31936 14.5789 6.50689C14.3914 6.69443 14.286 6.94878 14.286 7.214V7.393C13.3579 6.63552 12.198 6.21936 11 6.214C10.1428 6.20793 9.29701 6.41041 8.53551 6.804C7.774 7.19758 7.11964 7.77046 6.62882 8.47324C6.13801 9.17602 5.82547 9.98762 5.71815 10.8381C5.61083 11.6885 5.71195 12.5523 6.0128 13.355C6.31364 14.1577 6.80518 14.8752 7.44504 15.4456C8.0849 16.016 8.85388 16.4223 9.6857 16.6293C10.5175 16.8364 11.3872 16.8381 12.2198 16.6342C13.0524 16.4303 13.823 16.027 14.465 15.459C14.7282 16.3459 15.3022 17.1082 16.0818 17.6063C16.8614 18.1044 17.7943 18.3048 18.7097 18.171C19.6251 18.0371 20.4616 17.5778 21.0659 16.8774C21.6702 16.1769 22.0018 15.2821 22 14.357V11.5C21.9966 8.58367 20.8365 5.78778 18.7744 3.72563C16.7122 1.66347 13.9163 0.50344 11 0.5ZM11 14.786C10.3501 14.786 9.71478 14.5933 9.1744 14.2322C8.63402 13.8711 8.21284 13.3579 7.96413 12.7575C7.71542 12.1571 7.65035 11.4964 7.77714 10.8589C7.90393 10.2215 8.21689 9.636 8.67645 9.17645C9.136 8.71689 9.72151 8.40393 10.3589 8.27714C10.9964 8.15035 11.6571 8.21542 12.2575 8.46413C12.8579 8.71284 13.3711 9.13402 13.7322 9.6744C14.0933 10.2148 14.286 10.8501 14.286 11.5C14.2849 12.3712 13.9384 13.2064 13.3224 13.8224C12.7064 14.4384 11.8712 14.7849 11 14.786Z" fill="#0F7275"/>
</svg>
