<svg width="15" height="14" viewBox="0 0 15 14" fill="none" xmlns="http://www.w3.org/2000/svg">
<path d="M12.7063 6.00837L14.1938 6.29171C14.2292 6.53963 14.2292 6.75212 14.2292 7.00004C14.2292 8.62921 13.6626 10.1875 12.6001 11.3917L11.5376 10.4709C12.3522 9.51462 12.8126 8.27504 12.8126 7.00004C12.8126 6.68129 12.7772 6.32712 12.7063 6.00837ZM7.50008 0.270874C9.41258 0.270874 11.1126 1.08546 12.3522 2.36046L11.3605 3.35212C10.3688 2.32504 9.023 1.68754 7.50008 1.68754C7.18133 1.68754 6.82716 1.72296 6.50841 1.79379L6.2605 0.412541C6.65008 0.306291 7.07508 0.270874 7.50008 0.270874ZM2.29383 7.99171L0.806332 7.70838C0.770915 7.46046 0.770915 7.24796 0.770915 7.00004C0.770915 5.44171 1.30217 3.91879 2.29383 2.71462L3.39175 3.60004C2.61258 4.55629 2.18758 5.76046 2.18758 6.96462C2.18758 7.31879 2.223 7.67296 2.29383 7.99171ZM3.63967 10.648C4.63133 11.675 5.97716 12.3125 7.50008 12.3125C7.81883 12.3125 8.173 12.2771 8.49175 12.2063L8.73966 13.5875C8.31466 13.6584 7.88966 13.6938 7.50008 13.6938C5.58758 13.6938 3.88758 12.8792 2.648 11.6042L3.63967 10.648Z" fill="#E28834"/>
</svg>
