<svg width="25" height="25" viewBox="0 0 25 25" fill="none" xmlns="http://www.w3.org/2000/svg">
<g clip-path="url(#clip0_94_585)">
<path d="M22.6469 21.6667V21.8531H22.8333H24.5C24.5826 21.8531 24.637 21.8799 24.6702 21.9131C24.7035 21.9463 24.7302 22.0007 24.7302 22.0833L24.7303 22.7084H24.7299L24.7306 22.72C24.8079 23.9569 24.0068 24.8136 22.9167 24.8136H2.08335C0.99408 24.8136 0.186441 23.9556 0.186441 22.7083V22.0833C0.186441 22.0007 0.21317 21.9463 0.246408 21.9131C0.279647 21.8798 0.334014 21.8531 0.41665 21.8531H2.0833H2.26974V21.6667V8.75C2.26974 7.68627 3.10297 6.85309 4.16665 6.85309H7.08335H7.26979V6.66665C7.26979 6.58401 7.29652 6.52965 7.32976 6.49641C7.363 6.46317 7.41736 6.43644 7.5 6.43644H12.5C12.5827 6.43644 12.6371 6.46317 12.6703 6.49641C12.7035 6.52965 12.7303 6.58401 12.7303 6.66665V6.85309H12.9167H15.8333C16.8971 6.85309 17.7303 7.68631 17.7303 8.75V21.6667V21.8531H17.9167H19.5833H19.7698V21.6667V7.12197V7.006L19.6658 6.95473C18.4962 6.3784 17.6864 5.16622 17.6864 3.75C17.6864 1.76962 19.2696 0.186441 21.25 0.186441C23.2304 0.186441 24.8136 1.76962 24.8136 3.75C24.8136 5.17678 23.9697 6.39893 22.7541 6.96987L22.6469 7.02021V7.13862V21.6667ZM22.3846 6.62602L22.4002 6.62257L22.4149 6.61654C23.5478 6.15278 24.3531 5.05299 24.3531 3.75C24.3531 2.02203 22.978 0.646909 21.25 0.646909C19.522 0.646909 18.1469 2.02203 18.1469 3.75C18.1469 5.47621 19.5203 6.85309 21.2083 6.85309C21.5491 6.85309 21.8777 6.79884 22.1858 6.69964L22.1859 6.69973L22.1915 6.69771C22.2459 6.67826 22.3016 6.65711 22.3573 6.63304C22.3652 6.63066 22.3743 6.62831 22.3846 6.62602ZM12.2281 7.08335V6.89691H12.0417H7.9166H7.73016V7.08335V11.4584V11.8312L8.02847 11.6075L9.86182 10.2325L9.86182 10.2325C9.92106 10.1881 9.96611 10.176 9.99995 10.176C10.0338 10.176 10.0788 10.1881 10.1381 10.2325L10.1381 10.2325L11.9714 11.6075L12.2697 11.8312V11.4584V7.26509V7.21903L12.2483 7.17827C12.2365 7.15578 12.2281 7.12832 12.2281 7.08335ZM7.26974 7.5V7.31356H7.0833H4.16665C3.35533 7.31356 2.73021 7.93868 2.73021 8.75V21.6667V21.8531H2.91665H17.0833H17.2697V21.6667V8.75C17.2697 7.93868 16.6446 7.31356 15.8333 7.31356H12.9166H12.7302V7.5V11.8334C12.7302 12.0385 12.619 12.1904 12.4166 12.2916C12.378 12.3109 12.338 12.3136 12.25 12.3136C12.1439 12.3136 12.0223 12.2587 11.9234 12.1599L11.9138 12.1503L11.9029 12.1421L10.1113 10.8088L9.99822 10.7247L9.88644 10.8104L8.09479 12.1854L8.08511 12.1929L8.07649 12.2015C7.95696 12.321 7.7383 12.3829 7.55892 12.3231C7.39539 12.2686 7.26974 12.0979 7.26974 11.875V7.5ZM24.3531 22.7083V22.7083L24.353 22.4999L24.353 22.3135H24.1666H22.5C22.4173 22.3135 22.3629 22.2868 22.3297 22.2535C22.2965 22.2203 22.2697 22.1659 22.2697 22.0833V7.41665V7.18228L22.0414 7.23498C21.5273 7.35362 20.9726 7.35362 20.4586 7.23498L20.2302 7.18228V7.41665V22.0833C20.2302 22.166 20.2035 22.2204 20.1702 22.2536C20.137 22.2868 20.0826 22.3136 20 22.3136H17.5H2.5H0.83335H0.646909V22.5V22.7083C0.646909 23.1111 0.747154 23.5187 0.981071 23.8306C1.22023 24.1495 1.58855 24.3531 2.08335 24.3531H22.9167C23.4115 24.3531 23.7798 24.1495 24.0189 23.8306C24.2528 23.5187 24.3531 23.1111 24.3531 22.7083Z" fill="#0F7275" stroke="#0F7275" stroke-width="0.372881"/>
<path d="M22.5 5.41671C22.625 5.41671 22.7084 5.37506 22.7917 5.29171C22.9583 5.12506 22.9583 4.87506 22.7917 4.70836L21.5417 3.45836C21.375 3.29171 21.125 3.29171 20.9583 3.45836C20.7916 3.62501 20.7917 3.87501 20.9583 4.04171L22.2083 5.29171C22.2917 5.37506 22.375 5.41671 22.5 5.41671Z" fill="#0F7275"/>
<path d="M7.91665 17.9166H4.16665C3.91665 17.9166 3.75 18.0833 3.75 18.3333V20.4166C3.75 20.6666 3.91665 20.8333 4.16665 20.8333H7.91665C8.16665 20.8333 8.3333 20.6666 8.3333 20.4166V18.3333C8.33335 18.0833 8.16665 17.9166 7.91665 17.9166ZM7.5 20H4.58335V18.75H7.5V20Z" fill="#0F7275"/>
</g>
<defs>
<clipPath id="clip0_94_585">
<rect width="25" height="25" fill="white"/>
</clipPath>
</defs>
</svg>
