<svg width="32" height="32" viewBox="0 0 32 32" fill="none" xmlns="http://www.w3.org/2000/svg">
<path fill-rule="evenodd" clip-rule="evenodd" d="M14.5147 0.930888C14.9962 0.556403 15.6704 0.556403 16.1519 0.930888L28.1519 10.2642C28.4767 10.5168 28.6667 10.9052 28.6667 11.3167V25.9834C28.6667 27.0442 28.2452 28.0616 27.4951 28.8118C26.745 29.5619 25.7275 29.9834 24.6667 29.9834H6C4.93913 29.9834 3.92172 29.5619 3.17157 28.8118C2.42143 28.0616 2 27.0442 2 25.9834V11.3167C2 10.9052 2.18996 10.5168 2.51475 10.2642L14.5147 0.930888Z" fill="#0F7275"/>
<path d="M12 17C12 15.8954 12.8954 15 14 15H17C18.1046 15 19 15.8954 19 17V30H12V17Z" fill="#94C3B3"/>
</svg>
