<svg width="32" height="32" viewBox="0 0 32 32" fill="none" xmlns="http://www.w3.org/2000/svg">
<path fill-rule="evenodd" clip-rule="evenodd" d="M15.1814 1.61424C15.6629 1.23975 16.3371 1.23975 16.8186 1.61424L28.8186 10.9476C29.1434 11.2002 29.3334 11.5886 29.3334 12V26.6667C29.3334 27.7276 28.9119 28.745 28.1618 29.4951C27.4116 30.2453 26.3942 30.6667 25.3334 30.6667H6.66669C5.60582 30.6667 4.5884 30.2453 3.83826 29.4951C3.08811 28.745 2.66669 27.7276 2.66669 26.6667V12C2.66669 11.5886 2.85665 11.2002 3.18143 10.9476L15.1814 1.61424ZM5.33335 12.6522V26.6667C5.33335 27.0203 5.47383 27.3595 5.72388 27.6095C5.97393 27.8596 6.31307 28 6.66669 28H25.3334C25.687 28 26.0261 27.8596 26.2762 27.6095C26.5262 27.3595 26.6667 27.0203 26.6667 26.6667V12.6522L16 4.35586L5.33335 12.6522Z" fill="white"/>
<path fill-rule="evenodd" clip-rule="evenodd" d="M10.6667 16.0001C10.6667 15.2637 11.2636 14.6667 12 14.6667H20C20.7364 14.6667 21.3333 15.2637 21.3333 16.0001V29.3334C21.3333 30.0698 20.7364 30.6667 20 30.6667C19.2636 30.6667 18.6667 30.0698 18.6667 29.3334V17.3334H13.3333V29.3334C13.3333 30.0698 12.7364 30.6667 12 30.6667C11.2636 30.6667 10.6667 30.0698 10.6667 29.3334V16.0001Z" fill="white"/>
</svg>
