<svg width="35" height="35" viewBox="0 0 35 35" fill="none" xmlns="http://www.w3.org/2000/svg">
<path d="M18.3908 12.5216C18.4392 12.0121 18.4126 12.3159 18.4343 11.7834C18.5493 9.03059 16.2018 6.79321 13.4477 6.79321C10.6937 6.79321 8.45752 9.02817 8.45752 11.7834C8.45752 14.5387 10.6925 16.77 13.4477 16.77C14.2101 16.77 14.1859 16.77 15.0087 16.522" stroke="#0F7275" stroke-width="0.968593" stroke-miterlimit="10" stroke-linecap="round"/>
<path d="M13.1489 2.85571V5.23345" stroke="#0F7275" stroke-width="0.968593" stroke-miterlimit="10" stroke-linecap="round"/>
<path d="M6.518 11.9119H4.14026" stroke="#0F7275" stroke-width="0.968593" stroke-miterlimit="10" stroke-linecap="round"/>
<path d="M17.8949 7.10434L19.5769 5.42358" stroke="#0F7275" stroke-width="0.968593" stroke-miterlimit="10" stroke-linecap="round"/>
<path d="M6.93665 18.3321L8.6174 16.6514" stroke="#0F7275" stroke-width="0.968593" stroke-miterlimit="10" stroke-linecap="round"/>
<path d="M6.93665 5.42358L8.6174 7.10434" stroke="#0F7275" stroke-width="0.968593" stroke-miterlimit="10" stroke-linecap="round"/>
<path d="M19.1374 24.6001C19.0636 24.8748 18.6437 24.8409 18.5457 24.5747C18.4743 24.3799 18.4102 24.2117 18.3436 24.0447C17.6116 22.2175 15.903 21.0353 14.1436 21.1357C12.8984 21.2059 12.458 21.9755 13.0449 23.0887C13.6523 24.2395 14.6421 24.9365 15.8969 25.1265C16.7125 25.2499 17.5607 25.1603 18.5215 25.1519C18.5941 25.1519 18.6486 25.2221 18.6268 25.291C18.075 27.0988 16.842 28.4214 15.9962 30.0042C15.9381 30.1118 16.0446 30.2341 16.1607 30.1965C16.3471 30.136 16.5068 30.0429 16.5939 29.9049C17.2824 28.8062 17.9516 27.6942 18.5844 26.5616C19.1338 25.579 19.2003 25.5282 20.2688 25.8973C22.1456 26.5458 24.1688 26.0534 25.2373 24.6872C26.0565 23.6393 25.7975 22.8479 24.5245 22.5091C22.8728 22.0687 20.6706 22.9266 19.6335 24.6485C19.5428 24.7985 19.112 25.3648 18.9717 25.4145C18.8857 25.4447 19.4641 24.7441 19.4883 24.657C19.7606 23.6926 20.1285 23.2061 20.4358 22.2453C20.6742 21.4963 20.8908 21.2446 21.7427 21.5992C23.5904 22.3676 25.8169 21.7371 26.8285 20.3165C27.5509 19.3025 27.2278 18.4603 25.9996 18.2353C24.1906 17.9049 22.7881 18.6249 21.6822 20.0116C21.4764 20.2693 21.3058 20.5561 21.088 20.9082C21.036 20.9929 20.9053 20.9397 20.9259 20.8429C21.1001 20.014 21.2127 19.3037 21.3506 18.5995C21.5127 17.7754 21.7511 17.5746 22.5861 17.7621C24.3612 18.159 26.3699 17.1958 27.1709 15.6905C27.7856 14.5374 27.3427 13.7448 26.0553 13.694C24.3818 13.6274 22.8087 14.6511 22.0234 16.3234C21.9217 16.54 21.6471 17.0809 21.543 17.3205C21.5055 17.4052 21.3167 17.7222 21.324 17.6302C21.3978 16.5944 21.7584 15.1363 22.3888 14.2978C23.3992 12.9534 23.5783 11.3489 22.6744 9.82544C22.4287 9.4104 21.8697 8.93001 21.4607 8.93485C21.0469 8.93969 20.4854 9.42613 20.2579 9.84722C19.354 11.5171 19.6614 13.1349 20.7335 14.6342C21.3542 15.5006 21.3954 15.9362 21.2744 16.9042C21.2611 17.0143 21.0989 17.024 21.059 16.9199C20.9791 16.7154 20.9041 16.5255 20.8242 16.3367C20.0413 14.489 18.2505 13.3418 16.4717 13.5463C15.5085 13.6577 15.0971 14.2893 15.4541 15.1847C15.9659 16.4674 16.9714 17.2527 18.2831 17.4862C19.1011 17.6327 19.9603 17.5407 20.9598 17.5213C21.1328 17.5177 21.1788 17.7609 21.1449 17.9303C20.9477 18.9274 20.8327 20.1798 20.6464 21.12C20.6258 21.2204 20.5108 20.8707 20.4406 20.7945C20.2144 20.5525 20.1006 20.3093 19.9784 20.0697C19.0975 18.3502 17.3732 17.3519 15.615 17.5395C14.4267 17.6653 13.9935 18.4506 14.5659 19.4707C15.1394 20.492 16.0458 21.1418 17.1699 21.2979C18.1125 21.4286 19.0854 21.339 20.1285 21.3281C20.2277 21.3281 20.2482 21.5544 20.2168 21.6488C19.8828 22.6822 19.446 23.4433 19.135 24.6001H19.1374Z" stroke="#0F7275" stroke-width="0.874962" stroke-miterlimit="10" stroke-linecap="round"/>
<path d="M13.1492 20.1182V19.1235" stroke="#0F7275" stroke-width="0.968593" stroke-miterlimit="10" stroke-linecap="round"/>
</svg>
