<svg width="31" height="31" viewBox="0 0 31 31" fill="none" xmlns="http://www.w3.org/2000/svg">
<g clip-path="url(#clip0_493_4104)">
<path d="M6.87164 19.1942L4.40456 22.9013L1.93747 19.1942V4.40462C1.93576 4.08016 1.99841 3.75858 2.12178 3.45848C2.24516 3.15839 2.42682 2.88574 2.65625 2.65631C2.88568 2.42688 3.15833 2.24522 3.45842 2.12184C3.75852 1.99847 4.0801 1.93582 4.40456 1.93753C5.05887 1.93753 5.68638 2.19746 6.14905 2.66013C6.61172 3.12279 6.87164 3.75031 6.87164 4.40462V19.1942Z" stroke="white" stroke-width="2.6353" stroke-miterlimit="10"/>
<path d="M26.5954 29.0625H10.5658C9.91257 29.0591 9.28703 28.7981 8.8251 28.3361C8.36316 27.8742 8.10215 27.2486 8.09875 26.5954V24.1283H24.1283V26.5954C24.1317 27.2486 24.3927 27.8742 24.8547 28.3361C25.3166 28.7981 25.9422 29.0591 26.5954 29.0625Z" stroke="white" stroke-width="2.6353" stroke-miterlimit="10"/>
<path d="M29.0625 1.9375V26.5954C29.0625 27.2497 28.8026 27.8772 28.3399 28.3399C27.8772 28.8026 27.2497 29.0625 26.5954 29.0625C25.9411 29.0625 25.3136 28.8026 24.8509 28.3399C24.3882 27.8772 24.1283 27.2497 24.1283 26.5954V24.1283H13.0329V1.9375H29.0625Z" stroke="white" stroke-width="2.6353" stroke-miterlimit="10"/>
<path d="M16.7271 8.09888H25.3683" stroke="white" stroke-width="2.6353" stroke-miterlimit="10"/>
<path d="M16.7271 13.033H25.3683" stroke="white" stroke-width="2.6353" stroke-miterlimit="10"/>
<path d="M16.7271 17.9672H25.3683" stroke="white" stroke-width="2.6353" stroke-miterlimit="10"/>
</g>
<defs>
<clipPath id="clip0_493_4104">
<rect width="31" height="31" fill="white"/>
</clipPath>
</defs>
</svg>
