<svg width="36" height="35" viewBox="0 0 36 35" fill="none" xmlns="http://www.w3.org/2000/svg">
<path d="M19.3376 24.6002C19.2638 24.8749 18.8439 24.841 18.7459 24.5748C18.6745 24.38 18.6103 24.2118 18.5438 24.0448C17.8117 22.2177 16.1031 21.0354 14.3437 21.1359C13.0986 21.2061 12.6581 21.9757 13.245 23.0889C13.8524 24.2397 14.8422 24.9366 16.0971 25.1266C16.9126 25.25 17.7609 25.1605 18.7217 25.152C18.7943 25.152 18.8487 25.2222 18.8269 25.2912C18.2752 27.099 17.0421 28.4216 16.1963 30.0043C16.1382 30.112 16.2447 30.2342 16.3609 30.1967C16.5472 30.1362 16.7069 30.043 16.7941 29.9051C17.4826 28.8064 18.1517 27.6943 18.7846 26.5617C19.3339 25.5792 19.4005 25.5284 20.469 25.8974C22.3458 26.546 24.369 26.0535 25.4374 24.6874C26.2566 23.6395 25.9977 22.8481 24.7247 22.5093C23.073 22.0688 20.8707 22.9267 19.8337 24.6486C19.7429 24.7987 19.3122 25.365 19.1718 25.4146C19.0859 25.4449 19.6643 24.7442 19.6885 24.6571C19.9607 23.6927 20.3286 23.2063 20.636 22.2455C20.8743 21.4965 21.0909 21.2448 21.9428 21.5993C23.7905 22.3677 26.017 21.7373 27.0286 20.3167C27.751 19.3027 27.428 18.4605 26.1998 18.2354C24.3907 17.9051 22.9883 18.625 21.8823 20.0117C21.6766 20.2695 21.506 20.5563 21.2882 20.9084C21.2361 20.9931 21.1055 20.9399 21.126 20.843C21.3003 20.0142 21.4128 19.3039 21.5508 18.5996C21.7129 17.7756 21.9513 17.5747 22.7862 17.7623C24.5613 18.1592 26.57 17.196 27.3711 15.6907C27.9858 14.5375 27.5429 13.7449 26.2554 13.6941C24.5819 13.6275 23.0089 14.6512 22.2235 16.3235C22.1219 16.5401 21.8472 17.081 21.7431 17.3206C21.7056 17.4053 21.5169 17.7223 21.5241 17.6304C21.5979 16.5946 21.9585 15.1365 22.589 14.2979C23.5994 12.9535 23.7784 11.349 22.8745 9.82557C22.6289 9.41052 22.0699 8.93013 21.6609 8.93497C21.247 8.93981 20.6856 9.42625 20.4581 9.84735C19.5542 11.5172 19.8615 13.135 20.9336 14.6343C21.5544 15.5007 21.5955 15.9363 21.4745 16.9043C21.4612 17.0145 21.2991 17.0241 21.2591 16.9201C21.1793 16.7156 21.1042 16.5256 21.0244 16.3368C20.2415 14.4891 18.4506 13.342 16.6718 13.5465C15.7086 13.6578 15.2972 14.2894 15.6542 15.1849C16.166 16.4675 17.1716 17.2528 18.4833 17.4864C19.3013 17.6328 20.1604 17.5408 21.1599 17.5215C21.3329 17.5178 21.3789 17.7611 21.345 17.9305C21.1478 18.9275 21.0329 20.1799 20.8465 21.1201C20.8259 21.2206 20.711 20.8709 20.6408 20.7946C20.4145 20.5526 20.3008 20.3094 20.1786 20.0698C19.2976 18.3504 17.5733 17.3521 15.8151 17.5396C14.6269 17.6655 14.1937 18.4508 14.766 19.4709C15.3396 20.4921 16.2459 21.1419 17.37 21.298C18.3127 21.4287 19.2855 21.3392 20.3286 21.3283C20.4278 21.3283 20.4484 21.5546 20.4169 21.6489C20.083 22.6823 19.6461 23.4434 19.3352 24.6002H19.3376Z" stroke="#0F7275" stroke-width="0.800594" stroke-miterlimit="10" stroke-linecap="round"/>
<path d="M14.7539 19.4455C12.0676 20.0638 9.23366 18.2959 8.95535 15.3567C8.79804 13.6978 9.4067 12.04 10.3275 10.6521C11.2457 9.26934 12.4602 8.1152 13.6663 6.97562C13.667 6.97503 13.6675 6.97443 13.668 6.97376V6.97376C13.6738 6.96658 13.6855 6.96818 13.691 6.97563C14.6896 8.33594 15.8851 9.36673 16.8799 10.6811C17.5297 11.539 18.0162 12.6087 18.2364 13.705" stroke="#0F7275" stroke-width="0.886266" stroke-miterlimit="10"/>
<path d="M17.7476 17.2832C17.6616 17.4296 17.566 17.5712 17.4632 17.7067" stroke="#0F7275" stroke-width="0.599707" stroke-miterlimit="10"/>
</svg>
