<svg width="35" height="28" viewBox="0 0 35 28" fill="none" xmlns="http://www.w3.org/2000/svg">
<path d="M5.24286 8.44444C5.99714 7.7037 8.07143 7.51852 9.01429 7.51852C9.01429 6.59259 9.10857 4.46296 9.48571 3.35185C9.86286 2.24074 11.5286 1.65432 12.3143 1.5H31.6429C33.1514 1.5 33.8429 3.35185 34 4.27778V18.6296C34 20.0185 34 20.0185 33.5286 20.9444C33.1514 21.6852 32.4286 22.179 32.1143 22.3333C32.1143 23.7222 31.36 26.5 28.3429 26.5C25.3257 26.5 25.0345 23.7222 24.7202 22.3333L12.3143 22C11.8429 24.3148 11.3714 26.5 9.01429 26.5C7.12857 26.5 5.4 23.7222 4.77143 22.3333H3.82857C1.94286 22.3333 1.15714 19.8642 1 18.6296V14.9259C1 14.1852 1.62857 13.0741 1.94286 12.6111C2.72857 11.5309 4.48857 9.18518 5.24286 8.44444Z" fill="#0F7275"/>
<path d="M35 3.87379C35 2.979 34.6543 2.12087 34.0389 1.48816C33.4236 0.855452 32.589 0.5 31.7188 0.5H12.0312C11.161 0.5 10.3264 0.855452 9.71106 1.48816C9.0957 2.12087 8.75 2.979 8.75 3.87379V7.24757H6.51875C6.02713 7.24802 5.5419 7.36205 5.0989 7.58123C4.65591 7.80041 4.26647 8.11914 3.95938 8.51387L0.719688 12.6749C0.253555 13.2736 -0.000286102 14.0177 0 14.7846V19.6181C0 20.5129 0.345703 21.371 0.961056 22.0038C1.57641 22.6365 2.41101 22.9919 3.28125 22.9919H4.375C4.375 24.185 4.83594 25.3291 5.65641 26.1727C6.47688 27.0164 7.58968 27.4903 8.75 27.4903C9.91032 27.4903 11.0231 27.0164 11.8436 26.1727C12.6641 25.3291 13.125 24.185 13.125 22.9919H24.0625C24.0612 23.5915 24.1766 24.1853 24.4017 24.7384C24.6269 25.2915 24.9573 25.7928 25.3736 26.2127C25.7899 26.6326 26.2836 26.9627 26.8257 27.1836C27.3678 27.4045 27.9475 27.5117 28.5305 27.499C29.1135 27.4862 29.6882 27.3538 30.2207 27.1094C30.7532 26.865 31.2328 26.5136 31.6314 26.0759C32.0299 25.6382 32.3393 25.1229 32.5414 24.5605C32.7435 23.998 32.8342 23.3997 32.8081 22.8007C33.449 22.5688 34.004 22.1381 34.3966 21.568C34.7892 20.998 35 20.3167 35 19.6181L35 3.87379ZM32.1694 20.6438C31.7739 19.978 31.2167 19.4295 30.5526 19.0521C29.8885 18.6748 29.1403 18.4816 28.3817 18.4916C27.623 18.5016 26.8799 18.7144 26.2254 19.1091C25.5709 19.5038 25.0276 20.0668 24.6488 20.7427H12.5388C12.154 20.0596 11.6019 19.492 10.9375 19.0963V3.87379C10.9375 3.57553 11.0527 3.28948 11.2579 3.07858C11.463 2.86768 11.7412 2.74919 12.0312 2.74919H31.7188C32.0088 2.74919 32.287 2.86768 32.4921 3.07858C32.6973 3.28948 32.8125 3.57553 32.8125 3.87379V19.6181C32.8127 19.8346 32.7521 20.0465 32.638 20.2284C32.5239 20.4104 32.3612 20.5546 32.1694 20.6438ZM8.75 18.4935C7.98205 18.4935 7.22762 18.7014 6.56256 19.0962C5.8975 19.491 5.34523 20.0589 4.96125 20.7427H3.28125C2.99117 20.7427 2.71297 20.6242 2.50785 20.4133C2.30273 20.2024 2.1875 19.9164 2.1875 19.6181V14.7824C2.18794 14.5272 2.2728 14.2797 2.42812 14.0806L5.66562 9.91961C5.76792 9.7879 5.8977 9.68151 6.04537 9.60832C6.19304 9.53513 6.35482 9.497 6.51875 9.49676H8.75V18.4935ZM28.4375 20.7427C29.0177 20.7427 29.5741 20.9797 29.9843 21.4015C30.3945 21.8233 30.625 22.3954 30.625 22.9919C30.625 23.5884 30.3945 24.1605 29.9843 24.5823C29.5741 25.0041 29.0177 25.2411 28.4375 25.2411C27.8573 25.2411 27.3009 25.0041 26.8907 24.5823C26.4805 24.1605 26.25 23.5884 26.25 22.9919C26.25 22.3954 26.4805 21.8233 26.8907 21.4015C27.3009 20.9797 27.8573 20.7427 28.4375 20.7427ZM8.75 20.7427C9.33016 20.7427 9.88656 20.9797 10.2968 21.4015C10.707 21.8233 10.9375 22.3954 10.9375 22.9919C10.9375 23.5884 10.707 24.1605 10.2968 24.5823C9.88656 25.0041 9.33016 25.2411 8.75 25.2411C8.16984 25.2411 7.61344 25.0041 7.20321 24.5823C6.79297 24.1605 6.5625 23.5884 6.5625 22.9919C6.5625 22.3954 6.79297 21.8233 7.20321 21.4015C7.61344 20.9797 8.16984 20.7427 8.75 20.7427Z" fill="#0B5D60"/>
</svg>
