<svg width="13" height="18" viewBox="0 0 13 18" fill="none" xmlns="http://www.w3.org/2000/svg">
<path fill-rule="evenodd" clip-rule="evenodd" d="M6.5 8.45825C5.60246 8.45825 4.875 7.73079 4.875 6.83325C4.875 5.93571 5.60246 5.20825 6.5 5.20825C7.39754 5.20825 8.125 5.93571 8.125 6.83325C8.125 7.73079 7.39754 8.45825 6.5 8.45825ZM6.5 4.12492C5.00446 4.12492 3.79167 5.33717 3.79167 6.83325C3.79167 8.32934 5.00446 9.54159 6.5 9.54159C7.99554 9.54159 9.20833 8.32934 9.20833 6.83325C9.20833 5.33717 7.99554 4.12492 6.5 4.12492ZM6.5 16.0416C5.59921 16.0465 1.08333 9.09796 1.08333 6.83325C1.08333 3.84217 3.50838 1.41659 6.5 1.41659C9.49162 1.41659 11.9167 3.84217 11.9167 6.83325C11.9167 9.06763 7.38671 16.0465 6.5 16.0416ZM6.5 0.333252C2.91038 0.333252 0 3.24363 0 6.83325C0 9.55134 5.41938 17.6725 6.5 17.6666C7.56383 17.6725 13 9.5145 13 6.83325C13 3.24363 10.0896 0.333252 6.5 0.333252Z" fill="#0F7275"/>
</svg>
