<svg width="14" height="18" viewBox="0 0 14 18" fill="none" xmlns="http://www.w3.org/2000/svg">
<path fill-rule="evenodd" clip-rule="evenodd" d="M7.25 8.45837C6.35246 8.45837 5.625 7.73092 5.625 6.83337C5.625 5.93583 6.35246 5.20837 7.25 5.20837C8.14754 5.20837 8.875 5.93583 8.875 6.83337C8.875 7.73092 8.14754 8.45837 7.25 8.45837ZM7.25 4.12504C5.75446 4.12504 4.54167 5.33729 4.54167 6.83337C4.54167 8.32946 5.75446 9.54171 7.25 9.54171C8.74554 9.54171 9.95833 8.32946 9.95833 6.83337C9.95833 5.33729 8.74554 4.12504 7.25 4.12504ZM7.25 16.0417C6.34921 16.0466 1.83333 9.09808 1.83333 6.83337C1.83333 3.84229 4.25838 1.41671 7.25 1.41671C10.2416 1.41671 12.6667 3.84229 12.6667 6.83337C12.6667 9.06775 8.13671 16.0466 7.25 16.0417ZM7.25 0.333374C3.66038 0.333374 0.75 3.24375 0.75 6.83337C0.75 9.55146 6.16938 17.6727 7.25 17.6667C8.31383 17.6727 13.75 9.51462 13.75 6.83337C13.75 3.24375 10.8396 0.333374 7.25 0.333374Z" fill="#0F7275"/>
</svg>
