<svg width="21" height="22" viewBox="0 0 21 22" fill="none" xmlns="http://www.w3.org/2000/svg">
<g clip-path="url(#clip0_548_1173)">
<path d="M10.836 8.89995C10.745 8.90275 10.6575 8.94055 10.5931 9.00635L8.7465 10.8474L7.609 9.71335C7.2905 9.38155 6.776 9.89395 7.1085 10.2118L8.4966 11.5964C8.6345 11.7343 8.8585 11.7343 8.9971 11.5964L11.0936 9.50545C11.3246 9.28145 11.1545 8.89995 10.8367 8.89995H10.836ZM0.35 11.7H2.45C2.6439 11.7 2.8 11.8561 2.8 12.05C2.8 12.2439 2.6439 12.4 2.45 12.4H0.35C0.1561 12.4 0 12.2439 0 12.05C0 11.8561 0.1561 11.7 0.35 11.7ZM0.35 8.89995H2.45C2.6439 8.89995 2.8 9.05605 2.8 9.24995C2.8 9.44385 2.6439 9.59995 2.45 9.59995H0.35C0.1561 9.59995 0 9.44385 0 9.24995C0 9.05605 0.1561 8.89995 0.35 8.89995ZM0.35 6.09995H2.45C2.6439 6.09995 2.8 6.25605 2.8 6.44995C2.8 6.64385 2.6439 6.79995 2.45 6.79995H0.35C0.1561 6.79995 0 6.64385 0 6.44995C0 6.25605 0.1561 6.09995 0.35 6.09995ZM17.15 13.8C16.1875 13.8 15.4 14.5875 15.4 15.55C15.4 16.5125 16.1875 17.3 17.15 17.3C18.1125 17.3 18.9 16.5125 18.9 15.55C18.9 14.5875 18.1125 13.8 17.15 13.8ZM17.15 14.5C17.7338 14.5 18.2 14.9662 18.2 15.55C18.2 16.1338 17.7338 16.6 17.15 16.6C16.5662 16.6 16.1 16.1338 16.1 15.55C16.1 14.9662 16.5662 14.5 17.15 14.5ZM8.05 13.8C7.0875 13.8 6.3 14.5875 6.3 15.55C6.3 16.5125 7.0875 17.3 8.05 17.3C9.0125 17.3 9.8 16.5125 9.8 15.55C9.8 14.5875 9.0125 13.8 8.05 13.8ZM8.05 14.5C8.6338 14.5 9.1 14.9662 9.1 15.55C9.1 16.1338 8.6338 16.6 8.05 16.6C7.4662 16.6 7 16.1338 7 15.55C7 14.9662 7.4662 14.5 8.05 14.5ZM4.55 4.69995C3.9746 4.69995 3.5 5.17455 3.5 5.74995V13.45C3.5 14.0254 3.9746 14.5 4.55 14.5H5.95C6.4232 14.507 6.4232 13.793 5.95 13.8H4.55C4.3498 13.8 4.2 13.6502 4.2 13.45V5.74995C4.2 5.54975 4.3498 5.39995 4.55 5.39995H13.65C13.8502 5.39995 14 5.54975 14 5.74995V13.8H10.15C9.688 13.8 9.6964 14.507 10.15 14.5H15.05C15.512 14.5 15.5078 13.8 15.05 13.8H14.7V7.49995H17.6589L20.3 11.6272V13.45C20.3 13.6502 20.1502 13.8 19.95 13.8H19.25C18.7922 13.8 18.7922 14.5 19.25 14.5H19.95C20.5254 14.5 21 14.0254 21 13.45V11.525C21 11.4585 20.9811 11.392 20.9454 11.336L18.1454 6.96095C18.081 6.86085 17.9704 6.79995 17.85 6.79995H14.7V5.74995C14.7 5.17455 14.2254 4.69995 13.65 4.69995H4.55Z" fill="#0F7275"/>
</g>
<defs>
<clipPath id="clip0_548_1173">
<rect width="21" height="21" fill="white" transform="translate(0 0.5)"/>
</clipPath>
</defs>
</svg>
