<svg width="100" height="100" viewBox="0 0 100 100" fill="none" xmlns="http://www.w3.org/2000/svg">
<path d="M13.4059 46.2781C15.9918 47.153 18.6412 48.8852 20.5921 50.7867C22.677 52.8152 24.2046 55.5457 24.2822 58.4526C24.3598 61.3596 22.7723 64.3794 20.0946 65.5154C17.6146 62.873 15.071 60.1248 13.8856 56.7028C12.9543 54.0076 12.2134 48.924 13.4023 46.2816L13.4059 46.2781Z" stroke="#0F7275" stroke-width="1.91477" stroke-miterlimit="10" stroke-linecap="round"/>
<path d="M15.1592 25.7566C15.1592 25.7566 15.1345 25.7672 15.124 25.7707C14.9229 25.8625 14.8241 26.0812 14.7359 26.2858C13.0143 30.3428 11.0317 34.555 11.0317 39.0707C10.9611 41.5437 11.5291 44.119 13.0849 46.0381C15.5967 44.4753 17.9603 42.5809 19.6078 40.1255C21.2518 37.6701 22.1197 34.5868 21.4846 31.701C20.8496 28.8117 18.5354 26.2364 15.6179 25.7496C15.4662 25.7249 15.3039 25.7037 15.1592 25.7566Z" stroke="#0F7275" stroke-width="1.91477" stroke-miterlimit="10" stroke-linecap="round"/>
<path d="M15.131 25.5979C15.131 25.5979 18.68 24.6595 21.0824 25.1816C23.4849 25.7038 26.928 28.1027 27.556 32.5936C28.1839 37.081 27.556 39.2754 26.1978 41.0499C24.8396 42.8244 21.0754 44.493 18.627 45.121C16.1787 45.7489 13.2542 46.1652 13.2542 46.1652C13.2542 46.1652 21.3964 44.2849 26.1978 46.1652C30.9992 48.0455 33.0136 50.1058 33.8179 51.4887C35.1338 53.7536 35.0703 57.6483 34.9644 59.317C34.8586 60.9856 32.4597 63.7021 31.1015 64.3265C29.7433 64.9545 25.2805 66.9618 25.2805 66.9618" stroke="#0F7275" stroke-width="1.91477" stroke-miterlimit="10" stroke-linecap="round"/>
<path d="M20.2217 65.8187C20.0524 65.921 19.9077 66.0727 19.7948 66.2914C19.1387 67.5509 20.1406 70.0168 20.5992 71.2022C21.7563 74.1973 23.4215 77.0831 25.9051 79.1222C28.3886 81.1613 31.7824 82.2584 34.894 81.4611C34.7352 77.4994 33.1089 73.6152 30.396 70.7224C28.4698 68.6692 26.0074 67.1311 23.3262 66.2632C22.3031 65.9351 21.0049 65.346 20.2217 65.8187Z" stroke="#0F7275" stroke-width="1.91477" stroke-miterlimit="10" stroke-linecap="round"/>
<path d="M32.696 63.0989C32.696 63.0989 40.7042 63.173 42.6869 66.6197C43.8264 68.5988 43.657 71.5057 43.3042 73.6259C42.9515 75.7462 41.6814 77.5842 39.8082 78.6002C39.794 78.6072 39.7764 78.6178 39.7623 78.6249C38.1959 79.461 34.9856 81.4436 34.9856 81.4436C34.9856 81.4436 39.3778 84.5093 43.5688 85.8464C47.7564 87.1834 53.3339 85.3701 53.3339 85.3701" stroke="#0F7275" stroke-width="1.91477" stroke-miterlimit="10" stroke-linecap="round"/>
<path d="M48.5115 12.725C48.5115 12.725 60.9965 10.834 71.1284 22.1901C81.2604 33.5427 80.5619 45.2481 78.9884 49.0899" stroke="#0F7275" stroke-width="1.91477" stroke-miterlimit="10" stroke-linecap="round"/>
<path d="M78.819 35.8569C78.7413 35.8639 78.6637 35.8781 78.5896 35.8957C78.1134 36.0015 77.6901 36.2697 77.3055 36.566C73.7212 39.293 73.1568 44.4048 73.4143 48.6171C73.5695 51.143 74.3986 53.7183 76.1907 55.5069C77.9829 57.2955 80.8439 58.1211 83.1547 57.0803C84.3859 56.5265 85.3596 55.514 86.1392 54.4098C88.3335 51.2912 89.1273 47.1671 88.016 43.5193C86.9048 39.8716 83.832 36.827 80.1172 35.9733C79.6939 35.8745 79.2529 35.8075 78.826 35.8534L78.819 35.8569Z" stroke="#0F7275" stroke-width="1.91477" stroke-miterlimit="10" stroke-linecap="round"/>
<path d="M75.5698 38.2946C75.5698 38.2946 72.5641 40.8241 70.8531 40.8241C69.1421 40.8241 65.0462 40.0621 64.4747 36.827C63.8115 33.0628 65.7906 29.9442 68.6623 27.69C72.6593 24.5502 74.0916 25.9366 74.0916 25.9366C74.0916 25.9366 76.2436 24.1692 78.5085 24.5114C80.7733 24.8571 82.9853 24.7089 84.5622 26.7269C86.1356 28.7448 85.0067 33.0276 84.2659 33.9624C83.5286 34.8973 81.3343 36.3825 81.3343 36.3825" stroke="#0F7275" stroke-width="1.91477" stroke-miterlimit="10" stroke-linecap="round"/>
<path d="M72.2997 23.5659C71.2731 25.9119 68.6625 27.6935 67.3396 28.8295C66.0131 29.9654 61.1447 30.0712 61.1447 30.0712C61.1447 30.0712 60.9542 25.8837 59.3349 24.1692C57.7192 22.4582 53.7256 22.5499 53.7186 22.5499C53.4611 22.557 54.1313 20.4791 54.2478 20.2462C54.8122 19.1032 55.6624 18.1048 56.5726 17.2229C59.9029 13.9878 62.2348 14.8063 62.2348 14.8063C62.2348 14.8063 62.6087 13.2964 65.2158 12.0652C67.8229 10.834 71.6153 10.7352 73.6791 12.0652C75.7464 13.3952 76.6319 14.4288 77.6161 17.625C77.6161 17.625 78.3146 20.2498 77.6161 21.862C76.9176 23.4777 74.0883 25.9366 74.0883 25.9366" stroke="#0F7275" stroke-width="1.91477" stroke-miterlimit="10" stroke-linecap="round"/>
<path d="M53.7221 22.5535C53.7221 22.5535 53.4081 24.4691 54.343 27.2737C55.2779 30.0783 60.4179 30.1348 60.4179 30.1348" stroke="#0F7275" stroke-width="1.91477" stroke-miterlimit="10" stroke-linecap="round"/>
<path d="M33.7366 27.129C33.9236 26.5257 34.5586 26.18 35.1654 26.3529C36.9152 26.8503 40.0726 28.1626 39.3706 31.0202C38.411 34.929 33.1969 34.0612 32.763 32.6112C32.4525 31.5741 33.2533 28.6883 33.7331 27.129H33.7366Z" stroke="#0F7275" stroke-width="1.91477" stroke-miterlimit="10" stroke-linecap="round"/>
<path d="M60.9504 73.5765C61.3455 73.4847 61.7407 73.7282 61.8394 74.1233C62.1252 75.2557 62.4109 77.4324 60.5976 77.9616C58.1176 78.6848 56.9252 75.5062 57.5884 74.8006C58.0647 74.2961 59.9273 73.8128 60.9504 73.58V73.5765Z" stroke="#0F7275" stroke-width="1.91477" stroke-miterlimit="10" stroke-linecap="round"/>
<path d="M62.1501 46.391C62.6616 46.2746 63.1731 46.585 63.3001 47.0966C63.6706 48.5641 64.041 51.3829 61.6915 52.0673C58.4776 53.0022 56.9359 48.8887 57.7967 47.975C58.4141 47.3188 60.8236 46.6944 62.1466 46.391H62.1501Z" stroke="#0F7275" stroke-width="1.91477" stroke-miterlimit="10" stroke-linecap="round"/>
<path d="M46.3276 49.5519C46.5781 47.16 45.0329 46.6803 43.0926 46.6908C42.0096 46.6979 41.1064 47.534 41.0323 48.6135C40.9618 49.626 41.2546 50.5256 42.38 51.0336C42.8492 51.2453 43.3678 51.3158 43.8793 51.2841C44.786 51.2276 46.1865 50.9137 46.3312 49.5519H46.3276Z" stroke="#0F7275" stroke-width="1.91477" stroke-miterlimit="10" stroke-linecap="round"/>
</svg>
