<svg width="62" height="64" viewBox="0 0 62 64" fill="none" xmlns="http://www.w3.org/2000/svg">
<path d="M14.7938 47.2854C14.6894 47.6918 14.0893 47.6421 13.948 47.247C13.8458 46.958 13.7545 46.7096 13.6588 46.4613C12.613 43.7542 10.1757 42.0021 7.66446 42.1489C5.8881 42.2527 5.25757 43.3952 6.09683 45.0434C6.96435 46.748 8.37543 47.7821 10.167 48.0621C11.3302 48.245 12.5413 48.114 13.9132 48.1005C14.0154 48.1005 14.0937 48.2043 14.0632 48.3082C13.2762 50.9859 11.515 52.948 10.3083 55.2916C10.2257 55.4519 10.3779 55.6325 10.5432 55.5783C10.8106 55.4903 11.0389 55.3503 11.1628 55.1448C12.1456 53.517 13.1001 51.8688 14.0045 50.1912C14.7894 48.7349 14.8829 48.6604 16.4071 49.2068C19.0857 50.1686 21.9731 49.4371 23.4973 47.4118C24.667 45.8584 24.2974 44.6866 22.4797 44.1832C20.1229 43.5306 17.2876 44.935 15.807 47.4863C15.6765 47.7099 15.4548 47.7347 15.2526 47.8069C15.1308 47.8521 15.2569 47.4931 15.2917 47.3644C15.6809 45.9352 16.2049 45.215 16.6441 43.7903C16.9854 42.6794 17.292 42.3069 18.5096 42.833C21.1469 43.9709 24.3235 43.0362 25.7672 40.9319C26.7978 39.4282 26.3368 38.1819 24.5844 37.8477C22.0014 37.3578 20.0011 38.4257 18.4226 40.4803C18.1291 40.8619 17.8856 41.2864 17.5747 41.8079C17.5007 41.9321 17.3137 41.8553 17.342 41.7108C17.5899 40.4826 17.7529 39.4282 17.9486 38.3851C18.1791 37.1636 18.5204 36.8678 19.7119 37.1433C22.2449 37.7326 25.1106 36.3034 26.2564 34.0749C27.1326 32.3658 26.5021 31.1917 24.6627 31.1149C22.2732 31.0156 20.0294 32.5328 18.9096 35.0119C18.764 35.3325 18.6292 35.6576 18.4791 36.0121C18.427 36.1386 18.2291 36.1024 18.2378 35.967C18.3422 34.4317 18.5291 33.2531 19.4293 32.009C20.8708 30.0154 21.1274 27.6379 19.838 25.3801C19.488 24.7659 18.69 24.0525 18.1052 24.0593C17.5159 24.066 16.7136 24.7863 16.3897 25.4117C15.1004 27.8862 15.5396 30.284 17.0681 32.5057C17.953 33.7904 18.0138 34.4339 17.8399 35.8699C17.8203 36.0324 17.5899 36.0482 17.5333 35.8947C17.4181 35.5922 17.3116 35.3099 17.1985 35.03C16.0809 32.2912 13.5262 30.5911 10.9867 30.8937C9.6104 31.0585 9.02336 31.9932 9.5343 33.3231C10.2648 35.2241 11.6998 36.3869 13.5719 36.7346C14.7394 36.9514 15.9657 36.8159 17.392 36.7866C17.6399 36.782 17.7051 37.141 17.6573 37.3939C17.3746 38.8728 17.2289 40.1507 16.9637 41.5438C16.9354 41.6928 16.7528 41.7515 16.6528 41.6386C16.331 41.2796 16.1679 40.9184 15.994 40.5639C14.7373 38.0171 12.276 36.5359 9.76695 36.8136C8.07104 37.001 7.45138 38.1638 8.26889 39.6743C9.08641 41.187 10.3801 42.1511 11.9847 42.3837C13.3305 42.5778 14.7199 42.4446 16.2071 42.4288C16.3484 42.4288 16.3766 42.7652 16.3332 42.9052C15.8548 44.4383 15.233 45.5649 14.7894 47.2809L14.7938 47.2854Z" stroke="#0F7275" stroke-width="1.40676" stroke-miterlimit="10" stroke-linecap="round"/>
<path d="M26.8042 27.105L32.4725 31.8216L42.924 20.7131" stroke="#0F7275" stroke-width="1.40676" stroke-miterlimit="10" stroke-linecap="round"/>
<path d="M12.7279 27.9676C13.4715 17.3152 22.0271 10.5305 32.47 10.5305C42.9129 10.5305 52.2687 19.7333 52.2687 31.0856C52.2687 42.4379 43.4065 51.6453 32.47 51.6453C29.3261 51.6453 27.0605 51.2298 24.421 49.8729" stroke="#0F7275" stroke-width="1.40676" stroke-miterlimit="10" stroke-linecap="round"/>
<path d="M18.0026 45.1134C17.5525 44.6121 17.1285 44.0883 16.7241 43.5442" stroke="#0F7275" stroke-width="1.40676" stroke-miterlimit="10"/>
<path d="M13.8065 37.9425V37.938C13.6717 37.5339 13.5434 37.1275 13.4325 36.7143" stroke="#0F7275" stroke-width="1.40676" stroke-miterlimit="10"/>
<path d="M16.3179 42.9662C16.2005 42.7969 16.0831 42.6208 15.9722 42.4424" stroke="#0F7275" stroke-width="1.40676" stroke-miterlimit="10"/>
<path d="M32.4723 16.0802V12.5444" stroke="#0F7275" stroke-width="1.40676" stroke-miterlimit="10" stroke-linecap="round"/>
<path d="M32.4723 49.3581V45.8201" stroke="#0F7275" stroke-width="1.40676" stroke-miterlimit="10" stroke-linecap="round"/>
<path d="M46.618 30.2818H50.0251" stroke="#0F7275" stroke-width="1.40676" stroke-miterlimit="10" stroke-linecap="round"/>
</svg>
