<svg width="25" height="29" viewBox="0 0 25 29" fill="none" xmlns="http://www.w3.org/2000/svg">
<path d="M23.7453 10.4511C24.7703 9.84597 25.1245 8.51341 24.5299 7.46678C23.9398 6.4232 22.6248 6.06579 21.6001 6.66862C20.7489 7.1667 20.397 8.15829 20.6231 9.07533L13.1145 13.4897V4.67168C14.0088 4.40869 14.6763 3.60327 14.6763 2.60709C14.6763 1.40144 13.7158 0.421326 12.5311 0.421326C11.3438 0.421326 10.3833 1.39915 10.3833 2.60709C10.3833 3.60097 11.0485 4.4064 11.9429 4.67168V13.492L4.43687 9.07992C4.65999 8.16058 4.30878 7.16899 3.46026 6.67091C2.43444 6.06808 1.12052 6.42512 0.528165 7.46907C-0.0641882 8.51303 0.286642 9.85017 1.31246 10.453C2.15761 10.9511 3.17892 10.7649 3.84903 10.1097L11.3558 14.5222L3.85353 18.9319C3.18343 18.2767 2.16324 18.0883 1.31697 18.5864C0.288896 19.1892 -0.0645634 20.524 0.530044 21.5707C1.1224 22.6154 2.43632 22.9717 3.46251 22.3692C4.30879 21.8734 4.66187 20.8795 4.43913 19.9644L11.9436 15.5547V24.3749C11.0493 24.6402 10.3841 25.4434 10.3841 26.4395C10.3841 27.6452 11.3445 28.6253 12.5319 28.6253C13.7166 28.6253 14.677 27.6475 14.677 26.4395C14.677 25.4434 14.0096 24.6379 13.1152 24.3749V15.5547L20.6216 19.9644C20.3974 20.8838 20.7497 21.873 21.596 22.3711C22.6252 22.974 23.9357 22.62 24.5284 21.5703C25.123 20.5263 24.7711 19.1915 23.7438 18.5887C22.8952 18.0906 21.875 18.2767 21.2072 18.9342L13.7 14.5248L21.2087 10.1105C21.8792 10.763 22.899 10.9492 23.7453 10.4511Z" fill="#417579"/>
</svg>
