<svg width="39" height="39" viewBox="0 0 39 39" fill="none" xmlns="http://www.w3.org/2000/svg">
<rect width="39" height="39" rx="19.5" fill="#C0CD30"/>
<path d="M30.7738 19.1258L29.1594 18.3188L28.4218 15.3685C28.0656 13.9435 26.7909 12.9482 25.322 12.9482H22.0813C21.6522 12.9482 21.3042 13.2961 21.3042 13.7253V14.2304H19.4975V11.1609C19.4975 10.7318 19.1496 10.3838 18.7204 10.3838H13.5917C13.1626 10.3838 12.8146 10.7317 12.8146 11.1609V14.2304H11.0274C10.5983 14.2304 10.2503 14.5783 10.2503 15.0075V19.3592H9.25954C8.83041 19.3592 8.48242 19.7071 8.48242 20.1363V25.265C8.48242 25.6941 8.83033 26.0421 9.25954 26.0421H9.85684C10.2081 27.5109 11.5312 28.6065 13.1061 28.6065C14.681 28.6065 16.004 27.5109 16.3554 26.0421H22.6787C23.03 27.5109 24.3531 28.6065 25.928 28.6065C27.5029 28.6065 28.8259 27.5109 29.1773 26.0421H29.9171C30.974 26.0421 31.8339 25.1822 31.8339 24.1253V20.8404C31.8337 20.1095 31.4276 19.4526 30.7738 19.1258ZM22.8584 14.5024H25.322C26.0765 14.5024 26.7312 15.0136 26.9141 15.7455L27.497 18.077H22.8585L22.8584 14.5024ZM21.3042 19.3592H16.9331V15.7846H21.3042V19.3592ZM14.3688 11.9381H17.9434V14.2305H14.3688V11.9381ZM11.8044 15.7846H15.379V19.3592H11.8044V15.7846ZM13.106 27.0523C12.1205 27.0523 11.3188 26.2505 11.3188 25.265C11.3188 24.2794 12.1205 23.4777 13.106 23.4777C14.0916 23.4777 14.8933 24.2794 14.8933 25.265C14.8933 26.2505 14.0916 27.0523 13.106 27.0523ZM13.106 21.9236C11.7319 21.9236 10.5492 22.7576 10.0366 23.9458V20.9134H21.3042V24.4879H16.3553C16.004 23.0191 14.681 21.9236 13.106 21.9236ZM25.9279 27.0523C24.9423 27.0523 24.1406 26.2505 24.1406 25.265C24.1406 24.2794 24.9423 23.4777 25.9279 23.4777C26.9134 23.4777 27.7151 24.2794 27.7151 25.265C27.7151 26.2505 26.9134 27.0523 25.9279 27.0523ZM30.2795 24.1253C30.2795 24.3253 30.1168 24.4879 29.9168 24.4879H29.1771C28.8258 23.0192 27.5027 21.9236 25.9278 21.9236C24.5537 21.9236 23.3709 22.7576 22.8583 23.9458V19.6312H28.3088L30.0788 20.516C30.2025 20.5778 30.2794 20.7021 30.2794 20.8404V24.1253H30.2795Z" fill="#4D7478"/>
</svg>
