<svg width="155" height="155" viewBox="0 0 155 155" fill="none" xmlns="http://www.w3.org/2000/svg">
<circle cx="77.5" cy="77.5" r="77.5" fill="#94C3B3" fill-opacity="0.4"/>
<path d="M55.8797 56.3899C56.9811 53.563 58.5164 51.1202 60.4885 49.0505C62.4674 46.971 64.8538 45.359 67.6475 44.2042C70.4376 43.0359 73.5584 42.4585 77.0124 42.4585C81.4679 42.4585 85.1857 43.069 88.1697 44.2975C91.15 45.5223 93.5499 47.0477 95.3723 48.8634C97.191 50.6858 98.4962 52.6481 99.2804 54.7442C100.061 56.8501 100.455 58.8161 100.455 60.6318C100.455 63.6391 100.061 66.1218 99.2804 68.0675C98.4962 70.0133 97.5218 71.6755 96.3602 73.0568C95.1956 74.4386 93.9137 75.6168 92.4987 76.5881C91.0905 77.5625 89.7553 78.5339 88.5005 79.5083C87.2456 80.4796 86.1307 81.5909 85.1593 82.8457C84.1849 84.0975 83.5707 85.6689 83.324 87.5484C83.324 89.5245 81.7221 91.1264 79.7461 91.1264H74.8538C72.5127 91.1264 70.615 89.2286 70.615 86.8876C70.8021 84.1907 71.3224 81.9345 72.1668 80.1157C73.0148 78.297 74.0021 76.7415 75.1305 75.4535C76.262 74.1717 77.4536 73.0537 78.7115 72.1124C79.9633 71.1681 81.1212 70.2268 82.1925 69.2953C83.2541 68.3473 84.1217 67.3165 84.7826 66.185C85.4398 65.0602 85.7374 63.6385 85.6736 61.9461C85.6736 59.0591 84.9691 56.9268 83.5541 55.548C82.1459 54.1631 80.1836 53.4753 77.6702 53.4753C75.9779 53.4753 74.52 53.8023 73.2946 54.4601C72.0692 55.1179 71.0684 56.0021 70.2811 57.0998C69.497 58.2013 68.9159 59.4892 68.5422 60.9582C67.8873 63.5299 65.827 65.7174 63.1733 65.7174H61.1204C57.2859 65.7174 54.0761 62.5204 55.0807 58.8198C55.3064 57.9885 55.5727 57.1787 55.8797 56.3899ZM76.8296 96.7765C80.8312 96.7765 84.0751 100.02 84.0751 104.022C84.0751 108.024 80.8312 111.268 76.8296 111.268H76.5387C72.5372 111.268 69.2932 108.024 69.2932 104.022C69.2932 100.02 72.5372 96.7765 76.5387 96.7765H76.8296Z" fill="#0F7275"/>
</svg>
