<svg width="16" height="16" viewBox="0 0 16 16" fill="none" xmlns="http://www.w3.org/2000/svg">
<path d="M8 14.5625C6.70206 14.5625 5.43327 14.1776 4.35407 13.4565C3.27488 12.7354 2.43374 11.7105 1.93704 10.5114C1.44034 9.31222 1.31038 7.99272 1.5636 6.71972C1.81682 5.44672 2.44183 4.2774 3.35961 3.35961C4.2774 2.44183 5.44672 1.81682 6.71972 1.5636C7.99272 1.31038 9.31222 1.44034 10.5114 1.93704C11.7105 2.43374 12.7354 3.27488 13.4565 4.35407C14.1776 5.43327 14.5625 6.70206 14.5625 8C14.5625 9.74049 13.8711 11.4097 12.6404 12.6404C11.4097 13.8711 9.74049 14.5625 8 14.5625ZM8 2.375C6.88748 2.375 5.79995 2.7049 4.87492 3.32299C3.94989 3.94107 3.22892 4.81957 2.80318 5.84741C2.37744 6.87524 2.26604 8.00624 2.48309 9.09738C2.70013 10.1885 3.23586 11.1908 4.02253 11.9775C4.8092 12.7641 5.81148 13.2999 6.90262 13.5169C7.99376 13.734 9.12476 13.6226 10.1526 13.1968C11.1804 12.7711 12.0589 12.0501 12.677 11.1251C13.2951 10.2001 13.625 9.11252 13.625 8C13.625 6.50816 13.0324 5.07742 11.9775 4.02253C10.9226 2.96764 9.49185 2.375 8 2.375Z" fill="#0F7275"/>
<path d="M10.1516 10.8125L7.53125 8.19219V3.78125H8.46875V7.80312L10.8125 10.1516L10.1516 10.8125Z" fill="#0F7275"/>
</svg>
