<svg width="19" height="20" viewBox="0 0 19 20" fill="none" xmlns="http://www.w3.org/2000/svg">
<path d="M19 4.65625C19 4.18383 18.8123 3.73077 18.4783 3.39672C18.1442 3.06267 17.6912 2.875 17.2188 2.875H6.53125C6.05883 2.875 5.60577 3.06267 5.27172 3.39672C4.93767 3.73077 4.75 4.18383 4.75 4.65625V6.4375H3.53875C3.27187 6.43774 3.00846 6.49794 2.76797 6.61366C2.52749 6.72938 2.31608 6.89766 2.14938 7.10606L0.390688 9.30294C0.137644 9.61903 -0.000156403 10.0119 0 10.4168V12.9688C0 13.4412 0.187666 13.8942 0.521715 14.2283C0.855764 14.5623 1.30883 14.75 1.78125 14.75H2.375C2.375 15.3799 2.62522 15.984 3.07062 16.4294C3.51602 16.8748 4.12011 17.125 4.75 17.125C5.37989 17.125 5.98398 16.8748 6.42938 16.4294C6.87478 15.984 7.125 15.3799 7.125 14.75H13.0625C13.0618 15.0666 13.1244 15.3801 13.2467 15.6721C13.3689 15.9641 13.5483 16.2288 13.7742 16.4505C14.0002 16.6722 14.2682 16.8465 14.5625 16.9631C14.8568 17.0797 15.1715 17.1363 15.488 17.1296C15.8045 17.1229 16.1164 17.0529 16.4055 16.9239C16.6946 16.7949 16.955 16.6093 17.1713 16.3782C17.3877 16.1471 17.5556 15.8751 17.6653 15.5782C17.775 15.2812 17.8243 14.9653 17.8101 14.6491C18.158 14.5266 18.4593 14.2992 18.6724 13.9982C18.8856 13.6973 19 13.3375 19 12.9688V4.65625ZM17.4634 13.5103C17.2487 13.1587 16.9462 12.8691 16.5857 12.6699C16.2252 12.4707 15.819 12.3687 15.4072 12.374C14.9953 12.3793 14.5919 12.4916 14.2366 12.7C13.8813 12.9084 13.5864 13.2056 13.3808 13.5625H6.80675C6.59786 13.2018 6.29817 12.9021 5.9375 12.6932V4.65625C5.9375 4.49878 6.00006 4.34776 6.1114 4.23641C6.22275 4.12506 6.37378 4.0625 6.53125 4.0625H17.2188C17.3762 4.0625 17.5272 4.12506 17.6386 4.23641C17.7499 4.34776 17.8125 4.49878 17.8125 4.65625V12.9688C17.8126 13.083 17.7797 13.1949 17.7178 13.291C17.6558 13.387 17.5675 13.4632 17.4634 13.5103ZM4.75 12.375C4.33311 12.375 3.92357 12.4848 3.56253 12.6932C3.2015 12.9017 2.90169 13.2015 2.69325 13.5625H1.78125C1.62378 13.5625 1.47276 13.4999 1.3614 13.3886C1.25006 13.2772 1.1875 13.1262 1.1875 12.9688V10.4156C1.18774 10.2809 1.2338 10.1502 1.31812 10.0451L3.07563 7.84825C3.13116 7.77871 3.20161 7.72254 3.28177 7.6839C3.36193 7.64526 3.44976 7.62513 3.53875 7.625H4.75V12.375ZM15.4375 13.5625C15.7524 13.5625 16.0545 13.6876 16.2772 13.9103C16.4999 14.133 16.625 14.4351 16.625 14.75C16.625 15.0649 16.4999 15.367 16.2772 15.5897C16.0545 15.8124 15.7524 15.9375 15.4375 15.9375C15.1226 15.9375 14.8205 15.8124 14.5978 15.5897C14.3751 15.367 14.25 15.0649 14.25 14.75C14.25 14.4351 14.3751 14.133 14.5978 13.9103C14.8205 13.6876 15.1226 13.5625 15.4375 13.5625ZM4.75 13.5625C5.06494 13.5625 5.36699 13.6876 5.58969 13.9103C5.81239 14.133 5.9375 14.4351 5.9375 14.75C5.9375 15.0649 5.81239 15.367 5.58969 15.5897C5.36699 15.8124 5.06494 15.9375 4.75 15.9375C4.43506 15.9375 4.13301 15.8124 3.91031 15.5897C3.68761 15.367 3.5625 15.0649 3.5625 14.75C3.5625 14.4351 3.68761 14.133 3.91031 13.9103C4.13301 13.6876 4.43506 13.5625 4.75 13.5625Z" fill="#0F7275"/>
</svg>
