<svg width="29" height="30" viewBox="0 0 29 30" fill="none" xmlns="http://www.w3.org/2000/svg">
<path d="M4.68638 8.81139L4.68639 8.81138C4.93191 8.56585 5.27057 8.41504 5.87322 8.33402C6.49025 8.25106 7.30497 8.25 8.45833 8.25H20.5417C21.695 8.25 22.5097 8.25106 23.1268 8.33402C23.7294 8.41504 24.0681 8.56585 24.3136 8.81139C24.5591 9.05691 24.71 9.39557 24.791 9.99822C24.8614 10.522 24.8728 11.1883 24.8746 12.0833H4.12535C4.12719 11.1883 4.13859 10.522 4.20902 9.99822C4.29004 9.39557 4.44085 9.05691 4.68638 8.81139Z" stroke="#0F7275"/>
<path d="M22.9583 7.75H6.04167C4.70698 7.75 3.625 8.83198 3.625 10.1667V23.4583C3.625 24.793 4.70698 25.875 6.04167 25.875H22.9583C24.293 25.875 25.375 24.793 25.375 23.4583V10.1667C25.375 8.83198 24.293 7.75 22.9583 7.75Z" stroke="#0F7275"/>
<path d="M8.45837 4.125V7.75" stroke="#0F7275" stroke-linecap="round"/>
<path d="M20.5416 4.125V7.75" stroke="#0F7275" stroke-linecap="round"/>
<path d="M12.6875 14.5H9.06254C8.45273 14.5 7.95837 14.9944 7.95837 15.6042V16.8125C7.95837 17.4223 8.45273 17.9167 9.06254 17.9167H12.6875C13.2974 17.9167 13.7917 17.4223 13.7917 16.8125V15.6042C13.7917 14.9944 13.2974 14.5 12.6875 14.5Z" stroke="#0F7275"/>
<path d="M12.6875 19.3333H9.06254C8.45273 19.3333 7.95837 19.8277 7.95837 20.4375V21.6458C7.95837 22.2556 8.45273 22.75 9.06254 22.75H12.6875C13.2974 22.75 13.7917 22.2556 13.7917 21.6458V20.4375C13.7917 19.8277 13.2974 19.3333 12.6875 19.3333Z" stroke="#0F7275"/>
<path d="M19.9375 14.5H16.3125C15.7027 14.5 15.2084 14.9944 15.2084 15.6042V16.8125C15.2084 17.4223 15.7027 17.9167 16.3125 17.9167H19.9375C20.5474 17.9167 21.0417 17.4223 21.0417 16.8125V15.6042C21.0417 14.9944 20.5474 14.5 19.9375 14.5Z" stroke="#0F7275"/>
<path d="M19.9375 19.3333H16.3125C15.7027 19.3333 15.2084 19.8277 15.2084 20.4375V21.6458C15.2084 22.2556 15.7027 22.75 16.3125 22.75H19.9375C20.5474 22.75 21.0417 22.2556 21.0417 21.6458V20.4375C21.0417 19.8277 20.5474 19.3333 19.9375 19.3333Z" stroke="#0F7275"/>
</svg>
