<svg width="36" height="36" viewBox="0 0 36 36" fill="none" xmlns="http://www.w3.org/2000/svg">
<path d="M24.8788 29.16H7.91923C7.84105 29.16 7.76381 29.143 7.69292 29.11C7.62203 29.077 7.5592 29.029 7.50883 28.9692C7.45834 28.9096 7.42127 28.8399 7.40015 28.7647C7.37903 28.6896 7.37435 28.6107 7.38643 28.5336L10.6336 8.64C10.6533 8.51436 10.7169 8.39978 10.8131 8.3167C10.9094 8.23362 11.0321 8.18744 11.1592 8.1864H32.5972C32.6745 8.18798 32.7506 8.20613 32.8202 8.23963C32.8899 8.27314 32.9516 8.3212 33.001 8.38059C33.0505 8.43998 33.0867 8.50929 33.1071 8.58386C33.1275 8.65842 33.1316 8.7365 33.1192 8.8128L30.6676 23.8212C30.1636 26.91 27.7192 29.16 24.8788 29.16ZM8.54203 28.08H24.8788C27.1972 28.08 29.1988 26.2224 29.602 23.6592L31.96 9.2772H11.6236L8.54203 28.08Z" fill="#417579"/>
<path d="M22.9612 16.2C22.8177 16.2 22.6799 16.1432 22.5781 16.042C22.4763 15.9409 22.4186 15.8035 22.4176 15.66C22.4184 15.6074 22.4269 15.5552 22.4428 15.5052L23.5012 9.25556H19.606L18.526 15.6492C18.5289 15.7202 18.5175 15.791 18.4924 15.8575C18.4674 15.924 18.4292 15.9847 18.3801 16.0361C18.3311 16.0875 18.2722 16.1285 18.2069 16.1567C18.1417 16.1848 18.0715 16.1995 18.0004 16.2C17.9203 16.1993 17.8411 16.1819 17.768 16.1491C17.6949 16.1163 17.6294 16.0686 17.5756 16.0092C17.5242 15.9494 17.4863 15.8791 17.4646 15.8033C17.4428 15.7275 17.4377 15.6479 17.4496 15.57L18.616 8.63996C18.6373 8.51407 18.7025 8.3998 18.8 8.31742C18.8976 8.23503 19.0211 8.18988 19.1488 8.18996H24.142C24.2208 8.18928 24.2987 8.20595 24.3703 8.23879C24.4419 8.27163 24.5054 8.31983 24.5562 8.37996C24.6071 8.4401 24.6441 8.5107 24.6646 8.58674C24.6851 8.66279 24.6886 8.74241 24.6748 8.81996L23.494 15.7572C23.4719 15.882 23.4062 15.995 23.3087 16.0761C23.2111 16.1572 23.088 16.2011 22.9612 16.2Z" fill="#417579"/>
<path d="M22.9531 16.2C22.8604 16.2003 22.7693 16.1765 22.6885 16.1311C22.6078 16.0857 22.5402 16.0201 22.4923 15.9408L20.5195 12.708C20.4794 12.6475 20.4519 12.5794 20.4387 12.508C20.4255 12.4366 20.4268 12.3633 20.4426 12.2924C20.4584 12.2215 20.4883 12.1545 20.5306 12.0954C20.5729 12.0364 20.6267 11.9865 20.6887 11.9487C20.7507 11.9109 20.8197 11.886 20.8916 11.8755C20.9634 11.865 21.0367 11.8691 21.1069 11.8875C21.1772 11.906 21.243 11.9384 21.3004 11.9829C21.3578 12.0274 21.4057 12.083 21.4411 12.1464L23.4175 15.3864C23.4919 15.5086 23.5147 15.6554 23.4809 15.7944C23.4472 15.9335 23.3596 16.0535 23.2375 16.128C23.1514 16.1785 23.0528 16.2035 22.9531 16.2Z" fill="#417579"/>
<path d="M17.9997 16.2C17.8656 16.2 17.7367 16.1484 17.6397 16.056C17.5874 16.008 17.5451 15.9502 17.5152 15.8859C17.4853 15.8216 17.4683 15.752 17.4653 15.6811C17.4623 15.6102 17.4733 15.5394 17.4977 15.4728C17.522 15.4062 17.5593 15.345 17.6073 15.2928L20.5989 12.0528C20.6984 11.9652 20.8267 11.9173 20.9593 11.9182C21.0919 11.9192 21.2196 11.9688 21.3179 12.0578C21.4162 12.1468 21.4783 12.2689 21.4925 12.4007C21.5066 12.5326 21.4717 12.665 21.3945 12.7728L18.4029 16.0128C18.3526 16.0706 18.2908 16.1172 18.2213 16.1495C18.1518 16.1817 18.0763 16.1989 17.9997 16.2Z" fill="#417579"/>
<path d="M13.0854 12.4272H5.62984C5.48663 12.4272 5.34928 12.3703 5.24801 12.2691C5.14674 12.1678 5.08984 12.0304 5.08984 11.8872C5.08984 11.744 5.14674 11.6067 5.24801 11.5054C5.34928 11.4041 5.48663 11.3472 5.62984 11.3472H13.0854C13.2287 11.3472 13.366 11.4041 13.4673 11.5054C13.5686 11.6067 13.6254 11.744 13.6254 11.8872C13.6254 12.0304 13.5686 12.1678 13.4673 12.2691C13.366 12.3703 13.2287 12.4272 13.0854 12.4272Z" fill="#417579"/>
<path d="M6.98816 14.76H2.01656C1.87335 14.76 1.73599 14.7031 1.63472 14.6018C1.53346 14.5006 1.47656 14.3632 1.47656 14.22C1.47656 14.0768 1.53346 13.9394 1.63472 13.8382C1.73599 13.7369 1.87335 13.68 2.01656 13.68H6.98816C7.13138 13.68 7.26873 13.7369 7.37 13.8382C7.47127 13.9394 7.52816 14.0768 7.52816 14.22C7.52816 14.3632 7.47127 14.5006 7.37 14.6018C7.26873 14.7031 7.13138 14.76 6.98816 14.76Z" fill="#417579"/>
<path d="M11.1283 18.1764H6.61031C6.5394 18.1764 6.46918 18.1624 6.40366 18.1353C6.33815 18.1081 6.27862 18.0684 6.22847 18.0182C6.17833 17.9681 6.13855 17.9085 6.11142 17.843C6.08428 17.7775 6.07031 17.7073 6.07031 17.6364C6.07031 17.5655 6.08428 17.4952 6.11142 17.4297C6.13855 17.3642 6.17833 17.3047 6.22847 17.2545C6.27862 17.2044 6.33815 17.1646 6.40366 17.1375C6.46918 17.1103 6.5394 17.0964 6.61031 17.0964H11.1283C11.2715 17.0964 11.4089 17.1533 11.5101 17.2545C11.6114 17.3558 11.6683 17.4932 11.6683 17.6364C11.6683 17.7796 11.6114 17.9169 11.5101 18.0182C11.4089 18.1195 11.2715 18.1764 11.1283 18.1764Z" fill="#417579"/>
<path d="M6.73548 23.5763H3.41988C3.27667 23.5763 3.13931 23.5194 3.03805 23.4182C2.93678 23.3169 2.87988 23.1796 2.87988 23.0363C2.87988 22.8931 2.93678 22.7558 3.03805 22.6545C3.13931 22.5532 3.27667 22.4963 3.41988 22.4963H6.73548C6.8787 22.4963 7.01605 22.5532 7.11732 22.6545C7.21859 22.7558 7.27548 22.8931 7.27548 23.0363C7.27548 23.1796 7.21859 23.3169 7.11732 23.4182C7.01605 23.5194 6.8787 23.5763 6.73548 23.5763Z" fill="#417579"/>
<path d="M14.6693 23.5763H8.56734C8.42413 23.5763 8.28678 23.5194 8.18551 23.4182C8.08424 23.3169 8.02734 23.1796 8.02734 23.0363C8.02734 22.8931 8.08424 22.7558 8.18551 22.6545C8.28678 22.5532 8.42413 22.4963 8.56734 22.4963H14.6873C14.8306 22.4963 14.9679 22.5532 15.0692 22.6545C15.1705 22.7558 15.2273 22.8931 15.2273 23.0363C15.2273 23.1796 15.1705 23.3169 15.0692 23.4182C14.9679 23.5194 14.8306 23.5763 14.6873 23.5763H14.6693Z" fill="#417579"/>
</svg>
