<svg width="100" height="100" viewBox="0 0 100 100" fill="none" xmlns="http://www.w3.org/2000/svg">
<path d="M89.5199 93.2101H13.6299C13.2321 93.2101 12.8505 93.052 12.5692 92.7707C12.2879 92.4894 12.1299 92.1079 12.1299 91.7101V40.5801C12.1299 40.1823 12.2879 39.8007 12.5692 39.5194C12.8505 39.2381 13.2321 39.0801 13.6299 39.0801H32.4299C32.8277 39.0801 33.2092 39.2381 33.4905 39.5194C33.7718 39.8007 33.9299 40.1823 33.9299 40.5801C33.9299 40.9779 33.7718 41.3594 33.4905 41.6407C33.2092 41.922 32.8277 42.0801 32.4299 42.0801H15.1299V90.2101H87.9999V42.0801H70.3199C69.9221 42.0801 69.5405 41.922 69.2592 41.6407C68.9779 41.3594 68.8199 40.9779 68.8199 40.5801C68.8199 40.1823 68.9779 39.8007 69.2592 39.5194C69.5405 39.2381 69.9221 39.0801 70.3199 39.0801H89.5199C89.9177 39.0801 90.2992 39.2381 90.5805 39.5194C90.8618 39.8007 91.0199 40.1823 91.0199 40.5801V91.7101C91.0199 92.1079 90.8618 92.4894 90.5805 92.7707C90.2992 93.052 89.9177 93.2101 89.5199 93.2101Z" fill="#417579"/>
<path d="M13.64 93.2101C13.3631 93.211 13.0914 93.1353 12.8548 92.9914C12.6183 92.8474 12.4262 92.6407 12.2999 92.3943C12.1736 92.1479 12.118 91.8713 12.1392 91.5952C12.1604 91.3191 12.2576 91.0543 12.42 90.8301L38.63 54.3201C38.7449 54.1599 38.8903 54.0238 39.0577 53.9198C39.2252 53.8158 39.4115 53.7457 39.6061 53.7137C39.8006 53.6816 39.9996 53.6882 40.1915 53.7331C40.3835 53.7779 40.5648 53.8602 40.725 53.9751C40.8852 54.09 41.0213 54.2353 41.1253 54.4028C41.2293 54.5703 41.2994 54.7566 41.3314 54.9511C41.3635 55.1457 41.3569 55.3446 41.312 55.5366C41.2672 55.7286 41.1849 55.9099 41.07 56.0701L14.86 92.5801C14.7204 92.7734 14.5372 92.9312 14.3252 93.0407C14.1133 93.1501 13.8786 93.2081 13.64 93.2101Z" fill="#417579"/>
<path d="M89.5303 93.21C89.2947 93.2112 89.0622 93.1565 88.8519 93.0505C88.6416 92.9445 88.4594 92.7901 88.3203 92.6L61.3103 56C61.1812 55.8427 61.0855 55.6609 61.0289 55.4655C60.9723 55.2701 60.9561 55.0652 60.9812 54.8633C61.0063 54.6614 61.0722 54.4667 61.1749 54.2911C61.2776 54.1155 61.4149 53.9626 61.5786 53.8418C61.7422 53.7209 61.9287 53.6346 62.1268 53.5881C62.3248 53.5416 62.5303 53.5358 62.7306 53.5712C62.9309 53.6066 63.122 53.6823 63.2921 53.7939C63.4623 53.9054 63.6079 54.0504 63.7203 54.22L90.7203 90.86C90.9542 91.1816 91.0519 91.5826 90.992 91.9758C90.9321 92.369 90.7194 92.7226 90.4003 92.96C90.1416 93.128 89.8387 93.2151 89.5303 93.21Z" fill="#417579"/>
<path d="M51.2801 61.23C50.9854 61.2281 50.6977 61.1399 50.4525 60.9765C50.2072 60.813 50.0152 60.5813 49.9001 60.31C49.8169 60.1262 49.7719 59.9274 49.7679 59.7257C49.7638 59.5239 49.8008 59.3235 49.8765 59.1365C49.9523 58.9495 50.0652 58.7798 50.2085 58.6377C50.3518 58.4957 50.5224 58.3842 50.7101 58.31L89.0001 42.47C89.3654 42.328 89.7718 42.3345 90.1323 42.4883C90.4928 42.6421 90.7788 42.9309 90.9291 43.2929C91.0794 43.6549 91.082 44.0613 90.9364 44.4252C90.7908 44.7891 90.5086 45.0816 90.1501 45.24L51.8601 61.12C51.6749 61.1911 51.4784 61.2283 51.2801 61.23Z" fill="#417579"/>
<path d="M51.2801 61.23C51.0922 61.231 50.9057 61.1971 50.7301 61.1301L13.0801 46.19C12.7102 46.0429 12.4138 45.7547 12.2563 45.389C12.0987 45.0233 12.0929 44.61 12.2401 44.2401C12.3873 43.8701 12.6755 43.5737 13.0412 43.4162C13.4069 43.2587 13.8202 43.2529 14.1901 43.4001L51.8401 58.34C52.0231 58.4117 52.19 58.5189 52.3314 58.6554C52.4727 58.7919 52.5857 58.955 52.6638 59.1353C52.7419 59.3156 52.7835 59.5096 52.7863 59.706C52.7891 59.9025 52.753 60.0976 52.6801 60.28C52.5683 60.5601 52.3752 60.8002 52.1257 60.9695C51.8762 61.1389 51.5817 61.2296 51.2801 61.23Z" fill="#417579"/>
<path d="M51.3906 53.16C50.9928 53.16 50.6113 53.002 50.33 52.7207C50.0487 52.4394 49.8906 52.0578 49.8906 51.66V25.11C49.8909 24.7992 49.9871 24.496 50.166 24.2419C50.345 23.9877 50.5981 23.795 50.8906 23.69L69.8106 17.23C70.0868 17.1364 70.3843 17.1253 70.6667 17.1981C70.9491 17.271 71.2041 17.4245 71.4006 17.64C71.6557 17.9108 71.7986 18.2681 71.8006 18.64V45.21C71.8018 45.5212 71.7062 45.8251 71.527 46.0795C71.3479 46.3339 71.094 46.5263 70.8006 46.63L51.8806 53.08C51.7224 53.1317 51.5571 53.1587 51.3906 53.16ZM52.8906 26.16V49.56L68.8206 44.14V20.75L52.8906 26.16Z" fill="#417579"/>
<path d="M51.39 53.11C51.2269 53.1078 51.065 53.0808 50.91 53.03L32 46.58C31.7066 46.4763 31.4528 46.2839 31.2736 46.0294C31.0944 45.775 30.9988 45.4712 31 45.16V18.61C31 18.2122 31.158 17.8306 31.4394 17.5493C31.7207 17.268 32.1022 17.11 32.5 17.11C32.6665 17.1113 32.8318 17.1383 32.99 17.19L38.12 18.94C38.4966 19.0726 38.8051 19.3494 38.9777 19.7094C39.1502 20.0695 39.1726 20.4834 39.04 20.86C38.9074 21.2366 38.6306 21.5451 38.2705 21.7176C37.9105 21.8902 37.4966 21.9126 37.12 21.78L33.94 20.7V44.09L49.94 49.51V26.13L45.37 24.58C45.1835 24.5143 45.0118 24.4126 44.8647 24.2806C44.7175 24.1485 44.5978 23.9888 44.5124 23.8105C44.4269 23.6322 44.3775 23.4389 44.3668 23.2415C44.3561 23.044 44.3844 22.8465 44.45 22.66C44.5157 22.4735 44.6174 22.3018 44.7494 22.1546C44.8815 22.0075 45.0412 21.8878 45.2195 21.8023C45.3978 21.7169 45.5911 21.6674 45.7885 21.6567C45.9859 21.646 46.1835 21.6743 46.37 21.74L51.96 23.64C52.2534 23.7437 52.5073 23.9361 52.6864 24.1905C52.8656 24.445 52.9612 24.7488 52.96 25.06V51.61C52.96 51.8478 52.9039 52.0822 52.7962 52.2943C52.6884 52.5063 52.5321 52.6898 52.34 52.83C52.0622 53.024 51.7287 53.1223 51.39 53.11Z" fill="#417579"/>
<path d="M45.2804 24.5601L41.8304 23.3901H41.7604L37.0904 21.8001C36.9039 21.7344 36.7322 21.6327 36.5851 21.5007C36.4379 21.3686 36.3182 21.2089 36.2328 21.0306C36.1473 20.8523 36.0979 20.659 36.0872 20.4616C36.0765 20.2642 36.1048 20.0666 36.1704 19.8801C36.2361 19.6936 36.3378 19.5219 36.4699 19.3747C36.6019 19.2276 36.7616 19.1079 36.9399 19.0224C37.1182 18.937 37.3115 18.8875 37.5089 18.8768C37.7064 18.8661 37.9039 18.8944 38.0904 18.9601L42.6904 20.5301H42.7604L46.3004 21.7301L45.8304 23.1601L45.2804 24.5601Z" fill="#417579"/>
<path d="M45.3195 34L37.0995 31.2C36.9123 31.1379 36.7393 31.0394 36.5905 30.91C36.4417 30.7806 36.3201 30.623 36.2326 30.4463C36.1452 30.2696 36.0937 30.0772 36.0811 29.8805C36.0686 29.6837 36.0952 29.4864 36.1595 29.3C36.2892 28.9251 36.5613 28.6164 36.9168 28.4405C37.2723 28.2646 37.6828 28.2357 38.0595 28.36L46.2695 31.16L45.3195 34Z" fill="#417579"/>
<path d="M32.4507 20.1101C32.1063 20.1122 31.7716 19.9957 31.503 19.7803C31.2343 19.5648 31.048 19.2635 30.9752 18.9268C30.9025 18.5902 30.9478 18.2388 31.1036 17.9316C31.2594 17.6245 31.5161 17.3803 31.8307 17.2401L41.0807 13.0601C41.2618 12.9646 41.4606 12.9072 41.6648 12.8915C41.8689 12.8758 42.0742 12.902 42.2678 12.9686C42.4614 13.0352 42.6394 13.1408 42.7907 13.2787C42.942 13.4167 43.0634 13.5842 43.1476 13.7709C43.2317 13.9576 43.2767 14.1596 43.2798 14.3643C43.2829 14.569 43.2441 14.7723 43.1656 14.9614C43.0872 15.1506 42.9709 15.3217 42.8239 15.4642C42.6768 15.6067 42.5022 15.7176 42.3107 15.7901L33.0607 20.0001C32.8673 20.0791 32.6594 20.1166 32.4507 20.1101Z" fill="#417579"/>
<path d="M42.25 23.4501C41.8522 23.4501 41.4706 23.292 41.1893 23.0107C40.908 22.7294 40.75 22.3479 40.75 21.9501C40.75 21.6416 40.8464 21.3408 41.0257 21.0898C41.205 20.8388 41.4582 20.6501 41.75 20.5501L59.42 12.5501C59.6012 12.4546 59.7999 12.3972 60.0041 12.3815C60.2083 12.3658 60.4135 12.392 60.6071 12.4586C60.8008 12.5252 60.9787 12.6308 61.13 12.7687C61.2813 12.9067 61.4028 13.0742 61.4869 13.2609C61.571 13.4476 61.616 13.6495 61.6191 13.8543C61.6222 14.059 61.5834 14.2623 61.505 14.4514C61.4266 14.6406 61.3103 14.8117 61.1632 14.9542C61.0162 15.0967 60.8415 15.2076 60.65 15.2801L42.91 23.2801C42.7039 23.3812 42.4793 23.4391 42.25 23.4501Z" fill="#417579"/>
<path d="M41.7002 15.92C41.3598 15.9171 41.0305 15.7985 40.7664 15.5837C40.5022 15.3689 40.3191 15.0706 40.2469 14.7379C40.1748 14.4051 40.218 14.0578 40.3695 13.7528C40.5209 13.4479 40.7715 13.2036 41.0802 13.06L50.8502 8.63001C51.0305 8.54094 51.2269 8.48904 51.4276 8.47738C51.6284 8.46572 51.8294 8.49454 52.0188 8.56213C52.2082 8.62972 52.382 8.7347 52.53 8.87082C52.678 9.00695 52.7972 9.17144 52.8803 9.35453C52.9635 9.53761 53.009 9.73555 53.0141 9.93656C53.0192 10.1376 52.9839 10.3376 52.9102 10.5247C52.8365 10.7118 52.7259 10.8821 52.5851 11.0256C52.4442 11.1691 52.2759 11.2828 52.0902 11.36L42.3102 15.79C42.1184 15.8759 41.9105 15.9202 41.7002 15.92Z" fill="#417579"/>
<path d="M57.2497 14.15C57.0362 14.1513 56.8248 14.107 56.6297 14.02L50.8497 11.36C50.6682 11.2792 50.5047 11.1629 50.3688 11.0179C50.2329 10.8729 50.1274 10.7023 50.0584 10.5159C49.9895 10.3296 49.9585 10.1313 49.9673 9.93278C49.9761 9.73427 50.0245 9.53953 50.1097 9.36002C50.2772 8.99706 50.5818 8.71534 50.9568 8.57662C51.3317 8.4379 51.7463 8.45351 52.1097 8.62002L57.8897 11.28C58.1992 11.424 58.4502 11.6692 58.6015 11.9751C58.7528 12.281 58.7953 12.6294 58.7218 12.9627C58.6484 13.296 58.4635 13.5943 58.1977 13.8084C57.9319 14.0224 57.601 14.1394 57.2597 14.14L57.2497 14.15Z" fill="#417579"/>
<path d="M70.3302 20.1601C70.1113 20.1516 69.8966 20.097 69.7002 20.0001L56.6302 14.0001C56.4509 13.918 56.2896 13.8014 56.1554 13.657C56.0212 13.5126 55.9168 13.3431 55.848 13.1583C55.7793 12.9735 55.7477 12.777 55.7549 12.58C55.7621 12.383 55.8081 12.1893 55.8902 12.0101C55.9723 11.8308 56.0888 11.6695 56.2333 11.5353C56.3777 11.4011 56.5471 11.2966 56.7319 11.2279C56.9167 11.1592 57.1132 11.1276 57.3103 11.1348C57.5073 11.142 57.7009 11.188 57.8802 11.2701L71.0002 17.3001C71.1826 17.3798 71.3471 17.4955 71.4838 17.6403C71.6205 17.7851 71.7265 17.9559 71.7956 18.1427C71.8647 18.3294 71.8954 18.5281 71.8859 18.727C71.8764 18.9259 71.8268 19.1208 71.7402 19.3001C71.6141 19.5649 71.4136 19.7872 71.1632 19.9399C70.9128 20.0926 70.6233 20.1691 70.3302 20.1601Z" fill="#417579"/>
</svg>
