<svg width="34" height="34" viewBox="0 0 34 34" fill="none" xmlns="http://www.w3.org/2000/svg">
<path d="M6.84122 16.2788C6.44289 15.8805 5.79705 15.8805 5.39872 16.2788C5.00039 16.6772 5.00039 17.3229 5.39872 17.7212L6.84122 16.2788ZM11.56 22.44L10.8387 23.1612C11.2371 23.5596 11.8829 23.5596 12.2812 23.1612L11.56 22.44ZM23.1612 12.2813C23.5595 11.883 23.5595 11.2371 23.1612 10.8388C22.7628 10.4405 22.1171 10.4405 21.7188 10.8388L23.1612 12.2813ZM12.2812 16.2788C11.8829 15.8805 11.2371 15.8805 10.8387 16.2788C10.4404 16.6772 10.4404 17.3229 10.8387 17.7212L12.2812 16.2788ZM17 22.44L16.2788 23.1612C16.6771 23.5596 17.3228 23.5596 17.7212 23.1612L17 22.44ZM28.6012 12.2813C28.9995 11.883 28.9995 11.2371 28.6012 10.8388C28.2028 10.4405 27.5571 10.4405 27.1588 10.8388L28.6012 12.2813ZM5.39872 17.7212L10.8387 23.1612L12.2812 21.7188L6.84122 16.2788L5.39872 17.7212ZM12.2812 23.1612L23.1612 12.2813L21.7188 10.8388L10.8387 21.7188L12.2812 23.1612ZM10.8387 17.7212L16.2788 23.1612L17.7212 21.7188L12.2812 16.2788L10.8387 17.7212ZM17.7212 23.1612L28.6012 12.2813L27.1588 10.8388L16.2788 21.7188L17.7212 23.1612Z" fill="#0F7275"/>
</svg>
