<svg width="35" height="35" viewBox="0 0 35 35" fill="none" xmlns="http://www.w3.org/2000/svg">
<path d="M18.3908 12.5216C18.4392 12.0121 18.4126 12.3159 18.4343 11.7834C18.5493 9.03059 16.2018 6.79321 13.4477 6.79321C10.6937 6.79321 8.45752 9.02817 8.45752 11.7834C8.45752 14.5387 10.6925 16.77 13.4477 16.77C14.2101 16.77 14.1859 16.77 15.0087 16.522" stroke="#FDFDFD" stroke-width="0.968593" stroke-miterlimit="10" stroke-linecap="round"/>
<path d="M13.1489 2.85571V5.23345" stroke="#FDFDFD" stroke-width="0.968593" stroke-miterlimit="10" stroke-linecap="round"/>
<path d="M6.518 11.9119H4.14026" stroke="#FDFDFD" stroke-width="0.968593" stroke-miterlimit="10" stroke-linecap="round"/>
<path d="M17.8949 7.10434L19.5769 5.42358" stroke="#FDFDFD" stroke-width="0.968593" stroke-miterlimit="10" stroke-linecap="round"/>
<path d="M6.93665 18.3322L8.6174 16.6515" stroke="#FDFDFD" stroke-width="0.968593" stroke-miterlimit="10" stroke-linecap="round"/>
<path d="M6.93665 5.42358L8.6174 7.10434" stroke="#FDFDFD" stroke-width="0.968593" stroke-miterlimit="10" stroke-linecap="round"/>
<path d="M19.1374 24.6002C19.0636 24.8749 18.6437 24.841 18.5457 24.5748C18.4743 24.38 18.4102 24.2118 18.3436 24.0448C17.6116 22.2176 15.903 21.0354 14.1436 21.1359C12.8984 21.206 12.458 21.9756 13.0449 23.0889C13.6523 24.2396 14.6421 24.9366 15.8969 25.1266C16.7125 25.25 17.5607 25.1605 18.5215 25.152C18.5941 25.152 18.6486 25.2222 18.6268 25.2911C18.075 27.099 16.842 28.4215 15.9962 30.0043C15.9381 30.112 16.0446 30.2342 16.1607 30.1967C16.3471 30.1362 16.5068 30.043 16.5939 29.905C17.2824 28.8063 17.9516 27.6943 18.5844 26.5617C19.1338 25.5791 19.2003 25.5283 20.2688 25.8974C22.1456 26.546 24.1688 26.0535 25.2373 24.6873C26.0565 23.6394 25.7975 22.8481 24.5245 22.5093C22.8728 22.0688 20.6706 22.9267 19.6335 24.6486C19.5428 24.7987 19.112 25.365 18.9717 25.4146C18.8857 25.4448 19.4641 24.7442 19.4883 24.6571C19.7606 23.6927 20.1285 23.2062 20.4358 22.2455C20.6742 21.4964 20.8908 21.2448 21.7427 21.5993C23.5904 22.3677 25.8169 21.7372 26.8285 20.3167C27.5509 19.3026 27.2278 18.4604 25.9996 18.2354C24.1906 17.905 22.7881 18.625 21.6822 20.0117C21.4764 20.2695 21.3058 20.5562 21.088 20.9084C21.036 20.9931 20.9053 20.9398 20.9259 20.843C21.1001 20.0141 21.2127 19.3038 21.3506 18.5996C21.5127 17.7756 21.7511 17.5747 22.5861 17.7622C24.3612 18.1591 26.3699 17.1959 27.1709 15.6907C27.7856 14.5375 27.3427 13.7449 26.0553 13.6941C24.3818 13.6275 22.8087 14.6512 22.0234 16.3235C21.9217 16.5401 21.6471 17.081 21.543 17.3206C21.5055 17.4053 21.3167 17.7223 21.324 17.6304C21.3978 16.5946 21.7584 15.1365 22.3888 14.2979C23.3992 12.9535 23.5783 11.349 22.6744 9.82557C22.4287 9.41052 21.8697 8.93013 21.4607 8.93497C21.0469 8.93981 20.4854 9.42625 20.2579 9.84735C19.354 11.5172 19.6614 13.135 20.7335 14.6343C21.3542 15.5007 21.3954 15.9363 21.2744 16.9043C21.2611 17.0144 21.0989 17.0241 21.059 16.9201C20.9791 16.7156 20.9041 16.5256 20.8242 16.3368C20.0413 14.4891 18.2505 13.342 16.4717 13.5465C15.5085 13.6578 15.0971 14.2894 15.4541 15.1849C15.9659 16.4675 16.9714 17.2528 18.2831 17.4864C19.1011 17.6328 19.9603 17.5408 20.9598 17.5215C21.1328 17.5178 21.1788 17.761 21.1449 17.9304C20.9477 18.9275 20.8327 20.1799 20.6464 21.1201C20.6258 21.2206 20.5108 20.8709 20.4406 20.7946C20.2144 20.5526 20.1006 20.3094 19.9784 20.0698C19.0975 18.3503 17.3732 17.352 15.615 17.5396C14.4267 17.6654 13.9935 18.4508 14.5659 19.4708C15.1394 20.4921 16.0458 21.1419 17.1699 21.298C18.1125 21.4287 19.0854 21.3391 20.1285 21.3283C20.2277 21.3283 20.2482 21.5545 20.2168 21.6489C19.8828 22.6823 19.446 23.4434 19.135 24.6002H19.1374Z" stroke="#FDFDFD" stroke-width="0.874962" stroke-miterlimit="10" stroke-linecap="round"/>
<path d="M13.1492 20.1182V19.1235" stroke="#FDFDFD" stroke-width="0.968593" stroke-miterlimit="10" stroke-linecap="round"/>
</svg>
