<svg width="52" height="70" viewBox="0 0 52 70" fill="none" xmlns="http://www.w3.org/2000/svg">
<path d="M25.8823 22.859C25.8823 22.859 22.9444 21.7342 22.6848 19.9211C22.4252 18.1079 23.2039 14.8202 23.2039 13.8685C23.2039 12.9168 22.5983 10.5845 23.4635 8.16196C24.3287 5.73942 26.6609 3.23411 26.6609 3.23411L27.7405 2.21845C27.9813 1.99275 28.3349 1.93632 28.6321 2.07551C29.5575 2.51187 31.4609 3.50872 31.5888 4.3551C31.7618 5.47986 31.4157 5.73941 31.5888 6.51809C31.7618 7.29676 33.2326 7.38328 33.2326 9.11367C33.2326 10.8441 33.4922 12.2246 34.0113 13.2628C34.5304 14.3011 34.8765 16.7199 34.0113 18.4502C33.1461 20.1806 31.1599 21.6477 29.8622 22.3399C28.5644 23.032 29.0835 23.1185 25.886 22.859H25.8823Z" stroke="#417579" stroke-width="2.25703" stroke-miterlimit="10" stroke-linecap="round"/>
<path d="M27.2327 22.9946C27.2327 22.9946 26.7211 49.4658 25.3857 58.366C24.0503 67.2662 21.8271 68.3759 21.8271 68.3759" stroke="#417579" stroke-width="2.25703" stroke-miterlimit="10" stroke-linecap="round"/>
<path d="M27.2322 24.9239C27.2322 24.9239 24.3131 22.7534 23.0378 22.3697C21.7626 21.986 20.8673 21.6663 20.5476 21.4143C20.2278 21.1622 18.8887 21.0945 17.6134 21.0945C16.3382 21.0945 15.8906 20.3911 14.4875 20.3911C13.0843 20.3911 11.3615 20.455 10.722 20.3911C10.0825 20.3271 9.25492 20.519 7.8518 20.9666C6.44868 21.4143 6.57658 21.4782 6.64053 22.3058C6.70448 23.1334 8.42735 25.0481 8.93894 25.7515C9.45053 26.455 9.95836 26.7709 10.8536 27.1546C11.7452 27.5383 11.8091 27.986 12.5126 29.1973C13.216 30.4085 13.216 31.5596 15.1307 32.3872C17.0454 33.2185 21.6385 33.0267 23.809 32.8988C25.9795 32.7709 26.9989 32.0787 26.9989 32.0787C26.9989 32.0787 29.1694 30.4085 31.0202 31.1759C32.871 31.9433 34.2741 31.5596 36.6364 31.4317C38.9988 31.3038 40.274 29.517 41.9969 29.1333C43.7197 28.7496 45.5066 28.0875 45.5705 26.6957C45.6345 25.3039 46.2739 24.2845 47.2294 23.581C48.1849 22.8776 48.5686 20.6845 48.4407 20.3798C48.3128 20.0713 47.8012 19.5635 46.2702 19.4356C44.7392 19.3077 44.0357 18.6682 42.8884 18.6682C41.7411 18.6682 40.3981 18.8601 37.5919 19.6876C34.7857 20.519 34.6691 20.3008 32.5512 21.1547C30.4334 22.0086 29.1845 24.4086 28.2102 24.6644L27.2359 24.9202L27.2322 24.9239Z" stroke="#417579" stroke-width="2.25703" stroke-miterlimit="10" stroke-linecap="round"/>
<path d="M26.8683 37.7516C26.8683 37.7516 28.5197 35.6451 29.5391 35.0733C30.5585 34.5015 32.9209 33.294 34.7716 32.3649C36.6224 31.4357 38.9848 31.8194 40.0042 31.7555C41.0236 31.6915 42.6223 31.3078 43.322 31.2439C44.0217 31.1799 45.5565 30.6683 46.3201 31.2439C47.0875 31.8194 45.8725 35.0094 45.0449 36.0927C44.2135 37.1761 45.1728 35.5172 42.7465 39.0908C40.3202 42.6644 42.4907 43.6199 38.0895 44.5152C33.6883 45.4067 34.1321 45.5798 31.262 45.6851C28.3918 45.7904 26.4959 44.3798 26.4959 44.3798C24.22 45.4556 23.6671 44.8349 21.8201 44.8349C19.9731 44.8349 17.9229 44.8349 15.5342 44.3873C13.1456 43.9397 10.328 41.897 10.328 41.897C8.79701 40.6218 7.39389 40.366 6.11491 38.6432C4.83969 36.9203 4.2002 35.8369 4.2002 34.43C4.2002 33.0232 5.53937 32.5793 7.70987 32.3874C9.88038 32.1956 11.859 33.0269 12.8785 33.0119C13.8979 32.9968 16.1963 33.1511 17.3436 33.0119C18.4909 32.8727 20.1499 33.5987 22.1925 33.9824C24.2351 34.3661 26.857 35.6376 26.857 35.6376" stroke="#417579" stroke-width="2.25703" stroke-miterlimit="10" stroke-linecap="round"/>
<path d="M25.7901 54.8975C25.7901 54.8975 24.4999 55.8718 23.3526 55.8718C22.2052 55.8718 19.9068 57.7865 17.8642 57.7865C15.8216 57.7865 13.5871 56.3194 12.3759 55.1081C11.1646 53.8969 9.24989 54.4687 7.07938 53.2574C4.90887 52.0461 2.67818 50.579 2.23053 49.9396C1.78289 49.3001 2.10263 48.9201 2.23053 48.5364C2.35843 48.1527 3.31391 47.517 4.84868 47.1973C6.3797 46.8775 8.67811 45.4744 10.2731 45.4104C11.868 45.3465 14.9301 45.4104 16.1451 45.4104C17.3601 45.4104 19.335 46.4299 21.1858 47.1973C23.0366 47.9646 26.1626 50.2706 26.1626 50.2706C26.1626 50.2706 28.0058 49.8794 28.5851 49.6875C29.1644 49.4957 30.2515 48.2844 31.4628 47.8368C32.6741 47.3891 34.5248 45.7114 36.2477 45.6888C37.9706 45.6662 38.3543 44.9666 40.5248 44.455C42.6953 43.9434 46.1222 42.924 48.462 44.0073C50.798 45.0907 49.7786 45.3465 49.7786 46.5615C49.7786 47.7766 49.5867 49.0518 46.205 50.9627C42.8232 52.8775 41.1003 54.9201 38.1022 54.9201C35.1041 54.9201 33.5731 55.5596 31.5945 55.5596C29.6158 55.5596 27.8817 55.048 27.5356 55.048C27.1895 55.048 25.7977 54.905 25.7977 54.905L25.7901 54.8975Z" stroke="#417579" stroke-width="2.25703" stroke-miterlimit="10" stroke-linecap="round"/>
</svg>
