<svg width="110" height="149" viewBox="0 0 110 149" fill="none" xmlns="http://www.w3.org/2000/svg">
<path d="M54.7436 47.7599C54.7436 47.7599 48.4394 45.3463 47.8824 41.4556C47.3255 37.5649 48.9964 30.51 48.9964 28.4678C48.9964 26.4256 47.6968 21.4209 49.5533 16.2225C51.4099 11.0242 56.4145 5.6482 56.4145 5.6482L58.7312 3.46876C59.2478 2.98444 60.0066 2.86336 60.6443 3.16202C62.63 4.09838 66.7144 6.23746 66.9889 8.05366C67.3602 10.4672 66.6176 11.0242 66.9889 12.6951C67.3602 14.366 70.5163 14.5516 70.5163 18.2648C70.5163 21.9779 71.0733 24.9403 72.1873 27.1682C73.3012 29.3961 74.0438 34.5864 72.1873 38.2995C70.3307 42.0126 66.0687 45.1607 63.2838 46.6459C60.499 48.1312 61.6129 48.3169 54.7517 47.7599H54.7436Z" stroke="#0F7275" stroke-width="5.91769" stroke-miterlimit="10" stroke-linecap="round"/>
<path d="M57.6412 48.0502C57.6412 48.0502 56.5434 104.853 53.6779 123.951C50.8123 143.05 46.0417 145.431 46.0417 145.431" stroke="#0F7275" stroke-width="5.91769" stroke-miterlimit="10" stroke-linecap="round"/>
<path d="M57.6415 52.1913C57.6415 52.1913 51.3776 47.5338 48.6412 46.7104C45.9048 45.8871 43.9836 45.201 43.2975 44.6601C42.6114 44.1193 39.7378 43.974 37.0014 43.974C34.2649 43.974 33.3044 42.4646 30.2935 42.4646C27.2827 42.4646 23.5857 42.6018 22.2134 42.4646C20.8412 42.3273 19.0654 42.739 16.0545 43.6996C13.0436 44.6601 13.3181 44.7974 13.4553 46.5732C13.5925 48.3491 17.2895 52.4577 18.3873 53.9672C19.4851 55.4766 20.5748 56.1547 22.496 56.978C24.409 57.8014 24.5462 58.7619 26.0557 61.3611C27.5652 63.9603 27.5652 66.4304 31.6738 68.2062C35.7825 69.9901 45.6384 69.5784 50.296 69.304C54.9535 69.0295 57.141 67.5443 57.141 67.5443C57.141 67.5443 61.7986 63.9603 65.77 65.607C69.7414 67.2537 72.7523 66.4304 77.8215 66.1559C82.8907 65.8815 85.6271 62.0473 89.3241 61.2239C93.0211 60.4006 96.8553 58.9799 96.9925 55.9932C97.1298 53.0066 98.502 50.8191 100.552 49.3096C102.603 47.8002 103.426 43.0942 103.151 42.4403C102.877 41.7784 101.779 40.6887 98.4939 40.4143C95.2086 40.1398 93.6992 38.7676 91.2372 38.7676C88.7752 38.7676 85.8935 39.1793 79.8718 40.9551C73.8501 42.739 73.5999 42.2708 69.0553 44.1032C64.5108 45.9355 61.8309 51.0855 59.7402 51.6344L57.6496 52.1833L57.6415 52.1913Z" stroke="#0F7275" stroke-width="5.91769" stroke-miterlimit="10" stroke-linecap="round"/>
<path d="M56.8663 79.7169C56.8663 79.7169 60.4099 75.1966 62.5974 73.9696C64.7849 72.7427 69.8542 70.1516 73.8256 68.1578C77.797 66.164 82.8662 66.9873 85.0537 66.8501C87.2413 66.7129 90.6719 65.8895 92.1733 65.7523C93.6747 65.6151 96.968 64.5173 98.6067 65.7523C100.253 66.9873 97.6461 73.8324 95.8702 76.1571C94.0863 78.4819 96.1447 74.9221 90.9382 82.5905C85.7318 90.2589 90.3893 92.3092 80.9451 94.2304C71.5008 96.1434 72.4533 96.5147 66.2944 96.7408C60.1355 96.9668 56.0672 93.9398 56.0672 93.9398C51.1836 96.2484 49.997 94.9165 46.0337 94.9165C42.0703 94.9165 37.6711 94.9165 32.5453 93.9559C27.4196 92.9954 21.3737 88.6122 21.3737 88.6122C18.0884 85.8758 15.0775 85.3269 12.333 81.63C9.5966 77.933 8.22437 75.6082 8.22437 72.5893C8.22437 69.5704 11.098 68.6179 15.7556 68.2062C20.4131 67.7945 24.659 69.5784 26.8465 69.5462C29.034 69.5139 33.966 69.8448 36.428 69.5462C38.8899 69.2475 42.4497 70.8054 46.8328 71.6287C51.2159 72.4521 56.8421 75.1804 56.8421 75.1804" stroke="#0F7275" stroke-width="5.91769" stroke-miterlimit="10" stroke-linecap="round"/>
<path d="M54.5497 116.509C54.5497 116.509 51.781 118.6 49.3191 118.6C46.8571 118.6 41.9251 122.708 37.542 122.708C33.1589 122.708 28.3641 119.56 25.765 116.961C23.1658 114.362 19.0571 115.589 14.3996 112.99C9.74202 110.39 4.95531 107.242 3.99474 105.87C3.03418 104.498 3.7203 103.683 3.99474 102.859C4.26919 102.036 6.31948 100.672 9.61286 99.9856C12.8982 99.2994 17.8302 96.2886 21.2527 96.1514C24.6752 96.0141 31.2459 96.1514 33.8531 96.1514C36.4604 96.1514 40.6982 98.3389 44.6696 99.9856C48.641 101.632 55.3489 106.58 55.3489 106.58C55.3489 106.58 59.3042 105.741 60.5472 105.329C61.7903 104.918 64.1231 102.318 66.7223 101.358C69.3215 100.397 73.293 96.7971 76.9899 96.7487C80.6869 96.7003 81.5103 95.1989 86.1678 94.1011C90.8254 93.0033 98.179 90.8158 103.2 93.1405C108.212 95.4652 106.025 96.0142 106.025 98.6214C106.025 101.229 105.613 103.965 98.3565 108.066C91.0998 112.174 87.4028 116.557 80.9694 116.557C74.536 116.557 71.2507 117.93 67.0048 117.93C62.759 117.93 59.0378 116.832 58.2952 116.832C57.5525 116.832 54.5659 116.525 54.5659 116.525L54.5497 116.509Z" stroke="#0F7275" stroke-width="5.91769" stroke-miterlimit="10" stroke-linecap="round"/>
</svg>
