<svg width="31" height="42" viewBox="0 0 31 42" fill="none" xmlns="http://www.w3.org/2000/svg">
<path d="M15.4286 13.6023C15.4286 13.6023 13.6537 12.9228 13.4968 11.8273C13.34 10.7319 13.8105 8.74553 13.8105 8.17054C13.8105 7.59554 13.4446 6.18647 13.9673 4.72285C14.49 3.25923 15.8991 1.74561 15.8991 1.74561L16.5514 1.13198C16.6968 0.995618 16.9104 0.961529 17.09 1.04562C17.6491 1.30925 18.7991 1.91152 18.8763 2.42288C18.9809 3.10241 18.7718 3.25923 18.8763 3.72968C18.9809 4.20013 19.8695 4.2524 19.8695 5.29784C19.8695 6.34329 20.0263 7.17737 20.34 7.80463C20.6536 8.4319 20.8627 9.89325 20.34 10.9387C19.8172 11.9841 18.6172 12.8705 17.8332 13.2887C17.0491 13.7068 17.3627 13.7591 15.4309 13.6023H15.4286Z" stroke="#0F7275" stroke-width="1.36362" stroke-miterlimit="10" stroke-linecap="round"/>
<path d="M16.2448 13.6843C16.2448 13.6843 15.9357 29.6773 15.1289 35.0545C14.322 40.4317 12.9789 41.1021 12.9789 41.1021" stroke="#0F7275" stroke-width="1.36362" stroke-miterlimit="10" stroke-linecap="round"/>
<path d="M16.2442 14.8498C16.2442 14.8498 14.4806 13.5384 13.7101 13.3066C12.9397 13.0748 12.3988 12.8816 12.2056 12.7293C12.0124 12.5771 11.2033 12.5361 10.4329 12.5361C9.66244 12.5361 9.39198 12.1111 8.54427 12.1111C7.69655 12.1111 6.65565 12.1498 6.26929 12.1111C5.88293 12.0725 5.38294 12.1884 4.53522 12.4589C3.6875 12.7293 3.76477 12.768 3.80341 13.268C3.84205 13.7679 4.88294 14.9248 5.19203 15.3497C5.50112 15.7747 5.80793 15.9657 6.34884 16.1975C6.88747 16.4293 6.9261 16.6997 7.3511 17.4315C7.77609 18.1634 7.77609 18.8588 8.9329 19.3588C10.0897 19.8611 12.8647 19.7452 14.176 19.6679C15.4874 19.5906 16.1033 19.1724 16.1033 19.1724C16.1033 19.1724 17.4146 18.1634 18.5328 18.627C19.651 19.0906 20.4987 18.8588 21.9259 18.7815C23.3532 18.7043 24.1236 17.6247 25.1645 17.3929C26.2054 17.1611 27.285 16.7611 27.3236 15.9202C27.3622 15.0793 27.7486 14.4634 28.3259 14.0384C28.9031 13.6134 29.1349 12.2884 29.0577 12.1043C28.9804 11.918 28.6713 11.6112 27.7463 11.5339C26.8213 11.4566 26.3963 11.0703 25.7032 11.0703C25.01 11.0703 24.1986 11.1862 22.5032 11.6862C20.8078 12.1884 20.7373 12.0566 19.4578 12.5725C18.1782 13.0884 17.4237 14.5384 16.8351 14.6929L16.2465 14.8475L16.2442 14.8498Z" stroke="#0F7275" stroke-width="1.36362" stroke-miterlimit="10" stroke-linecap="round"/>
<path d="M16.0246 22.6C16.0246 22.6 17.0224 21.3273 17.6383 20.9818C18.2542 20.6364 19.6814 19.9068 20.7996 19.3455C21.9178 18.7841 23.345 19.0159 23.9609 18.9773C24.5768 18.9386 25.5427 18.7068 25.9654 18.6682C26.3882 18.6296 27.3154 18.3205 27.7768 18.6682C28.2404 19.0159 27.5063 20.9432 27.0063 21.5977C26.5041 22.2522 27.0836 21.25 25.6177 23.409C24.1518 25.5681 25.4632 26.1454 22.8041 26.6863C20.1451 27.2249 20.4132 27.3295 18.6792 27.3931C16.9451 27.4567 15.7996 26.6045 15.7996 26.6045C14.4247 27.2545 14.0906 26.8795 12.9747 26.8795C11.8588 26.8795 10.6202 26.8795 9.177 26.609C7.73383 26.3386 6.03158 25.1045 6.03158 25.1045C5.10659 24.334 4.25887 24.1795 3.48615 23.1386C2.7157 22.0977 2.32935 21.4432 2.32935 20.5932C2.32935 19.7432 3.13843 19.475 4.44978 19.3591C5.76113 19.2432 6.95656 19.7455 7.57247 19.7364C8.18837 19.7273 9.57699 19.8205 10.2702 19.7364C10.9633 19.6523 11.9656 20.0909 13.1997 20.3227C14.4338 20.5545 16.0178 21.3227 16.0178 21.3227" stroke="#0F7275" stroke-width="1.36362" stroke-miterlimit="10" stroke-linecap="round"/>
<path d="M15.3732 32.9588C15.3732 32.9588 14.5937 33.5475 13.9005 33.5475C13.2073 33.5475 11.8187 34.7043 10.5846 34.7043C9.35055 34.7043 8.00057 33.8179 7.26876 33.0861C6.53695 32.3543 5.38014 32.6998 4.06879 31.9679C2.75744 31.2361 1.40973 30.3498 1.13928 29.9634C0.868828 29.5771 1.06201 29.3475 1.13928 29.1157C1.21655 28.8839 1.79382 28.4998 2.72108 28.3066C3.64607 28.1134 5.03469 27.2657 5.99832 27.2271C6.96194 27.1884 8.81192 27.2271 9.546 27.2271C10.2801 27.2271 11.4733 27.843 12.5914 28.3066C13.7096 28.7703 15.5982 30.1634 15.5982 30.1634C15.5982 30.1634 16.7118 29.9271 17.0618 29.8111C17.4118 29.6952 18.0686 28.9634 18.8004 28.693C19.5323 28.4225 20.6504 27.4089 21.6913 27.3953C22.7322 27.3816 22.964 26.9589 24.2754 26.6498C25.5867 26.3407 27.6572 25.7248 29.0708 26.3794C30.4821 27.0339 29.8662 27.1885 29.8662 27.9225C29.8662 28.6566 29.7503 29.4271 27.7072 30.5816C25.664 31.7384 24.6231 32.9725 22.8118 32.9725C21.0004 32.9725 20.0754 33.3588 18.88 33.3588C17.6845 33.3588 16.6368 33.0497 16.4277 33.0497C16.2187 33.0497 15.3778 32.9634 15.3778 32.9634L15.3732 32.9588Z" stroke="#0F7275" stroke-width="1.36362" stroke-miterlimit="10" stroke-linecap="round"/>
</svg>
