<svg width="18" height="14" viewBox="0 0 18 14" fill="none" xmlns="http://www.w3.org/2000/svg">
<path d="M2.41667 5.33325V11.9999H15.75V5.33325L9.08333 7.83325L2.41667 5.33325ZM2.41667 1.99992V3.66659L9.08333 6.16658L15.75 3.66659V1.99992H2.41667ZM2.41667 0.333252H15.75C16.192 0.333252 16.6159 0.508847 16.9285 0.821407C17.2411 1.13397 17.4167 1.55789 17.4167 1.99992V11.9999C17.4167 12.4419 17.2411 12.8659 16.9285 13.1784C16.6159 13.491 16.192 13.6666 15.75 13.6666H2.41667C1.97464 13.6666 1.55072 13.491 1.23816 13.1784C0.925595 12.8659 0.75 12.4419 0.75 11.9999V1.99992C0.75 1.55789 0.925595 1.13397 1.23816 0.821407C1.55072 0.508847 1.97464 0.333252 2.41667 0.333252Z" fill="#0F7275"/>
</svg>
