<svg width="155" height="155" viewBox="0 0 155 155" fill="none" xmlns="http://www.w3.org/2000/svg">
<circle cx="77.5" cy="77.5" r="77.5" fill="#EAB1B1"/>
<path d="M110.054 45.9463C107.564 43.4567 103.528 43.4567 101.038 45.9463L78.4992 68.4854L55.9601 45.9463C53.4705 43.4567 49.434 43.4567 46.9444 45.9463C44.4549 48.4358 44.4549 52.4724 46.9444 54.9619L69.4835 77.501L46.9528 100.032C44.4633 102.521 44.4633 106.558 46.9528 109.047C49.4423 111.537 53.4789 111.537 55.9684 109.047L78.4992 86.5167L101.036 109.054C103.526 111.544 107.563 111.544 110.052 109.054C112.542 106.564 112.542 102.528 110.052 100.038L87.5148 77.501L110.054 54.9619C112.543 52.4724 112.543 48.4361 110.054 45.9463Z" fill="#D45D5D"/>
</svg>
