<svg width="22" height="22" viewBox="0 0 22 22" fill="none" xmlns="http://www.w3.org/2000/svg">
<path d="M10.9978 3.93164C7.09196 3.93164 3.92731 7.09844 3.92731 11.0021C3.92731 14.9059 7.0941 18.0727 10.9978 18.0727C14.9015 18.0727 18.0683 14.908 18.0683 11.0043C18.0683 7.10059 14.9015 3.93164 10.9978 3.93164ZM10.9978 16.5043C7.96422 16.5043 5.49781 14.0379 5.49781 11.0043C5.49781 7.9707 7.96422 5.5043 10.9978 5.5043C14.0314 5.5043 16.4978 7.9707 16.4978 11.0043C16.4978 14.0379 14.0293 16.5043 10.9978 16.5043Z" fill="black"/>
<path d="M10.2137 7.85687H11.7843V11.7864H10.2137V7.85687ZM10.2137 12.5705H11.7843V14.1411H10.2137V12.5705Z" fill="black"/>
</svg>
