<svg width="100" height="100" viewBox="0 0 100 100" fill="none" xmlns="http://www.w3.org/2000/svg">
<path d="M24.1444 53.3409C25.0854 53.3409 25.8483 52.578 25.8483 51.6369C25.8483 50.6959 25.0854 49.933 24.1444 49.933C23.2033 49.933 22.4404 50.6959 22.4404 51.6369C22.4404 52.578 23.2033 53.3409 24.1444 53.3409Z" fill="#0F7275" stroke="#0F7275" stroke-width="0.335144" stroke-miterlimit="10"/>
<path d="M42.408 72.2889C43.3491 72.2889 44.112 71.526 44.112 70.5849C44.112 69.6439 43.3491 68.881 42.408 68.881C41.467 68.881 40.7041 69.6439 40.7041 70.5849C40.7041 71.526 41.467 72.2889 42.408 72.2889Z" fill="#0F7275" stroke="#0F7275" stroke-width="0.335144" stroke-miterlimit="10"/>
<path d="M34.4105 70.5849C35.3516 70.5849 36.1144 69.822 36.1144 68.8809C36.1144 67.9399 35.3516 67.177 34.4105 67.177C33.4694 67.177 32.7065 67.9399 32.7065 68.8809C32.7065 69.822 33.4694 70.5849 34.4105 70.5849Z" fill="#0F7275" stroke="#0F7275" stroke-width="0.335144" stroke-miterlimit="10"/>
<path d="M40.7042 65.4272C41.6452 65.4272 42.4081 64.6644 42.4081 63.7233C42.4081 62.7822 41.6452 62.0193 40.7042 62.0193C39.7631 62.0193 39.0002 62.7822 39.0002 63.7233C39.0002 64.6644 39.7631 65.4272 40.7042 65.4272Z" stroke="#0F7275" stroke-width="2.0846" stroke-miterlimit="10" stroke-linecap="round"/>
<path d="M14.9722 89.8928C14.9722 89.8928 21.3082 66.8842 35.8146 54.5474C50.3211 42.2106 74.8289 30.7063 74.8289 30.7063" stroke="#0F7275" stroke-width="2.0846" stroke-miterlimit="10" stroke-linecap="round"/>
<path d="M68.6376 24.582C69.9288 23.5554 70.9942 22.2042 71.6963 20.5849C71.922 20.0487 72.1055 19.5125 72.2431 18.9657C77.048 17.9214 81.1262 20.6555 85.2432 14.6264C85.5783 14.1361 85.2431 14.6264 90.4538 15.5366C91.0182 15.6354 92.6798 16.4503 92.8033 17.0112C94.3238 23.7494 91.498 30.7028 85.6383 36.2873C80.0678 41.5932 84.9856 52.3249 81.038 58.8972C76.7164 57.7154 72.0843 59.8674 70.2428 64.1149C70.1899 64.2348 70.1405 64.3583 70.0946 64.4783C69.4385 66.1963 67.6428 67.2723 65.8542 66.8419C64.8734 66.6056 63.8504 66.4785 62.7991 66.4785C55.6376 66.4785 49.8237 72.2183 49.7002 79.3551C47.6964 79.6056 44.6484 77.683 43.6359 79.4539C39.7588 86.238 32.7102 79.9549 25.5169 72.6558C24.896 72.0243 23.9858 71.7209 23.312 71.1353C23.2132 71.0471 23.1145 70.9624 23.0121 70.8601C19.6889 67.8227 21.668 60.774 19.195 57.1792C15.8894 52.3672 16.0023 48.5607 18.1049 44.0274C20.5462 38.7992 28.5508 37.5856 32.7066 33.578C35.7123 30.6781 42.9091 33.5674 44.1121 29.1858C44.9024 26.3106 50.2435 23.6154 53.9301 22.7581C54.9637 24.141 56.3713 25.2593 58.0647 25.9966C61.6984 27.563 65.7413 26.8857 68.6412 24.5785L68.6376 24.582Z" stroke="#0F7275" stroke-width="2.0846" stroke-miterlimit="10" stroke-linecap="round"/>
</svg>
