<svg width="64" height="64" viewBox="0 0 64 64" fill="none" xmlns="http://www.w3.org/2000/svg">
<path d="M14.0707 34.8968C14.6617 34.8968 15.1409 34.4176 15.1409 33.8266C15.1409 33.2355 14.6617 32.7563 14.0707 32.7563C13.4796 32.7563 13.0005 33.2355 13.0005 33.8266C13.0005 34.4176 13.4796 34.8968 14.0707 34.8968Z" fill="#0F7275" stroke="#0F7275" stroke-width="0.233394" stroke-miterlimit="10"/>
<path d="M25.5493 46.8068C26.1404 46.8068 26.6195 46.3276 26.6195 45.7366C26.6195 45.1455 26.1404 44.6664 25.5493 44.6664C24.9583 44.6664 24.4791 45.1455 24.4791 45.7366C24.4791 46.3276 24.9583 46.8068 25.5493 46.8068Z" fill="#0F7275" stroke="#0F7275" stroke-width="0.233394" stroke-miterlimit="10"/>
<path d="M20.5238 45.7343C21.1149 45.7343 21.594 45.2552 21.594 44.6641C21.594 44.0731 21.1149 43.5939 20.5238 43.5939C19.9328 43.5939 19.4536 44.0731 19.4536 44.6641C19.4536 45.2552 19.9328 45.7343 20.5238 45.7343Z" fill="#0F7275" stroke="#0F7275" stroke-width="0.233394" stroke-miterlimit="10"/>
<path d="M24.4793 42.492C25.0703 42.492 25.5495 42.0129 25.5495 41.4218C25.5495 40.8308 25.0703 40.3516 24.4793 40.3516C23.8882 40.3516 23.4091 40.8308 23.4091 41.4218C23.4091 42.0129 23.8882 42.492 24.4793 42.492Z" stroke="#0F7275" stroke-width="1.40037" stroke-miterlimit="10" stroke-linecap="round"/>
<path d="M8.3064 57.87C8.3064 57.87 12.2892 43.4087 21.4062 35.6531C30.5233 27.8976 45.9284 20.668 45.9284 20.668" stroke="#0F7275" stroke-width="1.40037" stroke-miterlimit="10" stroke-linecap="round"/>
<path d="M42.0361 16.823C42.849 16.1773 43.5173 15.3283 43.9598 14.31C44.0998 13.9736 44.2172 13.6372 44.3053 13.2918C47.3262 12.6347 49.1257 10.1421 52.4763 10.5643C53.3659 10.6772 52.4763 10.5643 55.7501 11.1378C56.1068 11.201 57.1477 11.7113 57.2267 12.0635C58.1818 16.2969 56.0143 20.641 54.8402 24.8202C53.542 29.4758 52.3115 34.2578 49.8324 38.3919C47.1162 37.6491 44.2059 39.0015 43.0477 41.6702C43.0138 41.747 42.9844 41.8215 42.9551 41.8983C42.5419 42.9775 41.413 43.6549 40.2886 43.3839C39.6722 43.2349 39.0287 43.1559 38.3672 43.1559C33.8674 43.1559 30.212 46.7639 30.133 51.2479C28.8731 51.4037 27.5974 51.4353 26.3218 51.3111C22.1809 50.9047 18.5504 48.9472 14.9333 47.0371C14.4411 46.7797 13.9715 46.45 13.5471 46.082C13.4838 46.0278 13.4229 45.9714 13.3597 45.9104C11.2689 44.0003 10.0249 40.941 9.42202 38.2632C8.73339 35.1948 8.9524 31.8916 10.2755 29.0445C11.8085 25.7572 14.6827 23.2691 17.7805 21.3815C22.3661 18.5796 27.5319 16.8975 32.7904 15.676C33.4406 16.5453 34.3235 17.2497 35.3891 17.7103C37.6741 18.6947 40.2141 18.268 42.0361 16.8185V16.823Z" stroke="#0F7275" stroke-width="1.40037" stroke-miterlimit="10" stroke-linecap="round"/>
</svg>
