<svg width="16" height="16" viewBox="0 0 16 16" fill="none" xmlns="http://www.w3.org/2000/svg">
<path d="M7.99782 0.931641C4.09196 0.931641 0.927307 4.09844 0.927307 8.00215C0.927307 11.9059 4.0941 15.0727 7.99782 15.0727C11.9015 15.0727 15.0683 11.908 15.0683 8.0043C15.0683 4.10059 11.9015 0.931641 7.99782 0.931641ZM7.99782 13.5043C4.96422 13.5043 2.49781 11.0379 2.49781 8.0043C2.49781 4.9707 4.96422 2.5043 7.99782 2.5043C11.0314 2.5043 13.4978 4.9707 13.4978 8.0043C13.4978 11.0379 11.0293 13.5043 7.99782 13.5043Z" fill="#D45D5D"/>
<path d="M7.21375 4.85687H8.78425V8.78636H7.21375V4.85687ZM7.21375 9.57054H8.78425V11.1411H7.21375V9.57054Z" fill="#D45D5D"/>
</svg>
