<svg width="18" height="18" viewBox="0 0 18 18" fill="none" xmlns="http://www.w3.org/2000/svg">
<path fill-rule="evenodd" clip-rule="evenodd" d="M14.8282 15.8H3.67245C3.07202 15.8 2.62863 15.2075 2.85509 14.6627C3.90585 12.1433 6.3744 10.7 9.24988 10.7C12.1262 10.7 14.5948 12.1433 15.6455 14.6627C15.872 15.2075 15.4286 15.8 14.8282 15.8ZM5.77917 5.59999C5.77917 3.72489 7.33665 2.19999 9.24988 2.19999C11.164 2.19999 12.7206 3.72489 12.7206 5.59999C12.7206 7.47509 11.164 8.99999 9.24988 8.99999C7.33665 8.99999 5.77917 7.47509 5.77917 5.59999ZM17.7123 15.4906C17.0815 12.6354 15.1084 10.5283 12.5115 9.57202C13.8876 8.48657 14.6902 6.7313 14.3952 4.80944C14.0533 2.57989 12.1601 0.795781 9.87461 0.53568C6.71974 0.17613 4.04381 2.58164 4.04381 5.59999C4.04381 7.20649 4.8039 8.63787 5.98915 9.57202C3.39132 10.5283 1.41909 12.6354 0.78742 15.4906C0.558354 16.5284 1.41215 17.5 2.49588 17.5H16.0039C17.0885 17.5 17.9423 16.5284 17.7123 15.4906Z" fill="#0F7275"/>
</svg>
