<svg width="27" height="24" viewBox="0 0 27 24" fill="none" xmlns="http://www.w3.org/2000/svg">
<path d="M26.1762 16.4499C26.0775 16.3169 25.9218 16.2386 25.7562 16.2386H21.3111V9.43137C21.3111 7.98958 20.1381 6.81659 18.6963 6.81659H17.1274V4.21567C17.1274 3.45298 16.5228 2.82918 15.7677 2.7977V1.05791C15.7677 0.489414 15.3053 0.0269165 14.7368 0.0269165H12.1966C11.6282 0.0269165 11.1657 0.489414 11.1657 1.05791V2.7977C10.4107 2.82918 9.80608 3.45303 9.80608 4.21567V6.81659H8.23716C6.79536 6.81659 5.62237 7.98958 5.62237 9.43137V12.3687H1.17727C1.01171 12.3687 0.855908 12.447 0.757263 12.58C0.658617 12.7129 0.628788 12.8847 0.676735 13.0432L2.90444 20.3992C3.14958 21.2088 3.65757 21.9701 4.33483 22.5429C5.03035 23.1313 5.82727 23.4553 6.5788 23.4553H21.5266C22.2781 23.4553 23.075 23.1313 23.7705 22.543C24.4478 21.9701 24.9558 21.2088 25.201 20.3993L26.2568 16.9131C26.3047 16.7547 26.2748 16.5828 26.1762 16.4499ZM12.2116 1.07283H14.7218V2.7962H12.2116V1.07283ZM10.8519 4.21567C10.8519 4.00962 11.0195 3.84206 11.2255 3.84206H15.708C15.914 3.84206 16.0816 4.00962 16.0816 4.21567V6.81659H10.8519V4.21567ZM6.66829 9.43132C6.66829 8.56629 7.37207 7.8625 8.23716 7.8625H18.6963C19.5614 7.8625 20.2652 8.56629 20.2652 9.43137V9.54468H15.5585C15.2697 9.54468 15.0356 9.77881 15.0356 10.0676V12.8916C15.0356 13.1804 15.2697 13.4145 15.5585 13.4145H20.2652V16.2385H11.5951L11.3487 15.4247C11.122 14.6765 10.6706 13.9697 10.0687 13.4145H11.3749C11.6637 13.4145 11.8979 13.1804 11.8979 12.8916V10.0676C11.8979 9.77881 11.6637 9.54468 11.3749 9.54468H6.66829V9.43132ZM20.2652 10.5906V12.3686H16.0815V10.5906H20.2652ZM6.66829 10.5906H10.8519V12.3686H6.66829V10.5906ZM24.1999 20.0962C23.8202 21.3501 22.596 22.4094 21.5266 22.4094H6.57875C5.50936 22.4094 4.28513 21.35 3.90541 20.0962L1.88205 13.4146H7.67431C8.7437 13.4146 9.96793 14.4739 10.3476 15.7278L10.7065 16.9131C10.7733 17.1336 10.9766 17.2845 11.2071 17.2845H25.0514L24.1999 20.0962Z" fill="#417579"/>
<path d="M6.32487 16.8098L5.63766 14.585C5.56999 14.3659 5.36735 14.2164 5.13798 14.2164H3.25535C3.08929 14.2164 2.93309 14.2952 2.83455 14.4289C2.73595 14.5626 2.70672 14.735 2.75572 14.8937L3.45304 17.1511C3.52071 17.3702 3.72331 17.5197 3.95273 17.5197H5.83535C5.8357 17.5197 5.83605 17.5197 5.8364 17.5197C6.12523 17.5197 6.35936 17.2856 6.35936 16.9968C6.35931 16.9309 6.34715 16.8678 6.32487 16.8098ZM4.3385 16.4738L3.96429 15.2622H4.7522L5.12641 16.4738H4.3385Z" fill="#417579"/>
<path d="M9.67351 16.8098L8.98629 14.585C8.91863 14.3659 8.71603 14.2164 8.48661 14.2164H6.60399C6.43792 14.2164 6.28172 14.2952 6.18318 14.4289C6.08458 14.5626 6.05535 14.735 6.10435 14.8937L6.80168 17.1511C6.86934 17.3702 7.07194 17.5197 7.30136 17.5197H9.18398C9.18428 17.5197 9.18468 17.5197 9.18504 17.5197C9.47386 17.5197 9.70799 17.2856 9.70799 16.9968C9.70799 16.9309 9.69583 16.8678 9.67351 16.8098ZM7.68713 16.4738L7.31292 15.2622H8.10083L8.47505 16.4738H7.68713Z" fill="#417579"/>
<path d="M22.8243 18.4523H22.812C22.5232 18.4523 22.2891 18.6865 22.2891 18.9753C22.2891 19.2641 22.5232 19.4982 22.812 19.4982H22.8243C23.1131 19.4982 23.3472 19.2641 23.3472 18.9753C23.3472 18.6865 23.1131 18.4523 22.8243 18.4523Z" fill="#417579"/>
<path d="M21.122 18.4524H16.0425C15.7537 18.4524 15.5195 18.6866 15.5195 18.9753C15.5195 19.2641 15.7537 19.4983 16.0425 19.4983H21.122C21.4108 19.4983 21.645 19.2641 21.645 18.9753C21.645 18.6866 21.4108 18.4524 21.122 18.4524Z" fill="#417579"/>
</svg>
