<svg width="100" height="100" viewBox="0 0 100 100" fill="none" xmlns="http://www.w3.org/2000/svg">
<path d="M83.8213 38.4245H83.1657C82.7795 35.7581 80.8961 33.5713 78.3978 32.745C82.0727 29.1818 84.9952 25.922 86.0373 24.4491C87.6505 22.1689 87.7973 19.9976 86.4739 17.9954C85.3948 16.3629 76.6117 10.1496 74.7132 9.67564C72.3848 9.09488 70.3862 9.95582 68.773 12.2362C67.6884 13.7692 65.4902 17.8063 63.2837 22.6621C60.0457 18.7331 55.1835 16.3865 49.9999 16.3865C48.4787 16.3865 46.9701 16.5853 45.5151 16.9777C44.8731 17.1507 44.493 17.8114 44.666 18.4532C44.8391 19.0951 45.4991 19.4759 46.1418 19.3021C47.3923 18.965 48.6904 18.7942 49.9999 18.7942C55.3444 18.7942 60.2922 21.6953 62.9124 26.3653C63.1753 26.8337 63.7134 27.0563 64.24 26.9476C69.9556 25.7685 73.3271 29.8594 73.5859 33.8412C73.609 34.1967 73.7884 34.5237 74.0757 34.7342C74.363 34.9445 74.7303 35.0244 75.0749 34.9318C77.8202 34.1946 80.2549 36.3511 80.7193 38.4248H19.2803C20.1063 34.1948 24.5597 34.8421 24.9247 34.9318C25.2708 35.0174 25.6366 34.9446 25.9239 34.7342C26.2113 34.5235 26.3858 34.1962 26.4137 33.8412C27.0477 25.7684 35.1791 26.8097 35.7595 26.9476C36.2822 27.0712 36.8239 26.834 37.087 26.3653C37.6225 25.4108 38.2664 24.513 39.0003 23.6973C39.445 23.203 39.4048 22.4418 38.9104 21.9973C38.4162 21.5526 37.6551 21.5929 37.2104 22.087C36.5529 22.8181 35.9574 23.6056 35.4339 24.4368C34.9568 24.3675 26.2452 23.361 24.1787 32.3987C24.056 32.3922 17.9632 32.144 16.8335 38.425H16.1779C13.6954 38.425 11.6758 40.4446 11.6758 42.9271V47.3903C11.6758 56.0551 14.6661 64.5198 20.1072 71.3037C19.4171 73.6968 18.9737 77.6475 19.0311 81.0931C19.1202 86.4421 20.3194 89.5222 22.5537 90.3607C24.5999 91.1284 28.245 88.5791 30.2392 86.3709C31.0601 87.5573 32.6579 87.8536 33.0498 87.8536C34.7793 87.8536 36.8285 86.6092 39.1623 84.1434C42.6562 85.18 46.2989 85.7138 49.9994 85.7138C53.7062 85.7138 57.3473 85.1822 60.8376 84.1471C66.3302 90.1656 69.2919 86.9944 69.7634 86.3648C74.1983 91.1688 77.0836 90.4894 77.4448 90.3608C79.6932 89.5605 80.8783 86.4421 80.9673 81.0933C81.0246 77.6476 80.5812 73.6968 79.8912 71.3038C85.3325 64.5199 88.3228 56.0553 88.3228 47.3905V42.9266H88.3231C88.3235 40.4441 86.3038 38.4245 83.8213 38.4245ZM75.7262 31.9709C74.6547 27.5724 70.7044 23.3605 65.1546 24.37C67.3346 19.4956 69.6531 15.1605 70.7384 13.6263C72.0391 11.7877 73.1372 11.7633 74.1299 12.0114C75.5891 12.3757 83.6362 18.068 84.4655 19.3229C85.0298 20.1764 85.3727 21.2199 84.0719 23.0587C82.9885 24.5901 79.6256 28.2707 75.7262 31.9709ZM31.8619 84.429C32.5524 83.5421 33.1498 82.6989 33.6138 82.0128C34.5988 82.4825 35.6018 82.9076 36.6197 83.2898C33.532 86.3773 32.0661 84.8353 31.8619 84.429ZM63.3821 83.292C64.3995 82.9098 65.4017 82.4833 66.3862 82.0132C66.8373 82.679 67.4359 83.5242 68.138 84.4235C67.8762 84.9436 66.2907 86.1928 63.3821 83.292ZM85.9159 47.3899C85.9159 55.7139 82.9703 63.843 77.622 70.2792C77.3685 70.5842 77.2318 70.9449 77.4138 71.4522C78.032 73.1743 78.6243 77.2382 78.5607 81.0525C78.4823 85.771 77.4758 87.7937 76.6379 88.092C75.3377 88.5549 72.019 85.9909 68.5398 80.8995C69.6961 80.2547 70.8249 79.5486 71.921 78.7796C72.4652 78.3977 72.5968 77.6468 72.2151 77.1028C71.8332 76.5585 71.0823 76.4271 70.5383 76.8087C64.4803 81.059 57.3781 83.3056 49.9997 83.3056C42.8723 83.3056 35.972 81.1975 30.0447 77.2096C29.4931 76.8383 28.7449 76.9849 28.374 77.5364C28.0028 78.0879 28.1492 78.836 28.7008 79.207C29.6007 79.8125 30.5222 80.3758 31.4619 80.8993C27.9849 85.9981 24.6768 88.5605 23.3619 88.0919C22.5239 87.7935 21.5176 85.7709 21.4391 81.0523C21.3755 77.238 22.028 73.1945 22.5861 71.4521C22.7013 71.092 22.6313 70.584 22.3779 70.279C17.0292 63.8425 14.0838 55.7136 14.0838 47.3897V42.9266C14.0838 41.7717 15.0234 40.832 16.1784 40.832H83.8216C84.9767 40.832 85.9162 41.7716 85.9162 42.9266V47.3899H85.9159Z" fill="#0F7275"/>
<path d="M44.4899 18.7728C44.0957 18.0526 43.193 17.7886 42.4728 18.1831C41.8403 18.5296 41.2177 18.9138 40.6225 19.3239C39.9466 19.7898 39.7796 20.713 40.2422 21.3909C40.8674 22.3073 42.0516 21.9489 42.309 21.7712C42.821 21.4185 43.3565 21.0884 43.9006 20.7903C44.6204 20.396 44.8842 19.4927 44.4899 18.7728Z" fill="#0F7275"/>
<path d="M47.4237 17.5479C47.1464 17.2705 46.7638 17.1119 46.3717 17.1119C45.9811 17.1119 45.5987 17.2705 45.3216 17.5479C45.0443 17.8233 44.8857 18.2076 44.8857 18.5981C44.8857 18.9905 45.0443 19.3729 45.3216 19.6502C45.5989 19.9256 45.9811 20.0842 46.3717 20.0842C46.7638 20.0842 47.1464 19.9256 47.4237 19.6502C47.6991 19.3729 47.8576 18.9905 47.8576 18.5981C47.8576 18.2076 47.6993 17.8252 47.4237 17.5479Z" fill="#0F7275"/>
<path d="M32.6249 29.437C32.3476 29.1597 31.965 29.0011 31.5729 29.0011C31.1823 29.0011 30.7999 29.1597 30.5228 29.437C30.2455 29.7124 30.0869 30.0968 30.0869 30.4872C30.0869 30.8796 30.2455 31.262 30.5228 31.5394C30.8001 31.8148 31.1823 31.9734 31.5729 31.9734C31.9652 31.9734 32.3476 31.8148 32.6249 31.5394C32.9002 31.262 33.0588 30.8796 33.0588 30.4872C33.0588 30.0968 32.9004 29.7144 32.6249 29.437Z" fill="#0F7275"/>
<path d="M62.0721 26.4647C61.7948 26.1874 61.4123 26.0288 61.0201 26.0288C60.6296 26.0288 60.2472 26.1874 59.9701 26.4647C59.6928 26.7401 59.5342 27.1245 59.5342 27.5149C59.5342 27.9073 59.6928 28.2898 59.9701 28.5671C60.2474 28.8425 60.6296 29.0011 61.0201 29.0011C61.4123 29.0011 61.7948 28.8425 62.0721 28.5671C62.3475 28.2898 62.5061 27.9073 62.5061 27.5149C62.5061 27.1245 62.3479 26.7421 62.0721 26.4647Z" fill="#0F7275"/>
<path d="M69.9012 30.9231C69.6239 30.6458 69.2414 30.4872 68.8492 30.4872C68.4587 30.4872 68.0763 30.6458 67.7992 30.9231C67.5219 31.1985 67.3633 31.5829 67.3633 31.9733C67.3633 32.3657 67.5219 32.7481 67.7992 33.0255C68.0765 33.3009 68.4587 33.4595 68.8492 33.4595C69.2414 33.4595 69.6239 33.3009 69.9012 33.0255C70.1766 32.7481 70.3352 32.3657 70.3352 31.9733C70.335 31.5829 70.1768 31.2005 69.9012 30.9231Z" fill="#0F7275"/>
<path d="M51.0511 27.9508C50.7738 27.6735 50.3913 27.5149 49.9991 27.5149C49.6086 27.5149 49.2262 27.6735 48.9491 27.9508C48.6718 28.2262 48.5132 28.6106 48.5132 29.001C48.5132 29.3934 48.6718 29.7758 48.9491 30.0532C49.2264 30.3286 49.6086 30.4872 49.9991 30.4872C50.3913 30.4872 50.7738 30.3286 51.0511 30.0532C51.3265 29.7758 51.4851 29.3934 51.4851 29.001C51.4851 28.6106 51.3267 28.2282 51.0511 27.9508Z" fill="#0F7275"/>
<path d="M41.2811 24.6757C41.0038 24.3983 40.6212 24.2397 40.2291 24.2397C39.8385 24.2397 39.4562 24.3983 39.179 24.6757C38.9017 24.9511 38.7432 25.3355 38.7432 25.7259C38.7432 26.1183 38.9017 26.5007 39.179 26.778C39.4564 27.0534 39.8385 27.212 40.2291 27.212C40.6212 27.212 41.0038 27.0534 41.2811 26.778C41.5565 26.5007 41.7151 26.1183 41.7151 25.7259C41.7149 25.3355 41.5567 24.953 41.2811 24.6757Z" fill="#0F7275"/>
<path d="M57.8656 19.0341C57.5883 18.7567 57.2057 18.5981 56.8136 18.5981C56.423 18.5981 56.0406 18.7567 55.7635 19.0341C55.4862 19.3095 55.3276 19.6939 55.3276 20.0843C55.3276 20.4767 55.4862 20.8591 55.7635 21.1364C56.0408 21.4118 56.423 21.5704 56.8136 21.5704C57.2059 21.5704 57.5885 21.4118 57.8656 21.1364C58.141 20.8591 58.2995 20.4767 58.2995 20.0843C58.2995 19.6939 58.1411 19.3114 57.8656 19.0341Z" fill="#0F7275"/>
<path d="M47.7999 69.6327C47.6913 70.0396 47.0673 69.9899 46.9204 69.5942C46.8141 69.3049 46.7192 69.0562 46.6197 68.8075C45.5322 66.0967 42.9978 64.3423 40.3865 64.4892C38.5394 64.5932 37.8838 65.7372 38.7565 67.3876C39.6586 69.0946 41.1258 70.1301 42.9888 70.4104C44.1983 70.5935 45.4576 70.4624 46.8842 70.4488C46.9905 70.4488 47.0719 70.5529 47.0402 70.6569C46.2218 73.3382 44.3905 75.3029 43.1357 77.6497C43.0498 77.8102 43.2081 77.9911 43.3799 77.9368C43.658 77.8487 43.8954 77.7085 44.0242 77.5027C45.0461 75.8727 46.0387 74.2222 46.9792 72.5424C47.7953 71.0842 47.8925 71.0095 49.4774 71.5567C52.2628 72.5198 55.2652 71.7873 56.85 69.7593C58.0663 68.2038 57.682 67.0304 55.7919 66.5263C53.3412 65.8729 50.393 67.2791 48.8534 69.8339C48.7178 70.0577 48.4871 70.0826 48.2769 70.1549C48.1503 70.2002 48.2814 69.8407 48.3176 69.7118C48.7223 68.2807 49.2671 67.5595 49.7238 66.1329C50.0788 65.0205 50.3976 64.6475 51.6636 65.1743C54.406 66.3137 57.7091 65.3777 59.2103 63.2706C60.282 61.7649 59.8027 60.5169 57.9804 60.1823C55.2945 59.6917 53.2146 60.761 51.5732 62.8184C51.268 63.2005 51.0148 63.6256 50.6915 64.1478C50.6146 64.2722 50.4202 64.1953 50.4496 64.0506C50.7073 62.8207 50.8769 61.7649 51.0803 60.7204C51.32 59.4972 51.6749 59.2011 52.9139 59.4769C55.5478 60.067 58.5276 58.6358 59.719 56.4044C60.6301 54.6929 59.9745 53.5172 58.0618 53.4404C55.5772 53.3409 53.244 54.8602 52.0796 57.3426C51.9282 57.6637 51.788 57.9892 51.632 58.3442C51.5777 58.4708 51.372 58.4346 51.381 58.299C51.4895 56.7616 51.684 55.5814 52.62 54.3357C54.1189 52.3393 54.3857 49.9586 53.045 47.6978C52.681 47.0828 51.8513 46.3684 51.2431 46.3752C50.6304 46.382 49.7962 47.1032 49.4593 47.7294C48.1186 50.2073 48.5753 52.6084 50.1647 54.8331C51.0849 56.1195 51.1482 56.7638 50.9673 58.2017C50.9469 58.3645 50.7073 58.3804 50.6485 58.2266C50.5287 57.9237 50.4179 57.6411 50.3003 57.3607C49.1383 54.6183 46.4818 52.9159 43.8411 53.2188C42.41 53.3838 41.7996 54.3198 42.3309 55.6515C43.0905 57.5551 44.5827 58.7195 46.5293 59.0677C47.7433 59.2847 49.0184 59.1491 50.5016 59.1197C50.7593 59.1151 50.8271 59.4746 50.7774 59.7278C50.4835 61.2087 50.332 62.4883 50.0562 63.8833C50.0268 64.0325 49.8369 64.0913 49.7329 63.9783C49.3983 63.6188 49.2287 63.257 49.0478 62.9021C47.7411 60.3518 45.1818 58.8687 42.5728 59.1468C40.8093 59.3344 40.165 60.4988 41.0151 62.0113C41.8651 63.5261 43.2103 64.4915 44.8788 64.7243C46.2783 64.9188 47.723 64.7854 49.2694 64.7696C49.4164 64.7696 49.4457 65.1064 49.4005 65.2466C48.9031 66.7817 48.2565 67.9099 47.7953 69.6282L47.7999 69.6327Z" stroke="#0F7275" stroke-width="2" stroke-miterlimit="10" stroke-linecap="round"/>
</svg>
