<svg width="100" height="100" viewBox="0 0 100 100" fill="none" xmlns="http://www.w3.org/2000/svg">
<path d="M50.3703 38.4921C50.8395 37.0845 50.8113 36.5271 50.8113 34.9678C50.8113 27.1255 44.4577 20.7648 36.6188 20.7648C28.78 20.7648 22.4158 27.1255 22.4158 34.9678C22.4158 42.8102 28.7765 49.1603 36.6188 49.1603C38.7214 49.1603 39.7798 49.0933 41.5754 48.2678" stroke="#0F7275" stroke-width="2.41304" stroke-miterlimit="10" stroke-linecap="round"/>
<path d="M35.7686 9.55688V16.3233" stroke="#0F7275" stroke-width="2.41304" stroke-miterlimit="10" stroke-linecap="round"/>
<path d="M36.6191 60.5447V57.6448" stroke="#0F7275" stroke-width="2.41304" stroke-miterlimit="10" stroke-linecap="round"/>
<path d="M16.8913 35.3312H10.1284" stroke="#0F7275" stroke-width="2.41304" stroke-miterlimit="10" stroke-linecap="round"/>
<path d="M49.2769 21.6503L54.0606 16.863" stroke="#0F7275" stroke-width="2.41304" stroke-miterlimit="10" stroke-linecap="round"/>
<path d="M18.0872 53.6054L22.8709 48.8217" stroke="#0F7275" stroke-width="2.41304" stroke-miterlimit="10" stroke-linecap="round"/>
<path d="M54.7838 53.6054L54.3499 53.1715" stroke="#0F7275" stroke-width="2.41304" stroke-miterlimit="10" stroke-linecap="round"/>
<path d="M18.0872 16.863L22.8709 21.6503" stroke="#0F7275" stroke-width="2.41304" stroke-miterlimit="10" stroke-linecap="round"/>
<path d="M59.6558 43.6499C59.6558 43.6499 56.9005 42.595 56.6571 40.8946C56.4137 39.1942 57.1439 36.1109 57.1439 35.2183C57.1439 34.3258 56.576 32.1385 57.3874 29.8666C58.1988 27.5947 60.386 25.2452 60.386 25.2452L61.3985 24.2926C61.6243 24.081 61.9559 24.0281 62.2346 24.1586C63.1025 24.5678 64.8875 25.5027 65.0075 26.2964C65.1698 27.3513 64.8452 27.5947 65.0075 28.325C65.1698 29.0552 66.5491 29.1364 66.5491 30.7592C66.5491 32.382 66.7926 33.6767 67.2794 34.6504C67.7663 35.624 68.0908 37.8924 67.2794 39.5152C66.468 41.1381 64.6053 42.5139 63.3882 43.163C62.1711 43.8121 62.6579 43.8933 59.6593 43.6499H59.6558Z" stroke="#0F7275" stroke-width="2.41304" stroke-miterlimit="10" stroke-linecap="round"/>
<path d="M60.922 43.7769C60.922 43.7769 60.4422 68.6022 59.1899 76.9491C57.9375 85.2959 55.8525 86.3367 55.8525 86.3367" stroke="#0F7275" stroke-width="2.41304" stroke-miterlimit="10" stroke-linecap="round"/>
<path d="M60.9221 45.5866C60.9221 45.5866 58.1845 43.5511 56.9886 43.1912C55.7927 42.8314 54.953 42.5315 54.6532 42.2952C54.3533 42.0588 53.0974 41.9953 51.9015 41.9953C50.7055 41.9953 50.2857 41.3356 48.9698 41.3356C47.6539 41.3356 46.0382 41.3956 45.4385 41.3356C44.8387 41.2756 44.0626 41.4555 42.7467 41.8754C41.4308 42.2952 41.5508 42.3551 41.6108 43.1313C41.6707 43.9074 43.2865 45.7031 43.7663 46.3628C44.2461 47.0225 44.7223 47.3188 45.5619 47.6786C46.398 48.0385 46.458 48.4583 47.1177 49.5943C47.7774 50.7302 47.7774 51.8097 49.5731 52.5859C51.3688 53.3655 55.6762 53.1856 57.7118 53.0656C59.7474 52.9457 60.7034 52.2966 60.7034 52.2966C60.7034 52.2966 62.739 50.7302 64.4747 51.4499C66.2104 52.1696 67.5262 51.8097 69.7417 51.6898C71.9572 51.5698 73.1531 49.8941 74.7689 49.5343C76.3846 49.1744 78.0604 48.5535 78.1203 47.2482C78.1803 45.9429 78.78 44.9869 79.6761 44.3272C80.5722 43.6675 80.932 41.6108 80.8121 41.325C80.6921 41.0357 80.2123 40.5595 78.7765 40.4395C77.3407 40.3196 76.681 39.7198 75.605 39.7198C74.529 39.7198 73.2696 39.8998 70.6378 40.6759C68.006 41.4555 67.8967 41.2509 65.9105 42.0517C63.9243 42.8526 62.7531 45.1033 61.8394 45.3432L60.9257 45.5831L60.9221 45.5866Z" stroke="#0F7275" stroke-width="2.41304" stroke-miterlimit="10" stroke-linecap="round"/>
<path d="M60.5834 57.6166C60.5834 57.6166 62.1322 55.641 63.0882 55.1048C64.0442 54.5685 66.2597 53.4361 67.9954 52.5647C69.7311 51.6933 71.9466 52.0532 72.9026 51.9932C73.8587 51.9332 75.358 51.5734 76.0142 51.5134C76.6704 51.4535 78.1097 50.9737 78.8259 51.5134C79.5456 52.0532 78.4061 55.0448 77.6299 56.0608C76.8503 57.0768 77.7499 55.521 75.4744 58.8725C73.199 62.2239 75.2345 63.12 71.107 63.9596C66.9794 64.7957 67.3957 64.958 64.704 65.0568C62.0122 65.1556 60.2342 63.8326 60.2342 63.8326C58.0998 64.8416 57.5813 64.2595 55.8491 64.2595C54.1169 64.2595 52.1942 64.2595 49.9541 63.8397C47.7139 63.4199 45.0716 61.5043 45.0716 61.5043C43.6357 60.3083 42.3198 60.0684 41.1204 58.4527C39.9244 56.8369 39.3247 55.8209 39.3247 54.5015C39.3247 53.1821 40.5806 52.7658 42.6162 52.5859C44.6517 52.406 46.5074 53.1856 47.4634 53.1715C48.4195 53.1574 50.575 53.302 51.651 53.1715C52.727 53.041 54.2827 53.7219 56.1983 54.0817C58.114 54.4415 60.5729 55.6339 60.5729 55.6339" stroke="#0F7275" stroke-width="2.41304" stroke-miterlimit="10" stroke-linecap="round"/>
<path d="M59.571 73.6964C59.571 73.6964 58.361 74.6102 57.285 74.6102C56.209 74.6102 54.0535 76.4058 52.1379 76.4058C50.2223 76.4058 48.1267 75.03 46.9908 73.894C45.8548 72.758 44.0591 73.2943 42.0236 72.1583C39.988 71.0224 37.896 69.6465 37.4762 69.0468C37.0564 68.447 37.3563 68.0907 37.4762 67.7309C37.5962 67.371 38.4922 66.7748 39.9316 66.475C41.3674 66.1751 43.5229 64.8592 45.0187 64.7992C46.5145 64.7393 49.3862 64.7992 50.5257 64.7992C51.6652 64.7992 53.5173 65.7553 55.253 66.475C56.9887 67.1946 59.9203 69.3572 59.9203 69.3572C59.9203 69.3572 61.6489 68.9903 62.1922 68.8104C62.7355 68.6305 63.755 67.4945 64.891 67.0747C66.027 66.6549 67.7627 65.0815 69.3784 65.0603C70.9942 65.0391 71.354 64.383 73.3896 63.9032C75.4251 63.4234 78.639 62.4674 80.8333 63.4834C83.0241 64.4994 82.068 64.7393 82.068 65.8788C82.068 67.0183 81.8881 68.2142 78.7166 70.0063C75.5451 71.802 73.9293 73.7176 71.1176 73.7176C68.306 73.7176 66.8701 74.3174 65.0145 74.3174C63.1588 74.3174 61.5325 73.8376 61.208 73.8376C60.8834 73.8376 59.5781 73.7035 59.5781 73.7035L59.571 73.6964Z" stroke="#0F7275" stroke-width="2.41304" stroke-miterlimit="10" stroke-linecap="round"/>
</svg>
