<svg width="22" height="23" viewBox="0 0 22 23" fill="none" xmlns="http://www.w3.org/2000/svg">
<path d="M20.2812 7.71875H1.71875C1.44525 7.71875 1.18294 7.6101 0.989546 7.4167C0.796149 7.22331 0.6875 6.961 0.6875 6.6875C0.6875 6.414 0.796149 6.15169 0.989546 5.9583C1.18294 5.7649 1.44525 5.65625 1.71875 5.65625H20.2812C20.5548 5.65625 20.8171 5.7649 21.0105 5.9583C21.2038 6.15169 21.3125 6.414 21.3125 6.6875C21.3125 6.961 21.2038 7.22331 21.0105 7.4167C20.8171 7.6101 20.5548 7.71875 20.2812 7.71875Z" fill="#F7FAFC"/>
<path d="M16.8438 12.5312H5.15625C4.88275 12.5312 4.62044 12.4226 4.42705 12.2292C4.23365 12.0358 4.125 11.7735 4.125 11.5C4.125 11.2265 4.23365 10.9642 4.42705 10.7708C4.62044 10.5774 4.88275 10.4688 5.15625 10.4688H16.8438C17.1173 10.4688 17.3796 10.5774 17.573 10.7708C17.7663 10.9642 17.875 11.2265 17.875 11.5C17.875 11.7735 17.7663 12.0358 17.573 12.2292C17.3796 12.4226 17.1173 12.5312 16.8438 12.5312Z" fill="#F7FAFC"/>
<path d="M12.7188 17.3438H9.28125C9.00775 17.3438 8.74544 17.2351 8.55205 17.0417C8.35865 16.8483 8.25 16.586 8.25 16.3125C8.25 16.039 8.35865 15.7767 8.55205 15.5833C8.74544 15.3899 9.00775 15.2812 9.28125 15.2812H12.7188C12.9923 15.2812 13.2546 15.3899 13.448 15.5833C13.6414 15.7767 13.75 16.039 13.75 16.3125C13.75 16.586 13.6414 16.8483 13.448 17.0417C13.2546 17.2351 12.9923 17.3438 12.7188 17.3438Z" fill="#F7FAFC"/>
</svg>
