<svg width="70" height="70" viewBox="0 0 70 70" fill="none" xmlns="http://www.w3.org/2000/svg">
<path d="M32.7853 49.7101C32.5564 49.9302 32.3362 50.1592 32.1073 50.3881C31.94 50.256 31.7726 50.1239 31.6053 49.9919C30.0027 48.6886 28.4088 47.3677 26.5948 46.3902C23.6008 44.7788 16.5737 43.9246 15.8957 48.8119C15.7372 49.9566 16.2655 51.1014 16.9612 52.0172C18.194 53.6287 20.0344 54.7646 22.0245 55.1609C24.0147 55.5572 26.1457 55.1961 27.9069 54.1746C29.5448 53.2236 30.7864 51.7706 32.1073 50.3969C32.3186 50.573 32.5388 50.7403 32.7501 50.9077C32.935 51.0574 33.1199 51.1983 33.3137 51.3391C35.9378 53.3117 38.9318 54.9319 42.1724 55.4603C43.7574 55.7157 45.4305 55.698 46.8747 55.0024C48.3189 54.3067 49.4548 52.8273 49.3932 51.2335C49.3492 50.4145 49.0145 49.6308 48.5478 48.9528C46.7338 46.3374 43.1322 45.4656 39.9797 45.9852C37.7078 46.355 35.5416 47.3413 33.7716 48.8119C33.4281 49.0936 33.0935 49.4018 32.7765 49.7189L32.7853 49.7101ZM29.3422 67.5155C13.8175 64.8385 2 51.2951 2 35.0043C2 16.7761 16.7762 2.00867 34.9956 2.00867C53.2149 2.00867 67.9912 16.7849 67.9912 35.0043C67.9912 53.2236 53.2149 67.9999 34.9956 67.9999C33.0671 67.9999 31.1738 67.8325 29.3422 67.5155ZM32.618 36.0169C32.4771 35.9025 32.3274 35.7792 32.1865 35.6647C31.755 35.3037 31.3147 34.9426 30.8833 34.5992C29.1309 33.1902 27.264 31.8782 25.1242 31.1737C21.9365 30.1258 15.7988 30.8039 16.5473 35.4798C16.8027 37.0736 17.9034 38.4386 19.2419 39.3544C22.2623 41.4325 26.6036 41.3533 29.5359 39.1606C30.7071 38.2888 31.6406 37.1441 32.6268 36.061C32.6356 36.061 32.6444 36.0522 32.6532 36.0345C33.798 36.9856 34.9516 37.9102 36.2196 38.7027C38.606 40.1909 41.3446 41.1596 44.1449 41.3093C45.7916 41.3973 47.588 41.1508 48.7416 39.9796C49.9127 38.7996 50.1241 36.8623 49.4636 35.3389C48.7944 33.8155 47.3678 32.7059 45.7916 32.16C44.2153 31.614 42.507 31.5964 40.8515 31.8077C38.4739 32.1159 36.1139 32.9349 34.2559 34.4495C33.6747 34.925 33.1464 35.4622 32.6356 36.0169C32.6356 36.0169 32.618 36.0081 32.6092 35.9905L32.618 36.0169ZM32.3626 29.8176L32.2922 29.6767C32.6444 29.0691 36.9065 26.3393 38.967 18.8367C39.9269 15.3408 38.967 12.9367 38.245 11.4574C37.3556 9.62574 34.9339 9.21186 33.5074 10.656C32.2041 11.9681 30.7424 14.1255 30.3461 17.4013C29.5976 23.5478 31.0153 27.1847 32.301 29.6679C32.2482 29.7472 32.2658 29.7912 32.3714 29.8088L32.3626 29.8176ZM54.2981 21.5665C54.2981 18.8191 52.0702 16.5912 49.3227 16.5912C46.5753 16.5912 44.3474 18.8191 44.3474 21.5665C44.3474 24.3139 46.5753 26.5418 49.3227 26.5418C52.0702 26.5418 54.2981 24.3139 54.2981 21.5665Z" fill="#417679"/>
<path d="M49.3227 26.5419C52.0705 26.5419 54.298 24.3144 54.298 21.5666C54.298 18.8188 52.0705 16.5913 49.3227 16.5913C46.5749 16.5913 44.3474 18.8188 44.3474 21.5666C44.3474 24.3144 46.5749 26.5419 49.3227 26.5419Z" fill="#417679"/>
<path d="M49.4549 35.3478C50.1154 36.8712 49.904 38.8085 48.7329 39.9885C47.5793 41.1597 45.7829 41.4062 44.1362 41.3182C41.3271 41.1597 38.5885 40.1998 36.2109 38.7116C34.9517 37.9191 33.7981 36.9945 32.6445 36.0435C33.1553 35.4887 33.6748 34.9515 34.2648 34.476C36.1228 32.9526 38.4828 32.1425 40.8604 31.8343C42.5071 31.6229 44.2242 31.6405 45.8005 32.1865C47.3767 32.7325 48.8033 33.8332 49.4725 35.3654L49.4549 35.3478Z" fill="#417679"/>
<path d="M49.4021 51.2248C49.4638 52.8187 48.3278 54.2981 46.8836 54.9937C45.4483 55.6894 43.7664 55.707 42.1813 55.4516C38.9319 54.9233 35.9468 53.3118 33.3226 51.3305C33.1377 51.1896 32.944 51.0487 32.759 50.899C32.7678 50.5116 32.7854 50.1153 32.7854 49.719C33.1025 49.402 33.4371 49.0938 33.7805 48.812C35.5505 47.3414 37.7167 46.3552 39.9887 45.9853C43.1323 45.4658 46.7339 46.3376 48.5568 48.9529C49.0235 49.631 49.3581 50.4059 49.4021 51.2336V51.2248Z" fill="#417679"/>
<path d="M38.245 11.4663C38.9671 12.9369 39.9269 15.3497 38.9671 18.8457C36.9065 26.3483 32.6445 29.0781 32.2923 29.6857C31.0066 27.2024 29.5889 23.5656 30.3374 17.4191C30.7336 14.1433 32.1954 11.9859 33.4987 10.6738C34.934 9.22964 37.3468 9.64352 38.2362 11.4751L38.245 11.4663Z" fill="#417679"/>
<path d="M32.6181 36.017V36.0611C31.6318 37.1442 30.6984 38.2802 29.5272 39.1607C26.5949 41.3534 22.2447 41.4327 19.2331 39.3545C17.9035 38.4387 16.7939 37.0737 16.5385 35.4799C15.7989 30.804 21.9277 30.1259 25.1155 31.1738C27.2553 31.8695 29.1221 33.1904 30.8745 34.5993C31.306 34.9515 31.7463 35.3038 32.1778 35.6648C32.3187 35.7881 32.4684 35.9026 32.6093 36.017H32.6181Z" fill="#417679"/>
<path d="M31.6142 49.9832C31.7815 50.1241 31.9488 50.2473 32.1161 50.3794C30.7952 51.7531 29.5536 53.2061 27.9157 54.1571C26.1633 55.1786 24.0235 55.5397 22.0334 55.1434C20.0432 54.7471 18.2028 53.6112 16.97 51.9997C16.2655 51.0839 15.746 49.9391 15.9045 48.7944C16.5825 43.9071 23.6096 44.7613 26.6036 46.3728C28.4176 47.3414 30.0115 48.6711 31.6142 49.9744V49.9832Z" fill="#417679"/>
<path d="M49.3227 26.5419C52.0705 26.5419 54.298 24.3144 54.298 21.5666C54.298 18.8188 52.0705 16.5913 49.3227 16.5913C46.5749 16.5913 44.3474 18.8188 44.3474 21.5666C44.3474 24.3144 46.5749 26.5419 49.3227 26.5419Z" stroke="#C3CB59" stroke-width="3.53" stroke-miterlimit="10"/>
<path d="M67.9999 34.9956C67.9999 53.2237 53.2236 67.9912 35.0043 67.9912C33.0758 67.9912 31.1825 67.8239 29.3509 67.5069C13.8261 64.8299 2.00867 51.2864 2.00867 34.9956C2.00867 16.7674 16.7849 2 35.0043 2C53.2236 2 67.9999 16.7762 67.9999 34.9956Z" stroke="#427679" stroke-width="3.53" stroke-miterlimit="10"/>
<path d="M32.2922 29.6768C32.2394 29.7561 32.257 29.8001 32.3627 29.8177C32.4596 31.9399 32.5476 34.0093 32.6181 36.017V36.0611C32.7942 41.1068 32.8734 45.7299 32.7854 49.7102C32.7854 50.1064 32.7678 50.5027 32.759 50.8902C32.6357 55.0113 32.3275 58.3663 31.7463 60.6735C31.2531 62.6284 30.0203 65.3758 29.3511 67.5156C29.1838 68.0528 29.0429 68.5459 28.9636 68.9862" stroke="white" stroke-width="3.53" stroke-miterlimit="10"/>
<path d="M32.2923 29.6768C31.0066 27.1936 29.5889 23.5568 30.3374 17.4103C30.7336 14.1345 32.1954 11.977 33.4987 10.665C34.934 9.22079 37.3468 9.63467 38.2362 11.4663C38.9583 12.9369 39.9181 15.3497 38.9583 18.8456C36.8977 26.3482 32.2923 29.5711 31.94 30.1787L32.2923 29.6768Z" stroke="white" stroke-width="3.53" stroke-miterlimit="10"/>
<path d="M32.3627 29.8177L32.2922 29.6768" stroke="white" stroke-width="3.53" stroke-miterlimit="10"/>
<path d="M32.6357 36.0347C32.6357 36.0347 32.618 36.0259 32.6092 36.0083C32.4683 35.8938 32.3186 35.7705 32.1777 35.6561C31.7463 35.295 31.306 34.934 30.8745 34.5906C29.1221 33.1816 27.2553 31.8696 25.1154 31.1651C21.9277 30.1172 15.79 30.7952 16.5385 35.4712C16.7939 37.065 17.8946 38.4299 19.2331 39.3457C22.2535 41.4239 26.5948 41.3447 29.5272 39.152C30.6984 38.2802 31.6318 37.1355 32.618 36.0523C32.6268 36.0523 32.6357 36.0435 32.6445 36.0259" stroke="white" stroke-width="3.53" stroke-miterlimit="10"/>
<path d="M32.6357 36.0347C33.1465 35.4799 33.666 34.9427 34.256 34.4672C36.1141 32.9438 38.474 32.1337 40.8516 31.8255C42.4983 31.6141 44.2155 31.6317 45.7917 32.1777C47.368 32.7237 48.7945 33.8244 49.4638 35.3566C50.1242 36.88 49.9129 38.8173 48.7417 39.9973C47.5881 41.1685 45.7917 41.4151 44.145 41.327C41.3359 41.1685 38.5973 40.2087 36.2197 38.7205C34.9605 37.9279 33.8069 37.0033 32.6534 36.0523L32.6357 36.0347Z" stroke="white" stroke-width="3.53" stroke-miterlimit="10"/>
<path d="M32.1161 50.3882C32.3362 50.1593 32.5652 49.9391 32.7941 49.7102C33.1112 49.3932 33.4458 49.085 33.7892 48.8032C35.5592 47.3326 37.7254 46.3463 39.9973 45.9765C43.141 45.4569 46.7426 46.3287 48.5655 48.9441C49.0322 49.6221 49.3668 50.397 49.4108 51.2248C49.4725 52.8186 48.3365 54.298 46.8923 54.9937C45.457 55.6894 43.7751 55.707 42.19 55.4516C38.9406 54.9233 35.9555 53.3118 33.3313 51.3305C33.1464 51.1896 32.9527 51.0487 32.7677 50.899C32.5476 50.7317 32.3362 50.5643 32.1249 50.3882" stroke="white" stroke-width="3.53" stroke-miterlimit="10"/>
<path d="M31.6142 49.9832C30.0115 48.6799 28.4177 47.3591 26.6036 46.3816C23.6096 44.7701 16.5826 43.916 15.9045 48.8032C15.746 49.948 16.2744 51.0928 16.97 52.0086C18.2028 53.62 20.0433 54.756 22.0334 55.1523C24.0235 55.5485 26.1545 55.1875 27.9157 54.166C29.5536 53.215 30.7952 51.762 32.1161 50.3883C31.9488 50.2562 31.7815 50.1241 31.6142 49.992V49.9832Z" stroke="white" stroke-width="3.53" stroke-miterlimit="10"/>
</svg>
