<svg width="23" height="30" viewBox="0 0 23 30" fill="none" xmlns="http://www.w3.org/2000/svg">
<path fill-rule="evenodd" clip-rule="evenodd" d="M11.4316 14.1666C9.91272 14.1666 8.68164 12.9355 8.68164 11.4166C8.68164 9.89771 9.91272 8.66663 11.4316 8.66663C12.9506 8.66663 14.1816 9.89771 14.1816 11.4166C14.1816 12.9355 12.9506 14.1666 11.4316 14.1666ZM11.4316 6.83329C8.90072 6.83329 6.84831 8.88479 6.84831 11.4166C6.84831 13.9485 8.90072 16 11.4316 16C13.9626 16 16.015 13.9485 16.015 11.4166C16.015 8.88479 13.9626 6.83329 11.4316 6.83329ZM11.4316 27C9.90722 27.0082 2.26497 15.2492 2.26497 11.4166C2.26497 6.35479 6.36889 2.24996 11.4316 2.24996C16.4944 2.24996 20.5983 6.35479 20.5983 11.4166C20.5983 15.1979 12.9322 27.0082 11.4316 27ZM11.4316 0.416626C5.35689 0.416626 0.431641 5.34188 0.431641 11.4166C0.431641 16.0165 9.60289 29.76 11.4316 29.75C13.232 29.76 22.4316 15.9541 22.4316 11.4166C22.4316 5.34188 17.5064 0.416626 11.4316 0.416626Z" fill="#417579"/>
</svg>
