<svg width="21" height="18" viewBox="0 0 21 18" fill="none" xmlns="http://www.w3.org/2000/svg">
<path d="M9.08176 1.20563L10.07 0.290588C10.4884 -0.0968628 11.165 -0.0968628 11.579 0.290588L20.2324 8.29929C20.6508 8.68674 20.6508 9.31326 20.2324 9.69659L11.579 17.7094C11.1605 18.0969 10.4839 18.0969 10.07 17.7094L9.08176 16.7944C8.65888 16.4028 8.66778 15.7639 9.09957 15.3806L14.4634 10.6487L1.67025 10.6487C1.07822 10.6487 0.601929 10.2077 0.601929 9.65949L0.601929 8.34051C0.601929 7.79231 1.07822 7.35127 1.67025 7.35127L14.4634 7.35127L9.09957 2.61942C8.66333 2.23609 8.65443 1.59721 9.08176 1.20563Z" fill="#0F7275"/>
</svg>
