<svg width="23" height="25" viewBox="0 0 23 25" fill="none" xmlns="http://www.w3.org/2000/svg">
<path d="M22.7408 15.7696L20.3462 13.436V10.3447C20.3434 8.20836 19.5279 6.14891 18.0573 4.56457C16.5868 2.98023 14.5656 1.98353 12.3846 1.76721V0H10.6154V1.76721C8.43443 1.98353 6.41325 2.98023 4.94267 4.56457C3.4721 6.14891 2.65659 8.20836 2.65385 10.3447V13.436L0.259192 15.7696C0.0932832 15.9312 5.01023e-05 16.1505 0 16.3791V18.9652C0 19.1939 0.0932002 19.4131 0.259098 19.5748C0.424995 19.7365 0.650001 19.8273 0.884615 19.8273H7.07692V20.4971C7.05768 21.5907 7.45324 22.6528 8.18781 23.4799C8.92237 24.3069 9.94428 24.8407 11.0577 24.9789C11.6727 25.0384 12.2936 24.9717 12.8805 24.7832C13.4675 24.5948 14.0074 24.2887 14.4657 23.8847C14.924 23.4806 15.2904 22.9876 15.5414 22.4373C15.7924 21.887 15.9224 21.2916 15.9231 20.6893V19.8273H22.1154C22.35 19.8273 22.575 19.7365 22.7409 19.5748C22.9068 19.4131 23 19.1939 23 18.9652V16.3791C22.9999 16.1505 22.9067 15.9312 22.7408 15.7696ZM14.1538 20.6893C14.1538 21.3752 13.8742 22.033 13.3766 22.518C12.8789 23.003 12.2038 23.2755 11.5 23.2755C10.7962 23.2755 10.1211 23.003 9.62345 22.518C9.12575 22.033 8.84615 21.3752 8.84615 20.6893V19.8273H14.1538V20.6893ZM21.2308 18.1032H1.76923V16.736L4.16388 14.4024C4.32979 14.2407 4.42303 14.0215 4.42308 13.7929V10.3447C4.42308 8.51562 5.16868 6.76148 6.49586 5.46815C7.82304 4.17481 9.62308 3.44822 11.5 3.44822C13.3769 3.44822 15.177 4.17481 16.5041 5.46815C17.8313 6.76148 18.5769 8.51562 18.5769 10.3447V13.7929C18.577 14.0215 18.6702 14.2407 18.8361 14.4024L21.2308 16.736V18.1032Z" fill="#A0C2B5"/>
</svg>
