<svg width="18" height="5" viewBox="0 0 18 5" fill="none" xmlns="http://www.w3.org/2000/svg">
<path d="M15.4167 2.14287H15.4274M8.96008 2.14287H8.97084M2.50347 2.14287H2.51423M10.0362 2.14287C10.0362 2.7372 9.55441 3.21897 8.96008 3.21897C8.36575 3.21897 7.88397 2.7372 7.88397 2.14287C7.88397 1.54854 8.36575 1.06677 8.96008 1.06677C9.55441 1.06677 10.0362 1.54854 10.0362 2.14287ZM16.4928 2.14287C16.4928 2.7372 16.011 3.21897 15.4167 3.21897C14.8224 3.21897 14.3406 2.7372 14.3406 2.14287C14.3406 1.54854 14.8224 1.06677 15.4167 1.06677C16.011 1.06677 16.4928 1.54854 16.4928 2.14287ZM3.57957 2.14287C3.57957 2.7372 3.09778 3.21897 2.50347 3.21897C1.90916 3.21897 1.42737 2.7372 1.42737 2.14287C1.42737 1.54854 1.90916 1.06677 2.50347 1.06677C3.09778 1.06677 3.57957 1.54854 3.57957 2.14287Z" stroke="#79B2B7" stroke-width="2.1522" stroke-linecap="round" stroke-linejoin="round"/>
</svg>
