<svg width="35" height="35" viewBox="0 0 35 35" fill="none" xmlns="http://www.w3.org/2000/svg">
<path d="M32.0751 17.7419C31.2407 17.7419 30.4706 18.1949 30.0653 18.925L29.9394 19.1513V17.7419H31.6027V0H2.77217V17.7419H4.43547V19.1513L4.30961 18.925C3.90432 18.1949 3.13421 17.7419 2.29979 17.7419C1.0318 17.7419 0 18.7731 0 20.0777C0 20.4542 0.0931449 20.8284 0.270564 21.16L4.43547 28.9692V34.3749H5.54434V33.266H13.3064V32.1572H5.54434V28.6919L1.24858 20.6382C1.1571 20.4664 1.10887 20.2723 1.10887 20.0411C1.10887 19.3847 1.64279 18.8507 2.29979 18.8507C2.73169 18.8507 3.13089 19.0858 3.34046 19.4628L5.77276 23.8407H6.09877C8.23889 23.8407 9.97981 25.5821 9.97981 27.7217V29.385H11.0887V27.7217C11.0887 25.082 9.0284 22.9142 6.43088 22.7429L5.50109 21.0685H5.54434V17.7419H7.20764V21.0685H8.31651V17.7419H9.97981V21.0685H11.0887V17.7419H12.752V21.0685H13.8608V17.7419H15.5241V32.1572H14.4153V33.266H15.5241V34.3749H16.633V17.7419H17.7419V34.3749H18.8507V33.266H26.6128V32.1572H18.8507V17.7419H20.514V21.0685H21.6229V17.7419H23.2862V21.0685H24.3951V17.7419H26.0584V21.0685H27.1673V17.7419H28.8306V21.0685H28.8738L27.9435 22.7429C25.3465 22.9142 23.2862 25.082 23.2862 27.7217V29.385H24.3951V27.7217C24.3951 25.5821 26.136 23.8407 28.2761 23.8407H28.6021L31.0339 19.4628C31.2446 19.0858 31.6432 18.8507 32.0751 18.8507C32.7321 18.8507 33.266 19.3847 33.266 20.0777C33.266 20.2729 33.2178 20.4664 33.1263 20.6382L28.8306 28.6919V32.1572H27.7217V33.266H28.8306V34.3749H29.9394V28.9692L34.1043 21.16C34.2817 20.8279 34.3749 20.4542 34.3749 20.0411C34.3749 18.7731 33.3431 17.7419 32.0751 17.7419ZM7.76207 1.10887H9.97981V7.76207H7.76207V1.10887ZM13.8608 16.633H3.88104V1.10887H6.6532V8.87094H11.0887V1.10887H13.8608V16.633ZM14.9697 16.633V1.10887H30.4939V16.633H14.9697Z" fill="#0F7275"/>
<path d="M17.1874 14.4153H16.0785V15.5242H17.1874V14.4153Z" fill="#0F7275"/>
<path d="M19.4053 14.4153H18.2964V15.5242H19.4053V14.4153Z" fill="#0F7275"/>
<path d="M21.6231 14.4153H20.5143V15.5242H21.6231V14.4153Z" fill="#0F7275"/>
<path d="M17.1874 12.1975H16.0785V13.3064H17.1874V12.1975Z" fill="#0F7275"/>
<path d="M17.1874 10.5342H16.0785V11.6431H17.1874V10.5342Z" fill="#0F7275"/>
<path d="M19.4053 12.1975H18.2964V13.3064H19.4053V12.1975Z" fill="#0F7275"/>
</svg>
