<svg width="23" height="24" viewBox="0 0 23 24" fill="none" xmlns="http://www.w3.org/2000/svg">
<path fill-rule="evenodd" clip-rule="evenodd" d="M5.03119 17.7598C4.84056 17.7598 4.65776 17.8355 4.52297 17.9703C4.38817 18.1051 4.31244 18.288 4.31244 18.4786C4.31244 18.6692 4.38817 18.852 4.52297 18.9868C4.65776 19.1216 4.84056 19.1973 5.03119 19.1973H9.34369C9.53431 19.1973 9.71712 19.1216 9.85191 18.9868C9.9867 18.852 10.0624 18.6692 10.0624 18.4786C10.0624 18.288 9.9867 18.1051 9.85191 17.9703C9.71712 17.8355 9.53431 17.7598 9.34369 17.7598H5.03119Z" fill="#0F7275"/>
<path fill-rule="evenodd" clip-rule="evenodd" d="M4.31247 1.94733C4.17883 1.94745 4.04786 1.98482 3.93429 2.05524C3.82072 2.12567 3.72904 2.22636 3.66952 2.34601L1.51327 6.68378C1.46753 6.7784 1.44309 6.88191 1.44168 6.987C1.44017 6.99259 1.43875 6.9982 1.43738 7.00382V21.3535C1.4374 21.5442 1.51312 21.727 1.64791 21.8618C1.78269 21.9965 1.96551 22.0723 2.15613 22.0723H20.8436C21.0342 22.0723 21.217 21.9965 21.3518 21.8618C21.4866 21.727 21.5624 21.5442 21.5624 21.3535V7.00382V7.00238C21.562 6.89174 21.536 6.78268 21.4866 6.68371L19.3303 2.34594C19.2708 2.22632 19.1791 2.12566 19.0656 2.05524C18.952 1.98483 18.8211 1.94746 18.6875 1.94733H4.31247ZM4.75607 3.38483H9.21878L8.7485 6.2851H3.31576L4.75607 3.38483ZM10.6731 3.38483H13.7657L14.25 6.2851H10.2043L10.6731 3.38483ZM15.2229 3.38483H18.2425L19.6842 6.2851H15.7072L15.2229 3.38483ZM2.87497 7.7226H8.62497V14.8848C8.62502 15.027 8.66721 15.1659 8.7462 15.284C8.82518 15.4022 8.93742 15.4943 9.06872 15.5487C9.20003 15.603 9.3445 15.6173 9.4839 15.5896C9.6233 15.5619 9.75136 15.4935 9.85189 15.393L12.2187 13.0262L14.5855 15.393C14.6861 15.4935 14.8141 15.5619 14.9535 15.5896C15.0929 15.6173 15.2374 15.603 15.3687 15.5487C15.5 15.4943 15.6122 15.4022 15.6912 15.284C15.7702 15.1659 15.8124 15.027 15.8125 14.8848V7.7226H20.125V20.6348H2.87497V7.7226ZM10.0625 7.7226H14.375V13.1497L12.7269 11.5016C12.5921 11.3669 12.4093 11.2912 12.2187 11.2912C12.0281 11.2912 11.8453 11.3669 11.7105 11.5016L10.0625 13.1497V7.7226Z" fill="#0F7275"/>
</svg>
