<svg width="58" height="58" viewBox="0 0 58 58" fill="none" xmlns="http://www.w3.org/2000/svg">
<g clip-path="url(#clip0_252_1969)">
<path d="M53.5363 29.6128C52.1436 29.6128 50.8582 30.3689 50.1817 31.5877L49.9717 31.9652V29.6128H52.7479V0H4.62701V29.6128H7.40321V31.9652L7.19315 31.5877C6.51668 30.3689 5.23129 29.6128 3.83857 29.6128C1.72217 29.6128 0 31.3341 0 33.5116C0 34.1399 0.155467 34.7646 0.451596 35.318L7.40321 48.3522V57.3749H9.25401V55.5241H22.2096V53.6733H9.25401V47.8895L2.084 34.4471C1.93131 34.1603 1.8508 33.8364 1.8508 33.4505C1.8508 32.3548 2.74196 31.4637 3.83857 31.4637C4.55945 31.4637 5.22574 31.856 5.57554 32.4853L9.63528 39.7923H10.1794C13.7515 39.7923 16.6572 42.699 16.6572 46.2701V49.0463H18.508V46.2701C18.508 41.8642 15.0692 38.2459 10.7337 37.96L9.18183 35.1653H9.25401V29.6128H12.0302V35.1653H13.881V29.6128H16.6572V35.1653H18.508V29.6128H21.2842V35.1653H23.135V29.6128H25.9112V53.6733H24.0604V55.5241H25.9112V57.3749H27.762V29.6128H29.6128V57.3749H31.4637V55.5241H44.4193V53.6733H31.4637V29.6128H34.2399V35.1653H36.0907V29.6128H38.8669V35.1653H40.7177V29.6128H43.4939V35.1653H45.3447V29.6128H48.1209V35.1653H48.1931L46.6402 37.96C42.3057 38.2459 38.8669 41.8642 38.8669 46.2701V49.0463H40.7177V46.2701C40.7177 42.699 43.6234 39.7923 47.1955 39.7923H47.7396L51.7984 32.4853C52.1501 31.856 52.8154 31.4637 53.5363 31.4637C54.6329 31.4637 55.5241 32.3548 55.5241 33.5116C55.5241 33.8373 55.4436 34.1603 55.2909 34.4471L48.1209 47.8895V53.6733H46.2701V55.5241H48.1209V57.3749H49.9717V48.3522L56.9233 35.318C57.2194 34.7636 57.3749 34.1399 57.3749 33.4505C57.3749 31.3341 55.6527 29.6128 53.5363 29.6128ZM12.9556 1.8508H16.6572V12.9556H12.9556V1.8508ZM23.135 27.762H6.47781V1.8508H11.1048V14.8064H18.508V1.8508H23.135V27.762ZM24.9858 27.762V1.8508H50.8971V27.762H24.9858Z" fill="#417579"/>
<path d="M28.6877 24.0604H26.8369V25.9112H28.6877V24.0604Z" fill="#417579"/>
<path d="M32.3889 24.0604H30.5381V25.9112H32.3889V24.0604Z" fill="#417579"/>
<path d="M36.091 24.0604H34.2402V25.9112H36.091V24.0604Z" fill="#417579"/>
<path d="M28.6877 20.3588H26.8369V22.2096H28.6877V20.3588Z" fill="#417579"/>
<path d="M28.6877 17.5826H26.8369V19.4334H28.6877V17.5826Z" fill="#417579"/>
<path d="M32.3889 20.3588H30.5381V22.2096H32.3889V20.3588Z" fill="#417579"/>
</g>
<defs>
<clipPath id="clip0_252_1969">
<rect width="57.3749" height="57.3749" fill="white"/>
</clipPath>
</defs>
</svg>
