<svg width="17" height="18" viewBox="0 0 17 18" fill="none" xmlns="http://www.w3.org/2000/svg">
<path fill-rule="evenodd" clip-rule="evenodd" d="M3.71872 13.2573C3.57782 13.2573 3.44271 13.3133 3.34308 13.4129C3.24345 13.5125 3.18747 13.6477 3.18747 13.7886C3.18747 13.9295 3.24345 14.0646 3.34308 14.1642C3.44271 14.2638 3.57782 14.3198 3.71872 14.3198H6.90622C7.04712 14.3198 7.18223 14.2638 7.28186 14.1642C7.38149 14.0646 7.43747 13.9295 7.43747 13.7886C7.43747 13.6477 7.38149 13.5125 7.28186 13.4129C7.18223 13.3133 7.04712 13.2573 6.90622 13.2573H3.71872Z" fill="#0F7275"/>
<path fill-rule="evenodd" clip-rule="evenodd" d="M3.18749 1.56982C3.08871 1.56991 2.99191 1.59754 2.90797 1.64959C2.82402 1.70164 2.75626 1.77606 2.71227 1.8645L1.11852 5.07068C1.08471 5.14062 1.06664 5.21712 1.0656 5.2948C1.06449 5.29893 1.06344 5.30308 1.06242 5.30723V15.9135C1.06244 16.0544 1.11841 16.1896 1.21803 16.2892C1.31766 16.3888 1.45278 16.4448 1.59367 16.4448H15.4062C15.5471 16.4448 15.6822 16.3888 15.7818 16.2892C15.8814 16.1896 15.9374 16.0544 15.9374 15.9135V5.30723V5.30616C15.9371 5.22439 15.9179 5.14378 15.8814 5.07063L14.2876 1.86445C14.2437 1.77604 14.1759 1.70163 14.092 1.64959C14.008 1.59755 13.9112 1.56992 13.8125 1.56982H3.18749ZM3.51537 2.63232H6.81389L6.4663 4.776H2.45079L3.51537 2.63232ZM7.88884 2.63232H10.1747L10.5326 4.776H7.54229L7.88884 2.63232ZM11.2517 2.63232H13.4836L14.5492 4.776H11.6097L11.2517 2.63232ZM2.12499 5.8385H6.37499V11.1323C6.37503 11.2374 6.40622 11.34 6.46459 11.4274C6.52297 11.5147 6.60593 11.5828 6.70298 11.623C6.80004 11.6632 6.90682 11.6737 7.00985 11.6532C7.11289 11.6328 7.20754 11.5822 7.28185 11.5079L9.03124 9.75854L10.7806 11.5079C10.8549 11.5822 10.9496 11.6328 11.0526 11.6532C11.1557 11.6737 11.2624 11.6632 11.3595 11.623C11.4565 11.5828 11.5395 11.5147 11.5979 11.4274C11.6563 11.34 11.6874 11.2374 11.6875 11.1323V5.8385H14.875V15.3823H2.12499V5.8385ZM7.43749 5.8385H10.625V9.84985L9.40685 8.63171C9.30722 8.53212 9.17211 8.47617 9.03124 8.47617C8.89037 8.47617 8.75526 8.53212 8.65563 8.63171L7.43749 9.84985V5.8385Z" fill="#0F7275"/>
</svg>
