<svg width="100" height="100" viewBox="0 0 100 100" fill="none" xmlns="http://www.w3.org/2000/svg">
<g clip-path="url(#clip0_1360_2135)">
<path d="M79.7817 82.0726C80.6252 82.0726 81.3089 81.3888 81.3089 80.5453C81.3089 79.7018 80.6252 79.0181 79.7817 79.0181C78.9382 79.0181 78.2544 79.7018 78.2544 80.5453C78.2544 81.3888 78.9382 82.0726 79.7817 82.0726Z" fill="#0F7275"/>
<path d="M76.7275 77.4911C77.571 77.4911 78.2547 76.8073 78.2547 75.9638C78.2547 75.1203 77.571 74.4365 76.7275 74.4365C75.884 74.4365 75.2002 75.1203 75.2002 75.9638C75.2002 76.8073 75.884 77.4911 76.7275 77.4911Z" fill="#0F7275"/>
<path d="M73.6728 72.9091C74.5163 72.9091 75.2001 72.2253 75.2001 71.3818C75.2001 70.5383 74.5163 69.8546 73.6728 69.8546C72.8293 69.8546 72.1455 70.5383 72.1455 71.3818C72.1455 72.2253 72.8293 72.9091 73.6728 72.9091Z" fill="#0F7275"/>
<path d="M79.7817 72.9091C80.6252 72.9091 81.3089 72.2253 81.3089 71.3818C81.3089 70.5383 80.6252 69.8546 79.7817 69.8546C78.9382 69.8546 78.2544 70.5383 78.2544 71.3818C78.2544 72.2253 78.9382 72.9091 79.7817 72.9091Z" fill="#0F7275"/>
<path d="M70.6181 68.3269C71.4616 68.3269 72.1454 67.6432 72.1454 66.7997C72.1454 65.9562 71.4616 65.2724 70.6181 65.2724C69.7746 65.2724 69.0908 65.9562 69.0908 66.7997C69.0908 67.6432 69.7746 68.3269 70.6181 68.3269Z" fill="#0F7275"/>
<path d="M76.7275 68.3269C77.571 68.3269 78.2547 67.6432 78.2547 66.7997C78.2547 65.9562 77.571 65.2724 76.7275 65.2724C75.884 65.2724 75.2002 65.9562 75.2002 66.7997C75.2002 67.6432 75.884 68.3269 76.7275 68.3269Z" fill="#0F7275"/>
<path d="M67.5634 63.7459C68.4069 63.7459 69.0907 63.0621 69.0907 62.2186C69.0907 61.3751 68.4069 60.6913 67.5634 60.6913C66.7199 60.6913 66.0361 61.3751 66.0361 62.2186C66.0361 63.0621 66.7199 63.7459 67.5634 63.7459Z" fill="#0F7275"/>
<path d="M73.6728 63.7459C74.5163 63.7459 75.2001 63.0621 75.2001 62.2186C75.2001 61.3751 74.5163 60.6913 73.6728 60.6913C72.8293 60.6913 72.1455 61.3751 72.1455 62.2186C72.1455 63.0621 72.8293 63.7459 73.6728 63.7459Z" fill="#0F7275"/>
<path d="M82.8364 86.6548C83.6798 86.6548 84.3636 85.971 84.3636 85.1275C84.3636 84.284 83.6798 83.6002 82.8364 83.6002C81.9929 83.6002 81.3091 84.284 81.3091 85.1275C81.3091 85.971 81.9929 86.6548 82.8364 86.6548Z" fill="#0F7275"/>
<path d="M76.7275 86.6548C77.571 86.6548 78.2547 85.971 78.2547 85.1275C78.2547 84.284 77.571 83.6002 76.7275 83.6002C75.884 83.6002 75.2002 84.284 75.2002 85.1275C75.2002 85.971 75.884 86.6548 76.7275 86.6548Z" fill="#0F7275"/>
<path d="M73.6728 82.0726C74.5163 82.0726 75.2001 81.3888 75.2001 80.5453C75.2001 79.7018 74.5163 79.0181 73.6728 79.0181C72.8293 79.0181 72.1455 79.7018 72.1455 80.5453C72.1455 81.3888 72.8293 82.0726 73.6728 82.0726Z" fill="#0F7275"/>
<path d="M70.6181 77.4911C71.4616 77.4911 72.1454 76.8073 72.1454 75.9638C72.1454 75.1203 71.4616 74.4365 70.6181 74.4365C69.7746 74.4365 69.0908 75.1203 69.0908 75.9638C69.0908 76.8073 69.7746 77.4911 70.6181 77.4911Z" fill="#0F7275"/>
<path d="M67.5634 72.9091C68.4069 72.9091 69.0907 72.2253 69.0907 71.3818C69.0907 70.5383 68.4069 69.8546 67.5634 69.8546C66.7199 69.8546 66.0361 70.5383 66.0361 71.3818C66.0361 72.2253 66.7199 72.9091 67.5634 72.9091Z" fill="#0F7275"/>
<path d="M64.5087 68.3269C65.3522 68.3269 66.036 67.6432 66.036 66.7997C66.036 65.9562 65.3522 65.2724 64.5087 65.2724C63.6652 65.2724 62.9814 65.9562 62.9814 66.7997C62.9814 67.6432 63.6652 68.3269 64.5087 68.3269Z" fill="#0F7275"/>
<path d="M67.5634 82.0726C68.4069 82.0726 69.0907 81.3888 69.0907 80.5453C69.0907 79.7018 68.4069 79.0181 67.5634 79.0181C66.7199 79.0181 66.0361 79.7018 66.0361 80.5453C66.0361 81.3888 66.7199 82.0726 67.5634 82.0726Z" fill="#0F7275"/>
<path d="M64.5087 77.4911C65.3522 77.4911 66.036 76.8073 66.036 75.9638C66.036 75.1203 65.3522 74.4365 64.5087 74.4365C63.6652 74.4365 62.9814 75.1203 62.9814 75.9638C62.9814 76.8073 63.6652 77.4911 64.5087 77.4911Z" fill="#0F7275"/>
<path d="M61.4545 72.9091C62.298 72.9091 62.9818 72.2253 62.9818 71.3818C62.9818 70.5383 62.298 69.8546 61.4545 69.8546C60.611 69.8546 59.9272 70.5383 59.9272 71.3818C59.9272 72.2253 60.611 72.9091 61.4545 72.9091Z" fill="#0F7275"/>
<path d="M70.6181 86.6548C71.4616 86.6548 72.1454 85.971 72.1454 85.1275C72.1454 84.284 71.4616 83.6002 70.6181 83.6002C69.7746 83.6002 69.0908 84.284 69.0908 85.1275C69.0908 85.971 69.7746 86.6548 70.6181 86.6548Z" fill="#0F7275"/>
<path d="M64.5087 86.6548C65.3522 86.6548 66.036 85.971 66.036 85.1275C66.036 84.284 65.3522 83.6002 64.5087 83.6002C63.6652 83.6002 62.9814 84.284 62.9814 85.1275C62.9814 85.971 63.6652 86.6548 64.5087 86.6548Z" fill="#0F7275"/>
<path d="M61.4545 82.0726C62.298 82.0726 62.9818 81.3888 62.9818 80.5453C62.9818 79.7018 62.298 79.0181 61.4545 79.0181C60.611 79.0181 59.9272 79.7018 59.9272 80.5453C59.9272 81.3888 60.611 82.0726 61.4545 82.0726Z" fill="#0F7275"/>
<path d="M58.3998 77.4911C59.2433 77.4911 59.9271 76.8073 59.9271 75.9638C59.9271 75.1203 59.2433 74.4365 58.3998 74.4365C57.5563 74.4365 56.8726 75.1203 56.8726 75.9638C56.8726 76.8073 57.5563 77.4911 58.3998 77.4911Z" fill="#0F7275"/>
<path d="M55.3456 82.0726C56.1891 82.0726 56.8729 81.3888 56.8729 80.5453C56.8729 79.7018 56.1891 79.0181 55.3456 79.0181C54.5021 79.0181 53.8184 79.7018 53.8184 80.5453C53.8184 81.3888 54.5021 82.0726 55.3456 82.0726Z" fill="#0F7275"/>
<path d="M58.3998 86.6548C59.2433 86.6548 59.9271 85.971 59.9271 85.1275C59.9271 84.284 59.2433 83.6002 58.3998 83.6002C57.5563 83.6002 56.8726 84.284 56.8726 85.1275C56.8726 85.971 57.5563 86.6548 58.3998 86.6548Z" fill="#0F7275"/>
<path d="M52.2909 86.6548C53.1344 86.6548 53.8182 85.971 53.8182 85.1275C53.8182 84.284 53.1344 83.6002 52.2909 83.6002C51.4475 83.6002 50.7637 84.284 50.7637 85.1275C50.7637 85.971 51.4475 86.6548 52.2909 86.6548Z" fill="#0F7275"/>
<path d="M89.5167 77.7751C87.9665 75.8568 85.7962 72.3242 83.6993 68.9062C81.5015 65.3232 79.4229 61.9388 77.8239 59.964C75.3344 56.8927 72.2783 55.0172 69.0894 54.6522V10.291C69.0894 9.44642 68.4052 8.76373 67.5621 8.76373H20.2273C20.2197 8.76373 20.2121 8.76831 20.2044 8.76831C20.1968 8.76831 20.1892 8.76373 20.1815 8.76373H9.52727C8.68422 8.76373 8 9.44642 8 10.291V80.5456C8 81.1549 8.36349 81.7078 8.924 81.9491L19.5783 86.5309C19.7722 86.6134 19.9769 86.6546 20.1815 86.6546C20.1907 86.6546 20.1999 86.6516 20.209 86.6516C20.2167 86.6516 20.2212 86.6546 20.2289 86.6546H43.8451C43.9337 87.0517 44.0528 87.4397 44.2376 87.8032C45.0364 89.3686 47.0799 91.2365 52.2726 91.2365H80.0079C85.7718 91.2365 89.9321 89.4511 91.4181 86.3385C92.6201 83.82 91.945 80.7792 89.5167 77.7751ZM18.6543 82.8074L11.0545 79.5406V11.8183H18.6543V82.8074ZM21.7546 11.8183H66.0364V54.7346C65.6271 54.8049 65.2223 54.9011 64.8207 55.0202C64.7122 55.0523 64.6053 55.0981 64.4984 55.1333C64.1884 55.2356 63.8783 55.344 63.5744 55.4754C63.4217 55.541 63.2735 55.6189 63.1239 55.6907C62.8673 55.8144 62.6122 55.9412 62.3618 56.0848C62.2029 56.1749 62.0471 56.2741 61.8914 56.3719C61.6531 56.5216 61.4194 56.6789 61.1873 56.8469C61.033 56.9584 60.8788 57.0729 60.7276 57.1936C60.497 57.3753 60.2724 57.5677 60.0495 57.7663C59.9074 57.893 59.7639 58.0168 59.6249 58.1512C59.3866 58.3802 59.1575 58.6246 58.9284 58.8736C58.8139 58.9988 58.6963 59.1149 58.5848 59.2447C58.2503 59.6326 57.9235 60.0389 57.6119 60.4711C56.2404 62.371 54.565 65.2499 52.772 68.4129C52.4039 69.062 52.0328 69.7172 51.6556 70.3861C50.9652 71.6095 50.2688 72.8405 49.5876 74.0272C48.1795 76.4769 46.834 78.7251 45.7557 80.2126C45.7359 80.2401 45.7221 80.2661 45.7023 80.2936C45.4869 80.5944 45.2914 80.8922 45.1097 81.187C45.0562 81.2756 45.0089 81.3642 44.9585 81.4528C44.8195 81.6941 44.6897 81.9338 44.5736 82.1721C44.5293 82.2622 44.4896 82.3523 44.4484 82.4424C44.3415 82.6792 44.2468 82.9144 44.1628 83.1465C44.1322 83.2305 44.1002 83.316 44.0727 83.4C44.0513 83.4657 44.0223 83.5344 44.0024 83.6001H21.7546V11.8183ZM52.2726 88.1819C49.4685 88.1819 47.5319 87.5374 46.9592 86.4164V86.4133C47.3991 86.1445 47.7091 85.6818 47.7091 85.1274C47.7091 84.6463 47.4724 84.2339 47.1226 83.9544C47.1471 83.8964 47.1608 83.8414 47.1868 83.7818C47.2051 83.7391 47.228 83.6948 47.2479 83.6505C47.3456 83.4382 47.4602 83.2198 47.5884 82.9984C47.622 82.9403 47.6526 82.8823 47.6892 82.8242C47.8496 82.557 48.0268 82.2851 48.2268 82.0072C48.2772 81.9369 48.3322 81.8529 48.3842 81.7811C48.6316 81.9491 48.9141 82.0728 49.2364 82.0728C50.0794 82.0728 50.7636 81.3886 50.7636 80.5456C50.7636 79.9988 50.4597 79.5406 50.0275 79.2703C50.446 78.5922 50.8782 77.8728 51.3226 77.1184C51.5868 77.3413 51.9167 77.491 52.2909 77.491C53.134 77.491 53.8182 76.8068 53.8182 75.9637C53.8182 75.304 53.3951 74.7557 52.8102 74.5418C52.9324 74.3265 53.0561 74.1112 53.1783 73.8943C53.4914 73.3429 53.8029 72.7916 54.1145 72.2402C54.3909 72.6343 54.8277 72.9092 55.3455 72.9092C56.1885 72.9092 56.8727 72.225 56.8727 71.3819C56.8727 70.5755 56.2435 69.9341 55.4524 69.876C55.9625 68.9765 56.468 68.0937 56.9628 67.2445C57.1553 67.8661 57.7143 68.3274 58.4 68.3274C59.2431 68.3274 59.9273 67.6432 59.9273 66.8001C59.9273 65.957 59.2431 65.2728 58.4 65.2728C58.2916 65.2728 58.1954 65.3125 58.093 65.3354C58.7727 64.2129 59.4065 63.2232 59.97 62.4275C60.0754 63.1667 60.6848 63.7456 61.4546 63.7456C62.2976 63.7456 62.9818 63.0613 62.9818 62.2183C62.9818 61.3752 62.2976 60.691 61.4546 60.691C61.4347 60.691 61.4179 60.7017 61.398 60.7017C61.8074 60.2786 62.2243 59.88 62.6611 59.541C62.9421 59.3226 63.2277 59.1271 63.5179 58.9453C63.5454 58.9285 63.5714 58.9056 63.5988 58.8888C64.8726 58.1069 66.2288 57.6777 67.6064 57.6395C67.6095 57.6395 67.6125 57.638 67.6125 57.638C67.6797 57.6365 67.7469 57.6349 67.8141 57.6349C70.5189 57.6349 73.2237 59.1378 75.4505 61.8869C76.9258 63.7058 79.0457 67.1621 81.0968 70.5037C81.9811 71.9455 82.8761 73.3994 83.7421 74.7648C83.4855 74.5724 83.1831 74.4365 82.8364 74.4365C81.9933 74.4365 81.3091 75.1207 81.3091 75.9637C81.3091 76.8068 81.9933 77.491 82.8364 77.491C83.6794 77.491 84.3637 76.8068 84.3637 75.9637C84.3637 75.8477 84.3224 75.7469 84.298 75.6384C85.2571 77.1245 86.1597 78.444 86.957 79.4566C86.6805 79.1863 86.3063 79.0183 85.8909 79.0183C85.0479 79.0183 84.3637 79.7025 84.3637 80.5456C84.3637 81.3886 85.0479 82.0728 85.8909 82.0728C86.734 82.0728 87.4182 81.3886 87.4182 80.5456C87.4182 80.1546 87.2609 79.8079 87.0196 79.5376C87.0593 79.588 87.1036 79.649 87.1433 79.6964C88.2857 81.1091 88.8813 82.4485 88.9256 83.6047C88.0917 83.6169 87.4182 84.292 87.4182 85.1274C87.4182 85.5061 87.5709 85.8406 87.7985 86.1079C86.3415 87.4183 83.5817 88.1819 80.0079 88.1819H52.2726Z" fill="#0F7275"/>
<path d="M40.073 47.2925C40.9161 47.2925 41.6003 46.6098 41.6003 45.7652V40.1785C41.6003 39.9509 41.582 39.7264 41.5667 39.5034L42.0371 39.9738C42.3349 40.2716 42.7259 40.4213 43.1169 40.4213C43.5079 40.4213 43.8988 40.2716 44.1967 39.9738L44.6915 39.479C44.6732 39.7111 44.6548 39.9417 44.6548 40.1785V45.7652C44.6548 46.6098 45.3391 47.2925 46.1821 47.2925H51.7689C57.1098 47.2925 61.4548 42.9474 61.4548 37.6081V32.0198C61.4548 31.1752 60.7706 30.4925 59.9276 30.4925H54.3408C53.0762 30.4925 51.8712 30.743 50.7624 31.1859C51.4161 28.087 50.5486 24.727 48.1462 22.3246L44.1951 18.3736C43.598 17.7764 42.6327 17.7764 42.0356 18.3736L38.0845 22.3262C35.6852 24.7255 34.8161 28.0809 35.4668 31.1767C34.3656 30.7399 33.1697 30.4925 31.9143 30.4925H26.3276C25.4845 30.4925 24.8003 31.1752 24.8003 32.0198V37.6081C24.8003 42.9474 29.1454 47.2925 34.4863 47.2925H40.073ZM58.4003 33.547V37.6081C58.4003 41.2644 55.4252 44.238 51.7689 44.238H47.7094V40.1785C47.7094 36.5207 50.6845 33.547 54.3408 33.547H58.4003ZM40.2441 24.4857L43.1154 21.6145L45.9866 24.4857C48.5708 27.0699 48.5708 31.2775 45.9866 33.8632L43.1154 36.7345L40.2441 33.8632C37.6599 31.2775 37.6599 27.0699 40.2441 24.4857ZM27.8548 37.6096V33.5486H31.9143C35.5706 33.5486 38.5458 36.5222 38.5458 40.18V44.2395H34.4863C30.83 44.238 27.8548 41.2644 27.8548 37.6096Z" fill="#0F7275"/>
<path d="M56.8728 57.6366C56.8728 56.7921 56.1886 56.1094 55.3455 56.1094H32.4365C31.5934 56.1094 30.9092 56.7921 30.9092 57.6366C30.9092 58.4812 31.5934 59.1639 32.4365 59.1639H55.3455C56.1886 59.1639 56.8728 58.4812 56.8728 57.6366Z" fill="#0F7275"/>
<path d="M37.0185 51.5272C36.1754 51.5272 35.4912 52.2099 35.4912 53.0545C35.4912 53.8991 36.1754 54.5818 37.0185 54.5818H52.2912C53.1343 54.5818 53.8185 53.8991 53.8185 53.0545C53.8185 52.2099 53.1343 51.5272 52.2912 51.5272H37.0185Z" fill="#0F7275"/>
<path d="M53.8185 62.2186C53.8185 61.374 53.1343 60.6913 52.2912 60.6913H37.0185C36.1754 60.6913 35.4912 61.374 35.4912 62.2186C35.4912 63.0632 36.1754 63.7459 37.0185 63.7459H52.2912C53.1343 63.7459 53.8185 63.0632 53.8185 62.2186Z" fill="#0F7275"/>
</g>
<defs>
<clipPath id="clip0_1360_2135">
<rect width="84" height="84" fill="white" transform="translate(8 8)"/>
</clipPath>
</defs>
</svg>
