<svg width="23" height="22" viewBox="0 0 23 22" fill="none" xmlns="http://www.w3.org/2000/svg">
<path d="M18.625 19.9375H18.5081C4.99871 19.1606 3.08058 7.76188 2.81246 4.28313C2.79085 4.01265 2.82283 3.74057 2.90656 3.48247C2.99029 3.22437 3.12412 2.98533 3.30039 2.77905C3.47666 2.57276 3.6919 2.40329 3.93378 2.28033C4.17566 2.15737 4.43942 2.08335 4.70996 2.0625H8.49808C8.77347 2.06223 9.04258 2.14466 9.27058 2.29911C9.49857 2.45356 9.67494 2.67291 9.77683 2.92875L10.8218 5.5C10.9224 5.74994 10.9474 6.02393 10.8936 6.28794C10.8399 6.55195 10.7097 6.79434 10.5193 6.985L9.05496 8.46313C9.2837 9.76302 9.90621 10.9613 10.8383 11.8958C11.7703 12.8303 12.9669 13.456 14.2662 13.6881L15.7581 12.21C15.9516 12.0217 16.1963 11.8946 16.4616 11.8445C16.7269 11.7944 17.0011 11.8234 17.25 11.9281L19.8418 12.9663C20.0938 13.0714 20.3088 13.2491 20.4594 13.4768C20.61 13.7046 20.6894 13.972 20.6875 14.245V17.875C20.6875 18.422 20.4702 18.9466 20.0834 19.3334C19.6966 19.7202 19.172 19.9375 18.625 19.9375ZM4.87496 3.4375C4.69262 3.4375 4.51775 3.50993 4.38882 3.63886C4.25989 3.7678 4.18746 3.94266 4.18746 4.125V4.18C4.50371 8.25 6.53183 17.875 18.5837 18.5625C18.674 18.5681 18.7646 18.5558 18.8501 18.5263C18.9357 18.4968 19.0146 18.4507 19.0823 18.3907C19.15 18.3306 19.2052 18.2578 19.2447 18.1764C19.2842 18.095 19.3072 18.0066 19.3125 17.9162V14.245L16.7206 13.2069L14.7475 15.1662L14.4175 15.125C8.43621 14.3756 7.62496 8.39438 7.62496 8.3325L7.58371 8.0025L9.53621 6.02938L8.50496 3.4375H4.87496Z" fill="#0F7275"/>
</svg>
