<svg width="27" height="24" viewBox="0 0 27 24" fill="none" xmlns="http://www.w3.org/2000/svg">
<path d="M26.7804 12.1453C26.7804 12.6607 26.5552 13.155 26.1542 13.5195C25.7532 13.8839 25.2094 14.0887 24.6424 14.0887H16.026V21.9226C16.0017 22.4227 15.766 22.895 15.3681 23.2411C14.9702 23.5872 14.4407 23.7804 13.89 23.7804C13.3393 23.7804 12.8098 23.5872 12.4119 23.2411C12.014 22.895 11.7783 22.4227 11.7541 21.9226V14.0887H3.13139C2.84515 14.0968 2.56004 14.0525 2.29298 13.9586C2.02591 13.8646 1.78234 13.7228 1.57671 13.5417C1.37108 13.3605 1.20759 13.1436 1.09594 12.9039C0.98429 12.6642 0.926758 12.4065 0.926758 12.1462C0.926758 11.8859 0.98429 11.6283 1.09594 11.3886C1.20759 11.1489 1.37108 10.932 1.57671 10.7508C1.78234 10.5696 2.02591 10.4279 2.29298 10.3339C2.56004 10.2399 2.84515 10.1957 3.13139 10.2038H11.752V2.36986C11.7762 1.86975 12.0119 1.39744 12.4098 1.05135C12.8077 0.705257 13.3372 0.512085 13.8879 0.512085C14.4387 0.512085 14.9681 0.705257 15.3661 1.05135C15.764 1.39744 15.9996 1.86975 16.0239 2.36986V10.2038H24.6445C25.2111 10.2043 25.7544 10.4093 26.1549 10.7737C26.5554 11.1381 26.7804 11.6302 26.7804 12.1453Z" fill="#F9F9F9"/>
</svg>

