<svg width="126" height="119" viewBox="0 0 126 119" fill="none" xmlns="http://www.w3.org/2000/svg">
<g filter="url(#filter0_d_532_7483)">
<g clip-path="url(#clip0_532_7483)">
<path d="M114.172 90.5874C113.88 82.0461 111.459 73.7052 107.126 66.3614L74.7981 11.5662C72.343 7.40632 67.8222 4.82227 63 4.82227C58.1777 4.82227 53.657 7.40654 51.2017 11.5664L36.8532 35.8871C36.3519 36.7366 36.6344 37.8319 37.4839 38.3332C38.3337 38.8343 39.4285 38.552 39.93 37.7025L54.2785 13.3818C56.0939 10.3056 59.4359 8.39468 63 8.39468C66.5641 8.39468 69.9061 10.3056 71.7217 13.3816L104.049 68.1768C108.053 74.9624 110.299 82.665 110.594 90.5575H15.4056C15.7009 82.6652 17.947 74.9624 21.9507 68.1766L36.2994 43.8557C36.8007 43.0061 36.5183 41.9108 35.6687 41.4096C34.8185 40.9081 33.7239 41.1907 33.2226 42.0403L18.8741 66.3607C14.5409 73.7047 12.12 82.0454 11.8275 90.5868C9.13737 90.8708 7.03406 93.152 7.03406 95.9158C7.03406 98.8177 9.35293 101.186 12.2347 101.27L13.266 104.879C14.0237 107.532 16.7783 109.61 19.537 109.61H106.463C109.222 109.61 111.976 107.532 112.734 104.879L113.765 101.27C116.647 101.186 118.966 98.8177 118.966 95.9158C118.966 93.152 116.863 90.8706 114.172 90.5874ZM109.299 103.898C108.979 105.018 107.628 106.037 106.463 106.037H19.5372C18.3726 106.037 17.0209 105.017 16.7011 103.898L15.9514 101.274H110.049L109.299 103.898ZM113.607 97.7019H12.3926C11.4075 97.7019 10.6065 96.9007 10.6065 95.9158C10.6065 94.9307 11.4077 94.1297 12.3926 94.1297H113.608C114.593 94.1297 115.394 94.9309 115.394 95.9158C115.394 96.9009 114.592 97.7019 113.607 97.7019Z" fill="#0F7275"/>
<path d="M40.5951 68.2013C41.5815 68.2013 42.3812 67.3955 42.3812 66.4015C42.3812 65.4076 41.5815 64.6018 40.5951 64.6018C39.6087 64.6018 38.809 65.4076 38.809 66.4015C38.809 67.3955 39.6087 68.2013 40.5951 68.2013Z" fill="#0F7275"/>
<path d="M33.4562 75.4005C34.4427 75.4005 35.2423 74.5947 35.2423 73.6008C35.2423 72.6068 34.4427 71.801 33.4562 71.801C32.4698 71.801 31.6701 72.6068 31.6701 73.6008C31.6701 74.5947 32.4698 75.4005 33.4562 75.4005Z" fill="#0F7275"/>
<path d="M44.0159 75.6136C45.0023 75.6136 45.802 74.8079 45.802 73.8139C45.802 72.8199 45.0023 72.0142 44.0159 72.0142C43.0294 72.0142 42.2298 72.8199 42.2298 73.8139C42.2298 74.8079 43.0294 75.6136 44.0159 75.6136Z" fill="#0F7275"/>
<path d="M88.6065 76.8138C89.593 76.8138 90.3926 76.0081 90.3926 75.0141C90.3926 74.0201 89.593 73.2144 88.6065 73.2144C87.6201 73.2144 86.8204 74.0201 86.8204 75.0141C86.8204 76.0081 87.6201 76.8138 88.6065 76.8138Z" fill="#0F7275"/>
<path d="M95.7542 84.0121C96.7407 84.0121 97.5403 83.2063 97.5403 82.2123C97.5403 81.2184 96.7407 80.4126 95.7542 80.4126C94.7678 80.4126 93.9681 81.2184 93.9681 82.2123C93.9681 83.2063 94.7678 84.0121 95.7542 84.0121Z" fill="#0F7275"/>
<path d="M62.9948 26.4195C63.9812 26.4195 64.7809 25.6138 64.7809 24.6198C64.7809 23.6258 63.9812 22.8201 62.9948 22.8201C62.0084 22.8201 61.2087 23.6258 61.2087 24.6198C61.2087 25.6138 62.0084 26.4195 62.9948 26.4195Z" fill="#0F7275"/>
</g>
</g>
<defs>
<filter id="filter0_d_532_7483" x="0.371446" y="0.824699" width="125.257" height="126.112" filterUnits="userSpaceOnUse" color-interpolation-filters="sRGB">
<feFlood flood-opacity="0" result="BackgroundImageFix"/>
<feColorMatrix in="SourceAlpha" type="matrix" values="0 0 0 0 0 0 0 0 0 0 0 0 0 0 0 0 0 0 127 0" result="hardAlpha"/>
<feOffset dy="2.66504"/>
<feGaussianBlur stdDeviation="3.33131"/>
<feComposite in2="hardAlpha" operator="out"/>
<feColorMatrix type="matrix" values="0 0 0 0 0 0 0 0 0 0 0 0 0 0 0 0 0 0 0.1 0"/>
<feBlend mode="normal" in2="BackgroundImageFix" result="effect1_dropShadow_532_7483"/>
<feBlend mode="normal" in="SourceGraphic" in2="effect1_dropShadow_532_7483" result="shape"/>
</filter>
<clipPath id="clip0_532_7483">
<rect x="7.03406" y="4.82227" width="111.932" height="112.786" rx="16.6565" fill="white"/>
</clipPath>
</defs>
</svg>
