<svg width="33" height="33" viewBox="0 0 33 33" fill="none" xmlns="http://www.w3.org/2000/svg">
<path d="M9.89462 18.5438C10.1854 18.5438 10.4212 18.3081 10.4212 18.0172C10.4212 17.7264 10.1854 17.4907 9.89462 17.4907C9.6038 17.4907 9.36804 17.7264 9.36804 18.0172C9.36804 18.3081 9.6038 18.5438 9.89462 18.5438Z" fill="#3F7074"/>
<path d="M7.78964 20.6503C8.08047 20.6503 8.31623 20.4146 8.31623 20.1237C8.31623 19.8329 8.08047 19.5972 7.78964 19.5972C7.49882 19.5972 7.26306 19.8329 7.26306 20.1237C7.26306 20.4146 7.49882 20.6503 7.78964 20.6503Z" fill="#3F7074"/>
<path d="M12.0012 20.6501C12.292 20.6501 12.5278 20.4143 12.5278 20.1235C12.5278 19.8327 12.292 19.5969 12.0012 19.5969C11.7104 19.5969 11.4746 19.8327 11.4746 20.1235C11.4746 20.4143 11.7104 20.6501 12.0012 20.6501Z" fill="#3F7074"/>
<path d="M24.05 21.064C24.3408 21.064 24.5766 20.8282 24.5766 20.5374C24.5766 20.2466 24.3408 20.0108 24.05 20.0108C23.7592 20.0108 23.5234 20.2466 23.5234 20.5374C23.5234 20.8282 23.7592 21.064 24.05 21.064Z" fill="#3F7074"/>
<path d="M26.1566 23.1699C26.4474 23.1699 26.6832 22.9341 26.6832 22.6433C26.6832 22.3525 26.4474 22.1167 26.1566 22.1167C25.8658 22.1167 25.63 22.3525 25.63 22.6433C25.63 22.9341 25.8658 23.1699 26.1566 23.1699Z" fill="#3F7074"/>
<path d="M16.4989 6.31903C16.7897 6.31903 17.0255 6.08327 17.0255 5.79245C17.0255 5.50163 16.7897 5.26587 16.4989 5.26587C16.208 5.26587 15.9723 5.50163 15.9723 5.79245C15.9723 6.08327 16.208 6.31903 16.4989 6.31903Z" fill="#3F7074"/>
<path d="M31.5867 26.3387C31.5005 23.8205 30.7868 21.3614 29.5092 19.1963L19.9783 3.04147C19.2545 1.81506 17.9217 1.05322 16.5 1.05322C15.0783 1.05322 13.7455 1.81512 13.0216 3.04154L8.79134 10.2118C8.64355 10.4623 8.72682 10.7852 8.97729 10.933C9.22782 11.0807 9.5506 10.9975 9.69846 10.747L13.9287 3.57676C14.4639 2.66984 15.4492 2.10645 16.5 2.10645C17.5508 2.10645 18.5361 2.66984 19.0714 3.57669L28.6022 19.7315C29.7827 21.7321 30.4448 24.003 30.5319 26.3299H2.4681C2.55518 24.003 3.21737 21.7321 4.39777 19.7315L8.62808 12.5611C8.77587 12.3107 8.6926 11.9878 8.44213 11.84C8.19148 11.6921 7.86876 11.7754 7.72097 12.0259L3.49072 19.1961C2.21319 21.3613 1.49944 23.8203 1.4132 26.3385C0.620104 26.4222 0 27.0948 0 27.9096C0 28.7652 0.683654 29.4635 1.53328 29.4882L1.8373 30.5522C2.0607 31.3343 2.8728 31.9468 3.68614 31.9468H29.3138C30.1271 31.9468 30.9392 31.3342 31.1626 30.5523L31.4667 29.4882C32.3163 29.4635 33 28.7652 33 27.9096C33 27.0948 32.3799 26.4222 31.5867 26.3387ZM30.15 30.2629C30.0557 30.5931 29.6572 30.8937 29.3139 30.8937H3.6862C3.34286 30.8937 2.94435 30.593 2.85005 30.2629L2.62904 29.4894H30.3711L30.15 30.2629ZM31.4202 28.4362H1.57981C1.28938 28.4362 1.05323 28.2 1.05323 27.9096C1.05323 27.6192 1.28945 27.383 1.57981 27.383H31.4203C31.7107 27.383 31.9468 27.6193 31.9468 27.9096C31.9468 28.2 31.7106 28.4362 31.4202 28.4362Z" fill="#3F7074"/>
</svg>
