<svg width="23" height="23" viewBox="0 0 23 23" fill="none" xmlns="http://www.w3.org/2000/svg">
<g clip-path="url(#clip0_472_1045)">
<path d="M19.6496 20.2692C19.8804 20.2692 20.0675 20.0821 20.0675 19.8513C20.0675 19.6205 19.8804 19.4333 19.6496 19.4333C19.4188 19.4333 19.2317 19.6205 19.2317 19.8513C19.2317 20.0821 19.4188 20.2692 19.6496 20.2692Z" fill="#FDFDFD"/>
<path d="M18.8138 19.0158C19.0446 19.0158 19.2317 18.8287 19.2317 18.5979C19.2317 18.367 19.0446 18.1799 18.8138 18.1799C18.583 18.1799 18.3959 18.367 18.3959 18.5979C18.3959 18.8287 18.583 19.0158 18.8138 19.0158Z" fill="#FDFDFD"/>
<path d="M17.9779 17.7616C18.2087 17.7616 18.3958 17.5745 18.3958 17.3437C18.3958 17.1129 18.2087 16.9258 17.9779 16.9258C17.747 16.9258 17.5599 17.1129 17.5599 17.3437C17.5599 17.5745 17.747 17.7616 17.9779 17.7616Z" fill="#FDFDFD"/>
<path d="M19.6496 17.7616C19.8804 17.7616 20.0675 17.5745 20.0675 17.3437C20.0675 17.1129 19.8804 16.9258 19.6496 16.9258C19.4188 16.9258 19.2317 17.1129 19.2317 17.3437C19.2317 17.5745 19.4188 17.7616 19.6496 17.7616Z" fill="#FDFDFD"/>
<path d="M17.142 16.508C17.3729 16.508 17.56 16.3209 17.56 16.09C17.56 15.8592 17.3729 15.6721 17.142 15.6721C16.9112 15.6721 16.7241 15.8592 16.7241 16.09C16.7241 16.3209 16.9112 16.508 17.142 16.508Z" fill="#FDFDFD"/>
<path d="M18.8138 16.508C19.0446 16.508 19.2317 16.3209 19.2317 16.09C19.2317 15.8592 19.0446 15.6721 18.8138 15.6721C18.583 15.6721 18.3959 15.8592 18.3959 16.09C18.3959 16.3209 18.583 16.508 18.8138 16.508Z" fill="#FDFDFD"/>
<path d="M16.3061 15.2543C16.5369 15.2543 16.724 15.0672 16.724 14.8364C16.724 14.6056 16.5369 14.4185 16.3061 14.4185C16.0753 14.4185 15.8882 14.6056 15.8882 14.8364C15.8882 15.0672 16.0753 15.2543 16.3061 15.2543Z" fill="#FDFDFD"/>
<path d="M17.9779 15.2543C18.2087 15.2543 18.3958 15.0672 18.3958 14.8364C18.3958 14.6056 18.2087 14.4185 17.9779 14.4185C17.747 14.4185 17.5599 14.6056 17.5599 14.8364C17.5599 15.0672 17.747 15.2543 17.9779 15.2543Z" fill="#FDFDFD"/>
<path d="M20.4854 21.5234C20.7162 21.5234 20.9034 21.3362 20.9034 21.1054C20.9034 20.8746 20.7162 20.6875 20.4854 20.6875C20.2546 20.6875 20.0675 20.8746 20.0675 21.1054C20.0675 21.3362 20.2546 21.5234 20.4854 21.5234Z" fill="#FDFDFD"/>
<path d="M18.8138 21.5234C19.0446 21.5234 19.2317 21.3362 19.2317 21.1054C19.2317 20.8746 19.0446 20.6875 18.8138 20.6875C18.583 20.6875 18.3959 20.8746 18.3959 21.1054C18.3959 21.3362 18.583 21.5234 18.8138 21.5234Z" fill="#FDFDFD"/>
<path d="M17.9779 20.2692C18.2087 20.2692 18.3958 20.0821 18.3958 19.8513C18.3958 19.6205 18.2087 19.4333 17.9779 19.4333C17.747 19.4333 17.5599 19.6205 17.5599 19.8513C17.5599 20.0821 17.747 20.2692 17.9779 20.2692Z" fill="#FDFDFD"/>
<path d="M17.142 19.0158C17.3729 19.0158 17.56 18.8287 17.56 18.5979C17.56 18.367 17.3729 18.1799 17.142 18.1799C16.9112 18.1799 16.7241 18.367 16.7241 18.5979C16.7241 18.8287 16.9112 19.0158 17.142 19.0158Z" fill="#FDFDFD"/>
<path d="M16.3061 17.7616C16.5369 17.7616 16.724 17.5745 16.724 17.3437C16.724 17.1129 16.5369 16.9258 16.3061 16.9258C16.0753 16.9258 15.8882 17.1129 15.8882 17.3437C15.8882 17.5745 16.0753 17.7616 16.3061 17.7616Z" fill="#FDFDFD"/>
<path d="M15.4703 16.508C15.7011 16.508 15.8882 16.3209 15.8882 16.09C15.8882 15.8592 15.7011 15.6721 15.4703 15.6721C15.2395 15.6721 15.0524 15.8592 15.0524 16.09C15.0524 16.3209 15.2395 16.508 15.4703 16.508Z" fill="#FDFDFD"/>
<path d="M16.3061 20.2692C16.5369 20.2692 16.724 20.0821 16.724 19.8513C16.724 19.6205 16.5369 19.4333 16.3061 19.4333C16.0753 19.4333 15.8882 19.6205 15.8882 19.8513C15.8882 20.0821 16.0753 20.2692 16.3061 20.2692Z" fill="#FDFDFD"/>
<path d="M15.4703 19.0158C15.7011 19.0158 15.8882 18.8287 15.8882 18.5979C15.8882 18.367 15.7011 18.1799 15.4703 18.1799C15.2395 18.1799 15.0524 18.367 15.0524 18.5979C15.0524 18.8287 15.2395 19.0158 15.4703 19.0158Z" fill="#FDFDFD"/>
<path d="M14.6345 17.7616C14.8653 17.7616 15.0524 17.5745 15.0524 17.3437C15.0524 17.1129 14.8653 16.9258 14.6345 16.9258C14.4037 16.9258 14.2166 17.1129 14.2166 17.3437C14.2166 17.5745 14.4037 17.7616 14.6345 17.7616Z" fill="#FDFDFD"/>
<path d="M17.142 21.5234C17.3729 21.5234 17.56 21.3362 17.56 21.1054C17.56 20.8746 17.3729 20.6875 17.142 20.6875C16.9112 20.6875 16.7241 20.8746 16.7241 21.1054C16.7241 21.3362 16.9112 21.5234 17.142 21.5234Z" fill="#FDFDFD"/>
<path d="M15.4703 21.5234C15.7011 21.5234 15.8882 21.3362 15.8882 21.1054C15.8882 20.8746 15.7011 20.6875 15.4703 20.6875C15.2395 20.6875 15.0524 20.8746 15.0524 21.1054C15.0524 21.3362 15.2395 21.5234 15.4703 21.5234Z" fill="#FDFDFD"/>
<path d="M14.6345 20.2692C14.8653 20.2692 15.0524 20.0821 15.0524 19.8513C15.0524 19.6205 14.8653 19.4333 14.6345 19.4333C14.4037 19.4333 14.2166 19.6205 14.2166 19.8513C14.2166 20.0821 14.4037 20.2692 14.6345 20.2692Z" fill="#FDFDFD"/>
<path d="M13.7988 19.0158C14.0296 19.0158 14.2167 18.8287 14.2167 18.5979C14.2167 18.367 14.0296 18.1799 13.7988 18.1799C13.568 18.1799 13.3809 18.367 13.3809 18.5979C13.3809 18.8287 13.568 19.0158 13.7988 19.0158Z" fill="#FDFDFD"/>
<path d="M12.9628 20.2692C13.1937 20.2692 13.3808 20.0821 13.3808 19.8513C13.3808 19.6205 13.1937 19.4333 12.9628 19.4333C12.732 19.4333 12.5449 19.6205 12.5449 19.8513C12.5449 20.0821 12.732 20.2692 12.9628 20.2692Z" fill="#FDFDFD"/>
<path d="M13.7988 21.5234C14.0296 21.5234 14.2167 21.3362 14.2167 21.1054C14.2167 20.8746 14.0296 20.6875 13.7988 20.6875C13.568 20.6875 13.3809 20.8746 13.3809 21.1054C13.3809 21.3362 13.568 21.5234 13.7988 21.5234Z" fill="#FDFDFD"/>
<path d="M12.127 21.5234C12.3578 21.5234 12.545 21.3362 12.545 21.1054C12.545 20.8746 12.3578 20.6875 12.127 20.6875C11.8962 20.6875 11.7091 20.8746 11.7091 21.1054C11.7091 21.3362 11.8962 21.5234 12.127 21.5234Z" fill="#FDFDFD"/>
<path d="M22.3135 19.0934C21.8893 18.5685 21.2954 17.6018 20.7216 16.6665C20.1202 15.686 19.5514 14.7599 19.1138 14.2195C18.4326 13.3791 17.5963 12.8659 16.7237 12.766V0.62691C16.7237 0.395797 16.5365 0.208984 16.3058 0.208984H3.35299C3.3509 0.208984 3.34881 0.210238 3.34673 0.210238C3.34464 0.210238 3.34255 0.208984 3.34046 0.208984H0.425006C0.194311 0.208984 0.00708008 0.395797 0.00708008 0.62691V19.8515C0.00708008 20.0182 0.106546 20.1695 0.259925 20.2356L3.17538 21.4893C3.22845 21.5119 3.28445 21.5232 3.34046 21.5232C3.34296 21.5232 3.34547 21.5224 3.34798 21.5224C3.35007 21.5224 3.35132 21.5232 3.35341 21.5232H9.8158C9.84004 21.6319 9.87264 21.738 9.9232 21.8375C10.1418 22.2659 10.701 22.777 12.1219 22.777H19.7114C21.2887 22.777 22.4271 22.2884 22.8338 21.4367C23.1627 20.7475 22.978 19.9154 22.3135 19.0934ZM2.92253 20.4704L0.842932 19.5765V1.04484H2.92253V20.4704ZM3.77092 1.04484H15.8883V12.7886C15.7763 12.8078 15.6655 12.8341 15.5556 12.8667C15.5259 12.8755 15.4967 12.888 15.4674 12.8976C15.3826 12.9256 15.2977 12.9553 15.2146 12.9912C15.1728 13.0092 15.1322 13.0305 15.0913 13.0502C15.0211 13.084 14.9513 13.1187 14.8827 13.158C14.8393 13.1827 14.7966 13.2098 14.754 13.2366C14.6888 13.2775 14.6249 13.3206 14.5613 13.3665C14.5191 13.3971 14.4769 13.4284 14.4355 13.4614C14.3724 13.5111 14.311 13.5638 14.25 13.6181C14.2111 13.6528 14.1718 13.6867 14.1338 13.7235C14.0686 13.7861 14.0059 13.853 13.9432 13.9211C13.9119 13.9554 13.8797 13.9872 13.8492 14.0227C13.7577 14.1288 13.6682 14.24 13.583 14.3583C13.2077 14.8782 12.7492 15.666 12.2586 16.5315C12.1579 16.7091 12.0563 16.8884 11.9531 17.0715C11.7642 17.4062 11.5736 17.7431 11.3872 18.0678C11.0019 18.7381 10.6337 19.3533 10.3386 19.7604C10.3332 19.7679 10.3294 19.775 10.324 19.7825C10.2651 19.8649 10.2116 19.9464 10.1618 20.027C10.1472 20.0513 10.1343 20.0755 10.1205 20.0997C10.0824 20.1658 10.0469 20.2314 10.0151 20.2966C10.003 20.3212 9.99216 20.3459 9.98088 20.3706C9.95162 20.4353 9.92571 20.4997 9.90273 20.5632C9.89437 20.5862 9.88559 20.6096 9.87807 20.6326C9.87222 20.6506 9.86428 20.6694 9.85884 20.6873H3.77092V1.04484ZM12.1219 21.9411C11.3546 21.9411 10.8247 21.7648 10.6679 21.458V21.4572C10.7883 21.3836 10.8732 21.257 10.8732 21.1053C10.8732 20.9736 10.8084 20.8608 10.7127 20.7843C10.7194 20.7684 10.7231 20.7534 10.7302 20.7371C10.7352 20.7254 10.7415 20.7133 10.7469 20.7011C10.7737 20.643 10.805 20.5833 10.8401 20.5227C10.8493 20.5068 10.8577 20.4909 10.8677 20.475C10.9116 20.4019 10.9601 20.3275 11.0148 20.2515C11.0286 20.2322 11.0437 20.2092 11.0579 20.1896C11.1256 20.2356 11.2029 20.2694 11.2911 20.2694C11.5218 20.2694 11.709 20.0822 11.709 19.8515C11.709 19.7019 11.6258 19.5765 11.5076 19.5025C11.6221 19.317 11.7403 19.1201 11.862 18.9137C11.9343 18.9747 12.0245 19.0156 12.1269 19.0156C12.3576 19.0156 12.5449 18.8284 12.5449 18.5977C12.5449 18.4172 12.4291 18.2671 12.269 18.2086C12.3025 18.1497 12.3363 18.0908 12.3697 18.0314C12.4554 17.8806 12.5407 17.7297 12.6259 17.5788C12.7016 17.6866 12.8211 17.7619 12.9628 17.7619C13.1935 17.7619 13.3807 17.5746 13.3807 17.3439C13.3807 17.1233 13.2085 16.9477 12.992 16.9319C13.1316 16.6857 13.27 16.4441 13.4054 16.2118C13.458 16.3819 13.611 16.5081 13.7986 16.5081C14.0293 16.5081 14.2166 16.3209 14.2166 16.0902C14.2166 15.8595 14.0293 15.6722 13.7986 15.6722C13.769 15.6722 13.7426 15.6831 13.7146 15.6894C13.9006 15.3822 14.074 15.1114 14.2283 14.8936C14.2571 15.0959 14.4238 15.2543 14.6345 15.2543C14.8652 15.2543 15.0524 15.0671 15.0524 14.8364C15.0524 14.6057 14.8652 14.4185 14.6345 14.4185C14.629 14.4185 14.6245 14.4214 14.619 14.4214C14.731 14.3056 14.8451 14.1965 14.9646 14.1038C15.0415 14.044 15.1197 13.9905 15.1991 13.9408C15.2066 13.9362 15.2137 13.9299 15.2212 13.9253C15.5698 13.7113 15.9409 13.5939 16.3179 13.5834C16.3187 13.5834 16.3196 13.583 16.3196 13.583C16.3379 13.5826 16.3563 13.5822 16.3747 13.5822C17.1149 13.5822 17.855 13.9934 18.4644 14.7457C18.8681 15.2434 19.4482 16.1892 20.0094 17.1036C20.2514 17.4982 20.4963 17.896 20.7333 18.2696C20.6631 18.217 20.5803 18.1798 20.4854 18.1798C20.2547 18.1798 20.0675 18.367 20.0675 18.5977C20.0675 18.8284 20.2547 19.0156 20.4854 19.0156C20.7161 19.0156 20.9034 18.8284 20.9034 18.5977C20.9034 18.566 20.8921 18.5384 20.8854 18.5087C21.1479 18.9153 21.3949 19.2764 21.613 19.5535C21.5374 19.4795 21.435 19.4336 21.3213 19.4336C21.0906 19.4336 20.9034 19.6208 20.9034 19.8515C20.9034 20.0822 21.0906 20.2694 21.3213 20.2694C21.552 20.2694 21.7392 20.0822 21.7392 19.8515C21.7392 19.7445 21.6962 19.6496 21.6301 19.5757C21.641 19.5895 21.6531 19.6062 21.664 19.6191C21.9766 20.0057 22.1396 20.3722 22.1517 20.6886C21.9235 20.6919 21.7392 20.8767 21.7392 21.1053C21.7392 21.2089 21.781 21.3004 21.8433 21.3736C21.4446 21.7322 20.6894 21.9411 19.7114 21.9411H12.1219Z" fill="#FDFDFD"/>
<path d="M8.78363 10.752C9.01432 10.752 9.20155 10.5652 9.20155 10.3341V8.80535C9.20155 8.74308 9.19654 8.68164 9.19236 8.62063L9.32108 8.74935C9.40257 8.83084 9.50956 8.8718 9.61655 8.8718C9.72354 8.8718 9.83053 8.83084 9.91203 8.74935L10.0474 8.61394C10.0424 8.67746 10.0374 8.74057 10.0374 8.80535V10.3341C10.0374 10.5652 10.2246 10.752 10.4553 10.752H11.9841C13.4456 10.752 14.6346 9.56305 14.6346 8.10198V6.57279C14.6346 6.34168 14.4474 6.15486 14.2167 6.15486H12.6879C12.3418 6.15486 12.0121 6.2234 11.7087 6.3446C11.8876 5.49663 11.6502 4.57719 10.9928 3.9198L9.91161 2.83862C9.7482 2.67521 9.48407 2.67521 9.32066 2.83862L8.23949 3.92021C7.58293 4.57677 7.34513 5.49496 7.52316 6.34209C7.22184 6.22257 6.8946 6.15486 6.55107 6.15486H5.0223C4.7916 6.15486 4.60437 6.34168 4.60437 6.57279V8.10198C4.60437 9.56305 5.79337 10.752 7.25485 10.752H8.78363ZM13.7987 6.99071V8.10198C13.7987 9.10249 12.9846 9.91619 11.9841 9.91619H10.8733V8.80535C10.8733 7.80442 11.6874 6.99071 12.6879 6.99071H13.7987ZM8.83043 4.51116L9.61614 3.72546L10.4018 4.51116C11.109 5.21829 11.109 6.36968 10.4018 7.07722L9.61614 7.86292L8.83043 7.07722C8.1233 6.36968 8.1233 5.21829 8.83043 4.51116ZM5.44022 8.1024V6.99113H6.55107C7.55158 6.99113 8.3657 7.80483 8.3657 8.80577V9.91661H7.25485C6.25434 9.91619 5.44022 9.10249 5.44022 8.1024Z" fill="#FDFDFD"/>
<path d="M13.3807 13.5825C13.3807 13.3514 13.1935 13.1646 12.9628 13.1646H6.69393C6.46323 13.1646 6.276 13.3514 6.276 13.5825C6.276 13.8136 6.46323 14.0004 6.69393 14.0004H12.9628C13.1935 14.0004 13.3807 13.8136 13.3807 13.5825Z" fill="#FDFDFD"/>
<path d="M7.94759 11.9109C7.71689 11.9109 7.52966 12.0977 7.52966 12.3288C7.52966 12.5599 7.71689 12.7467 7.94759 12.7467H12.1268C12.3575 12.7467 12.5448 12.5599 12.5448 12.3288C12.5448 12.0977 12.3575 11.9109 12.1268 11.9109H7.94759Z" fill="#FDFDFD"/>
<path d="M12.5448 14.8364C12.5448 14.6053 12.3575 14.4185 12.1268 14.4185H7.94759C7.71689 14.4185 7.52966 14.6053 7.52966 14.8364C7.52966 15.0675 7.71689 15.2543 7.94759 15.2543H12.1268C12.3575 15.2543 12.5448 15.0675 12.5448 14.8364Z" fill="#FDFDFD"/>
</g>
<defs>
<clipPath id="clip0_472_1045">
<rect width="22.9859" height="22.9859" fill="white" transform="translate(0.00708008)"/>
</clipPath>
</defs>
</svg>
