<svg width="59" height="59" viewBox="0 0 59 59" fill="none" xmlns="http://www.w3.org/2000/svg">
<path d="M17.6905 33.154C18.2104 33.154 18.632 32.7325 18.632 32.2126C18.632 31.6926 18.2104 31.2711 17.6905 31.2711C17.1705 31.2711 16.749 31.6926 16.749 32.2126C16.749 32.7325 17.1705 33.154 17.6905 33.154Z" fill="#3F7074"/>
<path d="M13.9268 36.9203C14.4468 36.9203 14.8683 36.4988 14.8683 35.9788C14.8683 35.4589 14.4468 35.0374 13.9268 35.0374C13.4069 35.0374 12.9854 35.4589 12.9854 35.9788C12.9854 36.4988 13.4069 36.9203 13.9268 36.9203Z" fill="#3F7074"/>
<path d="M21.4571 36.9198C21.977 36.9198 22.3986 36.4983 22.3986 35.9783C22.3986 35.4584 21.977 35.0369 21.4571 35.0369C20.9371 35.0369 20.5156 35.4584 20.5156 35.9783C20.5156 36.4983 20.9371 36.9198 21.4571 36.9198Z" fill="#3F7074"/>
<path d="M42.9981 37.6598C43.5181 37.6598 43.9396 37.2383 43.9396 36.7183C43.9396 36.1984 43.5181 35.7769 42.9981 35.7769C42.4781 35.7769 42.0566 36.1984 42.0566 36.7183C42.0566 37.2383 42.4781 37.6598 42.9981 37.6598Z" fill="#3F7074"/>
<path d="M46.7647 41.4249C47.2847 41.4249 47.7062 41.0034 47.7062 40.4835C47.7062 39.9635 47.2847 39.542 46.7647 39.542C46.2447 39.542 45.8232 39.9635 45.8232 40.4835C45.8232 41.0034 46.2447 41.4249 46.7647 41.4249Z" fill="#3F7074"/>
<path d="M29.4981 11.2977C30.0181 11.2977 30.4396 10.8762 30.4396 10.3563C30.4396 9.8363 30.0181 9.41479 29.4981 9.41479C28.9781 9.41479 28.5566 9.8363 28.5566 10.3563C28.5566 10.8762 28.9781 11.2977 29.4981 11.2977Z" fill="#3F7074"/>
<path d="M56.4733 47.0904C56.3191 42.5882 55.0431 38.1917 52.7589 34.3207L35.7189 5.43781C34.4248 3.24513 32.0418 1.88306 29.5 1.88306C26.9582 1.88306 24.5752 3.24524 23.281 5.43792L15.7179 18.2575C15.4536 18.7053 15.6025 19.2826 16.0503 19.5469C16.4982 19.811 17.0753 19.6622 17.3397 19.2144L24.9028 6.39483C25.8597 4.77337 27.6213 3.7661 29.5 3.7661C31.3787 3.7661 33.1403 4.77337 34.0973 6.39471L51.1373 35.2776C53.2478 38.8544 54.4316 42.9144 54.5873 47.0746H4.41267C4.56835 42.9146 5.75227 38.8544 7.86267 35.2775L15.426 22.4578C15.6902 22.01 15.5413 21.4327 15.0935 21.1684C14.6454 20.9041 14.0684 21.0531 13.8042 21.5009L6.24098 34.3204C3.95692 38.1914 2.68081 42.5879 2.52663 47.0901C1.10867 47.2398 0 48.4422 0 49.899C0 51.4286 1.22229 52.6772 2.74131 52.7213L3.28487 54.6236C3.68427 56.0219 5.13623 57.1171 6.59037 57.1171H52.4095C53.8637 57.1171 55.3156 56.0218 55.715 54.6238L56.2586 52.7213C57.7777 52.6772 59 51.4286 59 49.899C59 48.4422 57.8913 47.2397 56.4733 47.0904ZM53.9046 54.1065C53.736 54.6967 53.0235 55.2341 52.4096 55.2341H6.59048C5.97663 55.2341 5.26414 54.6966 5.09555 54.1065L4.70041 52.7235H54.2998L53.9046 54.1065ZM56.1755 50.8405H2.82451C2.30526 50.8405 1.88304 50.4182 1.88304 49.899C1.88304 49.3798 2.30538 48.9576 2.82451 48.9576H56.1756C56.6949 48.9576 57.1171 49.3799 57.1171 49.899C57.1171 50.4183 56.6947 50.8405 56.1755 50.8405Z" fill="#3F7074"/>
</svg>
