<svg width="200" height="200" viewBox="0 0 200 200" fill="none" xmlns="http://www.w3.org/2000/svg">
<mask id="path-1-outside-1_1360_2144" maskUnits="userSpaceOnUse" x="23.9" y="23.9" width="152" height="152" fill="black">
<rect fill="white" x="23.9" y="23.9" width="152" height="152"/>
<path d="M34.873 39.0219C28.92 39.0219 25.9 35.1915 25.9 27.6367C25.9 26.6767 26.6767 25.9 27.6367 25.9C28.5967 25.9 29.3734 26.6767 29.3734 27.6367C29.3734 34.5884 32.0171 35.5485 34.873 35.5485C40.0736 35.5485 43.8461 40.3341 43.8461 46.9336C43.8461 47.8936 43.0694 48.6703 42.1094 48.6703C41.1494 48.6703 40.3727 47.8936 40.3727 46.9336C40.3727 43.0019 38.4864 39.0219 34.873 39.0219ZM39.6973 29.3735C45.9688 29.3735 50.0211 33.4258 50.0211 39.6973C50.0211 40.6573 50.7978 41.434 51.7578 41.434C52.7178 41.434 53.4945 40.6573 53.4945 39.6973C53.4945 31.4479 47.9515 25.9048 39.6973 25.9048C38.7372 25.9048 37.9605 26.6815 37.9605 27.6416C37.9605 28.6016 38.7372 29.3735 39.6973 29.3735ZM71.0547 117.56C70.0947 117.56 69.318 118.337 69.318 119.297V128.945C69.318 129.905 70.0947 130.682 71.0547 130.682C72.0147 130.682 72.7914 129.905 72.7914 128.945V119.297C72.7914 118.337 72.0147 117.56 71.0547 117.56ZM174.1 134.705V172.363C174.1 173.323 173.323 174.1 172.363 174.1H32.4609C31.5009 174.1 30.7242 173.323 30.7242 172.363V51.7578C30.7242 50.7978 31.5009 50.0211 32.4609 50.0211H51.7578C52.7178 50.0211 53.4945 50.7978 53.4945 51.7578V101.717L82.2083 84.0463C82.7438 83.7135 83.4192 83.7038 83.9643 84.0077C84.5143 84.3213 84.8519 84.9002 84.8519 85.5274V101.833L116.021 84.0222C116.562 83.7135 117.218 83.7183 117.753 84.027C118.289 84.3358 118.621 84.9099 118.621 85.5322V101.722L147.33 84.0512C147.861 83.7183 148.541 83.7086 149.086 84.0126C149.636 84.3213 149.979 84.9002 149.979 85.5274V117.56H157.09C159.386 117.56 165.194 118.033 169.551 122.399C172.58 125.433 174.11 129.577 174.1 134.705ZM149.979 127.209H156.612C160.935 127.209 164.452 130.682 164.452 134.947V170.627H170.622V134.705C170.631 130.528 169.445 127.213 167.09 124.854C164.707 122.466 160.964 121.038 157.09 121.038H149.979V127.209ZM149.979 130.682V170.622H160.973V134.942C160.973 132.592 159.019 130.677 156.612 130.677H149.979V130.682ZM34.1977 53.4946V83.7906H50.0211V53.4946H34.1977ZM50.0211 170.627V87.2641H34.1977V170.627H50.0211ZM53.4945 170.627H88.6148V143.418C88.6148 142.458 89.3915 141.681 90.3516 141.681H109.648C110.608 141.681 111.385 142.458 111.385 143.418V170.627H146.501V88.6342L117.792 106.305C117.261 106.628 116.586 106.648 116.036 106.344C115.491 106.035 115.148 105.456 115.148 104.824V88.5184L83.9788 106.329C83.4384 106.628 82.7824 106.633 82.2469 106.325C81.7066 106.016 81.3785 105.442 81.3785 104.824V88.6342L53.4945 105.794V170.627ZM107.912 145.155H92.0883V170.622H107.912V145.155ZM90.3516 130.682C91.3116 130.682 92.0883 129.905 92.0883 128.945V119.297C92.0883 118.337 91.3116 117.56 90.3516 117.56C89.3915 117.56 88.6148 118.337 88.6148 119.297V128.945C88.6148 129.905 89.3915 130.682 90.3516 130.682ZM109.648 130.682C110.608 130.682 111.385 129.905 111.385 128.945V119.297C111.385 118.337 110.608 117.56 109.648 117.56C108.688 117.56 107.912 118.337 107.912 119.297V128.945C107.912 129.905 108.688 130.682 109.648 130.682ZM128.945 130.682C129.905 130.682 130.682 129.905 130.682 128.945V119.297C130.682 118.337 129.905 117.56 128.945 117.56C127.985 117.56 127.209 118.337 127.209 119.297V128.945C127.209 129.905 127.985 130.682 128.945 130.682Z"/>
</mask>
<path d="M34.873 39.0219C28.92 39.0219 25.9 35.1915 25.9 27.6367C25.9 26.6767 26.6767 25.9 27.6367 25.9C28.5967 25.9 29.3734 26.6767 29.3734 27.6367C29.3734 34.5884 32.0171 35.5485 34.873 35.5485C40.0736 35.5485 43.8461 40.3341 43.8461 46.9336C43.8461 47.8936 43.0694 48.6703 42.1094 48.6703C41.1494 48.6703 40.3727 47.8936 40.3727 46.9336C40.3727 43.0019 38.4864 39.0219 34.873 39.0219ZM39.6973 29.3735C45.9688 29.3735 50.0211 33.4258 50.0211 39.6973C50.0211 40.6573 50.7978 41.434 51.7578 41.434C52.7178 41.434 53.4945 40.6573 53.4945 39.6973C53.4945 31.4479 47.9515 25.9048 39.6973 25.9048C38.7372 25.9048 37.9605 26.6815 37.9605 27.6416C37.9605 28.6016 38.7372 29.3735 39.6973 29.3735ZM71.0547 117.56C70.0947 117.56 69.318 118.337 69.318 119.297V128.945C69.318 129.905 70.0947 130.682 71.0547 130.682C72.0147 130.682 72.7914 129.905 72.7914 128.945V119.297C72.7914 118.337 72.0147 117.56 71.0547 117.56ZM174.1 134.705V172.363C174.1 173.323 173.323 174.1 172.363 174.1H32.4609C31.5009 174.1 30.7242 173.323 30.7242 172.363V51.7578C30.7242 50.7978 31.5009 50.0211 32.4609 50.0211H51.7578C52.7178 50.0211 53.4945 50.7978 53.4945 51.7578V101.717L82.2083 84.0463C82.7438 83.7135 83.4192 83.7038 83.9643 84.0077C84.5143 84.3213 84.8519 84.9002 84.8519 85.5274V101.833L116.021 84.0222C116.562 83.7135 117.218 83.7183 117.753 84.027C118.289 84.3358 118.621 84.9099 118.621 85.5322V101.722L147.33 84.0512C147.861 83.7183 148.541 83.7086 149.086 84.0126C149.636 84.3213 149.979 84.9002 149.979 85.5274V117.56H157.09C159.386 117.56 165.194 118.033 169.551 122.399C172.58 125.433 174.11 129.577 174.1 134.705ZM149.979 127.209H156.612C160.935 127.209 164.452 130.682 164.452 134.947V170.627H170.622V134.705C170.631 130.528 169.445 127.213 167.09 124.854C164.707 122.466 160.964 121.038 157.09 121.038H149.979V127.209ZM149.979 130.682V170.622H160.973V134.942C160.973 132.592 159.019 130.677 156.612 130.677H149.979V130.682ZM34.1977 53.4946V83.7906H50.0211V53.4946H34.1977ZM50.0211 170.627V87.2641H34.1977V170.627H50.0211ZM53.4945 170.627H88.6148V143.418C88.6148 142.458 89.3915 141.681 90.3516 141.681H109.648C110.608 141.681 111.385 142.458 111.385 143.418V170.627H146.501V88.6342L117.792 106.305C117.261 106.628 116.586 106.648 116.036 106.344C115.491 106.035 115.148 105.456 115.148 104.824V88.5184L83.9788 106.329C83.4384 106.628 82.7824 106.633 82.2469 106.325C81.7066 106.016 81.3785 105.442 81.3785 104.824V88.6342L53.4945 105.794V170.627ZM107.912 145.155H92.0883V170.622H107.912V145.155ZM90.3516 130.682C91.3116 130.682 92.0883 129.905 92.0883 128.945V119.297C92.0883 118.337 91.3116 117.56 90.3516 117.56C89.3915 117.56 88.6148 118.337 88.6148 119.297V128.945C88.6148 129.905 89.3915 130.682 90.3516 130.682ZM109.648 130.682C110.608 130.682 111.385 129.905 111.385 128.945V119.297C111.385 118.337 110.608 117.56 109.648 117.56C108.688 117.56 107.912 118.337 107.912 119.297V128.945C107.912 129.905 108.688 130.682 109.648 130.682ZM128.945 130.682C129.905 130.682 130.682 129.905 130.682 128.945V119.297C130.682 118.337 129.905 117.56 128.945 117.56C127.985 117.56 127.209 118.337 127.209 119.297V128.945C127.209 129.905 127.985 130.682 128.945 130.682Z" fill="#C0CD30" fill-opacity="0.25"/>
<path d="M34.873 39.0219C28.92 39.0219 25.9 35.1915 25.9 27.6367C25.9 26.6767 26.6767 25.9 27.6367 25.9C28.5967 25.9 29.3734 26.6767 29.3734 27.6367C29.3734 34.5884 32.0171 35.5485 34.873 35.5485C40.0736 35.5485 43.8461 40.3341 43.8461 46.9336C43.8461 47.8936 43.0694 48.6703 42.1094 48.6703C41.1494 48.6703 40.3727 47.8936 40.3727 46.9336C40.3727 43.0019 38.4864 39.0219 34.873 39.0219ZM39.6973 29.3735C45.9688 29.3735 50.0211 33.4258 50.0211 39.6973C50.0211 40.6573 50.7978 41.434 51.7578 41.434C52.7178 41.434 53.4945 40.6573 53.4945 39.6973C53.4945 31.4479 47.9515 25.9048 39.6973 25.9048C38.7372 25.9048 37.9605 26.6815 37.9605 27.6416C37.9605 28.6016 38.7372 29.3735 39.6973 29.3735ZM71.0547 117.56C70.0947 117.56 69.318 118.337 69.318 119.297V128.945C69.318 129.905 70.0947 130.682 71.0547 130.682C72.0147 130.682 72.7914 129.905 72.7914 128.945V119.297C72.7914 118.337 72.0147 117.56 71.0547 117.56ZM174.1 134.705V172.363C174.1 173.323 173.323 174.1 172.363 174.1H32.4609C31.5009 174.1 30.7242 173.323 30.7242 172.363V51.7578C30.7242 50.7978 31.5009 50.0211 32.4609 50.0211H51.7578C52.7178 50.0211 53.4945 50.7978 53.4945 51.7578V101.717L82.2083 84.0463C82.7438 83.7135 83.4192 83.7038 83.9643 84.0077C84.5143 84.3213 84.8519 84.9002 84.8519 85.5274V101.833L116.021 84.0222C116.562 83.7135 117.218 83.7183 117.753 84.027C118.289 84.3358 118.621 84.9099 118.621 85.5322V101.722L147.33 84.0512C147.861 83.7183 148.541 83.7086 149.086 84.0126C149.636 84.3213 149.979 84.9002 149.979 85.5274V117.56H157.09C159.386 117.56 165.194 118.033 169.551 122.399C172.58 125.433 174.11 129.577 174.1 134.705ZM149.979 127.209H156.612C160.935 127.209 164.452 130.682 164.452 134.947V170.627H170.622V134.705C170.631 130.528 169.445 127.213 167.09 124.854C164.707 122.466 160.964 121.038 157.09 121.038H149.979V127.209ZM149.979 130.682V170.622H160.973V134.942C160.973 132.592 159.019 130.677 156.612 130.677H149.979V130.682ZM34.1977 53.4946V83.7906H50.0211V53.4946H34.1977ZM50.0211 170.627V87.2641H34.1977V170.627H50.0211ZM53.4945 170.627H88.6148V143.418C88.6148 142.458 89.3915 141.681 90.3516 141.681H109.648C110.608 141.681 111.385 142.458 111.385 143.418V170.627H146.501V88.6342L117.792 106.305C117.261 106.628 116.586 106.648 116.036 106.344C115.491 106.035 115.148 105.456 115.148 104.824V88.5184L83.9788 106.329C83.4384 106.628 82.7824 106.633 82.2469 106.325C81.7066 106.016 81.3785 105.442 81.3785 104.824V88.6342L53.4945 105.794V170.627ZM107.912 145.155H92.0883V170.622H107.912V145.155ZM90.3516 130.682C91.3116 130.682 92.0883 129.905 92.0883 128.945V119.297C92.0883 118.337 91.3116 117.56 90.3516 117.56C89.3915 117.56 88.6148 118.337 88.6148 119.297V128.945C88.6148 129.905 89.3915 130.682 90.3516 130.682ZM109.648 130.682C110.608 130.682 111.385 129.905 111.385 128.945V119.297C111.385 118.337 110.608 117.56 109.648 117.56C108.688 117.56 107.912 118.337 107.912 119.297V128.945C107.912 129.905 108.688 130.682 109.648 130.682ZM128.945 130.682C129.905 130.682 130.682 129.905 130.682 128.945V119.297C130.682 118.337 129.905 117.56 128.945 117.56C127.985 117.56 127.209 118.337 127.209 119.297V128.945C127.209 129.905 127.985 130.682 128.945 130.682Z" stroke="#C0CD30" stroke-opacity="0.25" stroke-width="3.43056" mask="url(#path-1-outside-1_1360_2144)"/>
</svg>
