<svg width="100" height="100" viewBox="0 0 100 100" fill="none" xmlns="http://www.w3.org/2000/svg">
<path d="M79.0582 48.2693V41.5019C80.4997 40.9841 81.5337 39.6041 81.5337 37.9867C81.5337 36.3426 80.465 34.9442 78.9862 34.447C78.706 31.8667 77.3995 29.5298 75.3031 27.9222L55.8025 12.9675C54.1238 11.6804 52.1179 11 50.0013 11C47.8848 11 45.8788 11.6804 44.2002 12.9675L24.6997 27.9221C22.6033 29.5298 21.2967 31.8666 21.0167 34.447C19.5379 34.9441 18.4692 36.3424 18.4692 37.9867C18.4692 39.6041 19.5031 40.9842 20.9446 41.502L20.9449 48.2694C17.2037 52.2156 15.1499 57.361 15.1499 62.8172C15.1499 67.9553 17.0151 72.91 20.402 76.7688L26.0853 83.2455V87.7552C26.0853 88.4426 26.6426 88.9998 27.33 88.9998H72.6726C73.3601 88.9998 73.9172 88.4426 73.9172 87.7552V83.2455L79.6006 76.7688C82.9875 72.9099 84.8526 67.9552 84.8526 62.8172C84.8528 57.3615 82.799 52.2159 79.0582 48.2693ZM26.2145 29.8977L45.7148 14.9431C46.9551 13.9922 48.4371 13.4895 50.0012 13.4895C51.5652 13.4895 53.0473 13.9922 54.2874 14.943L73.7879 29.8977C75.2102 30.9883 76.1413 32.5325 76.4454 34.2526H23.557C23.8612 32.5325 24.7922 30.9883 26.2145 29.8977ZM22.2031 36.742H77.7996C78.486 36.742 79.0442 37.3004 79.0442 37.9867C79.0442 38.6731 78.4859 39.2313 77.7996 39.2313H22.2031C21.5167 39.2313 20.9585 38.673 20.9585 37.9867C20.9585 37.3002 21.5167 36.742 22.2031 36.742ZM77.7295 75.1271L72.1087 81.5324H37.2875C36.6001 81.5324 36.0428 82.0897 36.0428 82.7771C36.0428 83.4644 36.6001 84.0217 37.2875 84.0217H71.4278V86.5105H28.5746V84.0217H32.3087C32.9961 84.0217 33.5534 83.4644 33.5534 82.7771C33.5534 82.0897 32.9961 81.5324 32.3087 81.5324H27.8936L22.2729 75.1271C19.2848 71.7227 17.6392 67.351 17.6392 62.8175C17.6392 57.8501 19.5686 53.1745 23.0722 49.652C23.3122 49.4107 23.438 49.0878 23.4344 48.7603C23.4341 48.5437 23.4339 44.5849 23.4339 41.7209H76.5688V48.7742C76.5688 49.1031 76.6989 49.4186 76.9309 49.652C80.4342 53.1748 82.3635 57.8504 82.3635 62.8177C82.3635 67.3508 80.7179 71.7227 77.7295 75.1271Z" fill="#0F7275"/>
<path d="M79.2757 46.8325H20.7271C19.8458 46.8325 19.1313 47.547 19.1313 48.4282C19.1313 49.3095 19.8458 50.0239 20.7271 50.0239H79.2759C80.1573 50.0239 80.8716 49.3095 80.8716 48.4282C80.8716 47.547 80.157 46.8325 79.2757 46.8325Z" fill="#0F7275"/>
<path d="M45.7281 24.1914C46.6094 24.1914 47.3238 23.477 47.3238 22.5957C47.3238 21.7144 46.6094 21 45.7281 21C44.8468 21 44.1323 21.7144 44.1323 22.5957C44.1323 23.477 44.8468 24.1914 45.7281 24.1914Z" fill="#0F7275"/>
<path d="M36.7012 29.1914C37.5825 29.1914 38.297 28.477 38.297 27.5957C38.297 26.7144 37.5825 26 36.7012 26C35.8199 26 35.1055 26.7144 35.1055 27.5957C35.1055 28.477 35.8199 29.1914 36.7012 29.1914Z" fill="#0F7275"/>
<path d="M59.7701 27.1914C60.6514 27.1914 61.3658 26.477 61.3658 25.5957C61.3658 24.7144 60.6514 24 59.7701 24C58.8888 24 58.1743 24.7144 58.1743 25.5957C58.1743 26.477 58.8888 27.1914 59.7701 27.1914Z" fill="#0F7275"/>
<path d="M48.7074 71.7129C48.6201 72.0403 48.118 72.0003 47.9998 71.682C47.9143 71.4491 47.8379 71.249 47.7578 71.0489C46.8828 68.8679 44.8436 67.4563 42.7425 67.5745C41.2562 67.6582 40.7287 68.5786 41.4309 69.9066C42.1567 71.28 43.3373 72.1131 44.8363 72.3387C45.8095 72.486 46.8228 72.3805 47.9707 72.3696C48.0562 72.3696 48.1216 72.4533 48.0962 72.5369C47.4376 74.6944 45.9642 76.2752 44.9545 78.1634C44.8854 78.2925 45.0127 78.438 45.151 78.3944C45.3748 78.3234 45.5658 78.2107 45.6695 78.0451C46.4917 76.7336 47.2903 75.4056 48.0471 74.0541C48.7038 72.8808 48.782 72.8207 50.0572 73.2609C52.2984 74.0359 54.7142 73.4465 55.9894 71.8148C56.9681 70.5632 56.6588 69.6191 55.138 69.2135C53.1661 68.6878 50.7939 69.8192 49.5551 71.8748C49.446 72.0549 49.2604 72.0749 49.0912 72.1331C48.9894 72.1695 49.0949 71.8803 49.124 71.7766C49.4496 70.6251 49.888 70.0448 50.2555 68.897C50.5411 68.002 50.7976 67.7018 51.8163 68.1257C54.0229 69.0425 56.6807 68.2894 57.8886 66.594C58.7508 65.3825 58.3652 64.3784 56.899 64.1092C54.7378 63.7144 53.0642 64.5748 51.7435 66.2302C51.498 66.5376 51.2942 66.8796 51.0341 67.2998C50.9722 67.3999 50.8158 67.338 50.8394 67.2216C51.0468 66.232 51.1832 65.3825 51.347 64.5421C51.5398 63.558 51.8254 63.3197 52.8223 63.5416C54.9416 64.0164 57.3392 62.8649 58.2979 61.0695C59.031 59.6924 58.5034 58.7465 56.9644 58.6847C54.9652 58.6046 53.0879 59.827 52.151 61.8244C52.0291 62.0827 51.9163 62.3446 51.7908 62.6302C51.7472 62.7321 51.5816 62.703 51.5889 62.5939C51.6762 61.3569 51.8327 60.4073 52.5858 59.405C53.7919 57.7988 54.0065 55.8833 52.9278 54.0642C52.6349 53.5694 51.9673 52.9946 51.4779 53C50.985 53.0055 50.3137 53.5858 50.0426 54.0897C48.9639 56.0834 49.3314 58.0152 50.6102 59.8052C51.3506 60.8403 51.4015 61.3587 51.256 62.5156C51.2396 62.6466 51.0468 62.6593 50.9995 62.5357C50.9031 62.2919 50.814 62.0645 50.7194 61.8389C49.7843 59.6324 47.6468 58.2626 45.5221 58.5064C44.3706 58.6392 43.8794 59.3923 44.3069 60.4637C44.9182 61.9954 46.1188 62.9322 47.685 63.2123C48.6619 63.387 49.6879 63.2778 50.8813 63.2542C51.0886 63.2505 51.1432 63.5398 51.1032 63.7435C50.8667 64.935 50.7448 65.9646 50.5229 67.087C50.4992 67.207 50.3464 67.2543 50.2628 67.1634C49.9935 66.8742 49.8571 66.5831 49.7116 66.2975C48.6601 64.2456 46.6008 63.0523 44.5016 63.276C43.0826 63.427 42.5642 64.3638 43.2482 65.5808C43.9322 66.7996 45.0146 67.5763 46.3571 67.7637C47.4831 67.9201 48.6456 67.8128 49.8898 67.8001C50.0081 67.8001 50.0317 68.0711 49.9953 68.1839C49.5951 69.419 49.0749 70.3268 48.7038 71.7093L48.7074 71.7129Z" stroke="#0F7275" stroke-width="1.5" stroke-miterlimit="10" stroke-linecap="round"/>
</svg>
