<svg width="26" height="24" viewBox="0 0 26 24" fill="none" xmlns="http://www.w3.org/2000/svg">
<g filter="url(#filter0_d_532_7305)">
<g clip-path="url(#clip0_532_7305)">
<path d="M23.0216 17.828C22.9642 16.1521 22.4892 14.5155 21.639 13.0746L15.296 2.32322C14.8143 1.50702 13.9273 1 12.9811 1C12.0349 1 11.1479 1.50706 10.6661 2.32326L7.85082 7.09523C7.75246 7.26192 7.80788 7.47683 7.97457 7.57518C8.1413 7.6735 8.35612 7.61812 8.45452 7.45143L11.2698 2.67946C11.626 2.07589 12.2818 1.70095 12.9811 1.70095C13.6804 1.70095 14.3361 2.07589 14.6924 2.67942L21.0354 13.4308C21.821 14.7622 22.2616 16.2735 22.3196 17.8221H3.64257C3.70052 16.2736 4.14123 14.7622 4.9268 13.4308L7.74216 8.65875C7.84052 8.49206 7.7851 8.27716 7.61841 8.1788C7.45159 8.0804 7.23682 8.13586 7.13846 8.30255L4.32314 13.0745C3.47292 14.5154 2.99791 16.152 2.94051 17.8279C2.41269 17.8836 2 18.3312 2 18.8735C2 19.4429 2.45499 19.9076 3.02043 19.9241L3.22276 20.6322C3.37143 21.1527 3.91191 21.5603 4.4532 21.5603H21.5089C22.0502 21.5603 22.5907 21.1526 22.7394 20.6322L22.9417 19.9241C23.5072 19.9076 23.9622 19.4429 23.9622 18.8735C23.9622 18.3312 23.5495 17.8835 23.0216 17.828ZM22.0654 20.4397C22.0027 20.6594 21.7375 20.8594 21.509 20.8594H4.45324C4.22474 20.8594 3.95952 20.6593 3.89677 20.4397L3.74968 19.9249H22.2126L22.0654 20.4397ZM22.9108 19.2239H3.0514C2.85811 19.2239 2.70094 19.0667 2.70094 18.8735C2.70094 18.6802 2.85815 18.523 3.0514 18.523H22.9108C23.1041 18.523 23.2613 18.6802 23.2613 18.8735C23.2613 19.0668 23.1041 19.2239 22.9108 19.2239Z" fill="#0F7275"/>
<path d="M8.58495 13.4353C8.7785 13.4353 8.9354 13.2772 8.9354 13.0821C8.9354 12.8871 8.7785 12.729 8.58495 12.729C8.3914 12.729 8.2345 12.8871 8.2345 13.0821C8.2345 13.2772 8.3914 13.4353 8.58495 13.4353Z" fill="#0F7275"/>
<path d="M7.18431 14.8481C7.37786 14.8481 7.53476 14.69 7.53476 14.495C7.53476 14.2999 7.37786 14.1418 7.18431 14.1418C6.99076 14.1418 6.83386 14.2999 6.83386 14.495C6.83386 14.69 6.99076 14.8481 7.18431 14.8481Z" fill="#0F7275"/>
<path d="M9.25609 14.8901C9.44964 14.8901 9.60654 14.732 9.60654 14.537C9.60654 14.3419 9.44964 14.1838 9.25609 14.1838C9.06254 14.1838 8.90564 14.3419 8.90564 14.537C8.90564 14.732 9.06254 14.8901 9.25609 14.8901Z" fill="#0F7275"/>
<path d="M18.0054 15.1254C18.1989 15.1254 18.3558 14.9673 18.3558 14.7723C18.3558 14.5773 18.1989 14.4192 18.0054 14.4192C17.8118 14.4192 17.6549 14.5773 17.6549 14.7723C17.6549 14.9673 17.8118 15.1254 18.0054 15.1254Z" fill="#0F7275"/>
<path d="M19.4077 16.5378C19.6012 16.5378 19.7582 16.3797 19.7582 16.1847C19.7582 15.9896 19.6012 15.8315 19.4077 15.8315C19.2142 15.8315 19.0573 15.9896 19.0573 16.1847C19.0573 16.3797 19.2142 16.5378 19.4077 16.5378Z" fill="#0F7275"/>
<path d="M12.98 5.2375C13.1735 5.2375 13.3304 5.0794 13.3304 4.88438C13.3304 4.68935 13.1735 4.53125 12.98 4.53125C12.7864 4.53125 12.6295 4.68935 12.6295 4.88438C12.6295 5.0794 12.7864 5.2375 12.98 5.2375Z" fill="#0F7275"/>
</g>
</g>
<defs>
<filter id="filter0_d_532_7305" x="0.692728" y="0.215637" width="24.5767" height="24.7444" filterUnits="userSpaceOnUse" color-interpolation-filters="sRGB">
<feFlood flood-opacity="0" result="BackgroundImageFix"/>
<feColorMatrix in="SourceAlpha" type="matrix" values="0 0 0 0 0 0 0 0 0 0 0 0 0 0 0 0 0 0 127 0" result="hardAlpha"/>
<feOffset dy="0.522909"/>
<feGaussianBlur stdDeviation="0.653636"/>
<feComposite in2="hardAlpha" operator="out"/>
<feColorMatrix type="matrix" values="0 0 0 0 0 0 0 0 0 0 0 0 0 0 0 0 0 0 0.1 0"/>
<feBlend mode="normal" in2="BackgroundImageFix" result="effect1_dropShadow_532_7305"/>
<feBlend mode="normal" in="SourceGraphic" in2="effect1_dropShadow_532_7305" result="shape"/>
</filter>
<clipPath id="clip0_532_7305">
<rect x="2" y="1" width="21.9622" height="22.1298" rx="3.26818" fill="white"/>
</clipPath>
</defs>
</svg>
