<svg width="75" height="75" viewBox="0 0 75 75" fill="none" xmlns="http://www.w3.org/2000/svg">
<path d="M39.011 27.3796C39.1168 26.2657 39.0586 26.9298 39.1063 25.7656C39.3576 19.7462 34.2246 14.854 28.2026 14.854C22.1806 14.854 17.291 19.7409 17.291 25.7656C17.291 31.7903 22.1779 36.6693 28.2026 36.6693C29.8695 36.6693 29.8166 36.6693 31.6158 36.1268" stroke="#0F7275" stroke-width="1.6693" stroke-miterlimit="10" stroke-linecap="round"/>
<path d="M27.5491 6.2442V11.4433" stroke="#0F7275" stroke-width="1.6693" stroke-miterlimit="10" stroke-linecap="round"/>
<path d="M13.0497 26.046H7.85059" stroke="#0F7275" stroke-width="1.6693" stroke-miterlimit="10" stroke-linecap="round"/>
<path d="M37.9263 15.5339L41.604 11.8588" stroke="#0F7275" stroke-width="1.6693" stroke-miterlimit="10" stroke-linecap="round"/>
<path d="M13.9652 40.085L17.6403 36.4099" stroke="#0F7275" stroke-width="1.6693" stroke-miterlimit="10" stroke-linecap="round"/>
<path d="M13.9652 11.8588L17.6403 15.5339" stroke="#0F7275" stroke-width="1.6693" stroke-miterlimit="10" stroke-linecap="round"/>
<path d="M40.6435 53.7906C40.4821 54.3913 39.5639 54.3172 39.3496 53.7351C39.1935 53.3091 39.0533 52.9413 38.9078 52.5762C37.307 48.5809 33.571 45.9959 29.7239 46.2155C27.0013 46.369 26.0382 48.0517 27.3215 50.4859C28.6497 53.0022 30.814 54.5262 33.5578 54.9416C35.3411 55.2115 37.1959 55.0157 39.2967 54.9972C39.4555 54.9972 39.5745 55.1506 39.5269 55.3014C38.3204 59.2544 35.6242 62.1463 33.7748 65.6071C33.6478 65.8426 33.8806 66.1098 34.1346 66.0278C34.5421 65.8955 34.8913 65.6918 35.0818 65.3902C36.5873 62.9877 38.0505 60.5561 39.4343 58.0796C40.6355 55.9312 40.781 55.82 43.1174 56.627C47.2211 58.0452 51.645 56.9683 53.9813 53.9811C55.7726 51.6898 55.2064 49.9594 52.4229 49.2186C48.8113 48.2555 43.9958 50.1314 41.7283 53.8965C41.5298 54.2246 40.5879 55.4628 40.281 55.5713C40.0931 55.6375 41.3578 54.1055 41.4108 53.915C42.0061 51.8062 42.8104 50.7426 43.4825 48.6418C44.0037 47.004 44.4773 46.4536 46.34 47.2289C50.3803 48.909 55.2487 47.5305 57.4606 44.4242C59.0402 42.207 58.3338 40.3655 55.6482 39.8733C51.6926 39.151 48.6261 40.7253 46.2077 43.7575C45.7579 44.3211 45.3849 44.9481 44.9086 45.7181C44.7948 45.9033 44.5091 45.7869 44.5541 45.5752C44.9351 43.7628 45.1811 42.2096 45.4828 40.6697C45.8373 38.8679 46.3586 38.4287 48.1842 38.8388C52.0657 39.7066 56.4579 37.6005 58.2094 34.3091C59.5535 31.7875 58.5851 30.0545 55.7699 29.9434C52.1107 29.7978 48.671 32.0362 46.9539 35.6928C46.7316 36.1665 46.131 37.3492 45.9035 37.873C45.8214 38.0583 45.4087 38.7515 45.4246 38.5504C45.586 36.2855 46.3744 33.0972 47.7529 31.2637C49.9622 28.3241 50.3538 24.8157 48.3774 21.4845C47.8402 20.577 46.6178 19.5265 45.7235 19.5371C44.8187 19.5477 43.591 20.6114 43.0935 21.5321C41.1171 25.1834 41.7891 28.721 44.1334 31.9992C45.4907 33.8937 45.5807 34.8462 45.3161 36.9629C45.287 37.2036 44.9324 37.2248 44.8451 36.9973C44.6705 36.5501 44.5064 36.1347 44.3318 35.722C42.6199 31.6817 38.704 29.1734 34.8146 29.6206C32.7085 29.864 31.8089 31.2451 32.5894 33.2031C33.7086 36.0077 35.9073 37.7249 38.7755 38.2355C40.5641 38.5557 42.4427 38.3546 44.6281 38.3123C45.0065 38.3043 45.1071 38.8361 45.033 39.2066C44.6017 41.3868 44.3503 44.1253 43.9429 46.1811C43.8979 46.4007 43.6465 45.6361 43.4931 45.4694C42.9983 44.9402 42.7496 44.4084 42.4823 43.8845C40.5561 40.1247 36.7858 37.9418 32.9413 38.352C30.3431 38.6271 29.3958 40.3443 30.6473 42.5748C31.9015 44.8079 33.8832 46.2287 36.3413 46.57C38.4024 46.8558 40.5297 46.66 42.8104 46.6362C43.0274 46.6362 43.0724 47.131 43.0036 47.3373C42.2733 49.5969 41.3182 51.2612 40.6382 53.7906H40.6435Z" stroke="#0F7275" stroke-width="1.50793" stroke-miterlimit="10" stroke-linecap="round"/>
<path d="M27.5488 43.9903V41.8154" stroke="#0F7275" stroke-width="1.6693" stroke-miterlimit="10" stroke-linecap="round"/>
</svg>
