<?xml version="1.0" encoding="UTF-8"?>
<svg version="1.1" xmlns="http://www.w3.org/2000/svg" width="568" height="570">
<path d="M0 0 C187.44 0 374.88 0 568 0 C568 188.1 568 376.2 568 570 C380.56 570 193.12 570 0 570 C0 381.9 0 193.8 0 0 Z " fill="#4D7477" transform="translate(0,0)"/>
<path d="M0 0 C1.09441406 0.90492188 1.09441406 0.90492188 2.2109375 1.828125 C3.30535156 2.70210937 3.30535156 2.70210937 4.421875 3.59375 C18.49114186 15.34282197 28.5315933 32.17634142 33.2109375 49.828125 C33.38681396 50.45799316 33.56269043 51.08786133 33.74389648 51.73681641 C35.41829905 58.30488195 35.55739552 64.69941539 35.5234375 71.453125 C35.51606567 73.18018677 35.51606567 73.18018677 35.50854492 74.94213867 C35.12813468 102.65356167 23.33200727 124.83671259 4.05859375 144.24609375 C2.2109375 145.828125 2.2109375 145.828125 0.2109375 145.828125 C0.2109375 146.488125 0.2109375 147.148125 0.2109375 147.828125 C1.3659375 148.158125 2.5209375 148.488125 3.7109375 148.828125 C22.93828884 155.30756158 39.35016569 167.32967378 54.2109375 180.828125 C54.93539063 181.46878906 55.65984375 182.10945312 56.40625 182.76953125 C75.94346305 201.03968655 93.95756911 231.73109898 96.5859375 258.671875 C96.91875449 269.07240579 95.15125213 277.56331165 87.91015625 285.296875 C79.60564991 292.78047612 71.17702726 294.1276494 60.35151672 294.10900879 C59.26777761 294.11495103 58.1840385 294.12089328 57.06745881 294.12701559 C53.44118131 294.14433903 49.81503627 294.14740176 46.1887207 294.15039062 C43.58649922 294.15965052 40.98428045 294.16970032 38.38206482 294.18048096 C31.3157901 294.20758361 24.24953818 294.2196868 17.18322015 294.22850227 C12.76669033 294.23403756 8.35016919 294.24251411 3.93364525 294.25151062 C-8.30706958 294.27588683 -20.54777748 294.29648775 -32.78851604 294.3032608 C-33.96244605 294.3039195 -33.96244605 294.3039195 -35.16009181 294.30459151 C-35.94452576 294.30502806 -36.72895971 294.30546462 -37.53716439 294.3059144 C-39.1265829 294.30680132 -40.71600141 294.30769444 -42.30541992 294.30859375 C-43.48801586 294.30925804 -43.48801586 294.30925804 -44.69450263 294.30993575 C-57.46391266 294.31782864 -70.23309422 294.35273117 -83.00241604 294.39931279 C-96.12892871 294.44680891 -109.25532688 294.4716676 -122.38192683 294.47399664 C-129.745459 294.47582622 -137.10869335 294.48723117 -144.47214317 294.52363586 C-151.40061315 294.55777075 -158.32851042 294.56089203 -165.25704002 294.54335785 C-167.79502373 294.54181895 -170.333038 294.55047843 -172.87094498 294.57027435 C-199.96021053 294.7691247 -199.96021053 294.7691247 -211.2890625 283.640625 C-217.57969179 275.8297603 -219.53744905 267.68552301 -218.7890625 257.828125 C-218.20677733 254.45832586 -217.33248033 251.22714235 -216.3515625 247.953125 C-215.95275879 246.60118042 -215.95275879 246.60118042 -215.54589844 245.22192383 C-208.92282857 223.68569577 -198.10947366 204.33310403 -182.7890625 187.828125 C-182.25796875 187.25320313 -181.726875 186.67828125 -181.1796875 186.0859375 C-164.46121918 168.19561392 -144.91079148 156.89806458 -122.7890625 146.828125 C-123.39492187 146.32925781 -124.00078125 145.83039063 -124.625 145.31640625 C-143.01332403 129.55902704 -155.85539027 106.16016727 -157.7890625 81.828125 C-158.45527308 70.3897191 -157.60041734 59.96844699 -154.7890625 48.828125 C-154.59570312 47.961875 -154.40234375 47.095625 -154.203125 46.203125 C-148.7827434 24.80317687 -132.0330152 5.38749343 -113.7890625 -6.171875 C-112.65791016 -6.93757812 -112.65791016 -6.93757812 -111.50390625 -7.71875 C-77.56688767 -29.70132631 -30.88050652 -24.92111052 0 0 Z " fill="#C5C86A" transform="translate(345.7890625,149.171875)"/>
<path d="M0 0 C2.97287542 2.65122305 5.82582862 5.41281437 8.67578125 8.1953125 C9.4028125 8.86046875 10.12984375 9.525625 10.87890625 10.2109375 C21.06501249 19.75539925 33.85184425 36.75418733 34.42578125 51.3203125 C34.02199993 55.8850945 32.89266873 58.81345643 29.67578125 62.1953125 C24.18080533 65.97882062 20.27973624 66.77666425 13.68763733 66.7099762 C12.36406169 66.72039449 12.36406169 66.72039449 11.01374716 66.73102325 C8.06888184 66.74926088 5.12482507 66.73903792 2.17993164 66.72875977 C0.0638214 66.73581986 -2.05228379 66.74456526 -4.16838074 66.75486755 C-9.90807257 66.7773609 -15.64748864 66.77442184 -21.38720775 66.76554608 C-26.18102214 66.76043443 -30.97478479 66.76773022 -35.76859385 66.77501816 C-47.07844129 66.792017 -58.3881538 66.78845137 -69.69799805 66.77172852 C-81.36163177 66.75480544 -93.02489128 66.77064458 -104.68848413 66.8029514 C-114.70737918 66.82965014 -124.72615777 66.83692254 -134.74508482 66.82843632 C-140.72681296 66.8235082 -146.70831593 66.82571684 -152.69001579 66.84622383 C-158.31509927 66.86458526 -163.93964458 66.85861602 -169.56469917 66.83402443 C-171.62702796 66.82901815 -173.68939779 66.83250149 -175.75169373 66.84517288 C-178.57144296 66.86112542 -181.38942478 66.84613177 -184.20909119 66.82350159 C-185.02145845 66.83533732 -185.83382571 66.84717304 -186.67081016 66.85936743 C-192.61520526 66.76271941 -196.74573071 65.0118475 -201.32421875 61.1953125 C-204.69436105 57.30733016 -205.69730977 53.45691868 -205.58740234 48.32495117 C-205.1355689 44.66878872 -203.61504665 41.72289566 -201.88671875 38.5078125 C-201.52618408 37.81719727 -201.16564941 37.12658203 -200.79418945 36.41503906 C-185.3271836 7.47225868 -159.50482451 -13.2038385 -128.20703125 -22.96875 C-85.71967593 -35.28893162 -34.46887127 -29.74471125 0 0 Z " fill="#4D7477" transform="translate(370.32421875,345.8046875)"/>
<path d="M0 0 C12.82710212 9.99033915 22.37501115 23.68903398 25.15625 39.96484375 C26.98648135 58.33224916 23.79670284 74.91883368 12.08984375 89.546875 C0.22430484 103.31090014 -14.72545553 111.77748555 -32.84375 113.96484375 C-52.35783457 115.08362258 -69.68893937 109.31285982 -84.44921875 96.3671875 C-96.43985386 84.33743123 -103.67751121 68.03126248 -104.21875 51.02734375 C-103.65938312 34.61207722 -97.76561918 18.93652585 -86.18359375 7.13671875 C-61.90478156 -15.39920709 -27.56514263 -19.7272518 0 0 Z " fill="#4D7477" transform="translate(323.84375,172.03515625)"/>
</svg>
