<svg width="52" height="50" viewBox="0 0 52 50" fill="none" xmlns="http://www.w3.org/2000/svg">
<path d="M51.4311 29.465C49.926 27.3672 48.3928 27.3105 44.5778 29.3161L37.0252 33.93C36.1678 34.3842 34.3641 34.6392 31.8463 34.7002C31.7288 34.703 31.6124 34.7055 31.4959 34.7076C31.8875 33.8966 31.6988 32.9031 30.9721 31.8182C29.6122 29.7879 27.2622 28.5887 24.7546 28.5887H21.381C19.5495 28.5887 17.8051 28.0354 16.4244 26.9949C15.2252 26.0905 13.6651 25.438 11.8294 24.9907C10.5008 24.6671 9.08819 24.4656 7.66021 24.3616C7.06903 24.3186 6.52823 24.2954 6.05494 24.2868V21.6686H0V49.3733H6.05504V46.7783H17.3C19.0742 46.7783 20.8426 46.6448 22.5911 46.3783L33.8033 44.6732C34.208 44.6685 34.6101 44.6216 35.0096 44.535C36.0525 44.3843 37.0366 43.8759 37.8501 43.1097L50.9616 32.8991C52.002 32.0365 52.2033 30.5411 51.4311 29.465ZM4.32509 47.6432H1.73006V23.3987H4.32509V24.3158H4.32489V46.7783H4.32509V47.6432ZM49.8861 31.5438L36.7538 41.7707L36.6876 41.8278C36.1147 42.3754 35.4392 42.727 34.7526 42.8241C34.3557 42.9082 34.0455 42.9436 33.7353 42.9436L22.3308 44.6679C20.6684 44.9212 18.9872 45.0482 17.3001 45.0482H6.05504V26.0173C6.49042 26.0258 6.98915 26.0475 7.53462 26.0872C8.87349 26.1847 10.1937 26.3731 11.4201 26.6717C13.0457 27.0677 14.3977 27.6331 15.3831 28.3763C17.072 29.6492 19.1831 30.3189 21.3812 30.3189H24.7548C26.6968 30.3189 28.5031 31.2406 29.535 32.7811C30.0075 33.4864 30.0427 33.8362 29.8898 34.0309C29.714 34.2545 29.2379 34.4565 28.556 34.572C27.9573 34.6733 27.3092 34.6971 26.75 34.6758C26.7475 34.6757 26.7449 34.6795 26.7421 34.6851C26.6869 34.6741 26.6298 34.6681 26.5713 34.6681H18.1651C15.5803 34.6682 13.8402 35.8071 13.8402 38.1281C13.8402 38.6058 14.2275 38.9931 14.7052 38.9931C15.183 38.9931 15.5702 38.6058 15.5702 38.1281C15.5702 36.9544 16.4203 36.398 18.1652 36.398H26.5712C26.949 36.398 27.0897 36.4002 28.2881 36.4217C29.8559 36.4499 30.8263 36.4554 31.8883 36.4297C34.6727 36.3621 36.6614 36.0809 37.8824 35.4318L45.4314 30.8198C48.523 29.1965 49.1253 29.2188 50.0255 30.4735C50.2633 30.805 50.2027 31.274 49.8861 31.5438Z" fill="#0F7275"/>
<g clip-path="url(#clip0_819_4368)">
<path d="M24.6688 15.0675C24.9636 15.0675 25.2026 14.8286 25.2026 14.5338C25.2026 14.239 24.9636 14 24.6688 14C24.374 14 24.135 14.239 24.135 14.5338C24.135 14.8286 24.374 15.0675 24.6688 15.0675Z" fill="#0F7275"/>
<path d="M22.5338 17.2027C22.8286 17.2027 23.0675 16.9637 23.0675 16.6689C23.0675 16.3741 22.8286 16.1351 22.5338 16.1351C22.239 16.1351 22 16.3741 22 16.6689C22 16.9637 22.239 17.2027 22.5338 17.2027Z" fill="#0F7275"/>
<path d="M26.804 17.2027C27.0988 17.2027 27.3377 16.9637 27.3377 16.6689C27.3377 16.3741 27.0988 16.1351 26.804 16.1351C26.5092 16.1351 26.2702 16.3741 26.2702 16.6689C26.2702 16.9637 26.5092 17.2027 26.804 17.2027Z" fill="#0F7275"/>
<path d="M33.9994 15.4116C34.2122 15.4116 34.3847 15.2391 34.3847 15.0263C34.3847 14.8135 34.2122 14.641 33.9994 14.641C33.7866 14.641 33.6141 14.8135 33.6141 15.0263C33.6141 15.2391 33.7866 15.4116 33.9994 15.4116Z" fill="#0F7275"/>
<path d="M35.5406 16.9528C35.7533 16.9528 35.9258 16.7803 35.9258 16.5675C35.9258 16.3547 35.7533 16.1823 35.5406 16.1823C35.3278 16.1823 35.1553 16.3547 35.1553 16.5675C35.1553 16.7803 35.3278 16.9528 35.5406 16.9528Z" fill="#0F7275"/>
<path d="M28.3853 7.77056C28.5981 7.77056 28.7706 7.59807 28.7706 7.38528C28.7706 7.1725 28.5981 7 28.3853 7C28.1725 7 28 7.1725 28 7.38528C28 7.59807 28.1725 7.77056 28.3853 7.77056Z" fill="#0F7275"/>
<path d="M31.2131 3.50611L31.2131 3.50609C30.6905 2.62073 29.7289 2.07095 28.7022 2.07095C27.6756 2.07095 26.7139 2.62078 26.1913 3.50613L26.1913 3.50615L23.2948 8.41573C23.1515 8.65859 23.2323 8.97165 23.4751 9.11494L23.4751 9.11496C23.718 9.25817 24.0309 9.17751 24.1743 8.93469L24.1743 8.93465L27.0708 4.02508C27.0708 4.02508 27.0708 4.02507 27.0708 4.02506C27.4104 3.44969 28.036 3.09211 28.7022 3.09211C29.3685 3.09211 29.9941 3.44968 30.3337 4.02502C30.3337 4.02503 30.3337 4.02504 30.3337 4.02505L36.8596 15.0865L36.9888 15.0102L36.8596 15.0865C37.6288 16.39 38.0715 17.8642 38.1531 19.3782H19.2514C19.3329 17.8642 19.7757 16.39 20.5448 15.0864L20.4157 15.0102L20.5449 15.0864L23.4414 10.1768C23.4414 10.1768 23.4414 10.1768 23.4414 10.1768C23.5847 9.93394 23.504 9.62088 23.2611 9.47759L23.2611 9.47758C23.0181 9.33425 22.7052 9.41505 22.5619 9.65787L22.5619 9.65788L19.6654 14.5674C18.7987 16.0363 18.3056 17.6996 18.2271 19.4056C17.6719 19.525 17.2544 20.0193 17.2544 20.6099C17.2544 21.2394 17.7288 21.7595 18.3388 21.8325L18.5182 22.4605C18.6896 23.0604 19.3045 23.5242 19.9284 23.5242H37.476C38.0999 23.5242 38.7148 23.0603 38.8862 22.4605L39.0656 21.8325C39.6756 21.7595 40.15 21.2394 40.15 20.6099C40.15 20.0193 39.7326 19.525 39.1773 19.4057C39.0988 17.6997 38.6057 16.0364 37.739 14.5675L31.2131 3.50611ZM37.9044 22.18L37.9043 22.18C37.8833 22.2537 37.8232 22.3364 37.7359 22.4022C37.6487 22.468 37.5526 22.5031 37.476 22.5031H19.9284C19.8519 22.5031 19.7558 22.468 19.6686 22.4022C19.5813 22.3364 19.5212 22.2536 19.5001 22.18L19.3563 22.2211L19.5001 22.18L19.4035 21.8416H38.0011L37.9044 22.18ZM38.9183 20.8204H18.4862C18.3702 20.8204 18.2756 20.7259 18.2756 20.6099C18.2756 20.4939 18.3702 20.3993 18.4862 20.3993H38.9183C39.0343 20.3993 39.1289 20.4939 39.1289 20.6099C39.1289 20.7259 39.0343 20.8204 38.9183 20.8204Z" fill="#0F7275" stroke="#0F7275" stroke-width="0.3"/>
</g>
<defs>
<clipPath id="clip0_819_4368">
<rect width="24.1449" height="24.1449" fill="white" transform="translate(16.4044)"/>
</clipPath>
</defs>
</svg>
