<svg width="12" height="12" viewBox="0 0 12 12" fill="none" xmlns="http://www.w3.org/2000/svg">
<path d="M8.44444 11.5H8.56667C9.59346 11.5 10.1068 11.5 10.499 11.3002C10.844 11.1244 11.1244 10.844 11.3002 10.499C11.5 10.1068 11.5 9.59346 11.5 8.56667V3.43333C11.5 2.40657 11.5 1.89319 11.3002 1.50102C11.1244 1.15605 10.844 0.875589 10.499 0.699821C10.1068 0.5 9.59346 0.5 8.56667 0.5H3.43333C2.40657 0.5 1.89319 0.5 1.50102 0.699821C1.15605 0.875589 0.875589 1.15605 0.699821 1.50102C0.5 1.89319 0.5 2.40657 0.5 3.43333V3.55556M5.69444 6.30556L9.05556 2.94444M9.05556 2.94444H6M9.05556 2.94444V6M2.45556 11.5H4.04444C4.72895 11.5 5.07123 11.5 5.33267 11.3668C5.56263 11.2496 5.74963 11.0626 5.86678 10.8327C6 10.5712 6 10.2289 6 9.54444V7.95556C6 7.27105 6 6.92877 5.86678 6.66733C5.74963 6.43737 5.56263 6.25037 5.33267 6.13322C5.07123 6 4.72896 6 4.04444 6H2.45556C1.77105 6 1.42879 6 1.16735 6.13322C0.937366 6.25037 0.750391 6.43737 0.633216 6.66733C0.5 6.92877 0.5 7.27105 0.5 7.95556V9.54444C0.5 10.2289 0.5 10.5712 0.633216 10.8327C0.750391 11.0626 0.937366 11.2496 1.16735 11.3668C1.42879 11.5 1.77104 11.5 2.45556 11.5Z" stroke="#89490D" stroke-linecap="round" stroke-linejoin="round"/>
</svg>
