<svg width="55" height="55" viewBox="0 0 55 55" fill="none" xmlns="http://www.w3.org/2000/svg">
<g clip-path="url(#clip0_691_9354)">
<path d="M49.8927 7.23421L50.5334 6.50638C50.8671 6.12688 50.8304 5.54754 50.45 5.21296C50.0714 4.87929 49.493 4.91596 49.1566 5.29638L48.4352 6.11771C46.842 5.05621 44.9179 4.30363 43.0846 3.93238V1.83321H44.0012C44.5082 1.83321 44.9179 1.42346 44.9179 0.916544C44.9179 0.409628 44.5082 -0.00012207 44.0012 -0.00012207H42.1743C42.1707 -0.00012207 42.1679 -0.00012207 42.1652 -0.00012207H37.5818C37.5791 -0.00012207 37.5763 -0.00012207 37.5727 -0.00012207H35.7512C35.2443 -0.00012207 34.8346 0.409628 34.8346 0.916544C34.8346 1.42346 35.2443 1.83321 35.7512 1.83321H36.6679V4.14779C34.8346 4.55388 33.6292 5.20288 32.3092 6.07004L31.6281 5.29638C31.2926 4.91413 30.7132 4.87929 30.3347 5.21296C29.9542 5.54754 29.9176 6.12688 30.2512 6.50638L30.8379 7.17371C27.6782 9.86596 25.6652 13.8654 25.6652 18.3323C25.6652 26.4191 32.245 32.999 40.3318 32.999C48.4187 32.999 54.9985 26.4191 54.9985 18.3323C54.9985 13.8975 53.013 9.92554 49.8927 7.23421ZM38.5012 1.83321H41.2512V3.66654H38.5012V1.83321ZM40.3318 31.1647C33.2552 31.1647 27.4985 25.408 27.4985 18.3314C27.4985 14.211 29.4583 10.5489 32.4852 8.19854C32.5997 8.16096 32.7088 8.10596 32.8042 8.02163C32.8509 7.98038 32.8766 7.92629 32.9132 7.87863C35.0106 6.38538 37.5672 5.49804 40.3318 5.49804C47.4085 5.49804 53.1652 11.2547 53.1652 18.3314C53.1652 25.408 47.4085 31.1647 40.3318 31.1647Z" fill="#0F7275"/>
<path d="M40.332 7.33142C34.2664 7.33142 29.332 12.2658 29.332 18.3314C29.332 24.397 34.2664 29.3314 40.332 29.3314C46.3976 29.3314 51.332 24.397 51.332 18.3314C51.332 12.2658 46.3976 7.33142 40.332 7.33142ZM40.332 27.4981C35.2775 27.4981 31.1653 23.3859 31.1653 18.3314C31.1653 13.2769 35.2775 9.16475 40.332 9.16475C45.3865 9.16475 49.4986 13.2769 49.4986 18.3314C49.4986 23.3859 45.3865 27.4981 40.332 27.4981Z" fill="#0F7275"/>
<path d="M40.3347 11.9165C39.8278 11.9165 39.4181 12.3263 39.4181 12.8332V18.3332H36.6681C36.1612 18.3332 35.7514 18.7429 35.7514 19.2498C35.7514 19.7568 36.1612 20.1665 36.6681 20.1665H40.3347C40.8417 20.1665 41.2514 19.7568 41.2514 19.2498V12.8332C41.2514 12.3263 40.8417 11.9165 40.3347 11.9165Z" fill="#0F7275"/>
<path d="M13.7512 34.8333C13.7512 34.3264 13.3406 33.9166 12.8346 33.9166H4.58457C4.07857 33.9166 3.66791 34.3264 3.66791 34.8333C3.66791 35.3402 4.07857 35.75 4.58457 35.75H12.8346C13.3406 35.75 13.7512 35.3402 13.7512 34.8333Z" fill="#0F7275"/>
<path d="M4.58457 39.4166H9.16791C9.67391 39.4166 10.0846 39.0068 10.0846 38.4999C10.0846 37.993 9.67391 37.5833 9.16791 37.5833H4.58457C4.07857 37.5833 3.66791 37.993 3.66791 38.4999C3.66791 39.0068 4.07857 39.4166 4.58457 39.4166Z" fill="#0F7275"/>
<path d="M24.7512 46.7499C24.7512 47.2568 25.1619 47.6666 25.6679 47.6666H31.1679C31.6748 47.6666 32.0846 47.2568 32.0846 46.7499C32.0846 46.243 31.6748 45.8333 31.1679 45.8333H25.6679C25.1619 45.8333 24.7512 46.243 24.7512 46.7499Z" fill="#0F7275"/>
<path d="M34.8346 49.4999H25.6679C25.1619 49.4999 24.7512 49.9096 24.7512 50.4165C24.7512 50.9235 25.1619 51.3332 25.6679 51.3332H34.8346C35.3415 51.3332 35.7512 50.9235 35.7512 50.4165C35.7512 49.9096 35.3415 49.4999 34.8346 49.4999Z" fill="#0F7275"/>
<path d="M3.66791 48.5832C3.66791 50.0994 4.90174 51.3332 6.41791 51.3332H11.9179C12.4239 51.3332 12.8346 50.9235 12.8346 50.4165V46.7499C12.8346 45.2337 11.6007 43.9999 10.0846 43.9999H4.58457C4.07857 43.9999 3.66791 44.4096 3.66791 44.9165V48.5832ZM5.50124 45.8332H10.0846C10.5897 45.8332 11.0012 46.2439 11.0012 46.7499V49.4999H6.41791C5.91282 49.4999 5.50124 49.0892 5.50124 48.5832V45.8332Z" fill="#0F7275"/>
<path d="M35.7513 36.6666C35.7513 35.1505 34.5175 33.9166 33.0013 33.9166H27.5013C26.9953 33.9166 26.5847 34.3264 26.5847 34.8333V38.5C26.5847 40.0161 27.8185 41.25 29.3347 41.25H34.8347C35.3416 41.25 35.7513 40.8402 35.7513 40.3333V36.6666ZM33.918 39.4166H29.3347C28.8287 39.4166 28.418 39.006 28.418 38.5V35.75H33.0013C33.5073 35.75 33.918 36.1606 33.918 36.6666V39.4166Z" fill="#0F7275"/>
<path d="M49.5013 32.0832C48.9944 32.0832 48.5847 32.4929 48.5847 32.9998V53.1665H46.7513V48.5832C46.7513 48.0763 46.3416 47.6665 45.8347 47.6665H42.168C41.6611 47.6665 41.2513 48.0763 41.2513 48.5832V53.1665H39.418V35.7498C39.418 35.2429 39.0083 34.8332 38.5013 34.8332C37.9944 34.8332 37.5847 35.2429 37.5847 35.7498V53.1665H22.918V48.5832C22.918 48.0763 22.5073 47.6665 22.0013 47.6665H16.5013C15.9953 47.6665 15.5847 48.0763 15.5847 48.5832V53.1665H1.83468V27.4998H15.5847V33.9165C15.5847 34.4234 15.9953 34.8332 16.5013 34.8332H22.0013C22.5073 34.8332 22.918 34.4234 22.918 33.9165V27.4998H24.7513C25.2573 27.4998 25.668 27.0901 25.668 26.5832C25.668 26.0763 25.2573 25.6665 24.7513 25.6665H22.0013H16.5013H0.918009C0.412009 25.6665 0.00134277 26.0763 0.00134277 26.5832V54.0832C0.00134277 54.5901 0.412009 54.9998 0.918009 54.9998H16.5013H22.0013H38.5013H42.168H45.8347H49.5013C50.0083 54.9998 50.418 54.5901 50.418 54.0832V32.9998C50.418 32.4929 50.0083 32.0832 49.5013 32.0832ZM17.418 27.4998H21.0847V32.9998H17.418V27.4998ZM21.0847 53.1665H17.418V49.4998H21.0847V53.1665ZM44.918 53.1665H43.0847V49.4998H44.918V53.1665Z" fill="#0F7275"/>
<path d="M8.25132 23.8333C8.75732 23.8333 9.16799 23.4235 9.16799 22.9166C9.16799 22.6279 9.17716 22.341 9.19457 22.0568C9.22574 21.5517 8.84166 21.1172 8.33657 21.0851C7.83791 21.065 7.39607 21.438 7.36491 21.944C7.34474 22.2658 7.33466 22.5903 7.33466 22.9166C7.33466 23.4235 7.74532 23.8333 8.25132 23.8333Z" fill="#0F7275"/>
<path d="M9.01588 18.1417C9.13047 18.1894 9.24963 18.2114 9.36697 18.2114C9.7263 18.2114 10.0673 17.9996 10.214 17.6467C10.3597 17.2956 10.5192 16.9519 10.6925 16.6164C10.9244 16.1663 10.7484 15.6136 10.2983 15.3807C9.84913 15.1497 9.29547 15.3248 9.06355 15.7749C8.86738 16.1553 8.68588 16.5458 8.52088 16.9427C8.32747 17.4111 8.54838 17.9474 9.01588 18.1417Z" fill="#0F7275"/>
<path d="M17.8726 10.0585C17.978 10.0585 18.0844 10.0401 18.1889 10.0016C18.5418 9.87145 18.902 9.75595 19.2678 9.65695C19.7564 9.52404 20.0442 9.02079 19.9113 8.53129C19.7784 8.0427 19.2751 7.75304 18.7856 7.88779C18.3685 8.00145 17.9588 8.13346 17.5564 8.28104C17.0806 8.45521 16.8377 8.98229 17.0119 9.45712C17.1484 9.82837 17.4986 10.0585 17.8726 10.0585Z" fill="#0F7275"/>
<path d="M12.7687 13.2457C12.997 13.2457 13.2252 13.1605 13.4031 12.9909C13.6762 12.7287 13.9604 12.4776 14.2556 12.2392C14.6488 11.9193 14.7084 11.3418 14.3885 10.9495C14.0695 10.5562 13.492 10.4976 13.0987 10.8157C12.766 11.087 12.4442 11.3712 12.1344 11.6682C11.7687 12.0183 11.7567 12.5986 12.1069 12.9643C12.2866 13.1513 12.5277 13.2457 12.7687 13.2457Z" fill="#0F7275"/>
<path d="M23.8348 9.16659H24.7514C25.2574 9.16659 25.6681 8.75684 25.6681 8.24992C25.6681 7.743 25.2574 7.33325 24.7514 7.33325H23.8348C23.3288 7.33325 22.9181 7.743 22.9181 8.24992C22.9181 8.75684 23.3288 9.16659 23.8348 9.16659Z" fill="#0F7275"/>
</g>
<defs>
<clipPath id="clip0_691_9354">
<rect width="55" height="55" fill="white"/>
</clipPath>
</defs>
</svg>
