<svg width="23" height="23" viewBox="0 0 23 23" fill="none" xmlns="http://www.w3.org/2000/svg">
<path d="M12.7739 21.1226L11.6728 22.2523C11.2066 22.7307 10.4527 22.7307 9.99145 22.2523L0.349673 12.365C-0.116546 11.8867 -0.116546 11.1132 0.349673 10.64L9.99145 0.747613C10.4577 0.269277 11.2116 0.269277 11.6728 0.747613L12.7739 1.8773C13.2451 2.36072 13.2351 3.14946 12.754 3.62271L6.77753 9.4645L21.0319 9.46451C21.6915 9.46451 22.2222 10.009 22.2222 10.6858L22.2222 12.3142C22.2222 12.991 21.6915 13.5354 21.0319 13.5354L6.77753 13.5354L12.754 19.3772C13.2401 19.8505 13.25 20.6392 12.7739 21.1226Z" fill="#0F7275"/>
</svg>
