<svg width="22" height="23" viewBox="0 0 22 23" fill="none" xmlns="http://www.w3.org/2000/svg">
<path d="M12.6461 21.0264L11.5561 22.1448C11.0945 22.6184 10.3482 22.6184 9.89153 22.1448L0.346167 12.3564C-0.115388 11.8829 -0.115388 11.1171 0.346168 10.6486L9.89153 0.855164C10.3531 0.381612 11.0994 0.381612 11.5561 0.855165L12.6461 1.97355C13.1126 2.45214 13.1028 3.233 12.6265 3.70151L6.70974 9.48489L20.8216 9.48489C21.4746 9.48489 22 10.0239 22 10.694L22 12.306C22 12.9761 21.4746 13.5151 20.8216 13.5151L6.70974 13.5151L12.6265 19.2985C13.1077 19.767 13.1175 20.5479 12.6461 21.0264Z" fill="#FDFDFD"/>
</svg>
