<svg width="16" height="15" viewBox="0 0 16 15" fill="none" xmlns="http://www.w3.org/2000/svg">
<path d="M6.38236 0C3.13912 0 0.5 2.63912 0.5 5.88236C0.5 9.1256 3.13912 11.7647 6.38236 11.7647C7.55123 11.7647 8.63894 11.4181 9.55561 10.8278L13.3608 14.6329C13.8502 15.1224 14.6438 15.1224 15.1329 14.6329C15.6224 14.1435 15.6224 13.3502 15.1329 12.8608L11.3278 9.05561C11.9181 8.13894 12.2647 7.05123 12.2647 5.88236C12.2647 2.63912 9.6256 0 6.38236 0ZM6.38236 2.35294C8.32824 2.35294 9.91177 3.93647 9.91177 5.88236C9.91177 7.82824 8.32824 9.41177 6.38236 9.41177C4.43647 9.41177 2.85294 7.82824 2.85294 5.88236C2.85294 3.93647 4.43647 2.35294 6.38236 2.35294Z" fill="#A0C2B5"/>
</svg>
