<svg width="86" height="86" viewBox="0 0 86 86" fill="none" xmlns="http://www.w3.org/2000/svg">
<rect x="0.25" width="85.5" height="85.5" rx="42.75" fill="#C0CD30"/>
<path d="M67.716 41.9296L64.1768 40.1604L62.5597 33.6925C61.7787 30.5683 58.9843 28.3863 55.7639 28.3863H48.6595C47.7187 28.3863 46.9558 29.1491 46.9558 30.09V31.1973H42.9949V24.4681C42.9949 23.5273 42.2322 22.7644 41.2913 22.7644H30.0476C29.1068 22.7644 28.3439 23.5271 28.3439 24.4681V31.1973H24.4258C23.485 31.1973 22.7221 31.96 22.7221 32.901V42.4412H20.5501C19.6093 42.4412 18.8464 43.2039 18.8464 44.1449V55.3886C18.8464 56.3293 19.6092 57.0922 20.5501 57.0922H21.8596C22.6297 60.3122 25.5303 62.7142 28.983 62.7142C32.4357 62.7142 35.3361 60.3124 36.1064 57.0922H49.9691C50.7392 60.3122 53.6398 62.7142 57.0925 62.7142C60.5452 62.7142 63.4456 60.3124 64.216 57.0922H65.8378C68.1549 57.0922 70.0401 55.2071 70.0401 52.8901V45.6884C70.0396 44.0863 69.1493 42.6461 67.716 41.9296ZM50.363 31.7937H55.7639C57.418 31.7937 58.8533 32.9144 59.2544 34.519L60.5323 39.6302H50.3631L50.363 31.7937ZM46.9558 42.4412H37.373V34.6047H46.9558V42.4412ZM31.7512 26.1719H39.5878V31.1975H31.7512V26.1719ZM26.1293 34.6047H33.9658V42.4412H26.1293V34.6047ZM28.9828 59.3068C26.8222 59.3068 25.0646 57.5492 25.0646 55.3886C25.0646 53.2279 26.8222 51.4703 28.9828 51.4703C31.1435 51.4703 32.9011 53.2279 32.9011 55.3886C32.9011 57.5492 31.1435 59.3068 28.9828 59.3068ZM28.9828 48.0631C25.9704 48.0631 23.3775 49.8916 22.2536 52.4966V45.8485H46.9558V53.6851H36.1061C35.336 50.4649 32.4355 48.0631 28.9828 48.0631ZM57.0922 59.3068C54.9316 59.3068 53.1739 57.5492 53.1739 55.3886C53.1739 53.2279 54.9316 51.4703 57.0922 51.4703C59.2528 51.4703 61.0104 53.2279 61.0104 55.3886C61.0104 57.5492 59.2528 59.3068 57.0922 59.3068ZM66.6324 52.8901C66.6324 53.3284 66.2757 53.6851 65.8372 53.6851H64.2154C63.4453 50.4651 60.5447 48.0631 57.092 48.0631C54.0795 48.0631 51.4866 49.8916 50.3628 52.4966V43.0376H62.312L66.1923 44.9772C66.4635 45.1129 66.632 45.3854 66.632 45.6884V52.8901H66.6324Z" fill="#4D7478"/>
</svg>
