<svg width="59" height="59" viewBox="0 0 59 59" fill="none" xmlns="http://www.w3.org/2000/svg">
<path d="M54.7863 13.5775V59H5.507V0.000244141H41.2091L47.533 6.32419L54.7863 13.5775Z" fill="#79B2B7"/>
<path d="M27.8476 3.9519H4.21333V14.5267H27.8476V3.9519Z" fill="#F2F2F2"/>
<path d="M12.6909 7.41886C12.5866 7.16695 12.4476 6.94109 12.2565 6.75004C12.0655 6.55898 11.8309 6.4026 11.5616 6.29832C11.2836 6.18539 10.9709 6.1333 10.6234 6.1333H8.02606V12.8394H9.33777V10.3115H10.6234C10.9709 10.3115 11.2836 10.2594 11.5616 10.1465C11.8309 10.0422 12.0654 9.88591 12.2565 9.69473C12.4477 9.50368 12.5867 9.28646 12.6909 9.02591C12.7864 8.77401 12.8386 8.50471 12.8386 8.22676C12.8385 7.94006 12.7864 7.67076 12.6909 7.41886ZM11.2749 8.88683C11.1011 9.05184 10.8579 9.13873 10.5626 9.13873H9.33777V7.29717H10.5626C10.8579 7.29717 11.1012 7.38405 11.2749 7.55771C11.4399 7.72273 11.5268 7.94859 11.5268 8.22653C11.5269 8.49595 11.44 8.72181 11.2749 8.88683Z" fill="#79B2B7"/>
<path d="M18.9627 8.73032C18.954 8.49582 18.9453 8.28736 18.9192 8.09619C18.8932 7.90502 18.8497 7.73136 18.7889 7.56634C18.728 7.40997 18.6499 7.2536 18.5456 7.11462C18.3111 6.77583 18.0244 6.52393 17.703 6.36756C17.3729 6.21119 16.982 6.13306 16.5216 6.13306H14.1068V12.8391H16.5216C16.982 12.8391 17.3729 12.761 17.703 12.6046C18.0244 12.4482 18.3111 12.1963 18.5456 11.8576C18.6499 11.7186 18.728 11.5622 18.7889 11.4058C18.8497 11.2408 18.8932 11.067 18.9192 10.876C18.9453 10.6849 18.9539 10.4764 18.9627 10.2419C18.9713 10.016 18.9713 9.76409 18.9713 9.48615C18.9713 9.2082 18.9713 8.95618 18.9627 8.73032ZM17.6509 10.1637C17.6509 10.3635 17.6335 10.5199 17.6161 10.6589C17.5987 10.7892 17.5727 10.9108 17.538 10.9977C17.5033 11.0932 17.4511 11.1801 17.3904 11.2582C17.1732 11.5362 16.8432 11.6665 16.4088 11.6665H15.4099V7.29704H16.4088C16.8432 7.29704 17.1733 7.43601 17.3904 7.71396C17.4512 7.79209 17.5033 7.87033 17.538 7.96586C17.5727 8.06139 17.5989 8.17432 17.6161 8.31329C17.6335 8.44362 17.6509 8.60864 17.6509 8.7997C17.6596 8.99087 17.6596 9.22537 17.6596 9.48592C17.6597 9.74669 17.6597 9.97255 17.6509 10.1637Z" fill="#79B2B7"/>
<path d="M24.5657 7.29704V6.13306H20.1441V12.8391H21.4559V10.1203H24.1053V8.94754H21.4559V7.29704H24.5657Z" fill="#79B2B7"/>
<path d="M12.6909 7.41886C12.5866 7.16695 12.4476 6.94109 12.2565 6.75004C12.0655 6.55898 11.8309 6.4026 11.5616 6.29832C11.2836 6.18539 10.9709 6.1333 10.6234 6.1333H8.02606V12.8394H9.33777V10.3115H10.6234C10.9709 10.3115 11.2836 10.2594 11.5616 10.1465C11.8309 10.0422 12.0654 9.88591 12.2565 9.69473C12.4477 9.50368 12.5867 9.28646 12.6909 9.02591C12.7864 8.77401 12.8386 8.50471 12.8386 8.22676C12.8385 7.94006 12.7864 7.67076 12.6909 7.41886ZM11.2749 8.88683C11.1011 9.05184 10.8579 9.13873 10.5626 9.13873H9.33777V7.29717H10.5626C10.8579 7.29717 11.1012 7.38405 11.2749 7.55771C11.4399 7.72273 11.5268 7.94859 11.5268 8.22653C11.5269 8.49595 11.44 8.72181 11.2749 8.88683Z" fill="#79B2B7"/>
<path opacity="0.08" d="M54.7863 13.5775V59H5.507V48.3502L28.544 25.3132L29.9078 23.9494L30.6635 23.1936L31.9231 21.9341L33.4172 20.44L47.533 6.32422L54.7863 13.5775Z" fill="#040000"/>
<path d="M54.7864 13.5788H41.2077V0L54.7864 13.5788Z" fill="#0F7275"/>
<path d="M47.7502 42.7126C47.4635 42.2088 47.0726 41.7311 46.5862 41.2967C46.1867 40.9319 45.7176 40.5931 45.1876 40.2804C43.0507 39.0209 40.0017 38.4128 35.8581 38.4128H35.4412C35.2154 38.2043 34.9809 37.9958 34.7376 37.7786C33.1653 36.3627 31.9145 34.8252 30.9416 33.1139C32.8526 28.9009 33.7647 25.1482 33.6518 21.9515C33.6344 21.4129 33.5562 20.9091 33.4173 20.44C33.2088 19.6843 32.8614 19.0154 32.3748 18.4681C32.3662 18.4595 32.3662 18.4595 32.3574 18.4507C31.5843 17.5821 30.5072 17.0869 29.4126 17.0869C28.3094 17.0869 27.2931 17.5647 26.5547 18.4421C25.825 19.3107 25.4342 20.5008 25.4168 21.8993C25.3907 24.0362 25.5644 26.0602 25.9293 27.9278C25.964 28.0755 25.9902 28.2232 26.0249 28.3708C26.3897 30.0647 26.9283 31.6717 27.6232 33.1658C26.8066 34.8249 25.9814 36.2582 25.408 37.2311C24.9737 37.9696 24.4959 38.7427 24.0008 39.5158C21.7683 39.9154 19.8746 40.4018 18.2242 41.0099C15.9917 41.8178 14.2023 42.8601 12.9166 44.1023C12.0826 44.9015 11.518 45.7528 11.2401 46.6389C10.9447 47.551 10.9621 48.463 11.2921 49.2796C11.5961 50.0353 12.1434 50.6694 12.8732 51.1038C13.0469 51.208 13.2293 51.2948 13.4204 51.3731C13.9764 51.5989 14.5844 51.7205 15.2185 51.7205C16.6866 51.7205 18.198 51.0864 19.4749 49.9484C21.8551 47.8202 24.3134 44.3977 25.7641 42.2346C26.9541 42.0522 28.2484 41.8958 29.7079 41.7395C31.4278 41.5657 32.948 41.4615 34.3292 41.4093C34.7549 41.7916 35.1632 42.1564 35.554 42.5038C37.7257 44.4409 39.3761 45.8395 40.8703 46.8211C40.8703 46.8297 40.8789 46.8297 40.8877 46.8297C41.4784 47.2206 42.043 47.542 42.6077 47.8026C43.2418 48.098 43.8846 48.2544 44.5447 48.2544C45.3787 48.2544 46.1604 48.0025 46.812 47.5421C47.4722 47.0643 47.9499 46.3781 48.1671 45.605C48.419 44.6758 48.2714 43.6421 47.7502 42.7126ZM28.544 25.3133C28.4224 24.2361 28.3702 23.1155 28.3876 21.9341C28.405 20.8136 28.8133 20.0578 29.4126 20.0578C29.8643 20.0578 30.3421 20.466 30.5592 21.2478C30.6201 21.4823 30.6635 21.7516 30.6721 22.0556C30.6895 22.4204 30.6808 22.8027 30.6635 23.1935C30.6114 24.2968 30.4202 25.4694 30.0902 26.729C29.8904 27.5369 29.6298 28.3795 29.3085 29.2568C28.9436 28.0235 28.683 26.7118 28.544 25.3133ZM14.0547 48.1765C13.9069 47.8116 14.072 47.108 14.9755 46.2394C16.3567 44.919 18.5196 43.8766 21.5339 43.0861C20.9606 43.8678 20.396 44.5802 19.8488 45.2316C19.0148 46.2393 18.2156 47.0906 17.4946 47.7334C16.8779 48.2893 16.2003 48.6368 15.5575 48.7237C15.4446 48.7411 15.3317 48.7497 15.2187 48.7497C14.654 48.7499 14.1936 48.524 14.0547 48.1765ZM27.9359 38.9426L27.9967 38.8471L27.9012 38.8645C27.9186 38.821 27.9447 38.7776 27.9707 38.7429C28.3355 38.1262 28.7959 37.3357 29.2911 36.4236L29.3345 36.5191L29.4474 36.2846C29.8123 36.8058 30.2119 37.3184 30.6288 37.8134C30.8286 38.0479 31.0371 38.2738 31.2455 38.4997L31.1066 38.5083L31.2281 38.6212C30.872 38.6473 30.4985 38.6821 30.1249 38.7168C29.8904 38.7428 29.6471 38.7602 29.4039 38.7862C28.9002 38.8383 28.405 38.8905 27.9359 38.9426ZM42.5556 44.363C41.5218 43.7028 40.3666 42.7733 38.9419 41.5311C40.9659 41.7396 42.5556 42.1827 43.6849 42.8428C44.18 43.1295 44.5535 43.4249 44.8054 43.7115C45.2223 44.1544 45.3701 44.5541 45.2918 44.8234C45.2223 45.0927 44.9183 45.2751 44.5447 45.2751C44.3275 45.2751 44.1018 45.223 43.8672 45.1101C43.4675 44.919 43.0506 44.6844 42.6077 44.3978C42.5903 44.3978 42.573 44.3804 42.5556 44.363Z" fill="#F2F2F2"/>
</svg>
