<svg width="18" height="18" viewBox="0 0 18 18" fill="none" xmlns="http://www.w3.org/2000/svg">
<g clip-path="url(#clip0_538_9863)">
<path d="M5.23421 5.26576V5.4V8.55C5.23421 8.71047 5.32468 8.8334 5.44242 8.87265C5.57157 8.91571 5.72901 8.87111 5.81507 8.78508L5.82128 8.77887L5.82825 8.77352L7.11824 7.78352L7.19872 7.72175L7.28011 7.78232L8.5701 8.74233L8.57795 8.74818L8.58487 8.7551C8.65604 8.82627 8.74361 8.8658 8.81996 8.8658C8.88333 8.8658 8.91218 8.86384 8.93993 8.84998L5.23421 5.26576ZM5.23421 5.26576H5.09998M5.23421 5.26576H5.09998M5.09998 5.26576H2.99999C2.41584 5.26576 1.96575 5.71585 1.96575 6.3V15.6V15.7342H2.09999H12.2999H12.4342V15.6V6.3C12.4342 5.71585 11.9841 5.26576 11.3999 5.26576H9.29995H9.16572M5.09998 5.26576H9.16572M9.16572 5.26576V5.4M9.16572 5.26576V5.4M9.16572 5.4V8.52005C9.16572 8.66772 9.0857 8.77709 8.93996 8.84997L9.16572 5.4ZM16.3058 15.6V15.7343H16.44H17.64C17.6995 15.7343 17.7386 15.7535 17.7626 15.7774C17.7865 15.8014 17.8058 15.8405 17.8058 15.9L17.8058 16.35H17.8055L17.806 16.3584C17.8617 17.249 17.2849 17.8658 16.5 17.8658H1.50001C0.715738 17.8658 0.134237 17.248 0.134237 16.35V15.9C0.134237 15.8405 0.153482 15.8013 0.177414 15.7774C0.201346 15.7535 0.24049 15.7342 0.299988 15.7342H1.49998H1.63421V15.6V6.3C1.63421 5.53412 2.23414 4.93423 2.99999 4.93423H5.10001H5.23425V4.79999C5.23425 4.74049 5.25349 4.70135 5.27743 4.67741C5.30136 4.65348 5.3405 4.63424 5.4 4.63424H9.00004C9.05953 4.63424 9.09868 4.65348 9.12261 4.67741C9.14654 4.70135 9.16579 4.74049 9.16579 4.79999V4.93423H9.30002H11.4C12.1659 4.93423 12.7658 5.53415 12.7658 6.3V15.6V15.7343H12.9H14.1H14.2342V15.6V5.12782V5.04432L14.1593 5.00741C13.3172 4.59245 12.7342 3.71968 12.7342 2.7C12.7342 1.27413 13.8741 0.134237 15.3 0.134237C16.7259 0.134237 17.8658 1.27413 17.8658 2.7C17.8658 3.72728 17.2582 4.60723 16.3829 5.01831L16.3058 5.05455V5.13981V15.6ZM16.1169 4.77073L16.1281 4.76825L16.1387 4.76391C16.9544 4.43 17.5342 3.63815 17.5342 2.7C17.5342 1.45586 16.5441 0.465774 15.3 0.465774C14.0559 0.465774 13.0658 1.45586 13.0658 2.7C13.0658 3.94287 14.0546 4.93423 15.27 4.93423C15.5154 4.93423 15.7519 4.89516 15.9738 4.82374L15.9738 4.82381L15.9779 4.82235C16.017 4.80834 16.0571 4.79312 16.0973 4.77579C16.103 4.77407 16.1095 4.77238 16.1169 4.77073ZM8.80423 5.10001V4.96577H8.66999H5.69995H5.56572V5.10001V8.25001V8.51849L5.7805 8.3574L7.10051 7.3674L7.10051 7.3674C7.14316 7.33541 7.1756 7.32675 7.19997 7.32675C7.22433 7.32675 7.25677 7.33541 7.29942 7.3674L7.29942 7.3674L8.61943 8.3574L8.83421 8.51849V8.25001V5.23086V5.1977L8.81877 5.16835C8.81025 5.15216 8.80423 5.13239 8.80423 5.10001ZM17.5342 16.35V16.35L17.5342 16.1999L17.5342 16.0657H17.4H16.2C16.1405 16.0657 16.1013 16.0465 16.0774 16.0226C16.0535 15.9986 16.0342 15.9595 16.0342 15.9V5.33999V5.17124L15.8698 5.20919C15.4997 5.29461 15.1003 5.29461 14.7302 5.20919L14.5658 5.17124V5.33999V15.9C14.5658 15.9595 14.5465 15.9987 14.5226 16.0226C14.4986 16.0465 14.4595 16.0658 14.4 16.0658H12.6H1.8H0.600012H0.465774V16.2V16.35C0.465774 16.64 0.537951 16.9335 0.706371 17.1581C0.878564 17.3877 1.14375 17.5343 1.50001 17.5343H16.5C16.8562 17.5343 17.1214 17.3877 17.2936 17.1581C17.462 16.9335 17.5342 16.64 17.5342 16.35Z" fill="#0F7275" stroke="#0F7275" stroke-width="0.268475"/>
<path d="M16.2 3.90015C16.29 3.90015 16.35 3.87016 16.41 3.81015C16.53 3.69016 16.53 3.51016 16.41 3.39014L15.51 2.49014C15.39 2.37015 15.21 2.37015 15.09 2.49014C14.97 2.61013 14.97 2.79013 15.09 2.91015L15.99 3.81015C16.05 3.87016 16.11 3.90015 16.2 3.90015Z" fill="#0F7275"/>
<path d="M5.69998 12.8999H2.99998C2.81998 12.8999 2.69999 13.0199 2.69999 13.1999V14.6999C2.69999 14.8799 2.81998 14.9999 2.99998 14.9999H5.69998C5.87998 14.9999 5.99997 14.8799 5.99997 14.6999V13.1999C6 13.0199 5.87998 12.8999 5.69998 12.8999ZM5.39999 14.3999H3.3V13.4999H5.39999V14.3999Z" fill="#0F7275"/>
</g>
<defs>
<clipPath id="clip0_538_9863">
<rect width="18" height="18" fill="white"/>
</clipPath>
</defs>
</svg>
