<svg width="26" height="20" viewBox="0 0 26 20" fill="none" xmlns="http://www.w3.org/2000/svg">
<path d="M24.6411 9.5971L22.9026 8.72803L22.1082 5.5508C21.7245 4.01613 20.3518 2.94427 18.7699 2.94427H15.28C14.8179 2.94427 14.4431 3.31894 14.4431 3.78117V4.3251H12.4974V1.01951C12.4974 0.557374 12.1228 0.182617 11.6605 0.182617H6.13732C5.67518 0.182617 5.30042 0.55729 5.30042 1.01951V4.3251H3.37575C2.91361 4.3251 2.53885 4.69977 2.53885 5.16199V9.8484H1.47191C1.00977 9.8484 0.63501 10.2231 0.63501 10.6853V16.2085C0.63501 16.6707 1.00968 17.0454 1.47191 17.0454H2.11516C2.49347 18.6272 3.91833 19.8071 5.61438 19.8071C7.31044 19.8071 8.73522 18.6273 9.11361 17.0454H15.9233C16.3017 18.6272 17.7265 19.8071 19.4226 19.8071C21.1186 19.8071 22.5434 18.6273 22.9218 17.0454H23.7185C24.8567 17.0454 25.7828 16.1194 25.7828 14.9812V11.4435C25.7825 10.6565 25.3452 9.94908 24.6411 9.5971ZM16.1168 4.61806H18.7699C19.5824 4.61806 20.2875 5.1686 20.4845 5.95681L21.1123 8.46758H16.1169L16.1168 4.61806ZM14.4431 9.8484H9.73578V5.99889H14.4431V9.8484ZM6.97421 1.85649H10.8237V4.32518H6.97421V1.85649ZM4.21256 5.99889H8.06208V9.8484H4.21256V5.99889ZM5.6143 18.1333C4.55294 18.1333 3.68954 17.2699 3.68954 16.2085C3.68954 15.1472 4.55294 14.2838 5.6143 14.2838C6.67566 14.2838 7.53906 15.1472 7.53906 16.2085C7.53906 17.2699 6.67566 18.1333 5.6143 18.1333ZM5.6143 12.6101C4.13449 12.6101 2.86078 13.5083 2.30872 14.7879V11.5222H14.4431V15.3717H9.11344C8.73513 13.7899 7.31036 12.6101 5.6143 12.6101ZM19.4224 18.1333C18.361 18.1333 17.4976 17.2699 17.4976 16.2085C17.4976 15.1472 18.361 14.2838 19.4224 14.2838C20.4838 14.2838 21.3472 15.1472 21.3472 16.2085C21.3472 17.2699 20.4838 18.1333 19.4224 18.1333ZM24.1088 14.9812C24.1088 15.1965 23.9336 15.3717 23.7182 15.3717H22.9215C22.5432 13.79 21.1184 12.6101 19.4223 12.6101C17.9425 12.6101 16.6688 13.5083 16.1167 14.7879V10.1414H21.9865L23.8926 11.0942C24.0258 11.1608 24.1086 11.2947 24.1086 11.4435V14.9812H24.1088Z" fill="#4D7478"/>
</svg>
