<svg width="24" height="19" viewBox="0 0 24 19" fill="none" xmlns="http://www.w3.org/2000/svg">
<path d="M0.807129 3.02505C0.807129 2.45352 1.03417 1.90541 1.43829 1.50128C1.84242 1.09715 2.39054 0.870117 2.96206 0.870117H15.8916C16.4632 0.870117 17.0113 1.09715 17.4154 1.50128C17.8195 1.90541 18.0466 2.45352 18.0466 3.02505V5.17998H19.5119C19.8348 5.18026 20.1535 5.2531 20.4444 5.39309C20.7353 5.53309 20.9911 5.73667 21.1928 5.98879L23.3204 8.64654C23.6265 9.02895 23.7932 9.50424 23.793 9.99409V13.0814C23.793 13.6529 23.566 14.201 23.1619 14.6051C22.7578 15.0093 22.2096 15.2363 21.6381 15.2363H20.9198C20.9198 15.9983 20.6171 16.7292 20.0783 17.268C19.5394 17.8068 18.8086 18.1096 18.0466 18.1096C17.2845 18.1096 16.5537 17.8068 16.0149 17.268C15.476 16.7292 15.1733 15.9983 15.1733 15.2363H7.99023C7.99105 15.6193 7.91531 15.9986 7.76744 16.3519C7.61957 16.7051 7.40257 17.0253 7.12919 17.2935C6.8558 17.5617 6.53156 17.7726 6.17552 17.9137C5.81947 18.0548 5.43882 18.1232 5.05592 18.1151C4.67303 18.107 4.29562 18.0224 3.9459 17.8663C3.59617 17.7102 3.28118 17.4857 3.01945 17.2061C2.75771 16.9265 2.55451 16.5975 2.42179 16.2382C2.28908 15.879 2.22952 15.4968 2.24662 15.1142C1.82576 14.9661 1.46125 14.691 1.20341 14.3268C0.94557 13.9627 0.807105 13.5276 0.807129 13.0814L0.807129 3.02505ZM2.66611 13.7365C2.92586 13.3112 3.29178 12.9609 3.72792 12.7199C4.16406 12.4789 4.6554 12.3555 5.15366 12.3619C5.65192 12.3682 6.13995 12.5042 6.56977 12.7562C6.9996 13.0083 7.35644 13.3679 7.60521 13.7997H15.5583C15.811 13.3634 16.1736 13.0008 16.6099 12.7481V3.02505C16.6099 2.83454 16.5343 2.65183 16.3996 2.51713C16.2648 2.38242 16.0821 2.30674 15.8916 2.30674H2.96206C2.77155 2.30674 2.58885 2.38242 2.45414 2.51713C2.31943 2.65183 2.24375 2.83454 2.24375 3.02505V13.0814C2.24364 13.2196 2.28343 13.355 2.35835 13.4712C2.43327 13.5874 2.54013 13.6795 2.66611 13.7365ZM18.0466 12.3631C18.5509 12.3631 19.0464 12.4959 19.4831 12.748C19.9199 13.0002 20.2826 13.3629 20.5348 13.7997H21.6381C21.8286 13.7997 22.0113 13.724 22.146 13.5893C22.2807 13.4546 22.3564 13.2719 22.3564 13.0814V9.99265C22.3561 9.82964 22.3004 9.67158 22.1984 9.54443L20.0722 6.88668C20.005 6.80255 19.9198 6.7346 19.8228 6.68785C19.7258 6.6411 19.6196 6.61675 19.5119 6.6166H18.0466V12.3631ZM5.11699 13.7997C4.73597 13.7997 4.37056 13.9511 4.10114 14.2205C3.83173 14.4899 3.68037 14.8553 3.68037 15.2363C3.68037 15.6173 3.83173 15.9827 4.10114 16.2522C4.37056 16.5216 4.73597 16.6729 5.11699 16.6729C5.498 16.6729 5.86341 16.5216 6.13283 16.2522C6.40225 15.9827 6.55361 15.6173 6.55361 15.2363C6.55361 14.8553 6.40225 14.4899 6.13283 14.2205C5.86341 13.9511 5.498 13.7997 5.11699 13.7997ZM18.0466 13.7997C17.6656 13.7997 17.3001 13.9511 17.0307 14.2205C16.7613 14.4899 16.6099 14.8553 16.6099 15.2363C16.6099 15.6173 16.7613 15.9827 17.0307 16.2522C17.3001 16.5216 17.6656 16.6729 18.0466 16.6729C18.4276 16.6729 18.793 16.5216 19.0624 16.2522C19.3318 15.9827 19.4832 15.6173 19.4832 15.2363C19.4832 14.8553 19.3318 14.4899 19.0624 14.2205C18.793 13.9511 18.4276 13.7997 18.0466 13.7997Z" fill="#FDFDFD"/>
</svg>
