<svg width="500" height="500" viewBox="0 0 500 500" fill="none" xmlns="http://www.w3.org/2000/svg">
<path d="M416.05 244.81C323.74 191.52 174.57 191.52 82.86 244.81C-8.84998 298.1 -8.35998 384.52 83.94 437.81C176.24 491.1 325.43 491.11 417.14 437.81C508.85 384.51 508.36 298.11 416.05 244.81Z" fill="#F5F5F5"/>
<path d="M358.26 78.1299L361.38 76.3199L394.34 95.2799V98.8899L358.26 78.1299Z" fill="#F5F5F5"/>
<path d="M358.26 78.13L394.34 98.89V103L358.25 82.27L358.26 78.13Z" fill="#E0E0E0"/>
<path d="M397.76 100.83L400.88 99.02L433.84 117.98V121.58L397.76 100.83Z" fill="#F5F5F5"/>
<path d="M397.76 100.83L433.84 121.58V125.7L397.75 104.97L397.76 100.83Z" fill="#E0E0E0"/>
<path d="M358.44 43.4899L361.55 41.6799L361.37 164.41L358.25 166.22L358.44 43.4899Z" fill="#F0F0F0"/>
<path d="M358.25 166.22L361.37 164.41L397.27 185.02L394.15 186.83L358.25 166.22Z" fill="#F5F5F5"/>
<path d="M354.86 37.3L397.94 62.05L397.73 193.05L354.65 168.3L354.86 37.3ZM394.15 186.83L394.34 64.1L358.44 43.4901L358.25 166.22L394.15 186.83Z" fill="#E0E0E0"/>
<path d="M354.86 37.3L357.98 35.49L401.06 60.24L397.94 62.05L354.86 37.3Z" fill="#F5F5F5"/>
<path d="M397.94 62.05L401.06 60.24L400.85 191.21L397.73 193.02L397.94 62.05Z" fill="#F0F0F0"/>
<path d="M397.94 66.19L401.06 64.38L400.87 187.11L397.75 188.92L397.94 66.19Z" fill="#F0F0F0"/>
<path d="M397.75 188.92L400.87 187.11L436.77 207.72L433.65 209.53L397.75 188.92Z" fill="#F5F5F5"/>
<path d="M394.36 60L437.44 84.75L437.23 215.75L394.15 191L394.36 60ZM433.65 209.53L433.84 86.8L397.94 66.19L397.75 188.92L433.65 209.53Z" fill="#E0E0E0"/>
<path d="M394.36 59.9999L397.48 58.1899L440.56 82.9399L437.44 84.7499L394.36 59.9999Z" fill="#F5F5F5"/>
<path d="M437.44 84.7499L440.56 82.9399L440.35 213.91L437.23 215.72L437.44 84.7499Z" fill="#F0F0F0"/>
<path d="M453.61 359.56C446.78 355.62 435.75 355.62 428.97 359.56C422.19 363.5 422.22 369.9 429.05 373.84C435.88 377.78 446.91 377.78 453.69 373.84C460.47 369.9 460.44 363.5 453.61 359.56Z" fill="#EBEBEB"/>
<path d="M390 330.25C360 312.91 311.41 312.91 281.56 330.25C255.19 345.58 252.26 369.31 272.65 386.6C256.19 385.6 239.14 388.72 226.57 396.02C204.51 408.84 204.63 429.62 226.83 442.44C249.03 455.26 284.91 455.26 306.97 442.44C324.52 432.24 327.97 417 317.54 404.74C342.83 408.4 370.66 404.51 390.36 393.07C420.2 375.72 420.05 347.6 390 330.25Z" fill="#EBEBEB"/>
<path d="M229.06 337.21L108.9 406.58C108.292 406.931 107.602 407.116 106.9 407.116C106.198 407.116 105.508 406.931 104.9 406.58L96.31 401.58C96.0982 401.458 95.9221 401.283 95.7998 401.071C95.6774 400.86 95.6129 400.62 95.6129 400.375C95.6129 400.131 95.6774 399.891 95.7998 399.679C95.9221 399.467 96.0982 399.292 96.31 399.17L216.6 329.83C217.208 329.479 217.898 329.294 218.6 329.294C219.302 329.294 219.992 329.479 220.6 329.83L229.06 334.75C229.284 334.868 229.472 335.045 229.603 335.262C229.733 335.478 229.803 335.727 229.803 335.98C229.803 336.233 229.733 336.482 229.603 336.698C229.472 336.915 229.284 337.092 229.06 337.21Z" fill="#EBEBEB"/>
<path d="M218.58 321.4L71.86 405.48C71.2325 405.844 70.5202 406.035 69.795 406.035C69.0698 406.035 68.3575 405.844 67.73 405.48L58.87 400.37C58.6544 400.243 58.4757 400.061 58.3515 399.844C58.2274 399.626 58.1621 399.38 58.1621 399.13C58.1621 398.88 58.2274 398.634 58.3515 398.416C58.4757 398.199 58.6544 398.017 58.87 397.89L205.72 313.89C206.35 313.524 207.066 313.331 207.795 313.331C208.524 313.331 209.24 313.524 209.87 313.89L218.58 318.96C218.789 319.088 218.962 319.267 219.081 319.481C219.201 319.694 219.264 319.935 219.264 320.18C219.264 320.425 219.201 320.666 219.081 320.879C218.962 321.093 218.789 321.272 218.58 321.4Z" fill="#EBEBEB"/>
<path d="M344 130.1C343.527 129.265 342.836 128.573 342 128.1L310 109.42C307.64 108.07 302 109.91 302 113.71V148.42C302.001 149.35 302.247 150.263 302.714 151.068C303.181 151.872 303.853 152.539 304.66 153L325.48 164.9L321.88 162.84L323.61 167.74C323.637 167.809 323.689 167.865 323.756 167.897C323.823 167.928 323.9 167.933 323.97 167.91C324.28 167.76 325.63 167.03 326.41 166.52H326.46C326.486 166.499 326.509 166.476 326.53 166.45L326.95 165.77L336.64 171.64C337.419 172.138 338.316 172.419 339.239 172.455C340.163 172.491 341.079 172.28 341.894 171.844C342.709 171.408 343.393 170.763 343.875 169.975C344.358 169.187 344.622 168.284 344.64 167.36V132.68C344.648 131.78 344.427 130.892 344 130.1Z" fill="#0F7275"/>
<path opacity="0.2" d="M326.65 166.43C326.629 166.456 326.606 166.479 326.58 166.5H326.53C325.75 167.01 324.4 167.74 324.09 167.89C324.159 167.877 324.22 167.837 324.26 167.78L325.93 165.07L325.6 164.88L327.07 165.72L326.65 166.43Z" fill="white"/>
<path opacity="0.4" d="M338.8 133.08C338.461 132.397 337.98 131.794 337.39 131.31C337.189 131.146 336.975 130.999 336.75 130.87L304.75 112.19C304.482 112.038 304.179 111.958 303.871 111.96C303.563 111.962 303.261 112.044 302.995 112.199C302.729 112.354 302.508 112.576 302.354 112.843C302.201 113.109 302.12 113.412 302.12 113.72C302.12 109.92 307.72 108.08 310.12 109.43L342.12 128.11C342.956 128.583 343.647 129.275 344.12 130.11L338.8 133.08Z" fill="white"/>
<path opacity="0.2" d="M339.39 170.1V135.44C339.405 135.234 339.405 135.026 339.39 134.82C339.304 134.214 339.118 133.626 338.84 133.08L344.08 130.08C344.521 130.869 344.755 131.756 344.76 132.66V167.32C344.742 168.244 344.478 169.147 343.995 169.935C343.513 170.723 342.829 171.368 342.014 171.804C341.199 172.24 340.283 172.451 339.359 172.415C338.436 172.379 337.539 172.098 336.76 171.6C337.025 171.754 337.326 171.836 337.633 171.837C337.939 171.839 338.241 171.759 338.507 171.608C338.773 171.456 338.995 171.236 339.15 170.972C339.305 170.707 339.388 170.407 339.39 170.1Z" fill="white"/>
<path d="M327.83 146.15C328.647 144.924 329.056 143.472 329 142C328.989 141.511 328.949 141.024 328.88 140.54C328.784 139.864 328.64 139.196 328.45 138.54C328.092 137.284 327.606 136.067 327 134.91C326.81 134.54 326.61 134.18 326.39 133.82C325.968 133.119 325.504 132.444 325 131.8C324.7 131.42 324.38 131.05 324.06 130.7C323.116 129.671 322.024 128.788 320.82 128.08C314.56 124.46 310.62 129.98 313.74 138.02L316.32 144.69L320.74 156.12L327.83 146.15ZM324.83 139.81C324.83 142.34 323.04 143.36 320.83 142.09C320.256 141.746 319.734 141.322 319.28 140.83L319.17 140.7C318.615 140.074 318.144 139.379 317.77 138.63C317.407 137.929 317.141 137.183 316.98 136.41C316.898 136.015 316.855 135.613 316.85 135.21C316.85 132.68 318.66 131.67 320.85 132.94C321.424 133.284 321.946 133.708 322.4 134.2C322.723 134.549 323.017 134.924 323.28 135.32C323.481 135.61 323.662 135.914 323.82 136.23C324.203 136.933 324.482 137.687 324.65 138.47C324.754 138.91 324.811 139.359 324.82 139.81H324.83Z" fill="white"/>
<path d="M211.13 36.17C210.21 32.91 203.59 26.72 197.01 26.85C196.378 26.8706 195.754 26.9922 195.16 27.21L67.32 99.94C65.4534 101.021 63.9008 102.57 62.8153 104.434C61.7298 106.298 61.1489 108.413 61.13 110.57V387.13C61.13 394.13 69.26 400.9 76.88 397.66H76.94C77.1083 397.606 77.2722 397.539 77.43 397.46L205.29 324.6C207.164 323.529 208.721 321.982 209.805 320.115C210.888 318.248 211.459 316.128 211.46 313.97V37.5C211.456 37.0369 211.343 36.5812 211.13 36.17Z" fill="#0F7275"/>
<path d="M79 139.8C78.9992 138.721 79.2848 137.661 79.8277 136.728C80.3706 135.795 81.1512 135.023 82.09 134.49L200.78 67.0001C201.245 66.7365 201.77 66.5991 202.304 66.6016C202.839 66.6041 203.363 66.7464 203.825 67.0144C204.287 67.2824 204.671 67.6667 204.939 68.1291C205.206 68.5915 205.348 69.1159 205.35 69.6501V292.65C205.346 293.73 205.059 294.79 204.517 295.723C203.974 296.657 203.196 297.432 202.26 297.97L83.54 365.57C83.0767 365.83 82.5536 365.963 82.0226 365.959C81.4916 365.954 80.9711 365.811 80.5125 365.543C80.0538 365.275 79.6731 364.892 79.4078 364.432C79.1425 363.972 79.002 363.451 79 362.92V139.8Z" fill="#37474F"/>
<path opacity="0.3" d="M61.13 110.57V387.13C61.13 394.13 69.26 400.9 76.88 397.66H76.94C76.4801 397.84 75.9831 397.903 75.4929 397.844C75.0028 397.786 74.5347 397.607 74.1301 397.324C73.7256 397.041 73.3971 396.663 73.1738 396.222C72.9505 395.782 72.8393 395.294 72.85 394.8V118.21C72.859 115.805 73.5793 113.457 74.92 111.46L62.4 105.21C61.5743 106.877 61.1399 108.71 61.13 110.57Z" fill="black"/>
<path opacity="0.1" d="M197 26.84C196.368 26.8606 195.744 26.9822 195.15 27.2L67.32 99.94C65.1842 101.158 63.4685 102.996 62.4 105.21L74.92 111.46C75.958 109.866 77.3554 108.537 79 107.58L206.89 34.84C207.251 34.6284 207.652 34.4948 208.068 34.4475C208.484 34.4003 208.905 34.4407 209.305 34.5659C209.704 34.6912 210.073 34.8986 210.387 35.1749C210.701 35.4511 210.954 35.7901 211.13 36.17C210.22 32.9 203.6 26.71 197 26.84Z" fill="white"/>
<path d="M157.92 80.51C158.81 79.99 159.56 80.4 159.56 81.43C159.526 81.9957 159.361 82.5458 159.078 83.0369C158.795 83.528 158.402 83.9467 157.93 84.26L132.84 98.74C131.94 99.26 131.22 98.82 131.22 97.79C131.246 97.2289 131.406 96.6821 131.686 96.1951C131.966 95.7081 132.358 95.295 132.83 94.99L157.92 80.51Z" fill="#263238"/>
<path d="M126.39 98.71C127.29 98.2 128.01 98.61 128.02 99.64C127.99 100.204 127.828 100.753 127.547 101.243C127.265 101.733 126.872 102.15 126.4 102.46C125.5 102.98 124.76 102.55 124.76 101.52C124.79 100.956 124.954 100.407 125.237 99.9189C125.52 99.4304 125.915 99.0161 126.39 98.71Z" fill="#263238"/>
<path d="M142.45 78.4101C144.24 77.4101 145.69 78.1901 145.69 80.2601C145.633 81.3855 145.312 82.4818 144.753 83.46C144.193 84.4381 143.411 85.2707 142.47 85.8901C140.67 86.8901 139.19 86.0801 139.18 84.0201C139.241 82.8927 139.57 81.796 140.138 80.8206C140.707 79.8451 141.499 79.0189 142.45 78.4101Z" fill="#263238"/>
<path d="M142.45 338.76C146.11 336.65 149.06 338.33 149.07 342.53C148.952 344.823 148.296 347.057 147.154 349.049C146.013 351.042 144.419 352.738 142.5 354C138.84 356.1 135.82 354.38 135.8 350.18C135.934 347.888 136.606 345.66 137.761 343.676C138.916 341.692 140.523 340.008 142.45 338.76Z" fill="#263238"/>
<path d="M230.36 47.23C229.51 44.23 223.51 38.65 217.53 38.77C216.959 38.7887 216.395 38.9002 215.86 39.1L99.7999 105.1C98.1061 106.081 96.6976 107.488 95.7137 109.18C94.7298 110.873 94.2046 112.792 94.1899 114.75V365.75C94.1899 372.15 101.57 378.25 108.49 375.31C108.641 375.261 108.788 375.201 108.93 375.13L225.05 309C226.751 308.027 228.164 306.623 229.148 304.928C230.131 303.234 230.649 301.309 230.65 299.35V48.44C230.645 48.02 230.546 47.6064 230.36 47.23Z" fill="#455A64"/>
<path opacity="0.1" d="M94.2 114.76V365.76C94.2 372.16 101.58 378.26 108.5 375.32C108.083 375.473 107.635 375.523 107.195 375.466C106.754 375.408 106.334 375.246 105.97 374.992C105.606 374.737 105.308 374.399 105.103 374.005C104.898 373.612 104.79 373.174 104.79 372.73V121.73C104.799 119.546 105.453 117.413 106.67 115.6L95.3 109.92C94.573 111.43 94.197 113.084 94.2 114.76Z" fill="white"/>
<path opacity="0.2" d="M217.54 38.7599C216.969 38.7787 216.405 38.8902 215.87 39.0899L99.81 105.09C97.8799 106.203 96.3267 107.867 95.35 109.87L106.72 115.55C107.673 114.102 108.95 112.897 110.45 112.03L226.5 45.9999C226.829 45.8129 227.194 45.6954 227.57 45.6547C227.947 45.6141 228.328 45.6512 228.69 45.7636C229.052 45.8761 229.387 46.0616 229.674 46.3087C229.961 46.5557 230.195 46.8591 230.36 47.2C229.52 44.26 223.52 38.6399 217.54 38.7599Z" fill="white"/>
<path d="M230.36 47.2299C230.197 46.8865 229.966 46.5802 229.68 46.33C229.394 46.0799 229.059 45.8913 228.697 45.7759C228.335 45.6605 227.953 45.6209 227.575 45.6594C227.197 45.698 226.831 45.8139 226.5 45.9999L110.5 112C108.809 112.985 107.404 114.392 106.42 116.084C105.437 117.775 104.909 119.693 104.89 121.65V372.65C104.89 373.094 104.998 373.532 105.203 373.925C105.408 374.319 105.706 374.657 106.07 374.912C106.434 375.166 106.854 375.328 107.295 375.386C107.735 375.443 108.183 375.393 108.6 375.24C108.751 375.191 108.898 375.131 109.04 375.06L225.05 309C226.751 308.027 228.164 306.623 229.148 304.928C230.131 303.234 230.649 301.309 230.65 299.35V48.4399C230.645 48.02 230.546 47.6064 230.36 47.2299Z" fill="#455A64"/>
<path d="M110.58 137.31C110.58 136.24 110.9 135.195 111.5 134.31C111.951 133.607 112.565 133.024 113.29 132.61L224.91 69.1399V295.46C224.91 296.406 224.66 297.335 224.186 298.153C223.712 298.971 223.03 299.65 222.21 300.12L110.58 363.73V137.31Z" fill="#455A64"/>
<path opacity="0.3" d="M110.58 137.31C110.58 136.24 110.9 135.195 111.5 134.31C111.951 133.607 112.565 133.024 113.29 132.61L224.91 69.1399V295.46C224.91 296.406 224.66 297.335 224.186 298.153C223.712 298.971 223.03 299.65 222.21 300.12L110.58 363.73V137.31Z" fill="black"/>
<path d="M218.15 60.5199L218.16 63.3599L221.76 61.2799L221.75 58.4399L218.15 60.5199Z" fill="#0F7275"/>
<path d="M225.06 55.58L217.32 60.05V64.79L225.06 60.32V58.7L225.61 58.38V56.88L225.41 57L225.06 57.2V55.58ZM221.76 61.28L218.16 63.36V60.52L221.76 58.44V61.28Z" fill="white"/>
<path d="M158.79 93.84L158.8 98.59L177.79 87.62L177.77 82.88L158.79 93.84Z" fill="white"/>
<path d="M206.8 66.1199L206.82 70.8599L213.83 66.8099L213.82 62.0599L206.8 66.1199Z" fill="white"/>
<path d="M113.34 120.76L113.35 124.82L114.31 124.27L114.3 120.21L113.34 120.76Z" fill="white"/>
<path d="M128.4 116.14L132.53 113.75L132.52 109L130.13 110.38L128.38 111.39L128.4 116.14Z" fill="white"/>
<path d="M118.53 121.83L126.27 117.37L126.26 112.62L118.52 117.09L118.53 121.83Z" fill="white"/>
<path d="M114.94 123.91L115.51 123.58L115.9 123.35L115.89 118.61L114.93 119.16L114.94 123.91Z" fill="white"/>
<path d="M111.76 125.74L112.46 125.34L112.72 125.19L112.71 121.99L112.45 122.14L111.75 122.54L111.76 125.74Z" fill="white"/>
<path d="M110.18 126.66L111.13 126.11L111.12 123.77L110.17 124.31L110.18 126.66Z" fill="white"/>
<path d="M215.25 212.78L224.91 207.27V202.71L215.14 208.29L214.61 187.11L224.91 180.9V176.34L214.5 182.62L214.13 167.81L224.91 160.73V156.15L214 163.31L213.64 148L208.92 131L224.92 116.48V108.56L207.69 124.21L205 99.7L224.9 84.35V79.71L204.53 95.43L203 81.6L199 83.87L200.69 99.31L182.1 127.54L167 102.09L159.57 106.32L163.32 112.63L155.5 121.9L152.6 116.29L136.6 131.29L138.1 147.29L110.63 163.15V167.71L142.49 149.32L140.87 132.09L150.51 123.09L153.71 129.28L165.17 115.67L167.7 119.94L130.7 177.36L110.59 195.36V200.1L130.73 182.1L143.21 198.89L132.64 216.89L110.64 239.89V248L122.5 235.64L126.5 250.46L126.56 269.84L110.62 277.53V282.11L126.37 274.51L124.26 300.51L117.88 309.4L116.98 332.54L110.62 336.68V344.3L167.18 307.5L166.26 332L170.26 329.74L171.49 295.48L192.4 283L194.27 316L200.9 312.22L200.09 297.87L224.91 281.69V277.11L199.84 293.45L198.31 266.62L217.16 255.74L215.79 231.34L224.91 226.94V222.35L215.6 226.85L215.25 212.78ZM201.25 104.36L203.8 127.61L189.73 140.4L184 130.65L201.25 104.36ZM162.59 233.93L156.77 237.29L151.41 240.38L148.06 218.1L162.26 206.47L166.1 231.9L162.59 233.93ZM166.74 236.09L168.74 249.49L163.84 251.85L162.84 238.31L166.74 236.09ZM147.43 214L146.03 204.72L167 169L167.88 168.21L169.48 177.21L163.14 183.84L164.66 187.19L179.75 171.37L178.23 168L173.23 173.26L171.71 164.67L185 152.63L186.66 181.81L147.43 214ZM186.9 186.32L189.9 239.32L183.76 242.32L178.42 193.27L186.9 186.32ZM160.25 137.46L164.72 143.74L150.56 165.66L146.09 159.47L160.25 137.46ZM134.25 177.92L143 164.18L149.52 173.18L169.8 141.76L163.29 132.64L169.48 123.04L183.25 146.26L164.34 163.44L163.54 164.16L146.09 193.87L134.25 177.92ZM126.18 231.86L136.37 221.23L142.6 210.63L148 246.9L156.75 241.85L158.9 240.6L159.84 253.78L130.47 268V249.87L138.15 243.99L137.49 239.86L129.93 245.66L126.18 231.86ZM134.78 321.08L120.96 330.08L121.75 309.74L128.03 301L130.33 272.7L137.03 269.47L134.78 321.08ZM167.46 299.82L138.77 318.49L141 267.5L169.11 253.93L167.46 299.82ZM166.18 203.33L174.59 196.45L179.79 244.24L172.87 247.58L166.18 203.33ZM171.67 290.87L173 252L190.15 243.72L192.15 278.6L171.67 290.87ZM191.53 146.77L205.16 134.4L209.73 150.94L210.1 165.94L193.22 177L191.53 146.77ZM193.53 181.45L210.23 170.45L210.6 185.04L194.29 194.87L193.53 181.45ZM194.53 199.3L210.7 189.55L211.22 210.6L195.67 219.48L194.53 199.3ZM195.92 223.9L211.33 215.1L211.68 228.86L196.62 236.13L195.92 223.9ZM198.11 262.3L196.88 240.58L211.88 233.35L213.02 253.71L198.11 262.3Z" fill="#455A64"/>
<g opacity="0.3">
<path d="M215.25 212.78L224.91 207.27V202.71L215.14 208.29L214.61 187.11L224.91 180.9V176.34L214.5 182.62L214.13 167.81L224.91 160.73V156.15L214 163.31L213.64 148L208.92 131L224.92 116.48V108.56L207.69 124.21L205 99.7L224.9 84.35V79.71L204.53 95.43L203 81.6L199 83.87L200.69 99.31L182.1 127.54L167 102.09L159.57 106.32L163.32 112.63L155.5 121.9L152.6 116.29L136.6 131.29L138.1 147.29L110.63 163.15V167.71L142.49 149.32L140.87 132.09L150.51 123.09L153.71 129.28L165.17 115.67L167.7 119.94L130.7 177.36L110.59 195.36V200.1L130.73 182.1L143.21 198.89L132.64 216.89L110.64 239.89V248L122.5 235.64L126.5 250.46L126.56 269.84L110.62 277.53V282.11L126.37 274.51L124.26 300.51L117.88 309.4L116.98 332.54L110.62 336.68V344.3L167.18 307.5L166.26 332L170.26 329.74L171.49 295.48L192.4 283L194.27 316L200.9 312.22L200.09 297.87L224.91 281.69V277.11L199.84 293.45L198.31 266.62L217.16 255.74L215.79 231.34L224.91 226.94V222.35L215.6 226.85L215.25 212.78ZM201.25 104.36L203.8 127.61L189.73 140.4L184 130.65L201.25 104.36ZM162.59 233.93L156.77 237.29L151.41 240.38L148.06 218.1L162.26 206.47L166.1 231.9L162.59 233.93ZM166.74 236.09L168.74 249.49L163.84 251.85L162.84 238.31L166.74 236.09ZM147.43 214L146.03 204.72L167 169L167.88 168.21L169.48 177.21L163.14 183.84L164.66 187.19L179.75 171.37L178.23 168L173.23 173.26L171.71 164.67L185 152.63L186.66 181.81L147.43 214ZM186.9 186.32L189.9 239.32L183.76 242.32L178.42 193.27L186.9 186.32ZM160.25 137.46L164.72 143.74L150.56 165.66L146.09 159.47L160.25 137.46ZM134.25 177.92L143 164.18L149.52 173.18L169.8 141.76L163.29 132.64L169.48 123.04L183.25 146.26L164.34 163.44L163.54 164.16L146.09 193.87L134.25 177.92ZM126.18 231.86L136.37 221.23L142.6 210.63L148 246.9L156.75 241.85L158.9 240.6L159.84 253.78L130.47 268V249.87L138.15 243.99L137.49 239.86L129.93 245.66L126.18 231.86ZM134.78 321.08L120.96 330.08L121.75 309.74L128.03 301L130.33 272.7L137.03 269.47L134.78 321.08ZM167.46 299.82L138.77 318.49L141 267.5L169.11 253.93L167.46 299.82ZM166.18 203.33L174.59 196.45L179.79 244.24L172.87 247.58L166.18 203.33ZM171.67 290.87L173 252L190.15 243.72L192.15 278.6L171.67 290.87ZM191.53 146.77L205.16 134.4L209.73 150.94L210.1 165.94L193.22 177L191.53 146.77ZM193.53 181.45L210.23 170.45L210.6 185.04L194.29 194.87L193.53 181.45ZM194.53 199.3L210.7 189.55L211.22 210.6L195.67 219.48L194.53 199.3ZM195.92 223.9L211.33 215.1L211.68 228.86L196.62 236.13L195.92 223.9ZM198.11 262.3L196.88 240.58L211.88 233.35L213.02 253.71L198.11 262.3Z" fill="white"/>
</g>
<path d="M247.86 221.15C248.77 220.63 249.49 221.05 249.5 222.08L249.56 244.39C249.53 244.953 249.368 245.501 249.086 245.989C248.805 246.477 248.412 246.892 247.94 247.2L195.14 277.68L195.07 251.63L247.86 221.15Z" fill="#0F7275"/>
<g opacity="0.3">
<path d="M247.86 221.15C248.77 220.63 249.49 221.05 249.5 222.08L249.56 244.39C249.53 244.953 249.368 245.501 249.086 245.989C248.805 246.477 248.412 246.892 247.94 247.2L195.14 277.68L195.07 251.63L247.86 221.15Z" fill="white"/>
</g>
<path d="M245.93 239.63L245.94 241.42L207.05 263.88L207.04 262.08L245.93 239.63Z" fill="white"/>
<path d="M222.87 256.77L222.88 258.57L207.06 267.7L207.05 265.91L222.87 256.77Z" fill="white"/>
<path d="M245.92 235.81L245.93 237.61L207.04 260.06L207.03 258.27L245.92 235.81Z" fill="white"/>
<path d="M245.91 231.99V233.78L207.03 256.24L207.02 254.44L245.91 231.99Z" fill="white"/>
<path d="M235.51 232.37L235.52 235.96L207.01 252.41L207 248.83L235.51 232.37Z" fill="white"/>
<path d="M180.93 242.67C187.11 239.1 193.3 238.24 198.04 240.94C206.76 245.94 207.58 261.37 199.95 276.83L181.13 314.94L162.18 298.64C154.47 292.03 155.18 275.64 163.87 260.64C168.57 252.52 174.75 246.24 180.93 242.67Z" fill="#0F7275"/>
<path d="M195.52 278.716C203.556 264.887 203.579 249.904 195.571 245.25C187.563 240.597 174.557 248.036 166.521 261.864C158.485 275.693 158.463 290.676 166.471 295.33C174.479 299.983 187.485 292.545 195.52 278.716Z" fill="#455A64"/>
<path d="M181.1 293.91C186.87 290.57 192.1 284.82 195.8 278.25C194.79 277.425 193.604 276.84 192.334 276.54C191.064 276.24 189.743 276.233 188.47 276.52L185.72 277.14L177 279L169.15 284.9C167.78 285.932 166.653 287.253 165.85 288.768C165.046 290.283 164.585 291.957 164.5 293.67V293.79C168.24 297.51 174.28 297.84 181.1 293.91Z" fill="#0F7275"/>
<path opacity="0.2" d="M181.1 293.91C186.87 290.57 192.1 284.82 195.8 278.25C194.79 277.425 193.604 276.84 192.334 276.54C191.064 276.24 189.743 276.233 188.47 276.52L185.72 277.14L177 279L169.15 284.9C167.78 285.932 166.653 287.253 165.85 288.768C165.046 290.283 164.585 291.957 164.5 293.67V293.79C168.24 297.51 174.28 297.84 181.1 293.91Z" fill="black"/>
<path d="M187.66 159.77C188.57 159.25 189.29 159.67 189.3 160.7L189.36 183.01C189.329 183.573 189.166 184.12 188.884 184.608C188.603 185.096 188.211 185.511 187.74 185.82L134.94 216.3L134.87 190.25L187.66 159.77Z" fill="#0F7275"/>
<g opacity="0.3">
<path d="M187.66 159.77C188.57 159.25 189.29 159.67 189.3 160.7L189.36 183.01C189.329 183.573 189.166 184.12 188.884 184.608C188.603 185.096 188.211 185.511 187.74 185.82L134.94 216.3L134.87 190.25L187.66 159.77Z" fill="white"/>
</g>
<path d="M185.73 178.25L185.74 180.04L146.85 202.49L146.84 200.7L185.73 178.25Z" fill="white"/>
<path d="M162.67 195.39L162.68 197.19L146.86 206.32L146.85 204.52L162.67 195.39Z" fill="white"/>
<path d="M185.72 174.43L185.73 176.23L146.84 198.68L146.83 196.88L185.72 174.43Z" fill="white"/>
<path d="M185.71 170.61L185.72 172.4L146.82 194.85V193.06L185.71 170.61Z" fill="white"/>
<path d="M175.31 170.99L175.32 174.57L146.81 191.03L146.8 187.44L175.31 170.99Z" fill="white"/>
<path d="M120.73 180C126.91 176.43 133.1 175.57 137.84 178.27C146.56 183.27 147.38 198.7 139.74 214.16L120.93 252.3L102 236C94.3 229.39 95 213 103.7 198C108.37 189.88 114.55 183.6 120.73 180Z" fill="#0F7275"/>
<path d="M135.325 216.075C143.361 202.246 143.383 187.263 135.375 182.61C127.367 177.956 114.361 185.395 106.325 199.224C98.2896 213.053 98.2672 228.035 106.275 232.689C114.283 237.342 127.289 229.904 135.325 216.075Z" fill="#455A64"/>
<path d="M274.4 67.38C275.3 66.86 276.03 67.28 276.03 68.31L276.09 90.62C276.062 91.1832 275.9 91.7317 275.619 92.2202C275.337 92.7088 274.943 93.1234 274.47 93.43L221.68 123.91L221.6 97.91L274.4 67.38Z" fill="#0F7275"/>
<g opacity="0.3">
<path d="M274.4 67.38C275.3 66.86 276.03 67.28 276.03 68.31L276.09 90.62C276.062 91.1832 275.9 91.7317 275.619 92.2202C275.337 92.7088 274.943 93.1234 274.47 93.43L221.68 123.91L221.6 97.91L274.4 67.38Z" fill="white"/>
</g>
<path d="M272.47 85.86V87.65L233.58 110.11V108.31L272.47 85.86Z" fill="white"/>
<path d="M249.4 103L249.41 104.8L233.59 113.93V112.14L249.4 103Z" fill="white"/>
<path d="M272.45 82.04L272.46 83.84L233.57 106.29L233.56 104.5L272.45 82.04Z" fill="white"/>
<path d="M272.44 78.22L272.45 80.01L233.56 102.47V100.67L272.44 78.22Z" fill="white"/>
<path d="M262.04 78.6L262.05 82.19L233.55 98.64L233.54 95.06L262.04 78.6Z" fill="white"/>
<path d="M206.06 91.46C212.24 87.89 218.43 87.03 223.17 89.73C231.89 94.73 232.71 110.16 225.07 125.62L206.26 163.73L187.26 147.43C179.56 140.82 180.26 124.43 188.96 109.43C193.7 101.31 199.88 95 206.06 91.46Z" fill="#0F7275"/>
<path d="M220.655 127.512C228.691 113.683 228.713 98.7004 220.705 94.0471C212.697 89.3938 199.691 96.8321 191.655 110.661C183.62 124.49 183.597 139.473 191.605 144.126C199.613 148.779 212.619 141.341 220.655 127.512Z" fill="#455A64"/>
<path d="M296.07 270.49C285.83 277.6 274.29 282.49 265.73 292.06C249.73 309.88 249.38 338.55 261.93 358.93C274.48 379.31 297.83 391.55 321.6 394.35C346.54 397.29 372.71 390.35 392.27 374.66C411.83 358.97 424.27 334.33 424.27 309.21C424.27 284.09 411.39 259.1 390.36 245.38C371.17 232.86 343.6 229.29 324.36 243.61C314.63 250.85 308.14 261.54 298.43 268.8C297.65 269.38 296.86 269.94 296.07 270.49Z" fill="#0F7275"/>
<path opacity="0.3" d="M296.07 270.49C285.83 277.6 274.29 282.49 265.73 292.06C249.73 309.88 249.38 338.55 261.93 358.93C274.48 379.31 297.83 391.55 321.6 394.35C346.54 397.29 372.71 390.35 392.27 374.66C411.83 358.97 424.27 334.33 424.27 309.21C424.27 284.09 411.39 259.1 390.36 245.38C371.17 232.86 343.6 229.29 324.36 243.61C314.63 250.85 308.14 261.54 298.43 268.8C297.65 269.38 296.86 269.94 296.07 270.49Z" fill="black"/>
<path opacity="0.1" d="M300.25 374.88C300.25 374.71 300.25 374.54 300.32 374.37C301.172 368.817 303.734 363.668 307.651 359.64C311.568 355.612 316.643 352.907 322.17 351.9C332.064 350.01 341.544 346.381 350.17 341.18C356.28 337.48 362.06 332.95 368.93 330.94C375.605 329.025 382.733 329.441 389.14 332.12C383.38 326.06 373.49 323.4 365.59 326.12C371.06 317.75 375.87 308.73 377.75 298.91C379.63 289.09 378.3 278.32 372.38 270.26C369.855 266.826 366.599 263.995 362.848 261.97C359.097 259.945 354.944 258.777 350.688 258.549C346.431 258.322 342.177 259.04 338.232 260.654C334.286 262.267 330.748 264.735 327.87 267.88C322.01 274.3 318.7 283.32 314.87 291.12C312.1 296.71 309.24 302.44 304.68 306.7C297.8 313.14 287.91 315.46 280.77 321.62C272.69 328.62 269.2 339.76 269.16 350.44C269.293 357.647 270.345 364.809 272.29 371.75C280.654 379.73 290.626 385.83 301.54 389.64C299.949 384.891 299.507 379.833 300.25 374.88Z" fill="black"/>
<path d="M410.89 305.77C410.572 288.43 404.116 271.764 392.668 258.735C381.221 245.706 365.525 237.158 348.37 234.61C345.989 234.845 343.627 235.242 341.3 235.8C359.336 236.76 376.34 244.512 388.892 257.498C401.444 270.485 408.614 287.742 408.96 305.8C409.41 329.17 397.96 352.99 378.37 369.52C363.01 382.52 342.6 391.06 320.16 394.16L321.6 394.34C323.6 394.58 325.6 394.75 327.67 394.86C347.6 390.99 365.67 382.77 379.62 371C399.67 354.1 411.36 329.72 410.89 305.77Z" fill="white"/>
<path d="M272.79 370.51C273.495 374.208 273.896 377.957 273.99 381.72L276.65 380.72C277.906 380.254 279.27 380.165 280.576 380.464C281.881 380.762 283.071 381.435 284 382.4L284.13 382.54C284.606 383.036 285.254 383.331 285.941 383.362C286.628 383.394 287.301 383.16 287.82 382.71C288.099 382.467 288.324 382.17 288.483 381.836C288.641 381.502 288.729 381.139 288.74 380.77L289.1 369.46L272.79 370.51Z" fill="#916160"/>
<path d="M283.05 412.58C277.53 418.48 267.37 423.64 259.99 418.58L260.82 420.45C268.2 425.45 278.36 420.33 283.88 414.45C289.4 408.57 285.82 404.45 290.78 399.22C292.653 397.425 294.119 395.249 295.08 392.84C294.86 392.28 294.65 391.54 294.39 390.7C293.314 393.156 291.814 395.403 289.96 397.34C285 402.59 288.57 406.68 283.05 412.58Z" fill="white"/>
<path d="M291.67 384.54C290.821 383.341 290.228 381.979 289.93 380.54C289.881 380.203 289.758 379.881 289.569 379.597C289.381 379.314 289.132 379.076 288.84 378.9L288.78 380.79C288.763 381.317 288.59 381.827 288.285 382.256C287.979 382.685 287.554 383.015 287.062 383.204C286.57 383.393 286.033 383.432 285.519 383.318C285.005 383.203 284.535 382.94 284.17 382.56L284.04 382.42C283.108 381.447 281.911 380.769 280.597 380.471C279.283 380.172 277.911 380.266 276.65 380.74L273.95 381.74C273.544 381.89 273.196 382.164 272.953 382.523C272.711 382.882 272.588 383.307 272.6 383.74C272.77 391.48 269.16 401.74 265.37 407.4C261.47 409.02 258.1 414.33 259.82 418.23L259.99 418.62C267.37 423.62 277.53 418.49 283.05 412.62C288.57 406.75 284.99 402.62 289.96 397.39C291.814 395.453 293.314 393.206 294.39 390.75C293.776 388.564 292.86 386.474 291.67 384.54Z" fill="#0F7275"/>
<path d="M280.87 395.72C281.09 395.809 281.334 395.813 281.556 395.731C281.779 395.649 281.962 395.487 282.071 395.277C282.18 395.066 282.206 394.823 282.145 394.594C282.084 394.365 281.939 394.168 281.74 394.04C280.123 393.127 278.297 392.647 276.44 392.647C274.583 392.647 272.757 393.127 271.14 394.04C270.97 394.65 270.8 395.26 270.61 395.86C272.161 394.949 273.923 394.457 275.722 394.432C277.52 394.407 279.295 394.851 280.87 395.72Z" fill="white"/>
<path d="M282.23 391.53C282.451 391.645 282.71 391.668 282.948 391.593C283.186 391.518 283.385 391.351 283.5 391.13C283.615 390.909 283.638 390.65 283.563 390.412C283.488 390.174 283.321 389.975 283.1 389.86C281.41 388.939 279.513 388.463 277.588 388.479C275.664 388.495 273.775 389.001 272.1 389.95C271.99 390.58 271.86 391.21 271.72 391.84C274.91 390.15 278.15 389.47 282.23 391.53Z" fill="white"/>
<path d="M279.38 399.88C279.602 399.995 279.86 400.018 280.098 399.943C280.336 399.868 280.535 399.701 280.65 399.48C280.765 399.258 280.788 399 280.713 398.762C280.638 398.524 280.472 398.325 280.25 398.21C278.67 397.317 276.889 396.838 275.074 396.819C273.259 396.8 271.469 397.24 269.87 398.1C269.64 398.76 269.39 399.4 269.14 400.03C270.688 399.122 272.446 398.63 274.24 398.604C276.035 398.578 277.806 399.017 279.38 399.88Z" fill="white"/>
<path d="M265.37 407.39C261.47 409.01 258.1 414.32 259.82 418.22L259.99 418.61C267.27 423.61 277.23 418.61 282.8 412.84C278.15 403.73 268.44 406 265.37 407.39Z" fill="white"/>
<path d="M277.75 404C277.973 404.107 278.229 404.122 278.463 404.042C278.697 403.961 278.89 403.792 279 403.57C279.113 403.352 279.135 403.099 279.062 402.865C278.989 402.631 278.827 402.435 278.61 402.32C277.027 401.427 275.244 400.951 273.427 400.935C271.609 400.919 269.818 401.365 268.22 402.23C267.89 402.95 267.55 403.64 267.22 404.31C270.42 402.56 273.67 401.88 277.75 404Z" fill="white"/>
<path d="M261.19 393C260.341 396.667 259.194 400.259 257.76 403.74L260.6 403.89C261.945 403.964 263.238 404.432 264.319 405.236C265.4 406.04 266.221 407.144 266.68 408.41L266.75 408.59C266.982 409.239 267.456 409.773 268.073 410.081C268.69 410.388 269.402 410.445 270.06 410.24C270.412 410.131 270.737 409.95 271.016 409.709C271.295 409.468 271.521 409.172 271.68 408.84L276.57 398.63L261.19 393Z" fill="#916160"/>
<path d="M253.6 435.65C246.17 438.82 234.79 439.44 230.07 431.85V433.91C234.79 441.49 246.17 440.91 253.6 437.7C261.03 434.49 259.41 429.34 266.06 426.55C268.5 425.668 270.721 424.27 272.57 422.45C272.57 421.85 272.7 421.09 272.8 420.21C270.824 422.026 268.542 423.478 266.06 424.5C259.41 427.29 261 432.47 253.6 435.65Z" fill="white"/>
<path d="M272.8 413.47C272.495 412.026 272.495 410.534 272.8 409.09C272.888 408.761 272.903 408.417 272.844 408.082C272.785 407.747 272.654 407.429 272.46 407.15L271.64 408.86C271.414 409.338 271.051 409.738 270.597 410.009C270.144 410.281 269.619 410.411 269.091 410.384C268.563 410.358 268.055 410.175 267.631 409.859C267.207 409.543 266.887 409.108 266.71 408.61L266.64 408.43C266.181 407.163 265.36 406.06 264.279 405.256C263.198 404.452 261.905 403.984 260.56 403.91L257.68 403.75C257.256 403.735 256.838 403.85 256.481 404.078C256.123 404.307 255.844 404.639 255.68 405.03C252.68 412.18 245.25 420.13 239.5 423.77C235.29 423.67 230.06 427.17 230.06 431.43V431.85C234.78 439.44 246.16 438.85 253.59 435.65C261.02 432.45 259.4 427.29 266.05 424.5C268.532 423.478 270.814 422.026 272.79 420.21C273.107 417.975 273.11 415.706 272.8 413.47Z" fill="#0F7275"/>
<path d="M258.41 419.34C258.577 419.518 258.804 419.628 259.047 419.65C259.29 419.672 259.533 419.605 259.73 419.46C259.921 419.307 260.044 419.084 260.072 418.841C260.1 418.597 260.031 418.353 259.88 418.16C258.768 416.672 257.291 415.497 255.592 414.749C253.892 414.001 252.028 413.705 250.18 413.89C249.78 414.38 249.38 414.89 248.96 415.35C250.746 415.137 252.556 415.394 254.213 416.093C255.87 416.793 257.317 417.912 258.41 419.34Z" fill="white"/>
<path d="M261.34 416.06C261.507 416.238 261.734 416.348 261.977 416.37C262.22 416.392 262.463 416.325 262.66 416.18C262.851 416.027 262.974 415.804 263.002 415.561C263.03 415.317 262.961 415.073 262.81 414.88C261.636 413.348 260.09 412.142 258.319 411.376C256.548 410.609 254.61 410.308 252.69 410.5C252.33 411.04 251.96 411.56 251.57 412.09C255.2 411.83 258.44 412.52 261.34 416.06Z" fill="white"/>
<path d="M255.37 422.54C255.527 422.735 255.754 422.86 256.003 422.887C256.251 422.914 256.5 422.841 256.695 422.685C256.89 422.529 257.015 422.301 257.042 422.053C257.069 421.804 256.997 421.555 256.84 421.36C255.751 419.911 254.314 418.759 252.663 418.011C251.011 417.263 249.198 416.943 247.39 417.08C246.91 417.59 246.39 418.08 245.93 418.55C247.714 418.342 249.522 418.601 251.176 419.3C252.831 419.999 254.276 421.116 255.37 422.54Z" fill="white"/>
<path d="M239.51 423.77C235.3 423.67 230.07 427.17 230.07 431.43V431.85C234.72 439.33 245.83 438.85 253.26 435.78C252.69 425.57 242.89 423.73 239.51 423.77Z" fill="white"/>
<path d="M252.23 425.61C252.397 425.788 252.624 425.898 252.867 425.92C253.11 425.942 253.353 425.875 253.55 425.73C253.741 425.577 253.864 425.354 253.892 425.111C253.92 424.867 253.851 424.623 253.7 424.43C252.614 422.972 251.175 421.814 249.518 421.066C247.862 420.317 246.042 420.002 244.23 420.15C243.64 420.67 243.05 421.15 242.46 421.64C246.09 421.38 249.33 422.07 252.23 425.61Z" fill="white"/>
<path d="M304.84 296.36L267.65 317.08C264.278 318.958 261.581 321.848 259.94 325.341C258.298 328.835 257.794 332.755 258.5 336.55L265.72 375.43L259.8 394.24C264.9 401.09 276.63 401.43 276.63 401.43C283.17 388.31 287.97 382.74 291.69 371.75C295.41 360.76 297.88 353.17 297.88 353.17L328.77 344.73C335.833 342.809 342.159 338.816 346.931 333.265C351.702 327.715 354.701 320.862 355.54 313.59C356.06 308.91 356.09 305.72 356.09 305.72L304.84 296.36Z" fill="#37474F"/>
<path opacity="0.2" d="M305.13 306.81C305.134 310.96 306.607 314.974 309.29 318.14L283 334.57C279.16 336.988 276.32 340.708 275 345.05L265.71 375.43L274.09 341.59C275.049 337.7 277.499 334.342 280.91 332.24L305.14 317.24C302.68 311.06 305.13 306.81 305.13 306.81Z" fill="black"/>
<path d="M296.65 277.58C294 282.58 275.13 280.34 275.92 272.16C280.88 261.81 296.5 268.49 296.65 277.58Z" fill="#0F7275"/>
<path d="M308.87 232.45H307.87C301.45 232.52 293.32 236.89 289.34 248.11L274 278L291.62 285.82L301.26 257.6L308.87 232.45Z" fill="#916160"/>
<path d="M296.5 252.29C295.27 255.82 295.19 259.63 295 263.36C294.81 267.09 294.37 271.61 292.66 274.93C290.777 273.627 288.522 272.968 286.234 273.051C283.945 273.134 281.744 273.954 279.96 275.39C278.686 276.462 277.702 277.837 277.1 279.39L291.57 285.81L301.21 257.59L306 242.05C303.814 243.038 301.848 244.452 300.216 246.211C298.585 247.969 297.321 250.036 296.5 252.29Z" fill="#7A4C4A"/>
<path d="M291.73 280.43C291.059 278.762 289.971 277.294 288.57 276.166C287.17 275.039 285.503 274.289 283.73 273.99C280.2 273.42 276.2 275.26 273.92 277.99C272 280.32 272.3 283.46 273.51 286.22C274.526 288.364 276.252 290.09 278.395 291.105C280.539 292.12 282.968 292.362 285.27 291.79C289.85 290.54 293.45 284.84 291.73 280.43Z" fill="#916160"/>
<path d="M308.87 232.45C301.19 231.6 291.41 233.45 275.92 272.16C285.05 263.1 296.65 277.58 296.65 277.58C303.28 262 315 235.93 315 235.93L308.87 232.45Z" fill="#0F7275"/>
<path opacity="0.2" d="M308.87 232.45C301.19 231.6 291.41 233.45 275.92 272.16C285.05 263.1 296.65 277.58 296.65 277.58C303.28 262 315 235.93 315 235.93L308.87 232.45Z" fill="white"/>
<path d="M359.9 322.92C345 335.3 314.56 305.34 298.23 300C303.23 288.59 303.23 278.18 302.23 266.67C301.23 255.16 294.47 235.02 307.32 232.67C324.48 229.32 333.15 232.4 347.16 236.04C367.26 265 360.93 301.31 359.9 322.92Z" fill="#0F7275"/>
<path opacity="0.7" d="M359.9 322.92C345 335.3 314.56 305.34 298.23 300C303.23 288.59 303.23 278.18 302.23 266.67C301.23 255.16 294.47 235.02 307.32 232.67C324.48 229.32 333.15 232.4 347.16 236.04C367.26 265 360.93 301.31 359.9 322.92Z" fill="white"/>
<path d="M314.79 226.85L315.46 234.29C315.493 234.867 315.346 235.44 315.04 235.93C314.626 236.706 314.466 237.593 314.582 238.465C314.699 239.337 315.086 240.15 315.69 240.79C316.65 241.515 317.817 241.911 319.02 241.92C321.288 242.04 323.556 241.68 325.676 240.863C327.796 240.046 329.719 238.791 331.32 237.18C331.65 236.844 331.908 236.445 332.08 236.007C332.252 235.569 332.333 235.1 332.32 234.63L331.83 215.75L314.79 226.85Z" fill="#916160"/>
<path d="M331.8 215.75L314.8 226.85L315.39 233.45C319 232.6 322.63 231.56 325.48 229.24C329.1 226.29 332.29 223.36 331.8 215.75Z" fill="#7A4C4A"/>
<path d="M337 204.32C338.701 202.322 339.548 199.737 339.36 197.12C339.057 194.409 337.748 191.911 335.69 190.12C336.388 188.832 336.698 187.371 336.585 185.911C336.471 184.45 335.938 183.054 335.05 181.89C334.097 180.793 332.846 179.996 331.449 179.597C330.052 179.197 328.569 179.212 327.18 179.64C326.391 178.543 325.37 177.632 324.189 176.974C323.009 176.316 321.698 175.925 320.35 175.83C317.65 175.65 314.96 176.13 313.13 178.11C312.06 177.466 310.856 177.075 309.612 176.968C308.367 176.86 307.115 177.039 305.95 177.49C304.753 178.018 303.686 178.801 302.822 179.783C301.959 180.766 301.32 181.925 300.95 183.18C299.619 182.927 298.245 183.016 296.958 183.44C295.67 183.863 294.511 184.606 293.59 185.6C291.78 187.6 291.19 191.42 291.99 194C291.436 194.823 291.062 195.754 290.892 196.731C290.721 197.709 290.758 198.711 291.001 199.673C291.243 200.635 291.685 201.535 292.299 202.315C292.912 203.095 293.682 203.737 294.56 204.2C294.309 206.209 294.75 208.243 295.809 209.968C296.869 211.693 298.485 213.006 300.39 213.69C301.019 215.227 302.01 216.59 303.279 217.661C304.549 218.732 306.059 219.479 307.68 219.84C311.028 220.42 314.467 220.145 317.68 219.04C325.52 216.64 331.61 210.56 337 204.32Z" fill="#263238"/>
<path d="M320.54 195C320.797 196.254 321.252 197.46 321.89 198.57C322.264 199.23 322.784 199.797 323.409 200.226C324.034 200.656 324.75 200.938 325.5 201.05C325.671 201.076 325.828 201.157 325.948 201.282C326.067 201.407 326.142 201.568 326.16 201.74L327 208C326.996 208.381 327.076 208.758 327.235 209.104C327.394 209.449 327.628 209.756 327.92 210C328.236 210.148 328.59 210.196 328.935 210.139C329.279 210.082 329.598 209.922 329.85 209.68C330.345 209.205 330.736 208.633 331 208C331.557 206.645 332.308 205.379 333.23 204.24C333.694 203.672 334.273 203.21 334.931 202.886C335.588 202.562 336.307 202.382 337.04 202.36C339.43 202.42 341.25 204.8 341.5 207.18C341.617 208.408 341.426 209.645 340.944 210.78C340.462 211.915 339.705 212.912 338.74 213.68C337.745 214.391 336.586 214.84 335.371 214.985C334.157 215.13 332.925 214.967 331.79 214.51C332.87 218.65 330.71 223.09 327.48 225.9C324.25 228.71 320.14 230.23 316.12 231.69C313.92 232.49 311.59 233.29 309.3 232.87C307.428 232.447 305.749 231.413 304.53 229.93C303.335 228.449 302.349 226.81 301.6 225.06C297.941 217.16 295.869 208.618 295.5 199.92C298.73 199.51 318.71 195.72 320.54 195Z" fill="#916160"/>
<path d="M309.42 210.76L306.04 219.66L311.94 219.73L309.42 210.76Z" fill="#F28F8F"/>
<path d="M309.42 210.76L306.04 219.66L311.94 219.73L309.42 210.76Z" fill="#7A4C4A"/>
<path d="M317.92 221.54L313.92 224.41C314.379 224.835 314.963 225.1 315.585 225.165C316.207 225.23 316.834 225.091 317.37 224.77C317.818 224.376 318.118 223.841 318.218 223.252C318.318 222.664 318.213 222.06 317.92 221.54Z" fill="#F28F8F"/>
<path opacity="0.4" d="M317.92 221.54L313.92 224.41C314.379 224.835 314.963 225.1 315.585 225.165C316.207 225.23 316.834 225.091 317.37 224.77C317.818 224.376 318.118 223.841 318.218 223.252C318.318 222.664 318.213 222.06 317.92 221.54Z" fill="black"/>
<path d="M315.93 225.17C316.452 225.185 316.967 225.046 317.41 224.77C317.768 224.476 318.031 224.083 318.166 223.64C318.302 223.197 318.303 222.724 318.17 222.28C317.548 222.386 316.981 222.7 316.56 223.17C316.094 223.727 315.868 224.446 315.93 225.17Z" fill="#F28F8F"/>
<path d="M317.73 209.64C317.817 209.956 317.808 210.291 317.704 210.602C317.601 210.913 317.407 211.187 317.149 211.388C316.89 211.589 316.577 211.71 316.251 211.734C315.924 211.758 315.597 211.684 315.311 211.523C315.026 211.361 314.795 211.119 314.647 210.826C314.499 210.534 314.442 210.204 314.481 209.878C314.52 209.553 314.655 209.246 314.869 208.998C315.082 208.749 315.364 208.569 315.68 208.48C315.891 208.421 316.111 208.404 316.329 208.43C316.546 208.456 316.756 208.526 316.947 208.633C317.137 208.741 317.304 208.886 317.439 209.058C317.573 209.231 317.672 209.429 317.73 209.64Z" fill="#263238"/>
<path d="M304.14 212.9C304.227 213.216 304.218 213.551 304.114 213.862C304.011 214.173 303.817 214.447 303.559 214.648C303.3 214.849 302.987 214.97 302.66 214.994C302.333 215.018 302.007 214.944 301.721 214.783C301.436 214.621 301.205 214.379 301.057 214.086C300.909 213.794 300.852 213.464 300.891 213.138C300.93 212.813 301.065 212.506 301.279 212.258C301.492 212.009 301.774 211.829 302.09 211.74C302.516 211.623 302.97 211.68 303.354 211.897C303.739 212.114 304.021 212.475 304.14 212.9Z" fill="#263238"/>
<path d="M300.79 207L297.93 210.45C297.652 210.053 297.502 209.58 297.502 209.095C297.502 208.61 297.652 208.137 297.93 207.74C298.291 207.363 298.75 207.095 299.255 206.964C299.76 206.833 300.292 206.846 300.79 207Z" fill="#263238"/>
<path d="M314.45 202.91L318.69 204.37C318.722 203.887 318.605 203.405 318.354 202.99C318.104 202.575 317.733 202.247 317.29 202.05C316.784 201.915 316.25 201.924 315.748 202.076C315.246 202.228 314.797 202.517 314.45 202.91Z" fill="#263238"/>
<path opacity="0.15" d="M309.91 307.85C309.91 307.85 309.91 307.85 309.91 307.79V307.74C309.914 307.72 309.914 307.7 309.91 307.68C309.906 307.66 309.906 307.64 309.91 307.62V307.56V307.5L298.23 286L296.65 287.81L308.18 309.29C308.254 309.41 308.305 309.542 308.33 309.68C308.34 309.721 308.34 309.764 308.332 309.806C308.323 309.847 308.306 309.886 308.28 309.92L309.86 308.1C309.869 308.074 309.869 308.046 309.86 308.02C309.864 307.997 309.864 307.973 309.86 307.95C309.886 307.922 309.903 307.887 309.91 307.85Z" fill="black"/>
<path opacity="0.2" d="M298.2 285.9V285.84V285.77L298.15 285.71C298.152 285.687 298.152 285.663 298.15 285.64V285.57L298.09 285.5L298.04 285.43L297.99 285.37L297.94 285.31V285.26V285.21L297.78 285.06H297.72H297.66L297.6 285.01H297.53H297.46L297.38 284.96L284.12 277.5H284.04H283.97H283.89H283.82H283.75H283.68H283.61H283.54H283.47H283.22C283.183 277.498 283.146 277.505 283.111 277.518C283.077 277.532 283.046 277.553 283.02 277.58L281.44 279.39C281.51 279.31 281.64 279.29 281.83 279.32C282.087 279.387 282.333 279.491 282.56 279.63L295.82 287.09C296.08 287.242 296.33 287.409 296.57 287.59C296.825 287.783 297.068 287.99 297.3 288.21C297.523 288.421 297.733 288.644 297.93 288.88C298.093 289.078 298.24 289.289 298.37 289.51L299.95 287.7L298.2 285.9Z" fill="black"/>
<path d="M355.64 241.88C353.76 238.65 350.88 236.38 347.15 236.09L344.92 239.5C342.596 243.75 341.405 248.526 341.46 253.37L341.86 289.2L339.23 290.3C331.834 293.491 324.102 295.84 316.18 297.3C312.048 294.027 306.911 292.285 301.64 292.37L303.64 296.01C299.93 298.38 291.56 294.11 291.56 294.11C290.94 299.33 294.33 304.75 298.81 307.5C303.29 310.25 346.14 306.21 355.22 300.33C361.22 296.46 359.78 259.51 359.78 259.51C360.2 253.351 358.757 247.208 355.64 241.88Z" fill="#916160"/>
<path d="M282.47 283.25C282.189 284.664 282.025 286.099 281.98 287.54C282.318 290.965 283.773 294.183 286.12 296.7C286.604 297.25 287.21 297.678 287.89 297.95C288.233 298.082 288.604 298.123 288.968 298.066C289.331 298.01 289.673 297.86 289.96 297.63C290.463 297.026 290.721 296.255 290.68 295.47C290.787 294.31 290.723 293.141 290.49 292C290.245 290.852 289.595 289.83 288.66 289.12C287.929 288.696 287.15 288.36 286.34 288.12C285.544 287.785 284.836 287.272 284.27 286.62L282.47 283.25Z" fill="#916160"/>
<path d="M347.15 236.09C363.43 239.6 361.88 256.09 363.45 266.36C364.45 272.45 365.97 285.83 365.97 285.83C357.1 294.03 341.35 288.63 337.43 284.37C338.91 263.75 335.9 239.59 347.15 236.09Z" fill="#0F7275"/>
<path opacity="0.2" d="M347.15 236.09C363.43 239.6 361.88 256.09 363.45 266.36C364.45 272.45 365.97 285.83 365.97 285.83C357.1 294.03 341.35 288.63 337.43 284.37C338.91 263.75 335.9 239.59 347.15 236.09Z" fill="white"/>
<path d="M309.91 307.85C309.91 307.85 309.91 307.85 309.91 307.79V307.74C309.914 307.72 309.914 307.7 309.91 307.68C309.906 307.66 309.906 307.64 309.91 307.62V307.56V307.5L298.23 286V285.94V285.88V285.81L298.18 285.75C298.182 285.727 298.182 285.703 298.18 285.68V285.61L298.12 285.54L298.07 285.47L298.02 285.41L297.97 285.35V285.3V285.25L297.81 285.1H297.75H297.69L297.63 285.05H297.56H297.49L297.41 285L284.15 277.54H284.07H284H283.92H283.85H283.78H283.71H283.64H283.57H283.5H283.25C283.213 277.538 283.176 277.544 283.141 277.558C283.107 277.572 283.076 277.593 283.05 277.62L281.47 279.43H281.52C281.39 279.53 281.38 279.74 281.57 280.09L293.11 301.57C293.752 302.565 294.623 303.391 295.65 303.98L308.91 311.44C309.6 311.82 310.01 311.83 310.06 311.55C310.06 311.55 310.06 311.65 310.06 311.67L311.64 309.85C311.649 309.824 311.649 309.796 311.64 309.77C311.644 309.747 311.644 309.723 311.64 309.7C311.761 309.586 311.859 309.45 311.928 309.299C311.997 309.147 312.035 308.984 312.041 308.817C312.046 308.651 312.019 308.485 311.961 308.33C311.902 308.174 311.814 308.031 311.7 307.91C311.586 307.788 311.45 307.691 311.299 307.622C311.147 307.553 310.984 307.515 310.817 307.509C310.651 307.504 310.486 307.531 310.33 307.589C310.174 307.648 310.031 307.736 309.91 307.85ZM280 277.6C280 277.6 280.05 277.6 280.09 277.6C280.06 277.598 280.03 277.598 280 277.6ZM295.21 286.16C295.33 286.27 295.46 286.36 295.57 286.47C295.47 286.36 295.34 286.27 295.22 286.16H295.21ZM308.31 309.68C308.303 309.527 308.254 309.378 308.17 309.25C308.244 309.37 308.294 309.502 308.32 309.64C308.32 309.64 308.32 309.66 308.32 309.68H308.31Z" fill="#E0E0E0"/>
<path d="M457.86 336.88L441.33 337.36L424.8 336.88C424.09 348.04 426.26 359.42 429.27 364.98C429.985 366.405 431.128 367.569 432.54 368.31C437.42 371.12 445.3 371.12 450.15 368.31C451.587 367.561 452.736 366.359 453.42 364.89C456.41 359.3 458.57 348 457.86 336.88Z" fill="white"/>
<path d="M453 330.11C459.48 333.85 459.51 339.91 453.08 343.65C446.65 347.39 436.17 347.39 429.7 343.65C423.23 339.91 423.19 333.85 429.62 330.11C436.05 326.37 446.5 326.37 453 330.11Z" fill="#EBEBEB"/>
<path d="M450.42 331.6C455.47 334.51 455.5 339.24 450.48 342.16C445.46 345.08 437.29 345.08 432.24 342.16C427.19 339.24 427.16 334.51 432.18 331.6C437.2 328.69 445.37 328.68 450.42 331.6Z" fill="#E0E0E0"/>
<g opacity="0.15">
<path d="M450.42 331.6C455.47 334.51 455.5 339.24 450.48 342.16C445.46 345.08 437.29 345.08 432.24 342.16C427.19 339.24 427.16 334.51 432.18 331.6C437.2 328.69 445.37 328.68 450.42 331.6Z" fill="black"/>
</g>
<path d="M468.51 266.34C431.25 278.54 430.92 303.46 439.32 321.21C441.43 324.8 447.84 326.73 453.42 304.65L443.64 305.91L455.04 300.13L458.04 291.28L448.54 291.98L460.6 286.91C462.811 279.897 465.453 273.027 468.51 266.34Z" fill="#0F7275"/>
<path opacity="0.2" d="M468.51 266.34C431.25 278.54 430.92 303.46 439.32 321.21C441.43 324.8 447.84 326.73 453.42 304.65L443.64 305.91L455.04 300.13L458.04 291.28L448.54 291.98L460.6 286.91C462.811 279.897 465.453 273.027 468.51 266.34Z" fill="black"/>
<path opacity="0.2" d="M468.51 266.34C431.25 278.54 430.92 303.46 439.32 321.21C441.43 324.8 447.84 326.73 453.42 304.65L443.64 305.91L455.04 300.13L458.04 291.28L448.54 291.98L460.6 286.91C462.811 279.897 465.453 273.027 468.51 266.34Z" fill="white"/>
<path d="M458 272.57C438.36 287.48 436.58 304.57 442.13 322.42C440.14 306.71 438 290.82 458 272.57Z" fill="white"/>
<path d="M405.41 291.65C442.13 296.82 446.59 319.98 441.71 337.9C440.34 341.6 434.71 344.46 425.83 324.83L435.15 324.38L423.57 320.89L419.34 313.13L428.34 312.21L416.26 309.49C413.014 303.326 409.39 297.368 405.41 291.65Z" fill="#0F7275"/>
<path opacity="0.2" d="M405.41 291.65C442.13 296.82 446.59 319.98 441.71 337.9C440.34 341.6 434.71 344.46 425.83 324.83L435.15 324.38L423.57 320.89L419.34 313.13L428.34 312.21L416.26 309.49C413.014 303.326 409.39 297.368 405.41 291.65Z" fill="white"/>
<path opacity="0.1" d="M405.41 291.65C442.13 296.82 446.59 319.98 441.71 337.9C440.34 341.6 434.71 344.46 425.83 324.83L435.15 324.38L423.57 320.89L419.34 313.13L428.34 312.21L416.26 309.49C413.014 303.326 409.39 297.368 405.41 291.65Z" fill="black"/>
<path d="M416.26 295.71C437 306.33 441.52 322 439.32 339.5C438.54 324.54 437.87 309.39 416.26 295.71Z" fill="white"/>
<path d="M479.26 300.33C445.58 300.88 438.97 321.25 441.36 337.95C442.18 341.44 446.96 344.65 457.14 327.95L448.79 326.5L459.62 324.65L464.3 318.13L456.3 316.3L467.49 315.2C471.105 310.007 475.035 305.041 479.26 300.33Z" fill="#0F7275"/>
<path d="M469 302.77C449.09 310.02 443.29 323.6 443.32 339.66C445.72 326.26 448 312.68 469 302.77Z" fill="white"/>
<path opacity="0.2" d="M479.26 300.33C445.58 300.88 438.97 321.25 441.36 337.95C442.18 341.44 446.96 344.65 457.14 327.95L448.79 326.5L459.62 324.65L464.3 318.13L456.3 316.3L467.49 315.2C471.105 310.007 475.035 305.041 479.26 300.33Z" fill="white"/>
<g clip-path="url(#clip0_332_10953)">
<path d="M131.562 212.419C131.792 212.296 131.979 211.986 131.979 211.726C131.979 211.466 131.792 211.354 131.562 211.476C131.332 211.598 131.146 211.908 131.146 212.169C131.146 212.429 131.332 212.541 131.562 212.419Z" fill="#94C3B3"/>
<path d="M130.73 211.447C130.96 211.325 131.146 211.015 131.146 210.754C131.146 210.494 130.96 210.382 130.73 210.504C130.5 210.627 130.314 210.937 130.314 211.197C130.314 211.457 130.5 211.569 130.73 211.447Z" fill="#94C3B3"/>
<path d="M129.897 210.476C130.127 210.353 130.314 210.043 130.314 209.783C130.314 209.522 130.127 209.41 129.897 209.533C129.668 209.655 129.481 209.965 129.481 210.225C129.481 210.486 129.668 210.598 129.897 210.476Z" fill="#94C3B3"/>
<path d="M131.562 209.59C131.792 209.468 131.979 209.158 131.979 208.898C131.979 208.637 131.792 208.525 131.562 208.647C131.332 208.77 131.146 209.08 131.146 209.34C131.146 209.601 131.332 209.712 131.562 209.59Z" fill="#94C3B3"/>
<path d="M129.065 209.504C129.295 209.382 129.481 209.072 129.481 208.811C129.481 208.551 129.295 208.439 129.065 208.561C128.835 208.683 128.649 208.994 128.649 209.254C128.649 209.514 128.835 209.626 129.065 209.504Z" fill="#94C3B3"/>
<path d="M130.73 208.619C130.96 208.496 131.146 208.186 131.146 207.926C131.146 207.666 130.96 207.554 130.73 207.676C130.5 207.798 130.314 208.108 130.314 208.369C130.314 208.629 130.5 208.741 130.73 208.619Z" fill="#94C3B3"/>
<path d="M128.233 208.532C128.462 208.41 128.649 208.1 128.649 207.84C128.649 207.579 128.462 207.467 128.233 207.59C128.003 207.712 127.816 208.022 127.816 208.282C127.816 208.543 128.003 208.655 128.233 208.532Z" fill="#94C3B3"/>
<path d="M129.897 207.647C130.127 207.525 130.314 207.215 130.314 206.954C130.314 206.694 130.127 206.582 129.897 206.704C129.668 206.827 129.481 207.137 129.481 207.397C129.481 207.657 129.668 207.769 129.897 207.647Z" fill="#94C3B3"/>
<path d="M132.395 213.39C132.625 213.268 132.811 212.958 132.811 212.698C132.811 212.437 132.625 212.325 132.395 212.448C132.165 212.57 131.979 212.88 131.979 213.14C131.979 213.401 132.165 213.513 132.395 213.39Z" fill="#94C3B3"/>
<path d="M130.73 214.275C130.96 214.153 131.146 213.843 131.146 213.583C131.146 213.322 130.96 213.21 130.73 213.333C130.5 213.455 130.314 213.765 130.314 214.025C130.314 214.286 130.5 214.398 130.73 214.275Z" fill="#94C3B3"/>
<path d="M129.897 213.304C130.127 213.182 130.314 212.872 130.314 212.611C130.314 212.351 130.127 212.239 129.897 212.361C129.668 212.483 129.481 212.793 129.481 213.054C129.481 213.314 129.668 213.426 129.897 213.304Z" fill="#94C3B3"/>
<path d="M129.065 212.332C129.295 212.21 129.481 211.9 129.481 211.64C129.481 211.379 129.295 211.267 129.065 211.39C128.835 211.512 128.649 211.822 128.649 212.082C128.649 212.343 128.835 212.455 129.065 212.332Z" fill="#94C3B3"/>
<path d="M128.233 211.361C128.462 211.239 128.649 210.928 128.649 210.668C128.649 210.408 128.462 210.296 128.233 210.418C128.003 210.54 127.816 210.85 127.816 211.111C127.816 211.371 128.003 211.483 128.233 211.361Z" fill="#94C3B3"/>
<path d="M127.4 210.389C127.63 210.267 127.816 209.957 127.816 209.697C127.816 209.436 127.63 209.324 127.4 209.446C127.17 209.569 126.984 209.879 126.984 210.139C126.984 210.399 127.17 210.511 127.4 210.389Z" fill="#94C3B3"/>
<path d="M128.233 214.189C128.462 214.067 128.649 213.757 128.649 213.496C128.649 213.236 128.462 213.124 128.233 213.246C128.003 213.369 127.816 213.679 127.816 213.939C127.816 214.199 128.003 214.311 128.233 214.189Z" fill="#94C3B3"/>
<path d="M127.4 213.218C127.63 213.095 127.816 212.785 127.816 212.525C127.816 212.265 127.63 212.153 127.4 212.275C127.17 212.397 126.984 212.707 126.984 212.967C126.984 213.228 127.17 213.34 127.4 213.218Z" fill="#94C3B3"/>
<path d="M126.568 212.246C126.798 212.124 126.984 211.814 126.984 211.553C126.984 211.293 126.798 211.181 126.568 211.303C126.338 211.425 126.151 211.736 126.151 211.996C126.151 212.256 126.338 212.368 126.568 212.246Z" fill="#94C3B3"/>
<path d="M129.065 215.161C129.295 215.038 129.481 214.728 129.481 214.468C129.481 214.208 129.295 214.096 129.065 214.218C128.835 214.34 128.649 214.65 128.649 214.911C128.649 215.171 128.835 215.283 129.065 215.161Z" fill="#94C3B3"/>
<path d="M127.4 216.046C127.63 215.924 127.816 215.614 127.816 215.353C127.816 215.093 127.63 214.981 127.4 215.103C127.17 215.225 126.984 215.536 126.984 215.796C126.984 216.056 127.17 216.168 127.4 216.046Z" fill="#94C3B3"/>
<path d="M126.568 215.074C126.798 214.952 126.984 214.642 126.984 214.382C126.984 214.121 126.798 214.009 126.568 214.132C126.338 214.254 126.151 214.564 126.151 214.824C126.151 215.085 126.338 215.197 126.568 215.074Z" fill="#94C3B3"/>
<path d="M125.735 214.103C125.965 213.981 126.152 213.67 126.152 213.41C126.152 213.15 125.965 213.038 125.735 213.16C125.505 213.282 125.319 213.592 125.319 213.853C125.319 214.113 125.505 214.225 125.735 214.103Z" fill="#94C3B3"/>
<path d="M124.903 215.96C125.133 215.837 125.319 215.527 125.319 215.267C125.319 215.007 125.133 214.895 124.903 215.017C124.673 215.139 124.487 215.449 124.487 215.71C124.487 215.97 124.673 216.082 124.903 215.96Z" fill="#94C3B3"/>
<path d="M125.735 216.931C125.965 216.809 126.152 216.499 126.152 216.238C126.152 215.978 125.965 215.866 125.735 215.988C125.505 216.111 125.319 216.421 125.319 216.681C125.319 216.941 125.505 217.053 125.735 216.931Z" fill="#94C3B3"/>
<path d="M124.07 217.816C124.3 217.694 124.487 217.384 124.487 217.124C124.487 216.863 124.3 216.751 124.07 216.874C123.841 216.996 123.654 217.306 123.654 217.566C123.654 217.827 123.841 217.939 124.07 217.816Z" fill="#94C3B3"/>
<path d="M134.215 209.682C133.793 209.314 133.201 208.538 132.63 207.787C132.031 207 131.465 206.256 131.029 205.879C130.35 205.291 129.517 205.155 128.648 205.505V191.812C128.648 191.552 128.462 191.44 128.232 191.562L115.332 198.421C115.33 198.422 115.328 198.425 115.326 198.426C115.324 198.427 115.322 198.427 115.32 198.428L112.416 199.972C112.186 200.094 112 200.404 112 200.665V222.349C112 222.537 112.099 222.655 112.252 222.648L115.155 222.518C115.208 222.516 115.264 222.499 115.32 222.469C115.322 222.468 115.325 222.466 115.327 222.464C115.329 222.463 115.331 222.464 115.333 222.462L121.769 219.04C121.793 219.15 121.825 219.253 121.876 219.338C122.093 219.705 122.65 219.986 124.065 219.233L131.624 215.214C133.195 214.379 134.329 213.225 134.734 212.049C135.061 211.098 134.877 210.257 134.215 209.682ZM114.904 221.503L112.832 221.596V200.693L114.904 199.592V221.503ZM115.748 199.143L127.816 192.726V205.972C127.705 206.053 127.595 206.142 127.485 206.237C127.455 206.262 127.426 206.292 127.397 206.318C127.313 206.395 127.228 206.473 127.145 206.558C127.104 206.6 127.063 206.646 127.023 206.69C126.953 206.765 126.883 206.841 126.815 206.922C126.772 206.973 126.729 207.026 126.687 207.078C126.622 207.159 126.558 207.242 126.495 207.327C126.453 207.384 126.411 207.442 126.37 207.501C126.307 207.59 126.246 207.682 126.185 207.776C126.146 207.835 126.107 207.894 126.069 207.956C126.004 208.061 125.942 208.17 125.879 208.28C125.848 208.335 125.816 208.388 125.786 208.444C125.694 208.612 125.605 208.785 125.52 208.964C125.147 209.749 124.69 210.88 124.201 212.116C124.101 212.37 124 212.626 123.897 212.887C123.709 213.365 123.519 213.846 123.334 214.311C122.95 215.271 122.583 216.16 122.289 216.775C122.284 216.786 122.28 216.796 122.275 216.808C122.216 216.932 122.163 217.052 122.113 217.169C122.099 217.205 122.086 217.239 122.072 217.273C122.034 217.368 121.999 217.461 121.967 217.551C121.955 217.585 121.944 217.619 121.933 217.653C121.904 217.741 121.878 217.828 121.855 217.911C121.847 217.942 121.838 217.973 121.831 218.003C121.825 218.026 121.817 218.052 121.812 218.075L115.748 221.299V199.143ZM124.065 218.291C123.301 218.697 122.773 218.779 122.617 218.516V218.515C122.737 218.368 122.822 218.18 122.822 218.009C122.822 217.861 122.757 217.768 122.662 217.732C122.669 217.711 122.672 217.692 122.679 217.669C122.684 217.654 122.691 217.637 122.696 217.62C122.723 217.54 122.754 217.456 122.789 217.369C122.798 217.347 122.806 217.324 122.816 217.301C122.86 217.195 122.908 217.086 122.963 216.971C122.977 216.942 122.992 216.908 123.006 216.878C123.073 216.894 123.15 216.892 123.238 216.845C123.468 216.723 123.654 216.412 123.654 216.152C123.654 215.983 123.571 215.886 123.454 215.865C123.568 215.595 123.685 215.311 123.806 215.013C123.878 215.044 123.968 215.042 124.07 214.988C124.3 214.866 124.487 214.556 124.487 214.295C124.487 214.092 124.371 213.984 124.212 214.003C124.245 213.918 124.279 213.834 124.312 213.749C124.398 213.534 124.482 213.319 124.567 213.103C124.643 213.185 124.762 213.206 124.903 213.131C125.133 213.009 125.319 212.699 125.319 212.439C125.319 212.19 125.148 212.083 124.932 212.18C125.071 211.828 125.209 211.482 125.344 211.149C125.396 211.312 125.548 211.374 125.735 211.274C125.965 211.152 126.151 210.842 126.151 210.582C126.151 210.322 125.965 210.21 125.735 210.332C125.706 210.347 125.679 210.374 125.652 210.395C125.837 209.951 126.01 209.553 126.163 209.226C126.192 209.439 126.358 209.529 126.568 209.418C126.797 209.296 126.984 208.985 126.984 208.725C126.984 208.465 126.797 208.353 126.568 208.475C126.562 208.478 126.558 208.483 126.552 208.486C126.664 208.296 126.777 208.113 126.897 207.945C126.973 207.837 127.051 207.735 127.13 207.637C127.137 207.628 127.145 207.617 127.152 207.608C127.499 207.182 127.869 206.853 128.244 206.642C128.245 206.641 128.246 206.64 128.246 206.64C128.264 206.63 128.283 206.62 128.301 206.61C129.038 206.218 129.775 206.29 130.382 206.816C130.784 207.164 131.362 207.923 131.921 208.657C132.162 208.974 132.406 209.293 132.642 209.589C132.572 209.567 132.489 209.569 132.395 209.619C132.165 209.741 131.979 210.052 131.979 210.312C131.979 210.572 132.165 210.684 132.395 210.562C132.625 210.44 132.811 210.129 132.811 209.869C132.811 209.833 132.8 209.808 132.793 209.778C133.054 210.098 133.3 210.375 133.518 210.572C133.442 210.528 133.34 210.531 133.227 210.591C132.997 210.713 132.811 211.023 132.811 211.283C132.811 211.544 132.997 211.656 133.227 211.534C133.457 211.411 133.643 211.101 133.643 210.841C133.643 210.72 133.601 210.636 133.535 210.587C133.546 210.597 133.558 210.61 133.569 210.619C133.88 210.889 134.042 211.216 134.054 211.567C133.827 211.691 133.643 211.997 133.643 212.255C133.643 212.372 133.685 212.453 133.747 212.503C133.35 213.118 132.598 213.754 131.624 214.272L124.065 218.291Z" fill="#94C3B3"/>
<path d="M120.741 207.438C120.97 207.315 121.157 207.006 121.157 206.745V205.021C121.157 204.95 121.152 204.884 121.148 204.817L121.276 204.894C121.357 204.943 121.464 204.932 121.57 204.876C121.677 204.819 121.783 204.716 121.864 204.581L121.999 204.357C121.994 204.431 121.989 204.505 121.989 204.578V206.302C121.989 206.563 122.176 206.675 122.406 206.552L123.928 205.743C125.384 204.969 126.568 202.998 126.568 201.35V199.625C126.568 199.365 126.381 199.253 126.152 199.375L124.629 200.185C124.284 200.368 123.956 200.62 123.654 200.917C123.832 199.866 123.596 198.955 122.941 198.561L121.864 197.914C121.701 197.817 121.438 197.956 121.276 198.227L120.199 200.02C119.545 201.108 119.308 202.27 119.485 203.131C119.185 203.156 118.859 203.253 118.517 203.434L116.995 204.244C116.765 204.366 116.578 204.676 116.578 204.937V206.662C116.578 208.31 117.763 209.021 119.218 208.247L120.741 207.438ZM125.735 200.539V201.793C125.735 202.921 124.925 204.27 123.928 204.8L122.822 205.388V204.135C122.822 203.006 123.633 201.657 124.629 201.128L125.735 200.539ZM120.787 200.373L121.57 199.071L122.352 199.541C123.057 199.964 123.057 201.263 122.352 202.436L121.57 203.738L120.787 203.268C120.083 202.844 120.083 201.546 120.787 200.373ZM117.411 206.219V204.966L118.517 204.378C119.514 203.848 120.324 204.335 120.324 205.464V206.717L119.218 207.305C118.222 207.834 117.411 207.347 117.411 206.219Z" fill="#94C3B3"/>
<path d="M125.319 208.196C125.319 207.936 125.133 207.824 124.903 207.946L118.66 211.266C118.43 211.388 118.243 211.698 118.243 211.958C118.243 212.219 118.43 212.331 118.66 212.209L124.903 208.889C125.133 208.767 125.319 208.457 125.319 208.196Z" fill="#94C3B3"/>
<path d="M119.908 209.188C119.678 209.31 119.492 209.62 119.492 209.88C119.492 210.141 119.678 210.252 119.908 210.13L124.07 207.917C124.3 207.795 124.487 207.485 124.487 207.225C124.487 206.964 124.3 206.852 124.07 206.974L119.908 209.188Z" fill="#94C3B3"/>
<path d="M124.487 210.053C124.487 209.792 124.3 209.681 124.07 209.803L119.908 212.016C119.678 212.138 119.492 212.448 119.492 212.709C119.492 212.969 119.678 213.081 119.908 212.959L124.07 210.746C124.3 210.623 124.487 210.314 124.487 210.053Z" fill="#94C3B3"/>
</g>
<g clip-path="url(#clip1_332_10953)">
<path d="M190.562 275.633C190.792 275.511 190.978 275.201 190.978 274.941C190.978 274.68 190.792 274.568 190.562 274.69C190.332 274.813 190.146 275.123 190.146 275.383C190.146 275.643 190.332 275.755 190.562 275.633Z" fill="#94C3B3"/>
<path d="M189.73 274.662C189.96 274.539 190.146 274.229 190.146 273.969C190.146 273.709 189.96 273.597 189.73 273.719C189.5 273.841 189.314 274.151 189.314 274.412C189.314 274.672 189.5 274.784 189.73 274.662Z" fill="#94C3B3"/>
<path d="M188.897 273.69C189.127 273.568 189.314 273.258 189.314 272.997C189.314 272.737 189.127 272.625 188.897 272.747C188.668 272.87 188.481 273.18 188.481 273.44C188.481 273.7 188.668 273.812 188.897 273.69Z" fill="#94C3B3"/>
<path d="M190.562 272.805C190.792 272.683 190.978 272.373 190.978 272.112C190.978 271.852 190.792 271.74 190.562 271.862C190.332 271.984 190.146 272.294 190.146 272.555C190.146 272.815 190.332 272.927 190.562 272.805Z" fill="#94C3B3"/>
<path d="M188.065 272.719C188.295 272.596 188.481 272.286 188.481 272.026C188.481 271.766 188.295 271.654 188.065 271.776C187.835 271.898 187.649 272.208 187.649 272.468C187.649 272.729 187.835 272.841 188.065 272.719Z" fill="#94C3B3"/>
<path d="M189.73 271.833C189.96 271.711 190.146 271.401 190.146 271.141C190.146 270.88 189.96 270.768 189.73 270.891C189.5 271.013 189.314 271.323 189.314 271.583C189.314 271.844 189.5 271.956 189.73 271.833Z" fill="#94C3B3"/>
<path d="M187.232 271.747C187.462 271.625 187.649 271.315 187.649 271.054C187.649 270.794 187.462 270.682 187.232 270.804C187.003 270.926 186.816 271.237 186.816 271.497C186.816 271.757 187.003 271.869 187.232 271.747Z" fill="#94C3B3"/>
<path d="M188.897 270.862C189.127 270.74 189.314 270.429 189.314 270.169C189.314 269.909 189.127 269.797 188.897 269.919C188.668 270.041 188.481 270.351 188.481 270.612C188.481 270.872 188.668 270.984 188.897 270.862Z" fill="#94C3B3"/>
<path d="M191.395 276.605C191.625 276.483 191.811 276.173 191.811 275.912C191.811 275.652 191.625 275.54 191.395 275.662C191.165 275.784 190.979 276.095 190.979 276.355C190.979 276.615 191.165 276.727 191.395 276.605Z" fill="#94C3B3"/>
<path d="M189.73 277.49C189.96 277.368 190.146 277.058 190.146 276.797C190.146 276.537 189.96 276.425 189.73 276.547C189.5 276.669 189.314 276.98 189.314 277.24C189.314 277.5 189.5 277.612 189.73 277.49Z" fill="#94C3B3"/>
<path d="M188.897 276.518C189.127 276.396 189.314 276.086 189.314 275.826C189.314 275.565 189.127 275.453 188.897 275.576C188.668 275.698 188.481 276.008 188.481 276.268C188.481 276.529 188.668 276.641 188.897 276.518Z" fill="#94C3B3"/>
<path d="M188.065 275.547C188.295 275.425 188.481 275.115 188.481 274.854C188.481 274.594 188.295 274.482 188.065 274.604C187.835 274.726 187.649 275.036 187.649 275.297C187.649 275.557 187.835 275.669 188.065 275.547Z" fill="#94C3B3"/>
<path d="M187.232 274.575C187.462 274.453 187.649 274.143 187.649 273.883C187.649 273.622 187.462 273.51 187.232 273.633C187.003 273.755 186.816 274.065 186.816 274.325C186.816 274.586 187.003 274.698 187.232 274.575Z" fill="#94C3B3"/>
<path d="M186.4 273.604C186.63 273.482 186.816 273.171 186.816 272.911C186.816 272.651 186.63 272.539 186.4 272.661C186.17 272.783 185.984 273.093 185.984 273.354C185.984 273.614 186.17 273.726 186.4 273.604Z" fill="#94C3B3"/>
<path d="M187.232 277.404C187.462 277.282 187.649 276.971 187.649 276.711C187.649 276.451 187.462 276.339 187.232 276.461C187.003 276.583 186.816 276.893 186.816 277.154C186.816 277.414 187.003 277.526 187.232 277.404Z" fill="#94C3B3"/>
<path d="M186.4 276.432C186.63 276.31 186.816 276 186.816 275.739C186.816 275.479 186.63 275.367 186.4 275.489C186.17 275.612 185.984 275.922 185.984 276.182C185.984 276.442 186.17 276.554 186.4 276.432Z" fill="#94C3B3"/>
<path d="M185.568 275.461C185.797 275.338 185.984 275.028 185.984 274.768C185.984 274.508 185.797 274.396 185.568 274.518C185.338 274.64 185.151 274.95 185.151 275.211C185.151 275.471 185.338 275.583 185.568 275.461Z" fill="#94C3B3"/>
<path d="M188.065 278.375C188.295 278.253 188.481 277.943 188.481 277.683C188.481 277.422 188.295 277.31 188.065 277.433C187.835 277.555 187.649 277.865 187.649 278.125C187.649 278.386 187.835 278.498 188.065 278.375Z" fill="#94C3B3"/>
<path d="M186.4 279.261C186.63 279.138 186.816 278.828 186.816 278.568C186.816 278.307 186.63 278.196 186.4 278.318C186.17 278.44 185.984 278.75 185.984 279.01C185.984 279.271 186.17 279.383 186.4 279.261Z" fill="#94C3B3"/>
<path d="M185.568 278.289C185.797 278.167 185.984 277.857 185.984 277.596C185.984 277.336 185.797 277.224 185.568 277.346C185.338 277.468 185.151 277.779 185.151 278.039C185.151 278.299 185.338 278.411 185.568 278.289Z" fill="#94C3B3"/>
<path d="M184.735 277.317C184.965 277.195 185.152 276.885 185.152 276.625C185.152 276.364 184.965 276.252 184.735 276.375C184.505 276.497 184.319 276.807 184.319 277.067C184.319 277.328 184.505 277.44 184.735 277.317Z" fill="#94C3B3"/>
<path d="M183.903 279.174C184.133 279.052 184.319 278.742 184.319 278.482C184.319 278.221 184.133 278.109 183.903 278.231C183.673 278.354 183.487 278.664 183.487 278.924C183.487 279.185 183.673 279.296 183.903 279.174Z" fill="#94C3B3"/>
<path d="M184.735 280.146C184.965 280.024 185.152 279.713 185.152 279.453C185.152 279.193 184.965 279.081 184.735 279.203C184.505 279.325 184.319 279.635 184.319 279.896C184.319 280.156 184.505 280.268 184.735 280.146Z" fill="#94C3B3"/>
<path d="M183.07 281.031C183.3 280.909 183.486 280.599 183.486 280.338C183.486 280.078 183.3 279.966 183.07 280.088C182.84 280.21 182.654 280.521 182.654 280.781C182.654 281.041 182.84 281.153 183.07 281.031Z" fill="#94C3B3"/>
<path d="M193.215 272.896C192.793 272.529 192.201 271.753 191.63 271.002C191.031 270.214 190.465 269.471 190.029 269.093C189.35 268.506 188.517 268.37 187.648 268.719V255.027C187.648 254.766 187.462 254.655 187.232 254.777L174.332 261.636C174.33 261.637 174.328 261.64 174.326 261.641C174.324 261.642 174.322 261.641 174.32 261.643L171.416 263.186C171.186 263.309 171 263.618 171 263.879V285.563C171 285.752 171.099 285.869 171.252 285.863L174.155 285.733C174.208 285.73 174.264 285.714 174.32 285.684C174.322 285.683 174.325 285.68 174.327 285.679C174.329 285.678 174.331 285.678 174.333 285.677L180.769 282.255C180.793 282.365 180.825 282.467 180.876 282.553C181.093 282.92 181.65 283.2 183.065 282.448L190.624 278.429C192.195 277.594 193.329 276.44 193.734 275.264C194.061 274.312 193.877 273.472 193.215 272.896ZM173.904 284.718L171.832 284.811V263.908L173.904 262.807V284.718ZM174.748 262.357L186.816 255.941V269.187C186.705 269.268 186.595 269.356 186.485 269.451C186.455 269.477 186.426 269.507 186.397 269.533C186.313 269.609 186.228 269.688 186.145 269.772C186.104 269.815 186.063 269.86 186.023 269.904C185.953 269.98 185.883 270.056 185.815 270.136C185.772 270.187 185.729 270.24 185.687 270.293C185.622 270.374 185.558 270.456 185.495 270.542C185.453 270.598 185.411 270.656 185.37 270.715C185.307 270.805 185.246 270.897 185.185 270.99C185.146 271.05 185.107 271.109 185.069 271.171C185.004 271.276 184.942 271.385 184.879 271.495C184.848 271.55 184.816 271.603 184.786 271.659C184.694 271.827 184.605 272 184.52 272.178C184.147 272.964 183.69 274.095 183.201 275.331C183.101 275.585 183 275.841 182.897 276.102C182.709 276.579 182.519 277.06 182.334 277.525C181.95 278.485 181.583 279.374 181.289 279.99C181.284 280.001 181.28 280.011 181.275 280.022C181.216 280.147 181.163 280.267 181.113 280.384C181.099 280.419 181.086 280.453 181.072 280.488C181.034 280.583 180.999 280.675 180.967 280.766C180.955 280.8 180.944 280.834 180.933 280.867C180.904 280.956 180.878 281.042 180.855 281.126C180.847 281.156 180.838 281.187 180.831 281.217C180.825 281.241 180.817 281.266 180.812 281.289L174.748 284.513V262.357ZM183.065 281.505C182.301 281.911 181.773 281.993 181.617 281.73V281.729C181.737 281.582 181.822 281.395 181.822 281.224C181.822 281.075 181.757 280.982 181.662 280.947C181.669 280.925 181.672 280.906 181.679 280.884C181.684 280.868 181.691 280.851 181.696 280.835C181.723 280.755 181.754 280.671 181.789 280.584C181.798 280.561 181.806 280.539 181.816 280.516C181.86 280.41 181.908 280.3 181.963 280.186C181.977 280.157 181.992 280.123 182.006 280.093C182.073 280.109 182.15 280.106 182.238 280.06C182.468 279.937 182.654 279.627 182.654 279.367C182.654 279.198 182.571 279.101 182.454 279.08C182.568 278.81 182.685 278.525 182.806 278.228C182.878 278.259 182.968 278.257 183.07 278.203C183.3 278.081 183.487 277.77 183.487 277.51C183.487 277.306 183.371 277.198 183.212 277.217C183.245 277.133 183.279 277.049 183.312 276.964C183.398 276.748 183.482 276.533 183.567 276.318C183.643 276.399 183.762 276.421 183.903 276.346C184.133 276.224 184.319 275.913 184.319 275.653C184.319 275.404 184.148 275.297 183.932 275.394C184.071 275.043 184.209 274.697 184.344 274.363C184.396 274.527 184.548 274.588 184.735 274.489C184.965 274.367 185.151 274.057 185.151 273.796C185.151 273.536 184.965 273.424 184.735 273.546C184.706 273.562 184.679 273.588 184.652 273.61C184.837 273.165 185.01 272.768 185.163 272.441C185.192 272.653 185.358 272.744 185.568 272.632C185.797 272.51 185.984 272.2 185.984 271.94C185.984 271.679 185.797 271.567 185.568 271.689C185.562 271.692 185.558 271.698 185.552 271.701C185.664 271.511 185.777 271.328 185.897 271.16C185.973 271.052 186.051 270.95 186.13 270.852C186.137 270.843 186.145 270.832 186.152 270.823C186.499 270.397 186.869 270.068 187.244 269.856C187.245 269.856 187.246 269.855 187.246 269.855C187.264 269.845 187.283 269.834 187.301 269.825C188.038 269.433 188.775 269.505 189.382 270.031C189.784 270.378 190.362 271.138 190.921 271.872C191.162 272.189 191.406 272.508 191.642 272.804C191.572 272.782 191.489 272.784 191.395 272.834C191.165 272.956 190.979 273.266 190.979 273.526C190.979 273.787 191.165 273.899 191.395 273.777C191.625 273.654 191.811 273.344 191.811 273.084C191.811 273.048 191.8 273.023 191.793 272.993C192.054 273.313 192.3 273.589 192.518 273.786C192.442 273.743 192.34 273.745 192.227 273.805C191.997 273.927 191.811 274.238 191.811 274.498C191.811 274.758 191.997 274.87 192.227 274.748C192.457 274.626 192.643 274.316 192.643 274.055C192.643 273.935 192.601 273.851 192.535 273.802C192.546 273.812 192.558 273.824 192.569 273.833C192.88 274.104 193.042 274.431 193.054 274.781C192.827 274.906 192.643 275.212 192.643 275.47C192.643 275.587 192.685 275.668 192.747 275.717C192.35 276.333 191.598 276.968 190.624 277.486L183.065 281.505Z" fill="#94C3B3"/>
<path d="M179.741 270.652C179.97 270.53 180.157 270.22 180.157 269.96V268.235C180.157 268.165 180.152 268.098 180.148 268.032L180.276 268.109C180.357 268.157 180.464 268.147 180.57 268.09C180.677 268.034 180.783 267.931 180.864 267.796L180.999 267.571C180.994 267.646 180.989 267.719 180.989 267.793V269.517C180.989 269.778 181.176 269.889 181.405 269.767L182.928 268.957C184.383 268.184 185.568 266.213 185.568 264.565V262.84C185.568 262.579 185.381 262.468 185.151 262.59L183.629 263.399C183.284 263.583 182.956 263.835 182.654 264.132C182.832 263.081 182.595 262.169 181.941 261.776L180.864 261.129C180.701 261.031 180.438 261.171 180.275 261.442L179.199 263.234C178.545 264.323 178.308 265.484 178.485 266.345C178.185 266.37 177.859 266.467 177.517 266.649L175.995 267.459C175.765 267.581 175.578 267.891 175.578 268.151V269.876C175.578 271.524 176.763 272.236 178.218 271.462L179.741 270.652ZM184.735 263.754V265.007C184.735 266.136 183.924 267.485 182.928 268.015L181.822 268.603V267.35C181.822 266.221 182.632 264.872 183.629 264.342L184.735 263.754ZM179.787 263.588L180.57 262.286L181.352 262.756C182.056 263.179 182.056 264.478 181.352 265.65L180.57 266.953L179.787 266.482C179.083 266.059 179.083 264.76 179.787 263.588ZM176.411 269.434V268.181L177.517 267.592C178.514 267.063 179.324 267.549 179.324 268.678V269.931L178.218 270.519C177.222 271.049 176.411 270.562 176.411 269.434Z" fill="#94C3B3"/>
<path d="M184.319 271.411C184.319 271.15 184.132 271.039 183.903 271.161L177.659 274.48C177.43 274.603 177.243 274.912 177.243 275.173C177.243 275.434 177.43 275.545 177.659 275.423L183.903 272.104C184.132 271.981 184.319 271.672 184.319 271.411Z" fill="#94C3B3"/>
<path d="M178.908 272.402C178.678 272.524 178.492 272.834 178.492 273.095C178.492 273.355 178.678 273.467 178.908 273.345L183.07 271.132C183.3 271.01 183.487 270.7 183.487 270.439C183.487 270.178 183.3 270.067 183.07 270.189L178.908 272.402Z" fill="#94C3B3"/>
<path d="M183.487 273.267C183.487 273.007 183.3 272.895 183.07 273.017L178.908 275.23C178.678 275.353 178.492 275.662 178.492 275.923C178.492 276.184 178.678 276.295 178.908 276.173L183.07 273.96C183.3 273.838 183.487 273.528 183.487 273.267Z" fill="#94C3B3"/>
</g>
<g clip-path="url(#clip2_332_10953)">
<path d="M215.562 122.633C215.792 122.511 215.978 122.201 215.978 121.941C215.978 121.68 215.792 121.568 215.562 121.69C215.332 121.813 215.146 122.123 215.146 122.383C215.146 122.643 215.332 122.755 215.562 122.633Z" fill="#94C3B3"/>
<path d="M214.73 121.662C214.96 121.539 215.146 121.229 215.146 120.969C215.146 120.709 214.96 120.597 214.73 120.719C214.5 120.841 214.314 121.151 214.314 121.412C214.314 121.672 214.5 121.784 214.73 121.662Z" fill="#94C3B3"/>
<path d="M213.897 120.69C214.127 120.568 214.314 120.258 214.314 119.997C214.314 119.737 214.127 119.625 213.897 119.747C213.668 119.87 213.481 120.18 213.481 120.44C213.481 120.7 213.668 120.812 213.897 120.69Z" fill="#94C3B3"/>
<path d="M215.562 119.805C215.792 119.683 215.978 119.373 215.978 119.112C215.978 118.852 215.792 118.74 215.562 118.862C215.332 118.984 215.146 119.294 215.146 119.555C215.146 119.815 215.332 119.927 215.562 119.805Z" fill="#94C3B3"/>
<path d="M213.065 119.719C213.295 119.596 213.481 119.286 213.481 119.026C213.481 118.766 213.295 118.654 213.065 118.776C212.835 118.898 212.649 119.208 212.649 119.468C212.649 119.729 212.835 119.841 213.065 119.719Z" fill="#94C3B3"/>
<path d="M214.73 118.833C214.96 118.711 215.146 118.401 215.146 118.141C215.146 117.88 214.96 117.768 214.73 117.891C214.5 118.013 214.314 118.323 214.314 118.583C214.314 118.844 214.5 118.956 214.73 118.833Z" fill="#94C3B3"/>
<path d="M212.232 118.747C212.462 118.625 212.649 118.315 212.649 118.054C212.649 117.794 212.462 117.682 212.232 117.804C212.003 117.926 211.816 118.237 211.816 118.497C211.816 118.757 212.003 118.869 212.232 118.747Z" fill="#94C3B3"/>
<path d="M213.897 117.862C214.127 117.74 214.314 117.429 214.314 117.169C214.314 116.909 214.127 116.797 213.897 116.919C213.668 117.041 213.481 117.351 213.481 117.612C213.481 117.872 213.668 117.984 213.897 117.862Z" fill="#94C3B3"/>
<path d="M216.395 123.605C216.625 123.483 216.811 123.173 216.811 122.912C216.811 122.652 216.625 122.54 216.395 122.662C216.165 122.784 215.979 123.095 215.979 123.355C215.979 123.615 216.165 123.727 216.395 123.605Z" fill="#94C3B3"/>
<path d="M214.73 124.49C214.96 124.368 215.146 124.058 215.146 123.797C215.146 123.537 214.96 123.425 214.73 123.547C214.5 123.669 214.314 123.98 214.314 124.24C214.314 124.5 214.5 124.612 214.73 124.49Z" fill="#94C3B3"/>
<path d="M213.897 123.518C214.127 123.396 214.314 123.086 214.314 122.826C214.314 122.565 214.127 122.453 213.897 122.576C213.668 122.698 213.481 123.008 213.481 123.268C213.481 123.529 213.668 123.641 213.897 123.518Z" fill="#94C3B3"/>
<path d="M213.065 122.547C213.295 122.425 213.481 122.115 213.481 121.854C213.481 121.594 213.295 121.482 213.065 121.604C212.835 121.726 212.649 122.036 212.649 122.297C212.649 122.557 212.835 122.669 213.065 122.547Z" fill="#94C3B3"/>
<path d="M212.232 121.575C212.462 121.453 212.649 121.143 212.649 120.883C212.649 120.622 212.462 120.51 212.232 120.633C212.003 120.755 211.816 121.065 211.816 121.325C211.816 121.586 212.003 121.698 212.232 121.575Z" fill="#94C3B3"/>
<path d="M211.4 120.604C211.63 120.482 211.816 120.171 211.816 119.911C211.816 119.651 211.63 119.539 211.4 119.661C211.17 119.783 210.984 120.093 210.984 120.354C210.984 120.614 211.17 120.726 211.4 120.604Z" fill="#94C3B3"/>
<path d="M212.232 124.404C212.462 124.282 212.649 123.971 212.649 123.711C212.649 123.451 212.462 123.339 212.232 123.461C212.003 123.583 211.816 123.893 211.816 124.154C211.816 124.414 212.003 124.526 212.232 124.404Z" fill="#94C3B3"/>
<path d="M211.4 123.432C211.63 123.31 211.816 123 211.816 122.739C211.816 122.479 211.63 122.367 211.4 122.489C211.17 122.612 210.984 122.922 210.984 123.182C210.984 123.442 211.17 123.554 211.4 123.432Z" fill="#94C3B3"/>
<path d="M210.568 122.461C210.797 122.338 210.984 122.028 210.984 121.768C210.984 121.508 210.797 121.396 210.568 121.518C210.338 121.64 210.151 121.95 210.151 122.211C210.151 122.471 210.338 122.583 210.568 122.461Z" fill="#94C3B3"/>
<path d="M213.065 125.375C213.295 125.253 213.481 124.943 213.481 124.683C213.481 124.422 213.295 124.31 213.065 124.433C212.835 124.555 212.649 124.865 212.649 125.125C212.649 125.386 212.835 125.498 213.065 125.375Z" fill="#94C3B3"/>
<path d="M211.4 126.261C211.63 126.138 211.816 125.828 211.816 125.568C211.816 125.307 211.63 125.196 211.4 125.318C211.17 125.44 210.984 125.75 210.984 126.01C210.984 126.271 211.17 126.383 211.4 126.261Z" fill="#94C3B3"/>
<path d="M210.568 125.289C210.797 125.167 210.984 124.857 210.984 124.596C210.984 124.336 210.797 124.224 210.568 124.346C210.338 124.468 210.151 124.779 210.151 125.039C210.151 125.299 210.338 125.411 210.568 125.289Z" fill="#94C3B3"/>
<path d="M209.735 124.317C209.965 124.195 210.152 123.885 210.152 123.625C210.152 123.364 209.965 123.252 209.735 123.375C209.505 123.497 209.319 123.807 209.319 124.067C209.319 124.328 209.505 124.44 209.735 124.317Z" fill="#94C3B3"/>
<path d="M208.903 126.174C209.133 126.052 209.319 125.742 209.319 125.482C209.319 125.221 209.133 125.109 208.903 125.231C208.673 125.354 208.487 125.664 208.487 125.924C208.487 126.185 208.673 126.296 208.903 126.174Z" fill="#94C3B3"/>
<path d="M209.735 127.146C209.965 127.024 210.152 126.713 210.152 126.453C210.152 126.193 209.965 126.081 209.735 126.203C209.505 126.325 209.319 126.635 209.319 126.896C209.319 127.156 209.505 127.268 209.735 127.146Z" fill="#94C3B3"/>
<path d="M208.07 128.031C208.3 127.909 208.486 127.599 208.486 127.338C208.486 127.078 208.3 126.966 208.07 127.088C207.84 127.21 207.654 127.521 207.654 127.781C207.654 128.041 207.84 128.153 208.07 128.031Z" fill="#94C3B3"/>
<path d="M218.215 119.896C217.793 119.529 217.201 118.753 216.63 118.002C216.031 117.214 215.465 116.471 215.029 116.093C214.35 115.506 213.517 115.37 212.648 115.719V102.027C212.648 101.766 212.462 101.655 212.232 101.777L199.332 108.636C199.33 108.637 199.328 108.64 199.326 108.641C199.324 108.642 199.322 108.641 199.32 108.643L196.416 110.186C196.186 110.309 196 110.618 196 110.879V132.563C196 132.752 196.099 132.869 196.252 132.863L199.155 132.733C199.208 132.73 199.264 132.714 199.32 132.684C199.322 132.683 199.325 132.68 199.327 132.679C199.329 132.678 199.331 132.678 199.333 132.677L205.769 129.255C205.793 129.365 205.825 129.467 205.876 129.553C206.093 129.92 206.65 130.2 208.065 129.448L215.624 125.429C217.195 124.594 218.329 123.44 218.734 122.264C219.061 121.312 218.877 120.472 218.215 119.896ZM198.904 131.718L196.832 131.811V110.908L198.904 109.807V131.718ZM199.748 109.357L211.816 102.941V116.187C211.705 116.268 211.595 116.356 211.485 116.451C211.455 116.477 211.426 116.507 211.397 116.533C211.313 116.609 211.228 116.688 211.145 116.772C211.104 116.815 211.063 116.86 211.023 116.904C210.953 116.98 210.883 117.056 210.815 117.136C210.772 117.187 210.729 117.24 210.687 117.293C210.622 117.374 210.558 117.456 210.495 117.542C210.453 117.598 210.411 117.656 210.37 117.715C210.307 117.805 210.246 117.897 210.185 117.99C210.146 118.05 210.107 118.109 210.069 118.171C210.004 118.276 209.942 118.385 209.879 118.495C209.848 118.55 209.816 118.603 209.786 118.659C209.694 118.827 209.605 119 209.52 119.178C209.147 119.964 208.69 121.095 208.201 122.331C208.101 122.585 208 122.841 207.897 123.102C207.709 123.579 207.519 124.06 207.334 124.525C206.95 125.485 206.583 126.374 206.289 126.99C206.284 127.001 206.28 127.011 206.275 127.022C206.216 127.147 206.163 127.267 206.113 127.384C206.099 127.419 206.086 127.453 206.072 127.488C206.034 127.583 205.999 127.675 205.967 127.766C205.955 127.8 205.944 127.834 205.933 127.867C205.904 127.956 205.878 128.042 205.855 128.126C205.847 128.156 205.838 128.187 205.831 128.217C205.825 128.241 205.817 128.266 205.812 128.289L199.748 131.513V109.357ZM208.065 128.505C207.301 128.911 206.773 128.993 206.617 128.73V128.729C206.737 128.582 206.822 128.395 206.822 128.224C206.822 128.075 206.757 127.982 206.662 127.947C206.669 127.925 206.672 127.906 206.679 127.884C206.684 127.868 206.691 127.851 206.696 127.835C206.723 127.755 206.754 127.671 206.789 127.584C206.798 127.561 206.806 127.539 206.816 127.516C206.86 127.41 206.908 127.3 206.963 127.186C206.977 127.157 206.992 127.123 207.006 127.093C207.073 127.109 207.15 127.106 207.238 127.06C207.468 126.937 207.654 126.627 207.654 126.367C207.654 126.198 207.571 126.101 207.454 126.08C207.568 125.81 207.685 125.525 207.806 125.228C207.878 125.259 207.968 125.257 208.07 125.203C208.3 125.081 208.487 124.77 208.487 124.51C208.487 124.306 208.371 124.198 208.212 124.217C208.245 124.133 208.279 124.049 208.312 123.964C208.398 123.748 208.482 123.533 208.567 123.318C208.643 123.399 208.762 123.421 208.903 123.346C209.133 123.224 209.319 122.913 209.319 122.653C209.319 122.404 209.148 122.297 208.932 122.394C209.071 122.043 209.209 121.697 209.344 121.363C209.396 121.527 209.548 121.588 209.735 121.489C209.965 121.367 210.151 121.057 210.151 120.796C210.151 120.536 209.965 120.424 209.735 120.546C209.706 120.562 209.679 120.588 209.652 120.61C209.837 120.165 210.01 119.768 210.163 119.441C210.192 119.653 210.358 119.744 210.568 119.632C210.797 119.51 210.984 119.2 210.984 118.94C210.984 118.679 210.797 118.567 210.568 118.689C210.562 118.692 210.558 118.698 210.552 118.701C210.664 118.511 210.777 118.328 210.897 118.16C210.973 118.052 211.051 117.95 211.13 117.852C211.137 117.843 211.145 117.832 211.152 117.823C211.499 117.397 211.869 117.068 212.244 116.856C212.245 116.856 212.246 116.855 212.246 116.855C212.264 116.845 212.283 116.834 212.301 116.825C213.038 116.433 213.775 116.505 214.382 117.031C214.784 117.378 215.362 118.138 215.921 118.872C216.162 119.189 216.406 119.508 216.642 119.804C216.572 119.782 216.489 119.784 216.395 119.834C216.165 119.956 215.979 120.266 215.979 120.526C215.979 120.787 216.165 120.899 216.395 120.777C216.625 120.654 216.811 120.344 216.811 120.084C216.811 120.048 216.8 120.023 216.793 119.993C217.054 120.313 217.3 120.589 217.518 120.786C217.442 120.743 217.34 120.745 217.227 120.805C216.997 120.927 216.811 121.238 216.811 121.498C216.811 121.758 216.997 121.87 217.227 121.748C217.457 121.626 217.643 121.316 217.643 121.055C217.643 120.935 217.601 120.851 217.535 120.802C217.546 120.812 217.558 120.824 217.569 120.833C217.88 121.104 218.042 121.431 218.054 121.781C217.827 121.906 217.643 122.212 217.643 122.47C217.643 122.587 217.685 122.668 217.747 122.717C217.35 123.333 216.598 123.968 215.624 124.486L208.065 128.505Z" fill="#94C3B3"/>
<path d="M204.741 117.652C204.97 117.53 205.157 117.22 205.157 116.96V115.235C205.157 115.165 205.152 115.098 205.148 115.032L205.276 115.109C205.357 115.157 205.464 115.147 205.57 115.09C205.677 115.034 205.783 114.931 205.864 114.796L205.999 114.571C205.994 114.646 205.989 114.719 205.989 114.793V116.517C205.989 116.778 206.176 116.889 206.405 116.767L207.928 115.957C209.383 115.184 210.568 113.213 210.568 111.565V109.84C210.568 109.579 210.381 109.468 210.151 109.59L208.629 110.399C208.284 110.583 207.956 110.835 207.654 111.132C207.832 110.081 207.595 109.169 206.941 108.776L205.864 108.129C205.701 108.031 205.438 108.171 205.275 108.442L204.199 110.234C203.545 111.323 203.308 112.484 203.485 113.345C203.185 113.37 202.859 113.467 202.517 113.649L200.995 114.459C200.765 114.581 200.578 114.891 200.578 115.151V116.876C200.578 118.524 201.763 119.236 203.218 118.462L204.741 117.652ZM209.735 110.754V112.007C209.735 113.136 208.924 114.485 207.928 115.015L206.822 115.603V114.35C206.822 113.221 207.632 111.872 208.629 111.342L209.735 110.754ZM204.787 110.588L205.57 109.286L206.352 109.756C207.056 110.179 207.056 111.478 206.352 112.65L205.57 113.953L204.787 113.482C204.083 113.059 204.083 111.76 204.787 110.588ZM201.411 116.434V115.181L202.517 114.592C203.514 114.063 204.324 114.549 204.324 115.678V116.931L203.218 117.519C202.222 118.049 201.411 117.562 201.411 116.434Z" fill="#94C3B3"/>
<path d="M209.319 118.411C209.319 118.15 209.132 118.039 208.903 118.161L202.659 121.48C202.43 121.603 202.243 121.912 202.243 122.173C202.243 122.434 202.43 122.545 202.659 122.423L208.903 119.104C209.132 118.981 209.319 118.672 209.319 118.411Z" fill="#94C3B3"/>
<path d="M203.908 119.402C203.678 119.524 203.492 119.834 203.492 120.095C203.492 120.355 203.678 120.467 203.908 120.345L208.07 118.132C208.3 118.01 208.487 117.7 208.487 117.439C208.487 117.178 208.3 117.067 208.07 117.189L203.908 119.402Z" fill="#94C3B3"/>
<path d="M208.487 120.267C208.487 120.007 208.3 119.895 208.07 120.017L203.908 122.23C203.678 122.353 203.492 122.662 203.492 122.923C203.492 123.184 203.678 123.295 203.908 123.173L208.07 120.96C208.3 120.838 208.487 120.528 208.487 120.267Z" fill="#94C3B3"/>
</g>
<defs>
<clipPath id="clip0_332_10953">
<rect width="25.9269" height="25.9269" fill="white" transform="matrix(0.882948 -0.469472 0 1 112 199.957)"/>
</clipPath>
<clipPath id="clip1_332_10953">
<rect width="25.9269" height="25.9269" fill="white" transform="matrix(0.882948 -0.469472 0 1 171 263.172)"/>
</clipPath>
<clipPath id="clip2_332_10953">
<rect width="25.9269" height="25.9269" fill="white" transform="matrix(0.882948 -0.469472 0 1 196 110.172)"/>
</clipPath>
</defs>
</svg>
