<svg width="17" height="18" viewBox="0 0 17 18" fill="none" xmlns="http://www.w3.org/2000/svg">
<path d="M6.02087 3.26439L1.80629 3.83105L5.27712 7.30189L6.02087 3.26439ZM10.9792 14.5977L15.1938 14.0311L11.723 10.5602L10.9792 14.5977ZM14.1667 6.45189L13.6 2.2373L10.1292 5.70814L14.1667 6.45189Z" fill="#E28834"/>
<path d="M13.7063 7.9394L15.1938 8.22274C15.2292 8.47066 15.2292 8.68316 15.2292 8.93107C15.2292 10.5602 14.6626 12.1186 13.6001 13.3227L12.5376 12.4019C13.3521 11.4457 13.8126 10.2061 13.8126 8.93107C13.8126 8.61232 13.7771 8.25815 13.7063 7.9394ZM8.50005 2.2019C10.4126 2.2019 12.1126 3.01649 13.3521 4.29149L12.3605 5.28315C11.3688 4.25607 10.023 3.61857 8.50005 3.61857C8.1813 3.61857 7.82713 3.65399 7.50838 3.72482L7.26047 2.34357C7.65005 2.23732 8.07505 2.2019 8.50005 2.2019ZM3.2938 9.92274L1.8063 9.63941C1.77088 9.39149 1.77088 9.17899 1.77088 8.93107C1.77088 7.37274 2.30213 5.84982 3.2938 4.64565L4.39172 5.53107C3.61255 6.48732 3.18755 7.69149 3.18755 8.89566C3.18755 9.24982 3.22297 9.60399 3.2938 9.92274ZM4.63964 12.579C5.6313 13.6061 6.97713 14.2436 8.50005 14.2436C8.8188 14.2436 9.17297 14.2082 9.49172 14.1373L9.73963 15.5186C9.31463 15.5894 8.88963 15.6248 8.50005 15.6248C6.58755 15.6248 4.88755 14.8102 3.64797 13.5352L4.63964 12.579Z" fill="#E28834"/>
<path d="M2.83335 11.4102L3.40002 15.6247L6.87085 12.1539L2.83335 11.4102Z" fill="#E28834"/>
</svg>
