<svg width="16" height="16" viewBox="0 0 16 16" fill="none" xmlns="http://www.w3.org/2000/svg">
<path d="M13.8272 2.37554H11.7729V1.63319C11.7729 0.732659 11.0402 0 10.1397 0H5.8602C4.95963 0 4.227 0.732659 4.227 1.63319V2.37551H2.17271C1.41284 2.37551 0.794678 2.99367 0.794678 3.75355V4.75305C0.794678 5.51293 1.41284 6.13109 2.17271 6.13109H2.26809L3.56813 15.5477C3.60394 15.8069 3.82553 16 4.08725 16H11.9125C12.1743 16 12.3959 15.8069 12.4317 15.5477L13.7317 6.13109H13.8271C14.587 6.13109 15.2051 5.51293 15.2051 4.75305V3.75355C15.2052 2.9937 14.587 2.37554 13.8272 2.37554ZM5.2751 1.63319C5.2751 1.31057 5.53757 1.04807 5.86023 1.04807H10.1397C10.4623 1.04807 10.7248 1.31054 10.7248 1.63319V2.37551H5.27513V1.63319H5.2751ZM11.4559 14.952H4.54394L3.32613 6.13112H12.6738L11.4559 14.952ZM14.1571 4.75308C14.1571 4.93502 14.0091 5.08302 13.8272 5.08302C13.4222 5.08302 2.6019 5.08302 2.17271 5.08302C1.99078 5.08302 1.84278 4.93502 1.84278 4.75308V3.75355C1.84278 3.57161 1.99078 3.42361 2.17271 3.42361C2.34372 3.42361 13.4226 3.42361 13.8272 3.42361C14.0091 3.42361 14.1571 3.57161 14.1571 3.75355V4.75308Z" fill="#9E2B2B"/>
</svg>
