<svg width="100" height="100" viewBox="0 0 100 100" fill="none" xmlns="http://www.w3.org/2000/svg">
<path d="M19.996 90.0621C20.1618 90.5843 20.9697 90.7818 22.8183 90.8347C25.9757 90.9229 29.1437 90.863 32.3011 90.8453L77.8631 90.5984C79.3836 90.5913 80.389 88.9579 79.6517 87.6244C78.4981 85.543 77.8349 83.1546 77.542 80.7804C77.094 77.1714 77.408 73.5166 77.5844 69.8829C78.0889 59.43 77.2633 48.3808 71.5694 39.5965C68.5178 34.8903 64.1186 31.0309 58.968 28.8084C54.8016 27.0092 50.0849 26.2965 45.661 27.3161C41.5722 28.258 37.935 30.6146 34.7529 33.3487C32.1388 35.5994 29.7258 38.1959 28.3217 41.3498C26.6319 45.1458 26.526 49.4356 26.5049 53.5914C26.4696 59.9415 26.5543 66.3163 25.6688 72.6029C24.9667 77.5877 23.6297 82.5549 21.2343 87.0035C20.4017 88.5487 19.8231 89.4906 19.9995 90.0551L19.996 90.0621Z" stroke="#0F7275" stroke-width="2.2437" stroke-miterlimit="10" stroke-linecap="round"/>
<path d="M38.4817 15.1204L47.019 27.0797" stroke="#0F7275" stroke-width="2.2437" stroke-miterlimit="10" stroke-linecap="round"/>
<path d="M47.0193 15.1204C47.3297 16.3692 48.314 17.417 49.6616 17.417C51.7995 17.417 55.793 13.7022 56.5021 13.4623C57.6628 13.0707 60.351 12.9296 61.2047 14.4254C62.0584 15.9212 62.2736 16.6691 59.3879 19.5548C56.5021 22.4406 54.7382 26.8504 54.7382 26.8504" stroke="#0F7275" stroke-width="2.2437" stroke-miterlimit="10" stroke-linecap="round"/>
<path d="M49.8661 54.7873C49.8661 54.7873 48.2116 54.1558 48.0669 53.1327C47.9223 52.1097 48.3597 50.2611 48.3597 49.7248C48.3597 49.1886 48.0175 47.8763 48.5044 46.5145C48.9912 45.1528 50.3036 43.7416 50.3036 43.7416L51.1326 42.962C51.1326 42.962 52.9812 43.7416 53.08 44.3731C53.1788 45.0046 52.9812 45.1528 53.08 45.5902C53.1788 46.0277 54.0043 46.0771 54.0043 47.0507C54.0043 48.0244 54.1489 48.8041 54.4417 49.3862C54.7345 49.9718 54.9286 51.3335 54.4417 52.3072C53.9549 53.2809 52.8366 54.1064 52.1063 54.498C51.376 54.8896 51.6688 54.9354 49.8661 54.7908V54.7873Z" stroke="#0F7275" stroke-width="2.2437" stroke-miterlimit="10" stroke-linecap="round"/>
<path d="M50.6279 54.8649C50.6279 54.8649 50.3422 69.7664 49.5907 74.7724C48.8393 79.782 47.5869 80.4064 47.5869 80.4064" stroke="#0F7275" stroke-width="2.2437" stroke-miterlimit="10" stroke-linecap="round"/>
<path d="M50.6281 55.9515C50.6281 55.9515 48.9842 54.7309 48.268 54.5157C47.5483 54.3005 47.0474 54.1206 46.8674 53.9759C46.6875 53.8313 45.9326 53.796 45.2164 53.796C44.5003 53.796 44.2463 53.4009 43.456 53.4009C42.6658 53.4009 41.6956 53.4362 41.3358 53.4009C40.976 53.3656 40.5103 53.4714 39.7201 53.7254C38.9298 53.9759 39.0004 54.0112 39.0392 54.4804C39.078 54.9496 40.0446 56.0256 40.3339 56.4207C40.6232 56.8158 40.9089 56.9957 41.4099 57.2109C41.9144 57.4261 41.9496 57.6766 42.3448 58.361C42.7399 59.0419 42.7399 59.691 43.8159 60.1567C44.8919 60.6224 47.4778 60.5165 48.7019 60.4424C49.9226 60.3719 50.4976 59.9803 50.4976 59.9803C50.4976 59.9803 51.7182 59.0419 52.7589 59.4723C53.7996 59.9027 54.5899 59.6875 55.9199 59.6169C57.2499 59.5464 57.966 58.5409 58.9362 58.3222C59.9063 58.1035 60.9118 57.7331 60.947 56.9499C60.9823 56.1667 61.3422 55.5917 61.8819 55.1966C62.4217 54.8014 62.6369 53.5667 62.5628 53.3938C62.4922 53.221 62.2029 52.9352 61.3422 52.8611C60.4814 52.7906 60.0862 52.4307 59.4371 52.4307C58.788 52.4307 58.0366 52.5401 56.4561 53.0058C54.8756 53.4714 54.8121 53.3515 53.6197 53.8313C52.4273 54.3111 51.7253 55.6622 51.1785 55.8069L50.6316 55.9515H50.6281Z" stroke="#0F7275" stroke-width="2.2437" stroke-miterlimit="10" stroke-linecap="round"/>
<path d="M50.4235 63.1695C50.4235 63.1695 51.3514 61.9841 51.9264 61.6596C52.5014 61.335 53.8314 60.6577 54.8721 60.1355C55.9128 59.6134 57.2428 59.8286 57.8179 59.7933C58.3929 59.7581 59.289 59.5429 59.6841 59.5076C60.0792 59.4723 60.94 59.183 61.3739 59.5076C61.8043 59.8321 61.1235 61.6278 60.6543 62.2381C60.1886 62.8484 60.7248 61.9136 59.3595 63.928C57.9943 65.9388 59.2149 66.4786 56.7384 66.9795C54.2618 67.4805 54.5123 67.5793 52.8965 67.6392C51.2808 67.6992 50.2154 66.9054 50.2154 66.9054C48.9348 67.5122 48.6243 67.163 47.5836 67.163C46.5429 67.163 45.3893 67.163 44.0452 66.9125C42.7011 66.662 41.1171 65.512 41.1171 65.512C40.2563 64.7923 39.4661 64.6512 38.7464 63.681C38.0267 62.7109 37.6704 62.1005 37.6704 61.3103C37.6704 60.5201 38.4254 60.2696 39.646 60.1602C40.8666 60.0509 41.9814 60.5201 42.5565 60.513C43.1315 60.506 44.4227 60.5906 45.0718 60.513C45.7174 60.4354 46.6523 60.8446 47.8024 61.0598C48.9524 61.275 50.4271 61.9912 50.4271 61.9912" stroke="#0F7275" stroke-width="2.2437" stroke-miterlimit="10" stroke-linecap="round"/>
<path d="M49.8165 72.8216C49.8165 72.8216 49.0897 73.3684 48.4441 73.3684C47.7986 73.3684 46.5038 74.4444 45.3538 74.4444C44.2037 74.4444 42.9478 73.6189 42.2634 72.9345C41.579 72.2501 40.503 72.5746 39.2824 71.8937C38.0617 71.2129 36.8023 70.3838 36.5518 70.0275C36.3013 69.6712 36.4813 69.4525 36.5518 69.2373C36.6224 69.0221 37.1621 68.6622 38.0229 68.4823C38.8837 68.3024 40.1784 67.5122 41.0745 67.4769C41.9706 67.4416 43.6957 67.4769 44.3801 67.4769C45.0645 67.4769 46.1757 68.0519 47.2165 68.4823C48.2572 68.9127 50.0176 70.211 50.0176 70.211C50.0176 70.211 51.0547 69.9922 51.3793 69.8829C51.7039 69.7735 52.3177 69.0926 52.9986 68.8422C53.6795 68.5917 54.7237 67.6462 55.6938 67.6321C56.664 67.6215 56.8792 67.2264 58.0998 66.9371C59.3205 66.6514 61.2502 66.0763 62.5661 66.6867C63.882 67.297 63.3069 67.4416 63.3069 68.1225C63.3069 68.8034 63.1976 69.523 61.296 70.6026C59.3945 71.6821 58.4209 72.8286 56.7346 72.8286C55.0483 72.8286 54.1839 73.1885 53.0727 73.1885C51.9614 73.1885 50.9842 72.9027 50.7902 72.9027C50.5961 72.9027 49.8129 72.8216 49.8129 72.8216H49.8165Z" stroke="#0F7275" stroke-width="2.2437" stroke-miterlimit="10" stroke-linecap="round"/>
</svg>
