<svg width="64" height="64" viewBox="0 0 64 64" fill="none" xmlns="http://www.w3.org/2000/svg">
<path d="M29.9274 43.0949C29.8393 43.4223 29.3381 43.3839 29.2207 43.0633C29.1349 42.8307 29.0581 42.6298 28.9791 42.4311C28.1031 40.2478 26.062 38.8367 23.96 38.9541C22.4721 39.0376 21.946 39.9588 22.6482 41.2864C23.3729 42.6614 24.556 43.4945 26.0552 43.7203C27.0306 43.8671 28.0421 43.761 29.1913 43.7497C29.2771 43.7497 29.3426 43.8332 29.3178 43.9167C28.6585 46.0752 27.1841 47.6579 26.1749 49.5477C26.1049 49.6764 26.2336 49.8232 26.3713 49.778C26.5948 49.7058 26.7845 49.5951 26.8884 49.4281C27.7125 48.1163 28.5117 46.7864 29.2681 45.434C29.9251 44.2599 30.0041 44.199 31.2798 44.6415C33.5218 45.4159 35.9399 44.8289 37.2156 43.1942C38.1932 41.9434 37.8862 40.9974 36.3644 40.591C34.3911 40.0649 32.0159 41.1983 30.7786 43.2552C30.6702 43.4358 30.4828 43.4562 30.3157 43.5149C30.2141 43.551 30.318 43.262 30.3473 43.1581C30.6725 42.0066 31.1127 41.4241 31.4785 40.2771C31.763 39.3831 32.0226 39.0805 33.0409 39.505C35.249 40.4239 37.9087 39.6698 39.1167 37.9719C39.9792 36.7595 39.5931 35.7547 38.1255 35.4861C35.9625 35.091 34.2895 35.9512 32.9664 37.6084C32.7203 37.9177 32.5171 38.2587 32.2574 38.6786C32.1942 38.7802 32.0384 38.717 32.0633 38.6019C32.271 37.6129 32.4065 36.7617 32.5713 35.9218C32.7632 34.9374 33.0499 34.6981 34.0479 34.9216C36.168 35.3958 38.568 34.2443 39.5276 32.4471C40.2614 31.0698 39.7331 30.1238 38.1932 30.0605C36.1928 29.9815 34.3143 31.2053 33.3751 33.2034C33.2531 33.4631 33.1402 33.725 33.0161 34.0117C32.9709 34.1133 32.8061 34.0862 32.8129 33.9756C32.9009 32.7383 33.0567 31.7878 33.8108 30.7853C35.0187 29.1777 35.231 27.2631 34.1517 25.4411C33.8582 24.9466 33.1899 24.3708 32.7 24.3776C32.2055 24.3821 31.5349 24.9647 31.264 25.4681C30.1848 27.4641 30.5505 29.3967 31.833 31.1872C32.5735 32.2235 32.6232 32.7428 32.4787 33.8988C32.4629 34.0298 32.2687 34.0411 32.2213 33.9191C32.1265 33.6753 32.0362 33.4473 31.9413 33.2215C31.0066 31.0133 28.8662 29.6428 26.7416 29.8867C25.5901 30.0199 25.0979 30.774 25.5269 31.8442C26.1388 33.375 27.3399 34.3143 28.9068 34.5942C29.8845 34.7681 30.9118 34.6597 32.1039 34.6349C32.3116 34.6304 32.3658 34.9216 32.3252 35.1248C32.0881 36.3169 31.9662 37.3465 31.7449 38.4709C31.7201 38.5906 31.5688 38.638 31.4853 38.5477C31.2143 38.2587 31.0789 37.9674 30.9321 37.6807C29.88 35.6261 27.8186 34.4339 25.7188 34.6575C24.2986 34.8087 23.7816 35.7457 24.4657 36.9649C25.1498 38.1842 26.2336 38.9608 27.577 39.1482C28.7036 39.304 29.8664 39.1979 31.1127 39.1844C31.2324 39.1844 31.255 39.4553 31.2188 39.5682C30.8192 40.8032 30.2977 41.7131 29.9274 43.0949Z" stroke="#0F7275" stroke-width="1.62133" stroke-miterlimit="10"/>
<path d="M11.3977 56.3889C11.5015 56.7208 12.0186 56.8472 13.1972 56.8811C15.2089 56.9375 17.2274 56.8991 19.2391 56.8878L48.2678 56.7298C49.2386 56.7253 49.8776 55.6844 49.4057 54.8355C48.6697 53.5079 48.2497 51.9884 48.0623 50.4734C47.7778 48.1727 47.9765 45.8449 48.0872 43.5306C48.4078 36.8701 47.8817 29.8302 44.2557 24.2353C42.3117 21.2347 39.5075 18.7782 36.2246 17.3625C33.5694 16.2178 30.5643 15.7618 27.7465 16.412C25.141 17.0126 22.8245 18.5118 20.797 20.2571C19.1307 21.6908 17.5931 23.3458 16.699 25.353C15.6221 27.7733 15.5566 30.5053 15.5408 33.1537C15.5182 37.1997 15.5724 41.2615 15.0079 45.2669C14.5609 48.4436 13.7097 51.6068 12.1811 54.4426C11.6506 55.427 11.2825 56.0276 11.3954 56.3889H11.3977Z" stroke="#0F7275" stroke-width="1.62133" stroke-miterlimit="10" stroke-linecap="round"/>
<path d="M23.1765 8.64062L28.6156 16.263" stroke="#0F7275" stroke-width="1.62133" stroke-miterlimit="10" stroke-linecap="round"/>
<path d="M28.6157 8.64065C28.8122 9.4354 29.4398 10.1037 30.3001 10.1037C31.6615 10.1037 34.2399 7.81429 34.6576 7.58399C35.5698 7.0805 37.1841 7.20468 37.6538 8.19586C38.1234 9.18704 38.3356 9.62506 36.4955 11.4652C34.6576 13.303 33.4678 16.114 33.4678 16.114" stroke="#0F7275" stroke-width="1.62133" stroke-miterlimit="10" stroke-linecap="round"/>
</svg>
