<svg width="100" height="101" viewBox="0 0 100 101" fill="none" xmlns="http://www.w3.org/2000/svg">
<path d="M83.5147 51.2554C81.6365 51.2554 79.903 52.275 78.9907 53.9186L78.7074 54.4278V51.2554H82.4514V11.32H17.5563V51.2554H21.3003V54.4278L21.017 53.9186C20.1047 52.275 18.3712 51.2554 16.493 51.2554C13.6389 51.2554 11.3164 53.5767 11.3164 56.5132C11.3164 57.3606 11.5261 58.203 11.9254 58.9492L21.3003 76.5271V88.6949H23.7962V86.1989H41.268V83.703H23.7962V75.9031L14.1269 57.7749C13.9209 57.388 13.8124 56.9512 13.8124 56.4308C13.8124 54.9532 15.0142 53.7514 16.493 53.7514C17.4652 53.7514 18.3638 54.2805 18.8355 55.1292L24.3104 64.9832H25.0442C29.8614 64.9832 33.7801 68.9032 33.7801 73.7191V77.4631H36.276V73.7191C36.276 67.7775 31.6385 62.8979 25.7918 62.5122L23.6989 58.7433H23.7962V51.2554H27.5402V58.7433H30.0361V51.2554H33.7801V58.7433H36.276V51.2554H40.02V58.7433H42.516V51.2554H46.2599V83.703H43.7639V86.1989H46.2599V88.6949H48.7559V51.2554H51.2518V88.6949H53.7478V86.1989H71.2196V83.703H53.7478V51.2554H57.4917V58.7433H59.9877V51.2554H63.7317V58.7433H66.2276V51.2554H69.9716V58.7433H72.4675V51.2554H76.2115V58.7433H76.3088L74.2147 62.5122C68.3692 62.8979 63.7317 67.7775 63.7317 73.7191V77.4631H66.2276V73.7191C66.2276 68.9032 70.1463 64.9832 74.9635 64.9832H75.6973L81.171 55.1292C81.6452 54.2805 82.5425 53.7514 83.5147 53.7514C84.9935 53.7514 86.1953 54.9532 86.1953 56.5132C86.1953 56.9525 86.0868 57.388 85.8808 57.7749L76.2115 75.9031V83.703H73.7155V86.1989H76.2115V88.6949H78.7074V76.5271L88.0823 58.9492C88.4816 58.2017 88.6913 57.3606 88.6913 56.4308C88.6913 53.5767 86.3688 51.2554 83.5147 51.2554ZM28.7882 13.816H33.7801V28.7918H28.7882V13.816ZM42.516 48.7595H20.0523V13.816H26.2922V31.2877H36.276V13.816H42.516V48.7595ZM45.0119 48.7595V13.816H79.9554V48.7595H45.0119Z" fill="#417579"/>
<path d="M50.0038 43.7675H47.5078V46.2635H50.0038V43.7675Z" fill="#417579"/>
<path d="M54.996 43.7675H52.5V46.2635H54.996V43.7675Z" fill="#417579"/>
<path d="M59.9882 43.7675H57.4922V46.2635H59.9882V43.7675Z" fill="#417579"/>
<path d="M50.0038 38.7756H47.5078V41.2715H50.0038V38.7756Z" fill="#417579"/>
<path d="M50.0038 35.0317H47.5078V37.5276H50.0038V35.0317Z" fill="#417579"/>
<path d="M54.996 38.7756H52.5V41.2715H54.996V38.7756Z" fill="#417579"/>
</svg>
