<svg width="40" height="40" viewBox="0 0 40 40" fill="none" xmlns="http://www.w3.org/2000/svg">
<rect width="40" height="40" rx="20" fill="#C0CD30"/>
<path d="M31.563 19.6162L29.9073 18.7885L29.1507 15.7626C28.7853 14.301 27.478 13.2802 25.9714 13.2802H22.6477C22.2076 13.2802 21.8506 13.637 21.8506 14.0772V14.5952H19.9976V11.4471C19.9976 11.0069 19.6408 10.65 19.2006 10.65H13.9404C13.5002 10.65 13.1433 11.0069 13.1433 11.4471V14.5952H11.3103C10.8702 14.5952 10.5133 14.9521 10.5133 15.3923V19.8555H9.49712C9.05698 19.8555 8.70007 20.2124 8.70007 20.6526V25.9128C8.70007 26.3529 9.0569 26.7098 9.49712 26.7098H10.1097C10.47 28.2163 11.827 29.34 13.4423 29.34C15.0576 29.34 16.4146 28.2163 16.7749 26.7098H23.2604C23.6207 28.2163 24.9777 29.34 26.593 29.34C28.2083 29.34 29.5652 28.2163 29.9256 26.7098H30.6843C31.7684 26.7098 32.6503 25.8279 32.6503 24.7439V21.3747C32.6501 20.6252 32.2336 19.9514 31.563 19.6162ZM23.4446 14.8743H25.9714C26.7452 14.8743 27.4167 15.3986 27.6044 16.1493L28.2022 18.5405H23.4447L23.4446 14.8743ZM21.8506 19.8555H17.3675V16.1893H21.8506V19.8555ZM14.7374 12.2442H18.4036V14.5953H14.7374V12.2442ZM12.1073 16.1893H15.7735V19.8555H12.1073V16.1893ZM13.4423 27.7459C12.4314 27.7459 11.6092 26.9236 11.6092 25.9128C11.6092 24.902 12.4314 24.0797 13.4423 24.0797C14.4531 24.0797 15.2754 24.902 15.2754 25.9128C15.2754 26.9236 14.4531 27.7459 13.4423 27.7459ZM13.4423 22.4857C12.0329 22.4857 10.8198 23.3411 10.2941 24.5598V21.4496H21.8506V25.1158H16.7748C16.4145 23.6093 15.0575 22.4857 13.4423 22.4857ZM26.5928 27.7459C25.582 27.7459 24.7597 26.9236 24.7597 25.9128C24.7597 24.902 25.582 24.0797 26.5928 24.0797C27.6036 24.0797 28.4259 24.902 28.4259 25.9128C28.4259 26.9236 27.6036 27.7459 26.5928 27.7459ZM31.0561 24.7439C31.0561 24.949 30.8892 25.1158 30.6841 25.1158H29.9253C29.565 23.6094 28.208 22.4857 26.5927 22.4857C25.1834 22.4857 23.9703 23.3411 23.4446 24.5598V20.1345H29.0348L30.8502 21.042C30.977 21.1054 31.0559 21.2329 31.0559 21.3747V24.7439H31.0561Z" fill="#4D7478"/>
</svg>
