<svg width="200" height="200" viewBox="0 0 200 200" fill="none" xmlns="http://www.w3.org/2000/svg">
<path d="M188.625 27C194.859 27 200 32.0712 200 38.2213V141.432C200 147.983 194.641 153.27 188 153.27H171.625C169.719 164.461 159.859 173 148 173C136.141 173 126.281 164.461 124.375 153.27H87.375C84.4219 153.27 81.7812 152.037 79.75 150.188C77.6719 151.991 75.0156 153.239 72 153.27H67.625C65.7188 164.461 55.8594 173 44 173C30.7969 173 20 162.349 20 149.324C20 136.3 30.7969 125.649 44 125.649C55.8594 125.649 65.7188 134.188 67.625 145.378H72C72.75 145.378 73.8906 144.87 74.75 144.022C75.6094 143.174 76 142.157 76 141.432V66.4595C76 64.9797 73.5 62.5135 72 62.5135H40C36.8594 62.5135 32.4375 65.8275 29.375 69.4189C29.3438 69.4652 29.2812 69.496 29.25 69.5422L28.625 70.4054H48C54.375 70.4054 60 75.492 60 82.2432V98.027C60 101.31 58.5 104.193 56.375 106.289C54.25 108.385 51.3281 109.865 48 109.865H8V141.432C8 142.912 10.5 145.378 12 145.378H20V153.27H12C5.35938 153.27 0 147.983 0 141.432V103.453C0 94.4202 6.375 86.4358 6.375 86.4358H6.5L23 64.7331V64.6098L23.125 64.4865C26.8125 60.0935 32.3438 54.6216 40 54.6216H72C73.4219 54.6216 74.7344 54.9145 76 55.3615V38.4679C76 32.4103 80.8438 27 87.25 27H188.625ZM188.625 34.8919H87.25C85.5312 34.8919 84 36.5258 84 38.4679V142.049C84 143.899 85.4844 145.378 87.375 145.378H124.375C126.281 134.188 136.141 125.649 148 125.649C159.859 125.649 169.719 134.188 171.625 145.378H188C189.5 145.378 192 142.897 192 141.432V38.2213C192 36.3716 190.531 34.8919 188.625 34.8919ZM48 78.2973H22.625L12.875 91.1216C12.875 91.1216 9.25 97.2409 8.5 101.973H48C48.6719 101.973 49.75 101.48 50.625 100.617C51.5 99.7534 52 98.6898 52 98.027V82.2432C52 80.2549 49.625 78.2973 48 78.2973ZM148 133.541C139.109 133.541 132 140.554 132 149.324C132 158.095 139.109 165.108 148 165.108C156.891 165.108 164 158.095 164 149.324C164 140.554 156.891 133.541 148 133.541ZM44 133.541C35.1094 133.541 28 140.554 28 149.324C28 158.095 35.1094 165.108 44 165.108C52.8906 165.108 60 158.095 60 149.324C60 140.554 52.8906 133.541 44 133.541Z" fill="#407478" fill-opacity="0.1"/>
</svg>
