<svg width="545" height="545" viewBox="0 0 545 545" fill="none" xmlns="http://www.w3.org/2000/svg">
<path d="M272.5 520.944C130.677 520.944 15.7068 454.565 15.7068 372.682C15.7068 290.799 130.677 224.42 272.5 224.42C414.323 224.42 529.293 290.799 529.293 372.682C529.293 454.565 414.323 520.944 272.5 520.944Z" fill="#F0F0F0"/>
<path d="M325.637 485.028C276.732 485.028 237.086 462.14 237.086 433.907C237.086 405.674 276.732 382.786 325.637 382.786C374.543 382.786 414.189 405.674 414.189 433.907C414.189 462.14 374.543 485.028 325.637 485.028Z" fill="#E0E0E0"/>
<path d="M73.815 369.946L84.2027 363.951C84.2027 363.951 86.7424 341.715 85.0529 324.493C82.6767 300.295 67.0461 271.17 48.4071 278.015C29.7681 284.861 56.9527 309.495 63.0022 330.019C69.0517 350.544 73.815 369.946 73.815 369.946Z" fill="#0F7275"/>
<path opacity="0.15" d="M73.815 369.946L84.2027 363.951C84.2027 363.951 86.7424 341.715 85.0529 324.493C82.6767 300.295 67.0461 271.17 48.4071 278.015C29.7681 284.861 56.9527 309.495 63.0022 330.019C69.0517 350.544 73.815 369.946 73.815 369.946Z" fill="black"/>
<path d="M79.2757 367.428C79.11 367.42 78.9542 367.346 78.842 367.224C78.7298 367.102 78.6703 366.94 78.6762 366.774C80.4965 313.004 53.7261 285.951 53.4645 285.689C53.346 285.57 53.2795 285.41 53.2795 285.242C53.2795 285.075 53.346 284.914 53.4645 284.795C53.5223 284.737 53.591 284.691 53.6668 284.659C53.7426 284.627 53.8239 284.611 53.906 284.611C53.9881 284.611 54.0694 284.627 54.1451 284.659C54.2209 284.691 54.2896 284.737 54.3474 284.795C54.6308 285.057 81.7827 312.503 79.9406 366.818C79.9378 366.902 79.9184 366.984 79.8833 367.061C79.8482 367.137 79.7982 367.206 79.7363 367.262C79.6744 367.319 79.6018 367.363 79.5227 367.392C79.4436 367.42 79.3597 367.432 79.2757 367.428Z" fill="white"/>
<path d="M67.2861 373.685L74.6763 369.423C74.6763 369.423 75.9406 354.163 68.4523 335.633C61.9123 319.501 45.7804 306.105 37.649 308.917C29.5176 311.729 29.7247 317.495 33.6922 323.545C37.6599 329.594 61.7598 343.993 67.2861 373.685Z" fill="#0F7275"/>
<path d="M71.1881 372.072C71.0213 372.069 70.8621 372.001 70.7442 371.883C70.6262 371.765 70.5587 371.606 70.5559 371.439C70.7085 337.431 38.7824 314.454 38.4554 314.225C38.3873 314.179 38.3293 314.119 38.2851 314.049C38.2408 313.979 38.2111 313.901 38.1979 313.82C38.1846 313.738 38.1881 313.655 38.208 313.575C38.2279 313.494 38.2639 313.419 38.3137 313.353C38.4102 313.219 38.5555 313.127 38.7185 313.099C38.8816 313.07 39.0493 313.107 39.1857 313.201C39.5127 313.43 71.962 336.799 71.8203 371.439C71.8203 371.607 71.7537 371.768 71.6352 371.886C71.5166 372.005 71.3558 372.072 71.1881 372.072Z" fill="white"/>
<path d="M458.171 356.594L448.579 350.119C448.579 350.119 444.361 325.049 448.285 302.933C453.8 271.912 475.24 261.6 482.87 264.87C490.5 268.14 492.135 277.372 477.889 295.074C469.442 305.484 458.465 327.709 458.171 356.594Z" fill="#0F7275"/>
<g opacity="0.15">
<path d="M458.171 356.594L448.579 350.119C448.579 350.119 444.361 325.049 448.285 302.933C453.8 271.912 475.24 261.6 482.87 264.87C490.5 268.14 492.135 277.372 477.889 295.074C469.442 305.484 458.465 327.709 458.171 356.594Z" fill="black"/>
</g>
<path d="M454.879 344.168H454.977C455.075 344.161 455.17 344.135 455.257 344.089C455.344 344.043 455.421 343.98 455.481 343.903C455.542 343.825 455.586 343.736 455.61 343.641C455.633 343.546 455.637 343.447 455.62 343.35C452.154 314.149 464.482 282.452 477.9 269.84C478.029 269.71 478.101 269.534 478.101 269.35C478.101 269.166 478.029 268.99 477.9 268.859C477.836 268.794 477.759 268.742 477.675 268.707C477.591 268.672 477.5 268.653 477.409 268.653C477.318 268.653 477.227 268.672 477.143 268.707C477.059 268.742 476.982 268.794 476.919 268.859C463.25 281.7 450.693 313.92 454.203 343.546C454.223 343.713 454.303 343.867 454.427 343.981C454.55 344.095 454.711 344.161 454.879 344.168Z" fill="white"/>
<path d="M483.284 373.532C484.81 374.448 489.258 371.145 490.489 370.349C492.6 368.971 494.32 367.071 495.481 364.834C496.785 362.297 497.268 359.417 496.866 356.594C496.642 355.12 496.318 353.663 495.896 352.234C495.514 350.806 495.133 349.378 494.806 347.939C494.322 346.539 494.137 345.054 494.261 343.579C494.686 340.669 497.313 338.674 499.711 336.963C502.348 335.055 505.161 332.537 505.161 329.027C505.026 326.27 503.971 323.637 502.163 321.55C500.528 319.37 498.566 317.473 497.095 315.195C495.944 313.617 495.357 311.698 495.427 309.745C495.616 308.542 496.046 307.389 496.691 306.355C497.978 304.088 499.645 301.995 500.55 299.587C501.455 297.178 501.389 294.082 499.46 292.284C497.923 290.812 495.58 290.572 493.454 290.67C491.451 290.87 489.516 291.506 487.786 292.534C482.151 295.532 478.837 302.072 472.875 304.35C470.575 305.222 468.068 305.374 465.681 305.963C463.294 306.552 460.83 307.718 459.686 309.887C457.43 314.192 461.364 319.621 459.751 324.188C458.312 328.243 454.301 329.725 452.034 333.355C451.114 334.967 450.732 336.83 450.944 338.674C451.072 341.787 451.77 344.849 453.004 347.71C454.423 350.677 456.025 353.553 457.8 356.321C457.8 356.321 483.055 373.39 483.284 373.532Z" fill="#0F7275"/>
<path d="M468.547 364.496C468.639 364.495 468.73 364.475 468.814 364.439C468.898 364.403 468.974 364.35 469.038 364.284C469.101 364.218 469.152 364.141 469.185 364.056C469.219 363.97 469.236 363.879 469.234 363.788C468.624 336.189 482.205 306.018 491.819 297.298C491.956 297.174 492.038 297.002 492.048 296.818C492.058 296.635 491.996 296.454 491.873 296.317C491.81 296.251 491.733 296.2 491.649 296.164C491.565 296.129 491.474 296.111 491.383 296.111C491.292 296.111 491.201 296.129 491.117 296.164C491.033 296.2 490.956 296.251 490.892 296.317C481.082 305.146 467.229 335.84 467.85 363.82C467.851 363.911 467.87 364 467.906 364.082C467.942 364.165 467.994 364.24 468.059 364.303C468.123 364.366 468.2 364.415 468.284 364.448C468.368 364.481 468.457 364.498 468.547 364.496Z" fill="white"/>
<path d="M473.638 330.87C473.702 330.886 473.77 330.886 473.834 330.87C482.75 328.297 493.803 328.036 493.912 328.025C494.003 328.023 494.093 328.004 494.176 327.967C494.26 327.931 494.335 327.878 494.398 327.812C494.461 327.746 494.51 327.668 494.543 327.583C494.575 327.498 494.59 327.407 494.588 327.316C494.589 327.224 494.572 327.133 494.536 327.048C494.501 326.963 494.448 326.886 494.382 326.823C494.315 326.759 494.236 326.71 494.149 326.679C494.063 326.647 493.971 326.634 493.879 326.64C493.77 326.64 482.543 326.913 473.452 329.529C473.277 329.582 473.129 329.702 473.041 329.863C472.954 330.024 472.933 330.214 472.984 330.39C473.026 330.53 473.113 330.652 473.231 330.739C473.349 330.825 473.492 330.871 473.638 330.87Z" fill="white"/>
<path d="M216.736 337.617L220.867 335.23C221.555 334.783 222.128 334.18 222.539 333.469C222.95 332.759 223.187 331.962 223.232 331.142V159.445C223.187 158.627 222.95 157.831 222.542 157.121C222.133 156.411 221.563 155.807 220.878 155.358L106.046 89.064C105.315 88.6934 104.506 88.5002 103.686 88.5002C102.866 88.5002 102.058 88.6934 101.326 89.064L97.1953 91.4511C96.507 91.898 95.9339 92.5011 95.5229 93.2115C95.1119 93.9218 94.8744 94.7191 94.8299 95.5386V267.235C94.8749 268.053 95.1114 268.85 95.5204 269.56C95.9293 270.269 96.4993 270.873 97.1843 271.323L212.016 337.628C212.747 337.999 213.557 338.192 214.377 338.19C215.197 338.188 216.006 337.992 216.736 337.617Z" fill="#455A64"/>
<path d="M94.8296 95.1571C94.9931 93.9363 95.985 93.4894 97.1731 94.1761L212.016 160.481C212.71 160.916 213.283 161.52 213.683 162.236L222.545 157.124C222.149 156.402 221.574 155.795 220.877 155.358L106.046 89.064C105.314 88.6934 104.506 88.5002 103.686 88.5002C102.866 88.5002 102.057 88.6934 101.326 89.064L97.1949 91.4511C96.5569 91.8619 96.0151 92.4057 95.6069 93.0454C95.1986 93.685 94.9335 94.4054 94.8296 95.1571Z" fill="#455A64"/>
<path d="M212.419 337.813C213.117 338.095 213.867 338.225 214.619 338.193C215.371 338.161 216.108 337.968 216.779 337.628L220.921 335.23C221.606 334.78 222.176 334.176 222.585 333.466C222.994 332.756 223.23 331.96 223.275 331.142V159.445C223.247 158.626 223.011 157.827 222.589 157.124L213.727 162.236C214.158 162.94 214.398 163.743 214.425 164.568V336.265C214.381 337.617 213.531 338.238 212.419 337.813Z" fill="#263238"/>
<path d="M214.381 164.59V336.265C214.381 337.769 213.291 338.38 212.016 337.628L97.1841 271.323C96.499 270.873 95.929 270.269 95.5201 269.559C95.1112 268.849 94.8746 268.053 94.8297 267.235V95.5385C94.8297 94.0343 95.9197 93.4239 97.1841 94.176L212.016 160.481C212.707 160.93 213.282 161.536 213.693 162.251C214.104 162.965 214.34 163.767 214.381 164.59Z" fill="#37474F"/>
<path d="M241.195 229.99C242.677 229.107 249.555 225.194 249.915 224.987C250.195 224.82 250.434 224.592 250.615 224.32C250.795 224.048 250.912 223.739 250.957 223.415C251.002 223.092 250.974 222.763 250.875 222.452C250.776 222.141 250.608 221.856 250.384 221.619L223.232 192.494L214.381 197.574L241.522 226.72C241.735 226.947 241.897 227.217 241.997 227.512C242.097 227.807 242.133 228.12 242.102 228.429C242.071 228.739 241.974 229.039 241.818 229.308C241.661 229.577 241.449 229.81 241.195 229.99Z" fill="#455A64"/>
<path d="M214.381 197.606L241.522 226.72C241.823 227.042 242.02 227.448 242.086 227.884C242.152 228.319 242.085 228.765 241.892 229.162C241.7 229.559 241.392 229.888 241.008 230.106C240.625 230.324 240.184 230.42 239.745 230.383L214.381 228.29V197.606Z" fill="#37474F"/>
<path d="M230.432 41.8453C232.314 42.2639 234.127 42.9465 235.817 43.8727C237.436 44.7428 238.886 45.8944 240.101 47.2735C241.263 48.6001 242.125 50.1615 242.63 51.8515C243.144 53.6605 243.182 55.5718 242.739 57.3996C242.446 58.8487 241.872 60.2264 241.049 61.4544C240.298 62.5045 239.402 63.4438 238.389 64.2448C237.395 65.0171 236.333 65.6992 235.218 66.2831L232.078 67.9508C231.133 68.444 230.235 69.0242 229.397 69.6839C228.639 70.2655 228.058 71.0468 227.718 71.9402C227.552 72.3483 227.277 72.7028 226.923 72.9648C226.755 73.095 226.56 73.1853 226.352 73.2287C226.144 73.2722 225.929 73.2676 225.724 73.2155L221.102 72.1909C220.88 72.1442 220.669 72.0537 220.481 71.9245C220.294 71.7954 220.135 71.6303 220.012 71.4388C219.882 71.2607 219.795 71.0545 219.759 70.8367C219.723 70.619 219.739 70.3958 219.805 70.1853C220.177 68.754 220.833 67.4121 221.734 66.2395C222.556 65.2022 223.509 64.2753 224.568 63.4818C225.6 62.7263 226.694 62.059 227.838 61.4871C228.928 60.9312 230.018 60.3971 230.967 59.863C231.849 59.3888 232.678 58.8225 233.441 58.1735C234.11 57.6132 234.574 56.8463 234.76 55.9935C234.933 55.2529 234.925 54.4814 234.735 53.7449C234.545 53.0083 234.18 52.3288 233.67 51.7643C232.395 50.3727 230.692 49.4479 228.83 49.1374C225.386 48.3744 222.479 49.5334 220.11 52.6145C219.881 52.9508 219.593 53.2426 219.26 53.4756C218.884 53.6621 218.449 53.6934 218.05 53.5628L213.134 52.4728C212.784 52.405 212.474 52.2012 212.273 51.906C212.166 51.7482 212.094 51.5692 212.062 51.3811C212.03 51.1931 212.039 51.0003 212.088 50.816C212.506 49.3014 213.283 47.9102 214.355 46.7612C215.563 45.4286 216.999 44.3214 218.595 43.4912C220.34 42.5782 222.221 41.9525 224.165 41.6382C226.248 41.2994 228.377 41.3697 230.432 41.8453ZM225.211 76.9215C225.644 77.023 226.019 77.2897 226.258 77.6645C226.496 78.0393 226.578 78.4924 226.487 78.9271L225.309 84.2681C225.27 84.4917 225.183 84.7044 225.055 84.8922C224.928 85.0801 224.762 85.2388 224.568 85.3581C224.386 85.4839 224.179 85.5702 223.961 85.6115C223.744 85.6528 223.52 85.6481 223.304 85.5979L218.028 84.388C217.804 84.3501 217.59 84.2643 217.402 84.1364C217.214 84.0085 217.056 83.8415 216.938 83.6468C216.816 83.4627 216.733 83.2556 216.693 83.0382C216.654 82.8208 216.66 82.5976 216.709 82.3824L217.897 77.0414C217.999 76.6084 218.265 76.232 218.64 75.9919C219.014 75.7518 219.467 75.6669 219.903 75.7552L225.211 76.9215Z" fill="#0F7275"/>
<path d="M236.253 92.9771C237.566 92.7665 238.901 92.7408 240.221 92.9008C241.481 93.0506 242.706 93.4195 243.839 93.9908C244.919 94.5508 245.869 95.3305 246.63 96.2798C247.313 97.2088 247.795 98.2708 248.042 99.3973C248.29 100.524 248.299 101.69 248.069 102.82C247.861 103.689 247.527 104.522 247.077 105.294C246.643 106.045 246.139 106.753 245.573 107.409C245.017 108.063 244.483 108.684 243.992 109.283C243.512 109.842 243.085 110.444 242.717 111.082C242.371 111.641 242.197 112.289 242.215 112.946C242.206 113.253 242.12 113.553 241.965 113.818C241.886 113.94 241.782 114.044 241.66 114.123C241.538 114.202 241.4 114.254 241.256 114.276L237.986 114.799C237.833 114.827 237.676 114.824 237.525 114.79C237.373 114.756 237.23 114.693 237.103 114.603C236.974 114.522 236.867 114.411 236.789 114.281C236.711 114.15 236.666 114.002 236.656 113.851C236.519 112.836 236.594 111.805 236.874 110.82C237.131 109.949 237.497 109.114 237.964 108.335C238.423 107.588 238.948 106.884 239.534 106.231C240.112 105.577 240.624 104.967 241.125 104.378C241.573 103.853 241.96 103.279 242.281 102.667C242.564 102.141 242.668 101.536 242.575 100.945C242.493 100.425 242.287 99.9324 241.974 99.5093C241.66 99.0861 241.25 98.7447 240.777 98.5143C239.605 97.9482 238.278 97.7872 237.005 98.0565C235.852 98.225 234.78 98.7461 233.935 99.5481C233.09 100.35 232.514 101.394 232.285 102.536C232.222 102.811 232.111 103.073 231.958 103.31C231.764 103.517 231.5 103.645 231.217 103.67L227.773 104.226C227.531 104.272 227.28 104.221 227.075 104.084C226.97 104.012 226.882 103.918 226.816 103.809C226.75 103.7 226.709 103.578 226.694 103.452C226.591 102.37 226.76 101.28 227.184 100.28C227.615 99.1163 228.25 98.0385 229.059 97.0973C229.946 96.0666 230.991 95.1836 232.155 94.4813C233.411 93.7196 234.802 93.2087 236.253 92.9771ZM241.877 116.794C242.028 116.77 242.181 116.776 242.329 116.811C242.476 116.847 242.616 116.911 242.739 117.001C242.867 117.085 242.976 117.196 243.059 117.325C243.141 117.455 243.196 117.601 243.218 117.753L243.829 121.491C243.876 121.795 243.802 122.104 243.622 122.353C243.442 122.602 243.172 122.77 242.869 122.821L239.218 123.421C238.915 123.468 238.605 123.393 238.357 123.214C238.23 123.128 238.123 123.017 238.042 122.887C237.962 122.758 237.909 122.613 237.888 122.462L237.278 118.723C237.25 118.573 237.254 118.419 237.29 118.27C237.325 118.122 237.392 117.983 237.485 117.862C237.57 117.735 237.681 117.628 237.811 117.548C237.941 117.467 238.086 117.414 238.237 117.393L241.877 116.794Z" fill="#0F7275"/>
<g opacity="0.2">
<path d="M236.253 92.9771C237.566 92.7665 238.901 92.7408 240.221 92.9008C241.481 93.0506 242.706 93.4195 243.839 93.9908C244.919 94.5508 245.869 95.3305 246.63 96.2798C247.313 97.2088 247.795 98.2708 248.042 99.3973C248.29 100.524 248.299 101.69 248.069 102.82C247.861 103.689 247.527 104.522 247.077 105.294C246.643 106.045 246.139 106.753 245.573 107.409C245.017 108.063 244.483 108.684 243.992 109.283C243.512 109.842 243.085 110.444 242.717 111.082C242.371 111.641 242.197 112.289 242.215 112.946C242.206 113.253 242.12 113.553 241.965 113.818C241.886 113.94 241.782 114.044 241.66 114.123C241.538 114.202 241.4 114.254 241.256 114.276L237.986 114.799C237.833 114.827 237.676 114.824 237.525 114.79C237.373 114.756 237.23 114.693 237.103 114.603C236.974 114.522 236.867 114.411 236.789 114.281C236.711 114.15 236.666 114.002 236.656 113.851C236.519 112.836 236.594 111.805 236.874 110.82C237.131 109.949 237.497 109.114 237.964 108.335C238.423 107.588 238.948 106.884 239.534 106.231C240.112 105.577 240.624 104.967 241.125 104.378C241.573 103.853 241.96 103.279 242.281 102.667C242.564 102.141 242.668 101.536 242.575 100.945C242.493 100.425 242.287 99.9324 241.974 99.5093C241.66 99.0861 241.25 98.7447 240.777 98.5143C239.605 97.9482 238.278 97.7872 237.005 98.0565C235.852 98.225 234.78 98.7461 233.935 99.5481C233.09 100.35 232.514 101.394 232.285 102.536C232.222 102.811 232.111 103.073 231.958 103.31C231.764 103.517 231.5 103.645 231.217 103.67L227.773 104.226C227.531 104.272 227.28 104.221 227.075 104.084C226.97 104.012 226.882 103.918 226.816 103.809C226.75 103.7 226.709 103.578 226.694 103.452C226.591 102.37 226.76 101.28 227.184 100.28C227.615 99.1163 228.25 98.0385 229.059 97.0973C229.946 96.0666 230.991 95.1836 232.155 94.4813C233.411 93.7196 234.802 93.2087 236.253 92.9771ZM241.877 116.794C242.028 116.77 242.181 116.776 242.329 116.811C242.476 116.847 242.616 116.911 242.739 117.001C242.867 117.085 242.976 117.196 243.059 117.325C243.141 117.455 243.196 117.601 243.218 117.753L243.829 121.491C243.876 121.795 243.802 122.104 243.622 122.353C243.442 122.602 243.172 122.77 242.869 122.821L239.218 123.421C238.915 123.468 238.605 123.393 238.357 123.214C238.23 123.128 238.123 123.017 238.042 122.887C237.962 122.758 237.909 122.613 237.888 122.462L237.278 118.723C237.25 118.573 237.254 118.419 237.29 118.27C237.325 118.122 237.392 117.983 237.485 117.862C237.57 117.735 237.681 117.628 237.811 117.548C237.941 117.467 238.086 117.414 238.237 117.393L241.877 116.794Z" fill="black"/>
</g>
<path d="M267.078 98.8523C267.227 98.9556 267.353 99.0881 267.448 99.2418C267.544 99.3955 267.607 99.5671 267.634 99.7461C267.669 99.9234 267.666 100.106 267.627 100.282C267.588 100.459 267.512 100.625 267.405 100.771L264.811 104.422C264.708 104.571 264.575 104.697 264.421 104.792C264.268 104.888 264.096 104.951 263.917 104.978C263.74 105.013 263.557 105.01 263.381 104.971C263.205 104.932 263.038 104.856 262.893 104.749L259.317 102.209C259.168 102.108 259.043 101.975 258.949 101.821C258.855 101.667 258.795 101.495 258.772 101.316C258.738 101.138 258.74 100.956 258.78 100.779C258.819 100.603 258.894 100.437 259.001 100.291L261.628 96.6396C261.841 96.3436 262.161 96.1433 262.52 96.0821C262.879 96.0209 263.248 96.1037 263.547 96.3126L267.078 98.8523ZM282.164 74.1202C283.467 75.0337 284.628 76.1358 285.608 77.3902C286.564 78.557 287.302 79.8861 287.788 81.3141C288.241 82.6826 288.393 84.1325 288.235 85.5652C288.05 87.0929 287.472 88.5465 286.556 89.7835C285.876 90.7836 285.001 91.6363 283.984 92.2904C283.089 92.8518 282.115 93.2778 281.096 93.5549C280.102 93.8145 279.088 93.9895 278.065 94.078L275.166 94.3397C274.297 94.4091 273.435 94.5587 272.594 94.7866C271.817 94.9629 271.106 95.356 270.544 95.9202C270.291 96.1779 269.97 96.3592 269.618 96.4434C269.451 96.4914 269.274 96.4986 269.104 96.4644C268.933 96.4303 268.773 96.3558 268.637 96.2472L265.476 94.0017C265.174 93.786 264.967 93.4619 264.898 93.0971C264.857 92.9203 264.859 92.7364 264.902 92.5603C264.946 92.3842 265.03 92.2208 265.149 92.0834C265.887 91.1252 266.81 90.3246 267.863 89.729C268.811 89.2113 269.822 88.8193 270.871 88.5627C271.884 88.317 272.916 88.1601 273.956 88.094C274.981 88.0286 275.94 87.9523 276.834 87.8651C277.652 87.7928 278.459 87.632 279.243 87.3854C279.928 87.1573 280.518 86.7089 280.921 86.1102C281.286 85.6046 281.522 85.0185 281.612 84.4017C281.701 83.7849 281.64 83.1557 281.433 82.5677C280.918 81.1149 279.932 79.8758 278.632 79.0469C276.278 77.3683 273.709 77.3139 270.926 78.8835C270.646 79.0617 270.335 79.1873 270.01 79.2541C269.841 79.2658 269.671 79.244 269.51 79.1897C269.349 79.1355 269.201 79.0499 269.073 78.9379L265.716 76.5509C265.594 76.4701 265.49 76.3658 265.409 76.2441C265.329 76.1224 265.274 75.9858 265.247 75.8424C265.221 75.694 265.226 75.5419 265.261 75.3956C265.297 75.2492 265.363 75.1119 265.454 74.9922C266.246 73.9773 267.276 73.1725 268.452 72.6487C269.788 72.0434 271.219 71.6746 272.681 71.5587C274.29 71.4242 275.909 71.5531 277.477 71.9402C279.169 72.3478 280.762 73.0889 282.164 74.1202Z" fill="#0F7275"/>
<g opacity="0.6">
<path d="M267.078 98.8523C267.227 98.9556 267.353 99.0881 267.448 99.2418C267.544 99.3955 267.607 99.5671 267.634 99.7461C267.669 99.9234 267.666 100.106 267.627 100.282C267.588 100.459 267.512 100.625 267.405 100.771L264.811 104.422C264.708 104.571 264.575 104.697 264.421 104.792C264.268 104.888 264.096 104.951 263.917 104.978C263.74 105.013 263.557 105.01 263.381 104.971C263.205 104.932 263.038 104.856 262.893 104.749L259.317 102.209C259.168 102.108 259.043 101.975 258.949 101.821C258.855 101.667 258.795 101.495 258.772 101.316C258.738 101.138 258.74 100.956 258.78 100.779C258.819 100.603 258.894 100.437 259.001 100.291L261.628 96.6396C261.841 96.3436 262.161 96.1433 262.52 96.0821C262.879 96.0209 263.248 96.1037 263.547 96.3126L267.078 98.8523ZM282.164 74.1202C283.467 75.0337 284.628 76.1358 285.608 77.3902C286.564 78.557 287.302 79.8861 287.788 81.3141C288.241 82.6826 288.393 84.1325 288.235 85.5652C288.05 87.0929 287.472 88.5465 286.556 89.7835C285.876 90.7836 285.001 91.6363 283.984 92.2904C283.089 92.8518 282.115 93.2778 281.096 93.5549C280.102 93.8145 279.088 93.9895 278.065 94.078L275.166 94.3397C274.297 94.4091 273.435 94.5587 272.594 94.7866C271.817 94.9629 271.106 95.356 270.544 95.9202C270.291 96.1779 269.97 96.3592 269.618 96.4434C269.451 96.4914 269.274 96.4986 269.104 96.4644C268.933 96.4303 268.773 96.3558 268.637 96.2472L265.476 94.0017C265.174 93.786 264.967 93.4619 264.898 93.0971C264.857 92.9203 264.859 92.7364 264.902 92.5603C264.946 92.3842 265.03 92.2208 265.149 92.0834C265.887 91.1252 266.81 90.3246 267.863 89.729C268.811 89.2113 269.822 88.8193 270.871 88.5627C271.884 88.317 272.916 88.1601 273.956 88.094C274.981 88.0286 275.94 87.9523 276.834 87.8651C277.652 87.7928 278.459 87.632 279.243 87.3854C279.928 87.1573 280.518 86.7089 280.921 86.1102C281.286 85.6046 281.522 85.0185 281.612 84.4017C281.701 83.7849 281.64 83.1557 281.433 82.5677C280.918 81.1149 279.932 79.8758 278.632 79.0469C276.278 77.3683 273.709 77.3139 270.926 78.8835C270.646 79.0617 270.335 79.1873 270.01 79.2541C269.841 79.2658 269.671 79.244 269.51 79.1897C269.349 79.1355 269.201 79.0499 269.073 78.9379L265.716 76.5509C265.594 76.4701 265.49 76.3658 265.409 76.2441C265.329 76.1224 265.274 75.9858 265.247 75.8424C265.221 75.694 265.226 75.5419 265.261 75.3956C265.297 75.2492 265.363 75.1119 265.454 74.9922C266.246 73.9773 267.276 73.1725 268.452 72.6487C269.788 72.0434 271.219 71.6746 272.681 71.5587C274.29 71.4242 275.909 71.5531 277.477 71.9402C279.169 72.3478 280.762 73.0889 282.164 74.1202Z" fill="white"/>
</g>
<path d="M319.883 195.339H358.61V101.512C358.61 93.3624 355.373 85.5469 349.611 79.7844C343.848 74.022 336.033 70.7847 327.883 70.7847H324.308C316.159 70.7847 308.343 74.022 302.581 79.7844C296.818 85.5469 293.581 93.3624 293.581 101.512V169.092C293.595 176.058 296.373 182.734 301.304 187.655C306.235 192.575 312.916 195.339 319.883 195.339Z" fill="#263238"/>
<path d="M362.382 421.22C363.067 425.107 363.431 429.044 363.472 432.992C363.613 440.142 364.921 442.682 365.096 448.546C365.303 455.25 364.137 457.757 361.422 461.528C358.708 465.299 351.612 468.711 348.539 462.345C345.465 455.98 345.912 451.805 346.882 445.232C347.874 438.431 347.972 434.67 348.582 429.493C349.084 424.926 349.672 421.449 349.672 421.449L362.382 421.22Z" fill="#263238"/>
<path d="M342.086 373.728L365.63 373.303C365.281 389.021 362.785 406.472 362.36 421.263C362.273 424.043 362.425 442.834 361.379 448.513C359.798 457.102 349.618 455.936 349.073 450.802C348.528 445.668 349.727 423.727 349.694 421.459C349.792 411.998 345.334 396.03 343.034 379.048C342.936 378.23 342.195 374.546 342.086 373.728Z" fill="#FFA8A7"/>
<path d="M311.838 408.99C311.838 408.99 312.765 408.489 312.928 409.481C313.157 410.658 313.506 413.088 314.018 415.029C314.694 417.721 315.261 422.157 314.857 424.359C314.454 426.561 309.331 429.373 306.007 430.398C301.909 431.662 298.173 433.885 295.107 436.883C291.837 439.979 284.719 442.9 279.847 442.867C274.124 442.867 270.135 440.96 268.249 437.897C266.363 434.834 269.971 434.463 276.511 430.267L281.58 426.997C291.946 420.228 295.75 416.609 298.66 409.84L311.838 408.99Z" fill="#263238"/>
<path d="M298.573 404.793C298.747 399.932 295.39 358.61 295.39 358.61L317.746 368.802C312.961 397.381 311.936 404.128 311.86 408.805C311.958 409.196 311.999 409.6 311.98 410.004C311.98 415.552 305.691 418.549 300.808 422.255C296.656 425.507 292.233 428.395 287.586 430.888C284.032 432.665 276.817 432.828 275.923 430.55C281.874 426.005 290.529 419.203 295.259 414.015C297.57 411.573 298.399 409.666 298.573 404.793Z" fill="#FFA8A7"/>
<path d="M355.983 220.354C364.573 239.201 364.573 253.785 363.145 277.841C361.88 299.914 359.777 319.37 359.777 319.37C360.104 323.283 365.543 330.924 366.251 348.233C366.905 364.409 365.161 384.977 365.161 384.977C365.161 384.977 352.942 391.746 343.906 384.912C343.906 384.912 335.186 343.285 332.636 323.032C330.456 305.364 326.532 282.79 326.532 282.79L318.28 322.913C320.061 328.605 321.352 334.44 322.139 340.353C323.294 352.266 316.624 375.658 316.624 375.658C316.624 375.658 304.001 379.418 296.295 372.584C296.295 372.584 293.417 334.554 292.338 320.209C290.9 300.993 293.93 248.978 296.295 221.434L355.983 220.354Z" fill="#455A64"/>
<path d="M326.51 282.757L323.12 252.52C323.12 252.52 307.925 250.493 301.036 244.018C303.008 247.103 305.635 249.716 308.73 251.671C311.825 253.627 315.313 254.877 318.945 255.333L323.85 283.465L318.28 322.913L326.51 282.757Z" fill="#263238"/>
<path d="M264.979 212.921C264.351 207.403 264.075 201.851 264.151 196.298C264.489 191.502 265.35 190.717 272.053 182.226C281.1 170.749 288.828 160.426 297.003 150.169C302.846 142.845 308.993 141.722 314.967 142.049C319.152 142.278 310.977 162.41 306.868 174.324L283.4 199.59C282.673 200.587 282.339 201.817 282.463 203.045L283.88 224.54L276.849 233.958C276.849 233.958 266.2 224.78 264.979 212.921Z" fill="#FFA8A7"/>
<path d="M337.595 142.703C342.14 143.019 350.403 143.793 350.403 143.793C355.166 146.452 356.376 148.643 357.259 154.965C357.64 157.668 355.438 164.852 353.553 175.065L349.978 193.998L350.37 203.394C352.223 209.127 356.419 216.245 360.125 226.742C341.922 236.901 326.662 237.282 312.819 235.462C302.268 234.099 296.677 231.549 294.813 229.02C295.205 218.654 295.903 212.245 296.121 201.41C296.197 196.865 295.924 192.265 295.739 187.033C288.665 181.212 288.578 171.533 292.469 165.233C301.44 150.703 310.171 141.558 315.948 142.027L337.595 142.703Z" fill="#0F7275"/>
<path opacity="0.6" d="M337.595 142.703C342.14 143.019 350.403 143.793 350.403 143.793C355.166 146.452 356.376 148.643 357.259 154.965C357.64 157.668 355.438 164.852 353.553 175.065L349.978 193.998L350.37 203.394C352.223 209.127 356.419 216.245 360.125 226.742C341.922 236.901 326.662 237.282 312.819 235.462C302.268 234.099 296.677 231.549 294.813 229.02C295.205 218.654 295.903 212.245 296.121 201.41C296.197 196.865 295.924 192.265 295.739 187.033C288.665 181.212 288.578 171.533 292.469 165.233C301.44 150.703 310.171 141.558 315.948 142.027L337.595 142.703Z" fill="white"/>
<path opacity="0.1" d="M309.833 187.175C309.833 187.175 318.139 193.628 327.633 190.26C330.299 189.419 332.703 187.906 334.612 185.864C336.522 183.823 337.872 181.323 338.533 178.607C338.533 178.607 339.535 189.453 327.578 193.148C315.991 196.712 309.833 187.175 309.833 187.175Z" fill="black"/>
<path d="M298.562 112.935C298.922 128.674 304.012 132.555 306.584 133.645C309.157 134.735 314.084 134.081 318.88 133.285V142.79C318.88 142.79 313.342 148.589 313.757 152.916C314.171 157.243 322.477 157.734 328.668 153.494C332.084 151.147 335.174 148.358 337.857 145.199C338.372 144.589 338.654 143.817 338.652 143.019V120.783C338.652 120.783 341.279 123.562 345.923 120.38C346.924 119.74 347.782 118.899 348.442 117.91C349.101 116.922 349.547 115.806 349.752 114.636C349.957 113.465 349.917 112.264 349.633 111.11C349.349 109.956 348.827 108.874 348.103 107.932C346.075 105.545 340.93 105.381 338.467 109.022C337.072 111.736 336.886 114.472 335.328 113.382C331.186 110.395 333.409 103.572 328.406 100.302C326.764 99.4449 325.059 98.716 323.305 98.1218C314.378 95.0371 306.639 92.4429 304.775 86.3389C301.265 88.3445 298.126 94.3722 298.562 112.935Z" fill="#FFA8A7"/>
<path d="M316.166 126.996C315.022 126.996 314.095 126.069 314.095 124.925C314.095 123.781 315.022 122.854 316.166 122.854C317.31 122.854 318.237 123.781 318.237 124.925C318.237 126.069 317.31 126.996 316.166 126.996Z" fill="#B16668"/>
<path d="M317.539 110.548C317.539 110.974 317.665 111.391 317.9 111.747C318.135 112.103 318.469 112.382 318.861 112.55C319.253 112.717 319.686 112.766 320.106 112.691C320.525 112.615 320.914 112.418 321.222 112.124C321.531 111.83 321.747 111.452 321.843 111.036C321.939 110.621 321.911 110.186 321.763 109.786C321.614 109.387 321.352 109.039 321.008 108.787C320.664 108.535 320.254 108.389 319.828 108.368C319.533 108.353 319.237 108.399 318.96 108.502C318.683 108.604 318.43 108.763 318.215 108.967C318.001 109.171 317.831 109.416 317.715 109.688C317.598 109.96 317.539 110.252 317.539 110.548Z" fill="#263238"/>
<path d="M301.026 110.766C301.003 111.033 301.034 111.301 301.117 111.556C301.199 111.81 301.332 112.046 301.506 112.249C301.681 112.452 301.894 112.618 302.133 112.737C302.373 112.857 302.633 112.928 302.9 112.946C303.17 112.971 303.442 112.938 303.697 112.85C303.953 112.762 304.187 112.62 304.384 112.435C304.581 112.249 304.736 112.024 304.839 111.774C304.943 111.523 304.991 111.254 304.982 110.984C305.011 110.715 304.983 110.444 304.903 110.186C304.822 109.928 304.69 109.689 304.514 109.484C304.338 109.28 304.122 109.113 303.879 108.994C303.636 108.876 303.372 108.808 303.102 108.796C302.832 108.783 302.563 108.826 302.31 108.921C302.057 109.016 301.827 109.162 301.632 109.349C301.438 109.537 301.284 109.762 301.179 110.011C301.075 110.261 301.023 110.528 301.026 110.799V110.766Z" fill="#263238"/>
<path d="M320.34 116.15C322.22 116.15 324.023 115.404 325.354 114.076C326.684 112.747 327.433 110.945 327.436 109.065C327.436 104.248 322.466 104.248 320.34 104.248C318.215 104.248 313.255 104.248 313.255 109.065C313.258 110.944 314.005 112.744 315.333 114.072C316.662 115.4 318.462 116.147 320.34 116.15ZM320.34 105.359C324.7 105.359 326.313 106.449 326.313 109.065C326.313 110.655 325.682 112.18 324.557 113.304C323.433 114.429 321.908 115.06 320.318 115.06C318.728 115.06 317.204 114.429 316.079 113.304C314.955 112.18 314.323 110.655 314.323 109.065C314.367 106.395 316.046 105.359 320.34 105.359Z" fill="#455A64"/>
<path d="M302.345 116.15C304.225 116.15 306.028 115.404 307.358 114.076C308.689 112.747 309.438 110.945 309.44 109.065C309.44 104.248 304.47 104.248 302.345 104.248C300.219 104.248 295.26 104.248 295.26 109.065C295.262 110.944 296.01 112.744 297.338 114.072C298.666 115.4 300.466 116.147 302.345 116.15ZM302.345 105.359C306.639 105.359 308.318 106.449 308.318 109.065C308.318 110.655 307.686 112.18 306.562 113.304C305.438 114.429 303.913 115.06 302.323 115.06C300.733 115.06 299.208 114.429 298.084 113.304C296.959 112.18 296.328 110.655 296.328 109.065C296.371 106.395 298.05 105.359 302.345 105.359Z" fill="#455A64"/>
<path d="M312.154 106.776L311.805 120.02L304.84 117.862L312.154 106.776Z" fill="#F28F8F"/>
<path d="M318.891 133.318C323.948 132.653 334.358 129.666 335.982 125.546C335.328 127.628 334.054 129.461 332.33 130.8C329.224 133.47 318.891 136.468 318.891 136.468V133.318Z" fill="#F28F8F"/>
<path d="M318.64 100.345L323.261 103.168C323.626 102.534 323.732 101.784 323.557 101.073C323.382 100.363 322.941 99.7469 322.324 99.3535C322.019 99.1684 321.68 99.0472 321.327 98.997C320.974 98.9468 320.614 98.9687 320.27 99.0614C319.925 99.1541 319.603 99.3157 319.323 99.5364C319.043 99.7571 318.811 100.032 318.64 100.345Z" fill="#263238"/>
<path d="M299.838 103.485L304.982 101.686C304.883 101.345 304.715 101.028 304.488 100.755C304.261 100.481 303.981 100.257 303.665 100.096C303.348 99.9343 303.002 99.8394 302.648 99.8168C302.293 99.7942 301.938 99.8443 301.603 99.9641C300.913 100.212 300.345 100.716 300.016 101.371C299.688 102.027 299.624 102.783 299.838 103.485Z" fill="#263238"/>
<path d="M313.811 109.632C313.885 109.632 313.958 109.618 314.026 109.589C314.095 109.56 314.156 109.518 314.208 109.466C314.26 109.413 314.301 109.35 314.328 109.282C314.355 109.213 314.369 109.139 314.367 109.066C314.367 108.161 312.579 107.572 310.966 107.572C309.353 107.572 308.318 108.161 308.318 109.066C308.351 109.184 308.423 109.288 308.521 109.362C308.62 109.437 308.739 109.477 308.863 109.477C308.986 109.477 309.106 109.437 309.204 109.362C309.302 109.288 309.374 109.184 309.408 109.066C309.408 108.957 309.963 108.684 310.934 108.684C311.715 108.667 312.492 108.801 313.223 109.076C313.222 109.152 313.238 109.227 313.268 109.297C313.298 109.367 313.342 109.429 313.397 109.482C313.452 109.534 313.517 109.574 313.588 109.6C313.66 109.626 313.735 109.637 313.811 109.632Z" fill="#455A64"/>
<path d="M326.858 109.153H326.924L339.383 108.063C339.965 107.486 340.658 107.033 341.421 106.733L326.793 108.085C326.646 108.104 326.513 108.179 326.421 108.295C326.33 108.411 326.287 108.559 326.303 108.706C326.328 108.834 326.398 108.948 326.499 109.03C326.601 109.112 326.728 109.155 326.858 109.153Z" fill="#455A64"/>
<path d="M378.012 122.145C373.936 116.695 371.156 112.586 367.439 107.975C365.325 105.327 363.973 103.43 361.989 100.716C360.594 98.8413 359.809 97.2608 358.218 96.6831C356.498 95.9786 354.949 94.9158 353.673 93.5657C352.888 92.6976 352.16 91.7801 351.493 90.8189C349.156 87.6743 346.381 84.8809 343.252 82.524C339.982 80.0606 336.331 78.164 332.963 75.8205C330.957 74.4144 328.81 72.0818 331.251 69.9018C332 69.2711 332.896 68.8399 333.856 68.6483C339.797 67.3621 344.963 69.4004 350.773 70.8828C353.297 71.5126 355.765 72.3474 358.152 73.3789C359.327 73.8433 360.428 74.4748 361.422 75.2537C362.812 76.6551 363.952 78.2847 364.791 80.0715C367.33 84.6059 372.78 88.6607 376.595 92.2468C381.053 96.4433 385.043 100.291 390.133 104.913C394.711 109.087 399.191 112.924 403.387 117.48C406.865 121.241 405.567 124.184 405.11 125.208C402.276 131.029 399.104 133.122 395.3 136.73C388.76 142.975 366.142 160.949 358.654 166.89C357.045 168.154 355.781 169.803 354.98 171.686L353.542 175.01C344.996 176.58 339.295 163.751 346.37 148.305C347.541 145.808 349.331 143.651 351.569 142.038C360.507 135.531 378.012 122.145 378.012 122.145Z" fill="#FFA8A7"/>
<path d="M378.012 122.146C380.732 125.492 384.357 127.985 388.455 129.329C388.455 129.329 383.005 130.724 375.538 124.02L378.012 122.146Z" fill="#F28F8F"/>
<path d="M267.203 201.552L268.598 200.353C268.806 200.216 269.044 200.129 269.292 200.101C269.54 200.073 269.791 200.103 270.026 200.19L285.166 204.31C285.928 204.564 286.627 204.98 287.214 205.529C287.801 206.079 288.262 206.748 288.567 207.493L299.467 238.917C299.598 239.173 299.649 239.463 299.614 239.748C299.579 240.034 299.46 240.303 299.27 240.52L297.832 241.762C297.622 241.906 297.381 241.998 297.128 242.028C296.876 242.059 296.62 242.027 296.382 241.937L281.22 237.816C280.457 237.562 279.759 237.146 279.172 236.597C278.585 236.047 278.123 235.378 277.819 234.634C275.639 228.453 269.099 209.389 266.919 203.209C266.658 202.435 266.788 201.846 267.203 201.552Z" fill="#455A64"/>
<path d="M298.039 240.127L287.139 208.702C286.836 207.959 286.375 207.29 285.788 206.742C285.2 206.194 284.501 205.781 283.738 205.53L268.609 201.41C267.203 201.029 266.429 201.835 266.93 203.209C269.11 209.389 275.65 228.453 277.83 234.633C278.134 235.378 278.596 236.047 279.183 236.597C279.77 237.146 280.468 237.562 281.231 237.816L296.36 241.98C297.755 242.307 298.508 241.5 298.039 240.127Z" fill="#0F7275"/>
<path d="M285.384 206.402C286.171 206.999 286.781 207.797 287.15 208.713L298.05 240.127C298.175 240.377 298.227 240.656 298.2 240.934C298.173 241.211 298.068 241.476 297.897 241.697L299.249 240.541C299.442 240.327 299.566 240.059 299.603 239.772C299.64 239.486 299.589 239.195 299.456 238.939L288.556 207.514C288.211 206.66 287.652 205.909 286.932 205.334L285.384 206.402Z" fill="#37474F"/>
<path d="M271.356 215.874C272.446 219.068 276.228 221.205 282.485 222.687C288.741 224.169 292.197 230.807 291.205 232.824C290.213 234.84 280.098 236.726 276.054 236.148C272.01 235.571 267.955 229.728 266.723 227.919C265.492 226.11 264.075 213.487 265.372 211.754C266.669 210.021 269.405 210.294 269.405 210.294L271.356 215.874Z" fill="#F28F8F"/>
<g clip-path="url(#clip0_322_2924)">
<path d="M151.393 259.323C161.791 265.087 171.764 265.892 179.116 261.561C186.469 257.23 190.599 248.118 190.599 236.229C190.599 224.34 186.469 210.649 179.116 198.167C171.764 185.685 161.791 175.434 151.393 169.67C140.995 163.907 131.023 163.102 123.671 167.433C116.318 171.764 112.188 180.876 112.188 192.765C112.188 204.653 116.318 218.345 123.671 230.827C131.023 243.309 140.995 253.559 151.393 259.323ZM151.393 265.727C139.51 259.14 128.113 247.425 119.71 233.16C111.307 218.894 106.587 203.247 106.587 189.66C106.587 176.073 111.307 165.659 119.71 160.709C128.113 155.76 139.51 156.68 151.393 163.267C163.277 169.854 174.674 181.569 183.077 195.834C191.479 210.099 196.2 225.746 196.2 239.334C196.2 252.921 191.479 263.334 183.077 268.284C174.674 273.234 163.277 272.314 151.393 265.727Z" fill="#D45D5D"/>
<path d="M170.178 203.431C169.918 202.989 169.609 202.581 169.269 202.231C168.929 201.881 168.564 201.596 168.196 201.392C167.827 201.188 167.462 201.068 167.122 201.041C166.782 201.014 166.473 201.079 166.213 201.233L151.393 209.969L136.573 184.804C136.313 184.362 136.004 183.954 135.664 183.605C135.323 183.255 134.959 182.97 134.59 182.766C134.222 182.562 133.858 182.442 133.517 182.415C133.177 182.388 132.868 182.452 132.608 182.606C132.347 182.759 132.141 182.998 132 183.309C131.859 183.62 131.787 183.996 131.787 184.417C131.787 184.838 131.859 185.296 132 185.763C132.141 186.23 132.347 186.698 132.608 187.14L147.433 212.302L132.608 221.028C132.347 221.182 132.141 221.421 132 221.731C131.859 222.042 131.787 222.419 131.787 222.84C131.787 223.261 131.859 223.718 132 224.185C132.141 224.652 132.347 225.12 132.608 225.562C132.868 226.004 133.177 226.412 133.517 226.761C133.858 227.111 134.222 227.396 134.59 227.6C134.959 227.804 135.323 227.923 135.664 227.951C136.004 227.978 136.313 227.914 136.573 227.76L151.393 219.024L166.213 244.19C166.473 244.632 166.782 245.039 167.123 245.389C167.463 245.739 167.827 246.024 168.196 246.228C168.564 246.432 168.928 246.551 169.269 246.578C169.609 246.606 169.918 246.541 170.178 246.388C170.439 246.234 170.645 245.995 170.786 245.685C170.927 245.374 171 244.997 171 244.576C171 244.155 170.927 243.698 170.786 243.231C170.645 242.764 170.439 242.296 170.178 241.854L155.353 216.692L170.178 207.965C170.439 207.812 170.646 207.574 170.787 207.263C170.928 206.952 171.001 206.576 171.001 206.154C171.001 205.733 170.928 205.276 170.787 204.809C170.646 204.341 170.439 203.873 170.178 203.431Z" fill="#D45D5D"/>
</g>
<defs>
<clipPath id="clip0_322_2924">
<rect width="102.46" height="102.46" fill="white" transform="matrix(-0.87462 -0.48481 0 1 196.2 188.104)"/>
</clipPath>
</defs>
</svg>
