<svg width="100" height="100" viewBox="0 0 100 100" fill="none" xmlns="http://www.w3.org/2000/svg">
<path d="M80.9373 22.2518H77.1087L56.7341 14.1019C52.2014 12.2887 47.209 12.2887 42.6763 14.1019L22.3017 22.2518H19.0624C16.8141 22.2518 14.6516 23.2006 13.1292 24.8551C11.607 26.5095 10.8409 28.7435 11.0276 30.984L11.414 35.6201C11.5357 37.0814 12.2632 38.4436 13.4099 39.3576C14.4469 40.1839 15.7647 40.5925 17.0809 40.5103L14.9783 77.3041C14.829 79.9183 15.7369 82.4065 17.5349 84.3101C19.3328 86.2138 21.7652 87.2623 24.3836 87.2623H75.0268C77.6454 87.2623 80.0776 86.2139 81.8755 84.3103C83.6735 82.4067 84.5813 79.9185 84.4321 77.3043L82.2873 39.7721L82.3563 39.7894C83.9646 40.1917 85.6369 39.8371 86.9436 38.8167C88.2504 37.7964 88.9998 36.2602 88.9998 34.6022V30.3144C89 25.8686 85.383 22.2518 80.9373 22.2518ZM43.6219 16.4658C47.5446 14.8968 51.8657 14.8968 55.7885 16.4658L70.2532 22.2518H29.1572L43.6219 16.4658ZM81.8901 77.4493C81.999 79.357 81.3365 81.1727 80.0245 82.5618C78.7124 83.951 76.9376 84.716 75.0268 84.716H24.3836C22.4728 84.716 20.698 83.951 19.386 82.5618C18.074 81.1727 17.4114 79.357 17.5203 77.4493L19.6511 40.1615L30.867 38.5592C31.6666 38.4448 32.4795 38.4322 33.2824 38.5215L54.2951 40.8563C54.7446 40.9062 55.1939 40.9311 55.6422 40.9311C56.7161 40.9311 57.7833 40.788 58.8287 40.5029L69.0279 37.7212C70.61 37.2897 72.2869 37.272 73.8773 37.6696L79.7001 39.1252L81.8901 77.4493ZM86.4539 34.6022C86.4539 35.4706 86.0612 36.2753 85.3767 36.8097C84.6923 37.344 83.8166 37.5302 82.9739 37.3192L74.4948 35.1995C72.4821 34.6961 70.3598 34.7188 68.3581 35.2647L58.1589 38.0464C56.9881 38.3657 55.7829 38.4595 54.5766 38.3258L33.5635 35.991C33.1182 35.9414 32.6708 35.9168 32.2234 35.9168C31.6495 35.9168 31.0756 35.9576 30.507 36.0387L17.1383 37.9484C16.3673 38.0588 15.6062 37.8519 14.9967 37.3662C14.3871 36.8804 14.0159 36.1852 13.9512 35.4085L13.8506 34.2006L26.92 32.3336C30.3537 31.8431 33.8476 31.7292 37.305 31.9953L49.6076 32.9416C50.3097 32.9963 50.9205 32.4709 50.9745 31.7699C51.0283 31.0689 50.5038 30.457 49.8028 30.403L37.5002 29.4567C33.8578 29.1763 30.1768 29.2963 26.5598 29.8132L13.6387 31.6591L13.5649 30.7727C13.4352 29.2172 13.946 27.7279 15.0029 26.5793C16.0599 25.4305 17.5015 24.798 19.0624 24.798H80.9373C83.9791 24.798 86.4539 27.2728 86.4539 30.3146V34.6022Z" fill="#0F7275"/>
<path d="M82.8646 30.5337L80.1488 29.1758C79.5203 28.8614 78.7554 29.1162 78.4409 29.7451C78.1264 30.374 78.3813 31.1387 79.0102 31.453L81.726 32.8109C81.9088 32.9024 82.103 32.9455 82.2943 32.9455C82.7613 32.9455 83.2109 32.6875 83.4339 32.2416C83.7485 31.6127 83.4935 30.8481 82.8646 30.5337Z" fill="#0F7275"/>
<path d="M74.148 27.6834H74.0862C71.32 27.6834 68.5568 28.0236 65.8732 28.6946L64.3339 29.0794C63.6517 29.2499 63.237 29.9411 63.4074 30.6231C63.552 31.2016 64.0711 31.5878 64.6416 31.5878C64.7438 31.5878 64.8477 31.5754 64.9514 31.5494L66.4909 31.1644C68.9727 30.544 71.5281 30.2293 74.0864 30.2293H74.1482C74.8513 30.2293 75.4213 29.6594 75.4213 28.9563C75.4213 28.2532 74.8511 27.6834 74.148 27.6834Z" fill="#0F7275"/>
<path d="M74.6916 46.6815C74.7303 47.3588 75.2917 47.8819 75.9615 47.8819C75.9859 47.8819 76.0105 47.8812 76.0353 47.8799C76.7373 47.8398 77.2737 47.2383 77.2337 46.5362L77.0812 43.8689C77.0412 43.1671 76.4401 42.6304 75.7376 42.6706C75.0355 42.7106 74.4992 43.3122 74.5392 44.0142L74.6916 46.6815Z" fill="#0F7275"/>
<path d="M76.2005 50.7704C75.4984 50.8104 74.962 51.412 75.0021 52.114L76.0107 69.7658C76.0494 70.443 76.6107 70.9662 77.2805 70.9662C77.305 70.9662 77.3296 70.9655 77.3544 70.9641C78.0564 70.9241 78.5928 70.3225 78.5527 69.6205L77.5441 51.9687C77.5039 51.2669 76.9013 50.7315 76.2005 50.7704Z" fill="#0F7275"/>
<path d="M47.5337 69.5496C47.424 69.9619 46.7928 69.9115 46.6442 69.5106C46.5367 69.2174 46.4406 68.9654 46.34 68.7134C45.24 65.9667 42.6765 64.189 40.0352 64.3379C38.1668 64.4433 37.5036 65.6024 38.3864 67.2748C39.2988 69.0044 40.783 70.0536 42.6673 70.3376C43.8908 70.5232 45.1646 70.3903 46.6076 70.3766C46.7151 70.3766 46.7974 70.482 46.7654 70.5873C45.9375 73.3043 44.0852 75.2951 42.816 77.673C42.7291 77.8356 42.8892 78.0189 43.063 77.9639C43.3442 77.8746 43.5844 77.7325 43.7147 77.5241C44.7484 75.8724 45.7523 74.2 46.7036 72.4979C47.5292 71.0203 47.6275 70.9447 49.2306 71.4991C52.048 72.475 55.0849 71.7328 56.688 69.6779C57.9183 68.1018 57.5295 66.9128 55.6177 66.4019C53.1388 65.7399 50.1568 67.1648 48.5994 69.7535C48.4622 69.9803 48.2289 70.0055 48.0163 70.0788C47.8882 70.1246 48.0208 69.7603 48.0574 69.6298C48.4668 68.1796 49.0179 67.4489 49.4798 66.0033C49.8389 64.8762 50.1613 64.4982 51.442 65.032C54.2159 66.1866 57.557 65.2382 59.0755 63.1031C60.1594 61.5774 59.6746 60.3128 57.8314 59.9738C55.1146 59.4767 53.0107 60.5602 51.3505 62.6449C51.0418 63.0321 50.7856 63.4628 50.4586 63.992C50.3809 64.118 50.1842 64.0401 50.2139 63.8935C50.4746 62.6472 50.6461 61.5774 50.852 60.519C51.0944 59.2797 51.4534 58.9796 52.7066 59.259C55.3708 59.857 58.3848 58.4068 59.59 56.1458C60.5116 54.4116 59.8484 53.2203 57.9137 53.1424C55.4005 53.0416 53.0405 54.5811 51.8627 57.0965C51.7095 57.4218 51.5677 57.7517 51.4099 58.1113C51.3551 58.2396 51.147 58.203 51.1561 58.0655C51.2659 56.5077 51.4625 55.3119 52.4093 54.0496C53.9255 52.0268 54.1953 49.6145 52.8392 47.3237C52.471 46.7005 51.6318 45.9766 51.0166 45.9835C50.3969 45.9904 49.553 46.7212 49.2123 47.3557C47.8562 49.8665 48.3181 52.2994 49.9258 54.5536C50.8565 55.8571 50.9206 56.51 50.7376 57.967C50.717 58.1319 50.4746 58.148 50.4152 57.9922C50.294 57.6852 50.1819 57.3989 50.063 57.1148C48.8876 54.336 46.2005 52.611 43.5295 52.9179C42.0819 53.0852 41.4645 54.0336 42.0019 55.3829C42.7702 57.3118 44.2796 58.4916 46.2485 58.8444C47.4766 59.0643 48.7664 58.9269 50.2665 58.8971C50.5272 58.8925 50.5958 59.2567 50.5455 59.5133C50.2482 61.0138 50.095 62.3105 49.816 63.7239C49.7863 63.8751 49.5942 63.9347 49.489 63.8201C49.1505 63.4559 48.979 63.0894 48.7961 62.7297C47.4743 60.1456 44.8856 58.6428 42.2466 58.9246C40.4628 59.1147 39.8111 60.2945 40.6709 61.8271C41.5308 63.362 42.8914 64.3402 44.5791 64.5761C45.9947 64.7731 47.456 64.638 49.0202 64.6219C49.1688 64.6219 49.1986 64.9633 49.1528 65.1053C48.6497 66.6608 47.9957 67.8039 47.5292 69.545L47.5337 69.5496Z" stroke="#0F7275" stroke-width="2" stroke-miterlimit="10" stroke-linecap="round"/>
</svg>
