<svg width="48" height="48" viewBox="0 0 48 48" fill="none" xmlns="http://www.w3.org/2000/svg">
<path d="M11.9998 30.4002C11.9998 29.9578 11.6414 29.6002 11.1998 29.6002H3.99985C3.55826 29.6002 3.19986 29.9578 3.19986 30.4002C3.19986 30.8426 3.55826 31.2002 3.99985 31.2002H11.1998C11.6414 31.2002 11.9998 30.8426 11.9998 30.4002Z" fill="#0F7275"/>
<path d="M3.99985 34.4002H7.99982C8.44142 34.4002 8.79982 34.0426 8.79982 33.6002C8.79982 33.1578 8.44142 32.8002 7.99982 32.8002H3.99985C3.55826 32.8002 3.19986 33.1578 3.19986 33.6002C3.19986 34.0426 3.55826 34.4002 3.99985 34.4002Z" fill="#0F7275"/>
<path d="M21.5997 40.8001C21.5997 41.2425 21.9581 41.6001 22.3997 41.6001H27.1997C27.6421 41.6001 27.9997 41.2425 27.9997 40.8001C27.9997 40.3577 27.6421 40.0001 27.1997 40.0001H22.3997C21.9581 40.0001 21.5997 40.3577 21.5997 40.8001Z" fill="#0F7275"/>
<path d="M30.3997 43.2001H22.3997C21.9581 43.2001 21.5997 43.5577 21.5997 44.0001C21.5997 44.4425 21.9581 44.8001 22.3997 44.8001H30.3997C30.8421 44.8001 31.1997 44.4425 31.1997 44.0001C31.1997 43.5577 30.8421 43.2001 30.3997 43.2001Z" fill="#0F7275"/>
<path d="M3.19986 42.4C3.19986 43.7232 4.27665 44.8 5.59984 44.8H10.3998C10.8414 44.8 11.1998 44.4424 11.1998 44V40.8C11.1998 39.4768 10.123 38.4 8.79982 38.4H3.99985C3.55826 38.4 3.19986 38.7576 3.19986 39.2V42.4ZM4.79985 40H8.79982C9.24061 40 9.59981 40.3584 9.59981 40.8V43.2H5.59984C5.15904 43.2 4.79985 42.8416 4.79985 42.4V40Z" fill="#0F7275"/>
<path d="M31.1997 32.0002C31.1997 30.677 30.1229 29.6002 28.7997 29.6002H23.9998C23.5582 29.6002 23.1998 29.9578 23.1998 30.4002V33.6002C23.1998 34.9234 24.2766 36.0002 25.5997 36.0002H30.3997C30.8421 36.0002 31.1997 35.6426 31.1997 35.2002V32.0002ZM29.5997 34.4002H25.5997C25.1582 34.4002 24.7998 34.0418 24.7998 33.6002V31.2002H28.7997C29.2413 31.2002 29.5997 31.5586 29.5997 32.0002V34.4002Z" fill="#0F7275"/>
<path d="M43.1997 28.0001C42.7573 28.0001 42.3997 28.3577 42.3997 28.8001V46.4H40.7997V42.4C40.7997 41.9576 40.4421 41.6 39.9997 41.6H36.7997C36.3573 41.6 35.9997 41.9576 35.9997 42.4V46.4H34.3997V31.2001C34.3997 30.7577 34.0421 30.4001 33.5997 30.4001C33.1573 30.4001 32.7997 30.7577 32.7997 31.2001V46.4H19.9998V42.4C19.9998 41.9576 19.6414 41.6 19.1999 41.6H14.3999C13.9583 41.6 13.5999 41.9576 13.5999 42.4V46.4H1.59999V24.0001H13.5999V29.6001C13.5999 30.0425 13.9583 30.4001 14.3999 30.4001H19.1999C19.6414 30.4001 19.9998 30.0425 19.9998 29.6001V24.0001H21.5998C22.0414 24.0001 22.3998 23.6425 22.3998 23.2001C22.3998 22.7577 22.0414 22.4001 21.5998 22.4001H19.1999H14.3999H0.799994C0.358397 22.4001 0 22.7577 0 23.2001V47.2C0 47.6424 0.358397 48 0.799994 48H14.3999H19.1999H33.5997H36.7997H39.9997H43.1997C43.6421 48 43.9997 47.6424 43.9997 47.2V28.8001C43.9997 28.3577 43.6421 28.0001 43.1997 28.0001ZM15.1999 24.0001H18.3999V28.8001H15.1999V24.0001ZM18.3999 46.4H15.1999V43.2H18.3999V46.4ZM39.1997 46.4H37.5997V43.2H39.1997V46.4Z" fill="#0F7275"/>
<path d="M7.19993 20.8003C7.64152 20.8003 7.99992 20.4427 7.99992 20.0003C7.99992 19.7483 8.00792 19.4979 8.02312 19.2499C8.05032 18.8091 7.71512 18.4299 7.27433 18.4019C6.83913 18.3843 6.45353 18.7099 6.42633 19.1515C6.40873 19.4323 6.39993 19.7155 6.39993 20.0003C6.39993 20.4427 6.75833 20.8003 7.19993 20.8003Z" fill="#0F7275"/>
<path d="M7.86716 15.8331C7.96716 15.8747 8.07116 15.8939 8.17355 15.8939C8.48715 15.8939 8.78475 15.7091 8.91275 15.4011C9.03995 15.0947 9.17915 14.7947 9.33035 14.502C9.53274 14.1092 9.37915 13.6268 8.98635 13.4236C8.59435 13.222 8.11115 13.3748 7.90876 13.7676C7.73756 14.0996 7.57916 14.4404 7.43516 14.7867C7.26636 15.1955 7.45916 15.6635 7.86716 15.8331Z" fill="#0F7275"/>
<path d="M15.5966 8.7787C15.6886 8.7787 15.7814 8.7627 15.8726 8.7291C16.1806 8.6155 16.495 8.5147 16.8142 8.4283C17.2406 8.3123 17.4918 7.87311 17.3758 7.44591C17.2598 7.01951 16.8206 6.76671 16.3934 6.88431C16.0294 6.98351 15.6718 7.09871 15.3206 7.22751C14.9054 7.37951 14.6934 7.83951 14.8454 8.2539C14.9646 8.5779 15.2702 8.7787 15.5966 8.7787Z" fill="#0F7275"/>
<path d="M11.1424 11.5603C11.3416 11.5603 11.5408 11.4859 11.696 11.3379C11.9344 11.1091 12.1824 10.8899 12.44 10.6819C12.7832 10.4027 12.8352 9.89871 12.556 9.55631C12.2776 9.21312 11.7736 9.16192 11.4304 9.43951C11.14 9.67631 10.8592 9.92431 10.5888 10.1835C10.2696 10.4891 10.2592 10.9955 10.5648 11.3147C10.7216 11.4779 10.932 11.5603 11.1424 11.5603Z" fill="#0F7275"/>
<path d="M20.7999 8.00038H21.5999C22.0415 8.00038 22.3999 7.64278 22.3999 7.20038C22.3999 6.75799 22.0415 6.40039 21.5999 6.40039H20.7999C20.3583 6.40039 19.9999 6.75799 19.9999 7.20038C19.9999 7.64278 20.3583 8.00038 20.7999 8.00038Z" fill="#0F7275"/>
<path d="M45.2544 13.9639C45.2544 19.6775 40.6226 24.3093 34.909 24.3093C29.1954 24.3093 24.5637 19.6775 24.5637 13.9639C24.5637 8.25031 29.1954 3.61853 34.909 3.61853C40.6226 3.61853 45.2544 8.25031 45.2544 13.9639Z" stroke="#0F7275" stroke-width="2"/>
</svg>
