<svg width="55" height="42" viewBox="0 0 55 42" fill="none" xmlns="http://www.w3.org/2000/svg">
<path d="M55 5.15625C55 3.78873 54.4568 2.47722 53.4898 1.51023C52.5228 0.543246 51.2113 0 49.8438 0H18.9062C17.5387 0 16.2272 0.543246 15.2602 1.51023C14.2932 2.47722 13.75 3.78873 13.75 5.15625V10.3125H10.2437C9.47121 10.3132 8.7087 10.4875 8.01256 10.8224C7.31643 11.1574 6.70446 11.6445 6.22188 12.2478L1.13094 18.6072C0.398441 19.5222 -0.000450134 20.6595 0 21.8316V29.2187C0 30.5863 0.543247 31.8978 1.51023 32.8648C2.47721 33.8318 3.78873 34.375 5.15625 34.375H6.875C6.875 36.1984 7.59933 37.947 8.88864 39.2364C10.178 40.5257 11.9266 41.25 13.75 41.25C15.5734 41.25 17.322 40.5257 18.6114 39.2364C19.9007 37.947 20.625 36.1984 20.625 34.375H37.8125C37.8105 35.2914 37.9918 36.1989 38.3456 37.0442C38.6994 37.8896 39.2186 38.6556 39.8728 39.2974C40.5269 39.9392 41.3028 40.4437 42.1547 40.7813C43.0066 41.1189 43.9174 41.2828 44.8336 41.2633C45.7498 41.2438 46.6528 41.0414 47.4896 40.6679C48.3265 40.2943 49.0802 39.7573 49.7064 39.0883C50.3327 38.4193 50.8189 37.6319 51.1365 36.7723C51.454 35.9127 51.5965 34.9983 51.5556 34.0828C52.5626 33.7284 53.4348 33.0701 54.0518 32.1988C54.6687 31.3276 55.0001 30.2863 55 29.2187L55 5.15625ZM50.5519 30.7862C49.9304 29.7687 49.0548 28.9304 48.0112 28.3537C46.9676 27.7771 45.792 27.4818 44.5997 27.4971C43.4075 27.5124 42.2398 27.8376 41.2113 28.4408C40.1828 29.044 39.329 29.9044 38.7338 30.9375H19.7038C19.0991 29.8934 18.2316 29.0259 17.1875 28.4212V5.15625C17.1875 4.70041 17.3686 4.26324 17.6909 3.94091C18.0132 3.61858 18.4504 3.4375 18.9062 3.4375H49.8438C50.2996 3.4375 50.7368 3.61858 51.0591 3.94091C51.3814 4.26324 51.5625 4.70041 51.5625 5.15625V29.2187C51.5628 29.5496 51.4676 29.8734 51.2883 30.1515C51.109 30.4295 50.8533 30.6499 50.5519 30.7862ZM13.75 27.5C12.5432 27.5 11.3577 27.8177 10.3126 28.4211C9.2675 29.0245 8.39964 29.8924 7.79625 30.9375H5.15625C4.70041 30.9375 4.26324 30.7564 3.94091 30.4341C3.61858 30.1118 3.4375 29.6746 3.4375 29.2187V21.8281C3.43819 21.4381 3.57154 21.0599 3.81562 20.7556L8.90313 14.3962C9.06387 14.1949 9.26781 14.0324 9.49986 13.9205C9.73191 13.8086 9.98614 13.7504 10.2437 13.75H13.75V27.5ZM44.6875 30.9375C45.5992 30.9375 46.4735 31.2997 47.1182 31.9443C47.7628 32.589 48.125 33.4633 48.125 34.375C48.125 35.2867 47.7628 36.161 47.1182 36.8057C46.4735 37.4503 45.5992 37.8125 44.6875 37.8125C43.7758 37.8125 42.9015 37.4503 42.2568 36.8057C41.6122 36.161 41.25 35.2867 41.25 34.375C41.25 33.4633 41.6122 32.589 42.2568 31.9443C42.9015 31.2997 43.7758 30.9375 44.6875 30.9375ZM13.75 30.9375C14.6617 30.9375 15.536 31.2997 16.1807 31.9443C16.8253 32.589 17.1875 33.4633 17.1875 34.375C17.1875 35.2867 16.8253 36.161 16.1807 36.8057C15.536 37.4503 14.6617 37.8125 13.75 37.8125C12.8383 37.8125 11.964 37.4503 11.3193 36.8057C10.6747 36.161 10.3125 35.2867 10.3125 34.375C10.3125 33.4633 10.6747 32.589 11.3193 31.9443C11.964 31.2997 12.8383 30.9375 13.75 30.9375Z" fill="#0F7275"/>
</svg>
