<svg width="53" height="53" viewBox="0 0 53 53" fill="none" xmlns="http://www.w3.org/2000/svg">
<path fill-rule="evenodd" clip-rule="evenodd" d="M11.5938 33.1476C11.1545 33.1476 10.7333 33.3221 10.4227 33.6327C10.1121 33.9433 9.93756 34.3646 9.93756 34.8038C9.93756 35.2431 10.1121 35.6643 10.4227 35.975C10.7333 36.2856 11.1545 36.4601 11.5938 36.4601H16.5626C17.0018 36.4601 17.4231 36.2856 17.7337 35.975C18.0443 35.6643 18.2188 35.2431 18.2188 34.8038C18.2188 34.3646 18.0443 33.9433 17.7337 33.6327C17.4231 33.3221 17.0018 33.1476 16.5626 33.1476H11.5938Z" fill="#0F7275"/>
<path fill-rule="evenodd" clip-rule="evenodd" d="M9.93753 3.33514C9.65172 3.33499 9.37074 3.40877 9.12189 3.54935C8.87305 3.68993 8.66481 3.89251 8.51743 4.13739L3.54868 12.4186C3.5344 12.4559 3.52146 12.4937 3.50991 12.5319C3.45891 12.6406 3.41989 12.7545 3.3935 12.8716C3.36355 12.9708 3.34297 13.0726 3.33204 13.1756C3.32462 13.2078 3.31817 13.2402 3.31268 13.2727V41.429C3.31273 41.8682 3.48721 42.2895 3.79781 42.6001C4.10841 42.9107 4.52968 43.0852 4.96893 43.0852H30.3853C31.7563 46.9361 35.4419 49.7102 39.7502 49.7102C45.2189 49.7102 49.6877 45.2415 49.6877 39.7727C49.6877 34.8688 46.0921 30.772 41.4064 29.9776V13.2727C41.4033 13.2587 41.4 13.2446 41.3965 13.2306C41.3932 13.037 41.356 12.8454 41.2865 12.6645C41.2772 12.645 41.2675 12.6256 41.2574 12.6064C41.2322 12.5421 41.2031 12.4795 41.1701 12.4188L36.2013 4.13754C36.054 3.89265 35.8458 3.69006 35.5969 3.54945C35.3481 3.40885 35.0671 3.33502 34.7813 3.33514H9.93753ZM10.8756 6.64764H17.8629L16.8957 11.6164H7.8931L10.8756 6.64764ZM21.2401 6.64764H25.1446L26.1442 11.6164H20.2729L21.2401 6.64764ZM28.5251 6.64764H33.8432L36.8257 11.6164H29.5246L28.5251 6.64764ZM6.62503 14.9289H16.5625V28.1789C16.5627 28.5064 16.6599 28.8265 16.8419 29.0988C17.0239 29.371 17.2825 29.5833 17.5851 29.7086C17.8877 29.8339 18.2206 29.8667 18.5418 29.8029C18.863 29.7391 19.1581 29.5814 19.3898 29.3499L23.1875 25.5522L26.9853 29.3499C27.2169 29.5814 27.512 29.7391 27.8333 29.8029C28.1545 29.8667 28.4874 29.8339 28.79 29.7086C29.0925 29.5833 29.3512 29.371 29.5332 29.0988C29.7152 28.8265 29.8124 28.5064 29.8125 28.1789V14.9289H38.0938V29.9775C33.4081 30.7719 29.8125 34.8687 29.8125 39.7726H6.62503V14.9289ZM19.875 14.9289H26.5V24.1806L24.3586 22.0391C24.0479 21.7286 23.6267 21.5542 23.1875 21.5542C22.7483 21.5542 22.3271 21.7286 22.0165 22.0391L19.875 24.1806V14.9289ZM39.75 33.1476C43.4285 33.1476 46.375 36.0941 46.375 39.7726C46.375 43.4511 43.4285 46.3976 39.75 46.3976C36.6026 46.3976 33.9914 44.2396 33.3029 41.3124C33.2931 41.1658 33.2637 41.0211 33.2157 40.8822C33.1555 40.5212 33.125 40.1516 33.125 39.7726C33.125 36.0941 36.0715 33.1476 39.75 33.1476Z" fill="#0F7275"/>
<path d="M39 37V40.1858C39 40.451 39.1054 40.7054 39.2929 40.8929L41.4 43" stroke="#0F7275" stroke-width="3" stroke-linecap="round"/>
</svg>
