<svg width="35" height="35" viewBox="0 0 35 35" fill="none" xmlns="http://www.w3.org/2000/svg">
<g clip-path="url(#clip0_277_4487)">
<path d="M34.9316 7.6875C34.9316 6.84212 34.5958 6.03137 33.998 5.4336C33.4003 4.83582 32.5895 4.5 31.7441 4.5H12.6191C11.7738 4.5 10.963 4.83582 10.3652 5.4336C9.76747 6.03137 9.43164 6.84212 9.43164 7.6875V10.875H7.26414C6.78657 10.8754 6.3152 10.9832 5.88486 11.1902C5.45452 11.3973 5.07621 11.6984 4.77789 12.0714L1.63077 16.0026C1.17795 16.5683 0.931362 17.2713 0.931641 17.9959V22.5625C0.931641 23.4079 1.26746 24.2186 1.86524 24.8164C2.46301 25.4142 3.27376 25.75 4.11914 25.75H5.18164C5.18164 26.8772 5.62941 27.9582 6.42644 28.7552C7.22347 29.5522 8.30447 30 9.43164 30C10.5588 30 11.6398 29.5522 12.4368 28.7552C13.2339 27.9582 13.6816 26.8772 13.6816 25.75H24.3066C24.3054 26.3165 24.4175 26.8775 24.6362 27.4001C24.8549 27.9226 25.1759 28.3962 25.5803 28.7929C25.9846 29.1897 26.4643 29.5015 26.9909 29.7102C27.5175 29.9189 28.0806 30.0203 28.647 30.0082C29.2133 29.9962 29.7716 29.871 30.2889 29.6401C30.8062 29.4092 31.2721 29.0772 31.6593 28.6637C32.0464 28.2501 32.347 27.7634 32.5433 27.232C32.7396 26.7006 32.8277 26.1353 32.8024 25.5694C33.4249 25.3503 33.9641 24.9433 34.3455 24.4047C34.7269 23.8661 34.9317 23.2225 34.9316 22.5625V7.6875ZM32.1819 23.5315C31.7977 22.9025 31.2564 22.3843 30.6113 22.0278C29.9662 21.6713 29.2394 21.4888 28.5024 21.4982C27.7654 21.5076 27.0435 21.7087 26.4077 22.0816C25.7719 22.4545 25.2441 22.9864 24.8761 23.625H13.1121C12.7383 22.9796 12.2021 22.4433 11.5566 22.0695V7.6875C11.5566 7.40571 11.6686 7.13546 11.8678 6.9362C12.0671 6.73694 12.3373 6.625 12.6191 6.625H31.7441C32.0259 6.625 32.2962 6.73694 32.4954 6.9362C32.6947 7.13546 32.8066 7.40571 32.8066 7.6875V22.5625C32.8068 22.767 32.7479 22.9672 32.6371 23.1391C32.5263 23.311 32.3682 23.4472 32.1819 23.5315ZM9.43164 21.5C8.68563 21.5 7.95276 21.6964 7.3067 22.0694C6.66064 22.4424 6.12415 22.9789 5.75114 23.625H4.11914C3.83735 23.625 3.5671 23.5131 3.36784 23.3138C3.16858 23.1145 3.05664 22.8443 3.05664 22.5625V17.9937C3.05707 17.7526 3.1395 17.5188 3.29039 17.3307L6.43539 13.3995C6.53476 13.2751 6.66083 13.1745 6.80428 13.1054C6.94773 13.0362 7.10489 13.0002 7.26414 13H9.43164V21.5ZM28.5566 23.625C29.1202 23.625 29.6607 23.8489 30.0592 24.2474C30.4578 24.6459 30.6816 25.1864 30.6816 25.75C30.6816 26.3136 30.4578 26.8541 30.0592 27.2526C29.6607 27.6511 29.1202 27.875 28.5566 27.875C27.9931 27.875 27.4526 27.6511 27.054 27.2526C26.6555 26.8541 26.4316 26.3136 26.4316 25.75C26.4316 25.1864 26.6555 24.6459 27.054 24.2474C27.4526 23.8489 27.9931 23.625 28.5566 23.625ZM9.43164 23.625C9.99523 23.625 10.5357 23.8489 10.9342 24.2474C11.3328 24.6459 11.5566 25.1864 11.5566 25.75C11.5566 26.3136 11.3328 26.8541 10.9342 27.2526C10.5357 27.6511 9.99523 27.875 9.43164 27.875C8.86806 27.875 8.32755 27.6511 7.92904 27.2526C7.53053 26.8541 7.30664 26.3136 7.30664 25.75C7.30664 25.1864 7.53053 24.6459 7.92904 24.2474C8.32755 23.8489 8.86806 23.625 9.43164 23.625Z" fill="#417579"/>
</g>
<defs>
<clipPath id="clip0_277_4487">
<rect width="34" height="34" fill="white" transform="matrix(-1 0 0 1 34.9316 0.25)"/>
</clipPath>
</defs>
</svg>
