<svg width="53" height="53" viewBox="0 0 53 53" fill="none" xmlns="http://www.w3.org/2000/svg">
<path fill-rule="evenodd" clip-rule="evenodd" d="M43.0625 36.046C42.6233 36.0461 42.202 36.2206 41.8915 36.5312L38.9219 39.5009L37.6085 38.1875C37.2979 37.877 36.8767 37.7025 36.4375 37.7025C35.9983 37.7025 35.5771 37.877 35.2665 38.1875C34.9559 38.4981 34.7815 38.9193 34.7815 39.3585C34.7815 39.7977 34.9559 40.2189 35.2665 40.5295L37.7508 43.0139C38.0615 43.3244 38.4827 43.4988 38.9219 43.4988C39.3611 43.4988 39.7823 43.3244 40.0929 43.0139L44.2335 38.8733C44.544 38.5627 44.7185 38.1415 44.7185 37.7023C44.7185 37.2631 44.544 36.8418 44.2335 36.5312C43.923 36.2206 43.5017 36.0461 43.0625 36.046Z" fill="#0F7275"/>
<path fill-rule="evenodd" clip-rule="evenodd" d="M11.5938 33.1476C11.1545 33.1476 10.7332 33.3221 10.4226 33.6327C10.112 33.9433 9.9375 34.3646 9.9375 34.8038C9.9375 35.2431 10.112 35.6643 10.4226 35.975C10.7332 36.2856 11.1545 36.4601 11.5938 36.4601H16.5625C17.0018 36.4601 17.423 36.2856 17.7336 35.975C18.0442 35.6643 18.2188 35.2431 18.2188 34.8038C18.2188 34.3646 18.0442 33.9433 17.7336 33.6327C17.423 33.3221 17.0018 33.1476 16.5625 33.1476H11.5938Z" fill="#0F7275"/>
<path fill-rule="evenodd" clip-rule="evenodd" d="M9.93747 3.33514C9.65166 3.33499 9.37067 3.40877 9.12183 3.54935C8.87299 3.68993 8.66475 3.89251 8.51737 4.13739L3.54862 12.4186C3.53434 12.4559 3.5214 12.4937 3.50985 12.5319C3.45884 12.6406 3.41983 12.7545 3.39344 12.8716C3.36349 12.9708 3.3429 13.0726 3.33198 13.1756C3.32456 13.2078 3.31811 13.2402 3.31262 13.2727V41.429C3.31267 41.8682 3.48715 42.2895 3.79775 42.6001C4.10835 42.9107 4.52962 43.0852 4.96887 43.0852H30.3852C31.7562 46.9361 35.4419 49.7102 39.7501 49.7102C45.2188 49.7102 49.6876 45.2415 49.6876 39.7727C49.6876 34.8688 46.092 30.772 41.4064 29.9776V13.2727C41.4032 13.2587 41.3999 13.2446 41.3964 13.2306C41.3931 13.037 41.3559 12.8454 41.2864 12.6645C41.2771 12.645 41.2674 12.6256 41.2573 12.6064C41.2322 12.5421 41.203 12.4795 41.17 12.4188L36.2013 4.13754C36.0539 3.89265 35.8457 3.69006 35.5969 3.54945C35.348 3.40885 35.067 3.33502 34.7812 3.33514H9.93747ZM10.8756 6.64764H17.8629L16.8957 11.6164H7.89304L10.8756 6.64764ZM21.2401 6.64764H25.1446L26.1441 11.6164H20.2729L21.2401 6.64764ZM28.525 6.64764H33.8431L36.8257 11.6164H29.5246L28.525 6.64764ZM6.62497 14.9289H16.5625V28.1789C16.5626 28.5064 16.6598 28.8265 16.8418 29.0988C17.0238 29.371 17.2825 29.5833 17.585 29.7086C17.8876 29.8339 18.2205 29.8667 18.5418 29.8029C18.863 29.7391 19.1581 29.5814 19.3897 29.3499L23.1875 25.5522L26.9852 29.3499C27.2169 29.5814 27.512 29.7391 27.8332 29.8029C28.1544 29.8667 28.4873 29.8339 28.7899 29.7086C29.0925 29.5833 29.3511 29.371 29.5331 29.0988C29.7151 28.8265 29.8123 28.5064 29.8125 28.1789V14.9289H38.0937V29.9775C33.4081 30.7719 29.8125 34.8687 29.8125 39.7726H6.62497V14.9289ZM19.875 14.9289H26.5V24.1806L24.3585 22.0391C24.0479 21.7286 23.6267 21.5542 23.1875 21.5542C22.7483 21.5542 22.3271 21.7286 22.0164 22.0391L19.875 24.1806V14.9289ZM39.75 33.1476C43.4285 33.1476 46.375 36.0941 46.375 39.7726C46.375 43.4511 43.4285 46.3976 39.75 46.3976C36.6025 46.3976 33.9913 44.2396 33.3029 41.3124C33.293 41.1658 33.2637 41.0211 33.2156 40.8822C33.1554 40.5212 33.125 40.1516 33.125 39.7726C33.125 36.0941 36.0715 33.1476 39.75 33.1476Z" fill="#0F7275"/>
</svg>
