<svg width="20" height="21" viewBox="0 0 20 21" fill="none" xmlns="http://www.w3.org/2000/svg">
<g clip-path="url(#clip0_522_5465)">
<path d="M5.80088 6.36576V6.5V10C5.80088 10.1838 5.90468 10.3267 6.04242 10.3727C6.19157 10.4224 6.37234 10.3711 6.47174 10.2717L6.47795 10.2655L6.48491 10.2602L7.91823 9.16019L7.99872 9.09842L8.0801 9.15899L9.51342 10.2257L9.52128 10.2315L9.5282 10.2384C9.60937 10.3196 9.71027 10.3658 9.79996 10.3658C9.87 10.3658 9.90551 10.3638 9.93993 10.3467L5.80088 6.36576ZM5.80088 6.36576H5.66664M5.80088 6.36576H5.66664M5.66664 6.36576H3.33332C2.6925 6.36576 2.19908 6.85918 2.19908 7.5V17.8333V17.9676H2.33332H13.6666H13.8008V17.8333V7.5C13.8008 6.85918 13.3074 6.36576 12.6666 6.36576H10.3333H10.199M5.66664 6.36576H10.199M10.199 6.36576V6.5M10.199 6.36576V6.5M10.199 6.5V9.96672C10.199 10.1377 10.1057 10.2638 9.93996 10.3466L10.199 6.5ZM18.1324 17.8334V17.9676H18.2667H19.6C19.6695 17.9676 19.717 17.9902 19.7467 18.0199C19.7765 18.0497 19.7991 18.0972 19.7991 18.1667L19.7991 18.6667H19.7989L19.7994 18.6751C19.8617 19.6723 19.2149 20.3658 18.3334 20.3658H1.66668C0.785738 20.3658 0.134237 19.6713 0.134237 18.6666V18.1666C0.134237 18.0971 0.156815 18.0497 0.18658 18.0199C0.216345 17.9901 0.263822 17.9676 0.33332 17.9676H1.66664H1.80088V17.8333V7.5C1.80088 6.64078 2.47414 5.96756 3.33332 5.96756H5.66668H5.80092V5.83332C5.80092 5.76382 5.82349 5.71635 5.85326 5.68658C5.88303 5.65682 5.9305 5.63424 6 5.63424H10C10.0695 5.63424 10.117 5.65682 10.1468 5.68658C10.1765 5.71635 10.1991 5.76382 10.1991 5.83332V5.96756H10.3334H12.6667C13.5259 5.96756 14.1991 6.64081 14.1991 7.5V17.8334V17.9676H14.3334H15.6667H15.8009V17.8334V6.19758V6.11408L15.726 6.07717C14.7854 5.61366 14.1342 4.63882 14.1342 3.5C14.1342 1.90746 15.4075 0.634237 17 0.634237C18.5925 0.634237 19.8658 1.90746 19.8658 3.5C19.8658 4.64751 19.1871 5.63032 18.2096 6.0894L18.1324 6.12564V6.2109V17.8334ZM17.9045 5.78625L17.9157 5.78377L17.9263 5.77943C18.8273 5.41059 19.4676 4.53601 19.4676 3.5C19.4676 2.12586 18.3741 1.03244 17 1.03244C15.6259 1.03244 14.5324 2.12586 14.5324 3.5C14.5324 4.87287 15.6246 5.96756 16.9666 5.96756C17.2377 5.96756 17.499 5.92441 17.7441 5.84552L17.7441 5.84558L17.7482 5.84412C17.7918 5.82853 17.8363 5.81163 17.8807 5.79241C17.8877 5.79028 17.8956 5.78823 17.9045 5.78625ZM9.76756 6.16668V6.03244H9.63332H6.33328H6.19904V6.16668V9.66668V9.93515L6.41382 9.77407L7.8805 8.67407L7.88051 8.67407C7.92982 8.63708 7.96893 8.62592 7.99996 8.62592C8.03099 8.62592 8.0701 8.63708 8.11941 8.67407L8.11942 8.67407L9.5861 9.77407L9.80088 9.93515V9.66668V6.31207V6.27891L9.78543 6.24956C9.77472 6.2292 9.76756 6.2048 9.76756 6.16668ZM19.4676 18.6667V18.6666L19.4675 18.4999L19.4675 18.3657H19.3333H18C17.9305 18.3657 17.883 18.3431 17.8532 18.3134C17.8235 18.2836 17.8009 18.2361 17.8009 18.1666V6.43332V6.26458L17.6365 6.30252C17.223 6.39794 16.777 6.39794 16.3635 6.30252L16.1991 6.26458V6.43332V18.1667C16.1991 18.2362 16.1765 18.2837 16.1467 18.3134C16.117 18.3432 16.0695 18.3658 16 18.3658H14H2H0.66668H0.532442V18.5V18.6667C0.532442 18.9867 0.612119 19.3093 0.796789 19.5556C0.985232 19.8068 1.27542 19.9676 1.66668 19.9676H18.3333C18.7246 19.9676 19.0148 19.8068 19.2032 19.5556C19.3879 19.3093 19.4676 18.9867 19.4676 18.6667Z" fill="#0F7275" stroke="#0F7275" stroke-width="0.268475"/>
<path d="M18 4.83336C18.1 4.83336 18.1667 4.80004 18.2333 4.73336C18.3667 4.60004 18.3667 4.40004 18.2333 4.26668L17.2333 3.26668C17.1 3.13336 16.9 3.13336 16.7667 3.26668C16.6333 3.4 16.6333 3.6 16.7667 3.73336L17.7667 4.73336C17.8333 4.80004 17.9 4.83336 18 4.83336Z" fill="#0F7275"/>
<path d="M6.3333 14.8333H3.3333C3.1333 14.8333 2.99998 14.9666 2.99998 15.1666V16.8333C2.99998 17.0333 3.1333 17.1666 3.3333 17.1666H6.3333C6.5333 17.1666 6.66663 17.0333 6.66663 16.8333V15.1666C6.66666 14.9667 6.5333 14.8333 6.3333 14.8333ZM5.99998 16.5H3.66666V15.5H5.99998V16.5Z" fill="#0F7275"/>
</g>
<defs>
<clipPath id="clip0_522_5465">
<rect width="20" height="20" fill="white" transform="translate(0 0.5)"/>
</clipPath>
</defs>
</svg>
