<svg width="31" height="44" viewBox="0 0 31 44" fill="none" xmlns="http://www.w3.org/2000/svg">
<path d="M13.2663 31.7238C13.1251 32.2535 12.313 32.1887 12.1217 31.6738C11.9834 31.2972 11.8599 30.9736 11.7304 30.6499C10.3152 27.1221 7.01685 24.8389 3.61849 25.0301C1.21464 25.1655 0.36137 26.6543 1.4971 28.8021C2.67107 31.0236 4.58063 32.3712 7.00508 32.736C8.57921 32.9743 10.2181 32.8037 12.0747 32.786C12.2129 32.786 12.3189 32.9214 12.2777 33.0567C11.2126 36.5463 8.8293 39.1031 7.19633 42.1572C7.08452 42.3661 7.29048 42.6015 7.5141 42.5309C7.876 42.4162 8.18494 42.2337 8.35265 41.966C9.68257 39.8446 10.9742 37.6967 12.1982 35.5106C13.2604 33.6128 13.3869 33.5157 15.4495 34.2277C19.0744 35.4812 22.9818 34.5279 25.0443 31.8886C26.6273 29.8643 26.1271 28.3373 23.6673 27.6811C20.4779 26.8308 16.6411 28.6609 14.6374 31.9857C14.4609 32.277 14.1607 32.3094 13.8871 32.4035C13.7223 32.4624 13.893 31.9945 13.9401 31.8268C14.4667 29.9644 15.1758 29.0258 15.7702 27.1692C16.2321 25.7216 16.647 25.2361 18.2947 25.9216C21.8637 27.4046 26.1624 26.1864 28.1161 23.4442C29.5107 21.4846 28.887 19.8605 26.5155 19.425C23.02 18.7866 20.3131 20.1783 18.177 22.8558C17.7798 23.353 17.4502 23.9062 17.0295 24.5858C16.9295 24.7477 16.6764 24.6476 16.7147 24.4593C17.0501 22.8587 17.2708 21.4846 17.5356 20.1253C17.8474 18.5335 18.3094 18.1481 19.9218 18.507C23.3495 19.275 27.2275 17.4125 28.7781 14.5085C29.9638 12.2811 29.1106 10.7511 26.6214 10.6511C23.3878 10.5216 20.3513 12.4989 18.8361 15.7295C18.6389 16.1473 18.4565 16.571 18.2535 17.033C18.1829 17.1977 17.9151 17.1506 17.9269 16.9741C18.0681 14.9733 18.3212 13.4375 19.5393 11.8163C21.49 9.21821 21.8372 6.11997 20.0924 3.17767C19.6187 2.37736 18.5389 1.4476 17.7474 1.45642C16.95 1.46525 15.8643 2.40384 15.4259 3.21886C13.6812 6.44362 14.2755 9.56834 16.3439 12.4636C17.5414 14.1377 17.6238 14.9763 17.3885 16.8476C17.362 17.0594 17.0501 17.08 16.9736 16.88C16.8176 16.4857 16.6735 16.1179 16.5205 15.753C15.0081 12.184 11.5509 9.96849 8.11433 10.3628C6.25185 10.5775 5.45743 11.7957 6.14887 13.5287C7.13748 16.0061 9.0794 17.5214 11.6127 17.9745C13.1927 18.2569 14.8522 18.0804 16.7823 18.0422C17.1178 18.0363 17.206 18.5041 17.1413 18.8336C16.7588 20.7608 16.5617 22.4262 16.2027 24.2416C16.1645 24.4358 15.9173 24.5123 15.782 24.3652C15.3465 23.8973 15.1258 23.4266 14.8904 22.9646C13.1898 19.6457 9.85911 17.7156 6.4637 18.0775C4.1687 18.3217 3.33015 19.837 4.43645 21.8054C5.54276 23.7767 7.29342 25.0331 9.46484 25.3361C11.2861 25.5892 13.1663 25.4156 15.1788 25.395C15.37 25.395 15.4083 25.8334 15.3494 26.0158C14.7021 28.0136 13.8606 29.4818 13.2604 31.718L13.2663 31.7238Z" stroke="#0F7275" stroke-width="1.76538" stroke-miterlimit="10" stroke-linecap="round"/>
</svg>
