<svg width="200" height="200" viewBox="0 0 200 200" fill="none" xmlns="http://www.w3.org/2000/svg">
<path d="M45.1532 171.869C45.4519 172.851 46.9389 173.225 50.3283 173.325C56.1137 173.492 61.9186 173.379 67.704 173.345L151.186 172.878C153.978 172.864 155.816 169.784 154.459 167.272C152.342 163.343 151.134 158.847 150.596 154.364C149.777 147.555 150.349 140.667 150.667 133.818C151.589 114.108 150.076 93.276 139.648 76.7196C134.057 67.84 125.993 60.5707 116.552 56.3815C108.916 52.994 100.274 51.6444 92.1702 53.5686C84.6771 55.3459 78.0151 59.7823 72.1842 64.947C67.3923 69.1897 62.9704 74.0871 60.3992 80.0268C57.3019 87.1893 57.1136 95.2737 57.0682 103.111C57.0032 115.084 57.1591 127.104 55.5358 138.956C54.2501 148.357 51.8022 157.718 47.4064 166.11C45.8805 169.023 44.8221 170.8 45.1467 171.869H45.1532Z" stroke="#79B2B7" stroke-opacity="0.3" stroke-width="5.9545" stroke-miterlimit="10" stroke-linecap="round"/>
<path d="M79.0801 30.589L92.0801 48.589" stroke="#79B2B7" stroke-opacity="0.3" stroke-width="5.9545" stroke-miterlimit="10" stroke-linecap="round"/>
<path d="M95.0801 29.9459C95.6465 31.9285 97.4564 33.5957 99.9369 33.5957C103.863 33.5957 111.298 27.8845 112.502 27.31C115.132 26.0539 119.787 26.3637 121.141 28.8363C122.496 31.3089 123.107 32.4016 117.801 36.992C112.502 41.5767 109.071 48.589 109.071 48.589" stroke="#79B2B7" stroke-opacity="0.3" stroke-width="5.9545" stroke-miterlimit="10" stroke-linecap="round"/>
<path d="M98.4426 132.529C98.1893 133.497 96.7479 133.384 96.4102 132.435C96.1635 131.747 95.9427 131.152 95.7155 130.564C93.1961 124.103 87.3263 119.928 81.2812 120.275C77.0022 120.522 75.4893 123.248 77.5086 127.177C79.593 131.246 82.9954 133.711 87.3068 134.379C90.1119 134.814 93.0208 134.5 96.3258 134.466C96.5725 134.466 96.7609 134.713 96.6894 134.961C94.7934 141.348 90.5534 146.032 87.651 151.624C87.4497 152.005 87.8198 152.439 88.2159 152.305C88.8587 152.092 89.4041 151.764 89.7028 151.27C92.0728 147.388 94.3714 143.453 96.5466 139.45C98.4361 135.976 98.6633 135.796 102.332 137.105C108.78 139.397 115.734 137.66 119.402 132.823C122.214 129.121 121.331 126.322 116.955 125.119C111.28 123.562 104.449 126.916 100.891 133.003C100.579 133.537 100.04 133.598 99.5594 133.771C99.2672 133.878 99.5659 133.023 99.6503 132.716C100.585 129.308 101.851 127.584 102.903 124.19C103.722 121.544 104.468 120.649 107.397 121.905C113.747 124.625 121.396 122.393 124.87 117.369C127.35 113.781 126.24 110.807 122.019 110.012C115.799 108.843 110.987 111.389 107.182 116.293C106.475 117.208 105.89 118.217 105.144 119.46C104.962 119.76 104.514 119.573 104.585 119.233C105.182 116.306 105.572 113.787 106.046 111.302C106.598 108.389 107.423 107.681 110.293 108.342C116.39 109.745 123.292 106.338 126.051 101.019C128.162 96.9436 126.642 94.1441 122.214 93.9571C116.461 93.7232 111.059 97.3445 108.358 103.258C108.007 104.026 107.682 104.801 107.325 105.649C107.195 105.95 106.721 105.87 106.741 105.543C106.994 101.881 107.442 99.0683 109.611 96.1018C113.085 91.3446 113.695 85.6788 110.591 80.287C109.747 78.8238 107.825 77.12 106.416 77.1401C104.994 77.1534 103.066 78.8772 102.287 80.3672C99.1828 86.2735 100.235 91.9927 103.923 97.2911C106.053 100.358 106.195 101.895 105.78 105.315C105.734 105.703 105.176 105.736 105.04 105.376C104.767 104.654 104.507 103.979 104.234 103.311C101.546 96.7766 95.3908 92.721 89.2807 93.4426C85.9692 93.8368 84.5537 96.0684 85.7874 99.2353C87.5471 103.765 91.0014 106.545 95.5077 107.373C98.3192 107.888 101.274 107.567 104.702 107.493C105.299 107.48 105.455 108.342 105.338 108.943C104.657 112.471 104.306 115.518 103.67 118.845C103.598 119.199 103.163 119.34 102.923 119.072C102.144 118.217 101.754 117.355 101.332 116.507C98.3062 110.427 92.378 106.899 86.3393 107.56C82.2551 108.008 80.7682 110.781 82.7356 114.389C84.7031 117.997 87.8198 120.295 91.6832 120.85C94.9233 121.311 98.2673 120.997 101.851 120.956C102.196 120.956 102.261 121.758 102.157 122.092C101.007 125.747 99.5075 128.44 98.4426 132.529Z" stroke="#79B2B7" stroke-opacity="0.3" stroke-width="5.9545" stroke-miterlimit="10"/>
</svg>
