<svg width="96" height="136" viewBox="0 0 96 136" fill="none" xmlns="http://www.w3.org/2000/svg">
<path d="M42.0814 98.7661C41.6383 100.442 39.0905 100.237 38.4905 98.6078C38.0566 97.4162 37.6689 96.3922 37.2628 95.3682C32.8227 84.2062 22.4747 76.9821 11.8129 77.5872C4.27121 78.0154 1.59422 82.726 5.15739 89.5218C8.84055 96.5504 14.8315 100.814 22.4378 101.969C27.3764 102.723 32.518 102.183 38.3428 102.127C38.7767 102.127 39.109 102.555 38.9797 102.983C35.6381 114.024 28.161 122.114 23.0378 131.777C22.687 132.438 23.3332 133.183 24.0348 132.96C25.1702 132.596 26.1394 132.019 26.6656 131.172C30.838 124.46 34.8904 117.664 38.7305 110.747C42.0629 104.743 42.4598 104.436 48.9307 106.688C60.3033 110.654 72.5621 107.638 79.033 99.2874C83.9993 92.8825 82.43 88.051 74.7129 85.975C64.7065 83.2845 52.6693 89.075 46.383 99.5946C45.8291 100.516 44.8876 100.619 44.0291 100.917C43.5122 101.103 44.0476 99.6225 44.1953 99.0919C45.8476 93.1991 48.0723 90.2294 49.9369 84.3551C51.3862 79.7749 52.6878 78.2388 57.8571 80.4079C69.0543 85.0999 82.5408 81.2458 88.6702 72.5694C93.0457 66.3693 91.0887 61.2306 83.6485 59.8528C72.6821 57.8326 64.1896 62.236 57.4879 70.7075C56.2417 72.2808 55.2078 74.031 53.8878 76.1815C53.5739 76.6935 52.7801 76.377 52.9001 75.7812C53.9524 70.7168 54.6447 66.3693 55.4755 62.0684C56.454 57.032 57.9033 55.8125 62.9619 56.9482C73.716 59.378 85.8824 53.4851 90.7471 44.2967C94.4672 37.2495 91.7903 32.4086 83.9808 32.0921C73.836 31.6825 64.3096 37.9384 59.5556 48.1601C58.9371 49.4821 58.3648 50.8226 57.7279 52.2842C57.5063 52.8055 56.6663 52.6566 56.7032 52.098C57.1463 45.7676 57.9402 40.9081 61.7618 35.7786C67.882 27.5584 68.9712 17.7556 63.4973 8.44621C62.0111 5.91405 58.6233 2.97227 56.1402 3.0002C53.6386 3.02813 50.2323 5.99783 48.8569 8.57654C43.3829 18.7796 45.2476 28.6662 51.737 37.8267C55.494 43.1238 55.7525 45.7769 55.014 51.6977C54.9309 52.368 53.9524 52.4332 53.7124 51.8001C53.2232 50.5527 52.7708 49.389 52.2908 48.2346C47.5461 36.9423 36.6997 29.9323 25.9179 31.1798C20.0747 31.8594 17.5823 35.7135 19.7516 41.1967C22.8532 49.0352 28.9457 53.8296 36.8935 55.2632C41.8506 56.1569 47.0569 55.5984 53.1124 55.4773C54.1647 55.4587 54.4417 56.9389 54.2386 57.9816C53.0385 64.0792 52.4201 69.3484 51.2939 75.0923C51.1739 75.7067 50.3985 75.9487 49.9738 75.4832C48.6077 74.0031 47.9153 72.5136 47.1769 71.052C41.8413 60.551 31.3919 54.444 20.7393 55.5891C13.5391 56.3617 10.9083 61.1561 14.3791 67.3841C17.85 73.6214 23.3424 77.5965 30.1549 78.5554C35.8689 79.356 41.7675 78.8067 48.0815 78.7415C48.6815 78.7415 48.8015 80.1286 48.6169 80.7058C46.5861 87.0269 43.946 91.6723 42.0629 98.7475L42.0814 98.7661Z" stroke="#0F7275" stroke-width="5.92501" stroke-miterlimit="10" stroke-linecap="round"/>
</svg>
