<svg width="45" height="65" viewBox="0 0 45 65" fill="none" xmlns="http://www.w3.org/2000/svg">
<path d="M19.7654 46.6155C19.5555 47.4029 18.3481 47.3066 18.0638 46.5411C17.8582 45.9812 17.6744 45.5 17.4819 45.0188C15.3778 39.7737 10.474 36.3791 5.42141 36.6635C1.84743 36.8647 0.578825 39.0782 2.26739 42.2716C4.01282 45.5743 6.85188 47.5779 10.4565 48.1203C12.7968 48.4746 15.2334 48.2209 17.9938 48.1947C18.1994 48.1947 18.3569 48.3959 18.2956 48.5971C16.712 53.7853 13.1687 57.5868 10.7408 62.1275C10.5746 62.4381 10.8808 62.7881 11.2133 62.6831C11.7513 62.5125 12.2107 62.2412 12.46 61.8432C14.4373 58.6891 16.3577 55.4957 18.1775 52.2455C19.7567 49.4239 19.9448 49.2796 23.0113 50.3382C28.4007 52.2017 34.2101 50.7844 37.2766 46.8605C39.6301 43.8508 38.8865 41.5804 35.2294 40.6049C30.4874 39.3407 24.783 42.0616 21.804 47.0048C21.5415 47.4379 21.0953 47.486 20.6885 47.626C20.4435 47.7135 20.6972 47.0179 20.7672 46.7686C21.5502 43.9995 22.6045 42.604 23.4882 39.8437C24.175 37.6915 24.7918 36.9697 27.2415 37.9889C32.5478 40.1937 38.9389 38.3826 41.8436 34.3056C43.9171 31.3922 42.9897 28.9774 39.4639 28.33C34.267 27.3807 30.2424 29.4499 27.0665 33.4307C26.476 34.17 25.986 34.9924 25.3605 36.0029C25.2117 36.2435 24.8355 36.0948 24.8924 35.8148C25.3911 33.4351 25.7192 31.3922 26.1129 29.3711C26.5766 27.0045 27.2634 26.4315 29.6606 26.9652C34.7569 28.1069 40.5225 25.3378 42.8279 21.0202C44.5908 17.7087 43.3222 15.4339 39.6214 15.2852C34.8138 15.0927 30.2993 18.0324 28.0464 22.8356C27.7533 23.4568 27.4821 24.0867 27.1802 24.7735C27.0753 25.0185 26.6772 24.9485 26.6947 24.686C26.9047 21.7114 27.2809 19.4279 29.0919 17.0175C31.9922 13.1548 32.5084 8.54845 29.9143 4.17393C29.21 2.98406 27.6046 1.60172 26.4278 1.61484C25.2423 1.62796 23.6281 3.02344 22.9763 4.23518C20.3823 9.02964 21.2659 13.6754 24.3412 17.9799C26.1216 20.469 26.2441 21.7157 25.8941 24.4979C25.8548 24.8129 25.3911 24.8435 25.2773 24.546C25.0455 23.9599 24.8311 23.413 24.6037 22.8706C22.3552 17.5643 17.2151 14.2703 12.1057 14.8565C9.3366 15.1758 8.15548 16.9869 9.1835 19.5635C10.6533 23.2468 13.5405 25.4997 17.307 26.1734C19.6561 26.5933 22.1233 26.3308 24.993 26.274C25.4917 26.2652 25.6229 26.9608 25.5267 27.4507C24.958 30.316 24.6649 32.792 24.1312 35.4911C24.0743 35.7798 23.7069 35.8935 23.5057 35.6748C22.8582 34.9793 22.5301 34.2793 22.1802 33.5925C19.6517 28.6581 14.6998 25.7884 9.65157 26.3265C6.23945 26.6896 4.99271 28.9424 6.63753 31.869C8.28235 34.7999 10.8852 36.6678 14.1136 37.1184C16.8214 37.4946 19.6167 37.2365 22.6089 37.2059C22.8932 37.2059 22.9501 37.8577 22.8626 38.1289C21.9002 41.0992 20.6491 43.2821 19.7567 46.6067L19.7654 46.6155Z" stroke="#417579" stroke-width="2.62471" stroke-miterlimit="10" stroke-linecap="round"/>
</svg>
