<svg width="36" height="35" viewBox="0 0 36 35" fill="none" xmlns="http://www.w3.org/2000/svg">
<path d="M19.3375 24.6002C19.2637 24.8749 18.8438 24.841 18.7458 24.5748C18.6744 24.38 18.6103 24.2118 18.5437 24.0448C17.8116 22.2177 16.1031 21.0354 14.3436 21.1359C13.0985 21.2061 12.6581 21.9757 13.2449 23.0889C13.8524 24.2397 14.8422 24.9366 16.097 25.1266C16.9126 25.25 17.7608 25.1605 18.7216 25.152C18.7942 25.152 18.8487 25.2222 18.8269 25.2912C18.2751 27.099 17.0421 28.4216 16.1962 30.0043C16.1381 30.112 16.2446 30.2342 16.3608 30.1967C16.5471 30.1362 16.7069 30.043 16.794 29.9051C17.4825 28.8064 18.1517 27.6943 18.7845 26.5617C19.3339 25.5792 19.4004 25.5284 20.4689 25.8974C22.3457 26.546 24.3689 26.0535 25.4374 24.6874C26.2566 23.6395 25.9976 22.8481 24.7246 22.5093C23.0729 22.0688 20.8706 22.9267 19.8336 24.6486C19.7429 24.7987 19.3121 25.365 19.1717 25.4146C19.0858 25.4449 19.6642 24.7442 19.6884 24.6571C19.9607 23.6927 20.3285 23.2063 20.6359 22.2455C20.8743 21.4965 21.0909 21.2448 21.9427 21.5993C23.7905 22.3677 26.017 21.7373 27.0286 20.3167C27.751 19.3027 27.4279 18.4605 26.1997 18.2354C24.3907 17.9051 22.9882 18.625 21.8822 20.0117C21.6765 20.2695 21.5059 20.5563 21.2881 20.9084C21.2361 20.9931 21.1054 20.9399 21.126 20.843C21.3002 20.0142 21.4127 19.3039 21.5507 18.5996C21.7128 17.7756 21.9512 17.5747 22.7861 17.7623C24.5613 18.1592 26.57 17.196 27.371 15.6907C27.9857 14.5375 27.5428 13.7449 26.2554 13.6941C24.5819 13.6275 23.0088 14.6512 22.2235 16.3235C22.1218 16.5401 21.8472 17.081 21.7431 17.3206C21.7056 17.4053 21.5168 17.7223 21.5241 17.6304C21.5979 16.5946 21.9585 15.1365 22.5889 14.2979C23.5993 12.9535 23.7784 11.349 22.8745 9.82557C22.6288 9.41052 22.0698 8.93013 21.6608 8.93497C21.247 8.93981 20.6855 9.42625 20.458 9.84735C19.5541 11.5172 19.8615 13.135 20.9336 14.6343C21.5543 15.5007 21.5955 15.9363 21.4745 16.9043C21.4611 17.0145 21.299 17.0241 21.2591 16.9201C21.1792 16.7156 21.1042 16.5256 21.0243 16.3368C20.2414 14.4891 18.4505 13.342 16.6718 13.5465C15.7086 13.6578 15.2972 14.2894 15.6541 15.1849C16.166 16.4675 17.1715 17.2528 18.4832 17.4864C19.3012 17.6328 20.1603 17.5408 21.1598 17.5215C21.3329 17.5178 21.3789 17.7611 21.345 17.9305C21.1477 18.9275 21.0328 20.1799 20.8464 21.1201C20.8259 21.2206 20.7109 20.8709 20.6407 20.7946C20.4145 20.5526 20.3007 20.3094 20.1785 20.0698C19.2976 18.3504 17.5733 17.3521 15.8151 17.5396C14.6268 17.6655 14.1936 18.4508 14.766 19.4709C15.3395 20.4921 16.2458 21.1419 17.37 21.298C18.3126 21.4287 19.2855 21.3392 20.3285 21.3283C20.4278 21.3283 20.4483 21.5546 20.4169 21.6489C20.0829 22.6823 19.6461 23.4434 19.3351 24.6002H19.3375Z" stroke="#FDFDFD" stroke-width="0.800594" stroke-miterlimit="10" stroke-linecap="round"/>
<path d="M14.754 19.4455C12.0677 20.0638 9.23372 18.2959 8.95541 15.3567C8.7981 13.6978 9.40676 12.04 10.3276 10.6521C11.2458 9.26934 12.4603 8.1152 13.6664 6.97562C13.667 6.97503 13.6676 6.97443 13.6681 6.97376V6.97376C13.6739 6.96658 13.6856 6.96818 13.6911 6.97563C14.6897 8.33594 15.8852 9.36673 16.88 10.6811C17.5298 11.539 18.0162 12.6087 18.2365 13.705" stroke="#FDFDFD" stroke-width="0.886266" stroke-miterlimit="10"/>
<path d="M17.7476 17.2832C17.6617 17.4296 17.5661 17.5712 17.4633 17.7067" stroke="#FDFDFD" stroke-width="0.599707" stroke-miterlimit="10"/>
</svg>

